M48
; DRILL file {KiCad (6.0.9)} date Sun Dec  4 21:04:14 2022
; FORMAT={-:-/ absolute / metric / decimal}
; #@! TF.CreationDate,2022-12-04T21:04:14+01:00
; #@! TF.GenerationSoftware,Kicad,Pcbnew,(6.0.9)
; #@! TF.FileFunction,Plated,1,2,PTH
FMAT,2
METRIC
; #@! TA.AperFunction,Plated,PTH,ViaDrill
T1C0.400
; #@! TA.AperFunction,Plated,PTH,ComponentDrill
T2C1.016
; #@! TA.AperFunction,Plated,PTH,ComponentDrill
T3C1.500
%
G90
G05
T1
X58.42Y-65.405
X58.42Y-103.505
X63.5Y-85.09
X63.5Y-123.19
X64.135Y-144.145
X73.66Y-67.31
X73.66Y-105.41
X73.66Y-143.51
X77.47Y-65.405
X77.47Y-103.505
X77.47Y-141.605
X78.74Y-86.995
X78.74Y-125.095
X82.55Y-85.09
X82.55Y-123.19
X92.71Y-67.31
X92.71Y-105.41
X92.71Y-143.51
X96.52Y-65.405
X96.52Y-103.505
X96.52Y-141.605
X97.79Y-86.995
X97.79Y-125.095
X101.6Y-85.09
X101.6Y-123.19
X111.76Y-67.31
X111.76Y-105.41
X111.76Y-143.51
X113.03Y-85.09
X113.03Y-123.19
X113.665Y-103.505
X113.665Y-141.605
X114.935Y-64.135
X116.84Y-86.995
X116.84Y-125.095
X117.475Y-88.9
X117.475Y-102.235
X117.475Y-127.0
X125.095Y-66.04
X141.605Y-92.075
X141.605Y-102.235
X141.605Y-127.0
T2
X129.54Y-57.15
X129.54Y-59.69
X129.54Y-62.23
X129.54Y-64.77
X129.54Y-67.31
X129.54Y-69.85
X129.54Y-72.39
X129.54Y-74.93
X129.54Y-77.47
X129.54Y-80.01
X129.54Y-82.55
X129.54Y-85.09
X130.81Y-106.92
X133.35Y-106.92
X135.89Y-106.92
X138.43Y-106.92
X144.78Y-57.15
X144.78Y-59.69
X144.78Y-62.23
X144.78Y-64.77
X144.78Y-67.31
X144.78Y-69.85
X144.78Y-72.39
X144.78Y-74.93
X144.78Y-77.47
X144.78Y-80.01
X144.78Y-82.55
X144.78Y-85.09
T3
X64.77Y-58.42
X64.77Y-77.47
X64.77Y-96.52
X64.77Y-115.57
X64.77Y-134.62
X71.12Y-55.88
X71.12Y-74.93
X71.12Y-93.98
X71.12Y-113.03
X71.12Y-132.08
X83.82Y-58.42
X83.82Y-77.47
X83.82Y-96.52
X83.82Y-115.57
X83.82Y-134.62
X90.17Y-55.88
X90.17Y-74.93
X90.17Y-93.98
X90.17Y-113.03
X90.17Y-132.08
X102.87Y-58.42
X102.87Y-77.47
X102.87Y-96.52
X102.87Y-115.57
X102.87Y-134.62
X109.22Y-55.88
X109.22Y-74.93
X109.22Y-93.98
X109.22Y-113.03
X109.22Y-132.08
T0
M30
