M48
; DRILL file {KiCad (6.0.9)} date Thu Dec  8 18:09:42 2022
; FORMAT={-:-/ absolute / metric / decimal}
; #@! TF.CreationDate,2022-12-08T18:09:42+01:00
; #@! TF.GenerationSoftware,Kicad,Pcbnew,(6.0.9)
; #@! TF.FileFunction,NonPlated,1,2,NPTH
FMAT,2
METRIC
; #@! TA.AperFunction,NonPlated,NPTH,ComponentDrill
T1C1.700
; #@! TA.AperFunction,NonPlated,NPTH,ComponentDrill
T2C2.700
; #@! TA.AperFunction,NonPlated,NPTH,ComponentDrill
T3C3.200
; #@! TA.AperFunction,NonPlated,NPTH,ComponentDrill
T4C4.000
%
G90
G05
T1
X63.5Y-60.96
X63.5Y-80.01
X63.5Y-99.06
X63.5Y-118.11
X63.5Y-137.16
X73.66Y-60.96
X73.66Y-80.01
X73.66Y-99.06
X73.66Y-118.11
X73.66Y-137.16
X82.55Y-60.96
X82.55Y-80.01
X82.55Y-99.06
X82.55Y-118.11
X82.55Y-137.16
X92.71Y-60.96
X92.71Y-80.01
X92.71Y-99.06
X92.71Y-118.11
X92.71Y-137.16
X101.6Y-60.96
X101.6Y-80.01
X101.6Y-99.06
X101.6Y-118.11
X101.6Y-137.16
X111.76Y-60.96
X111.76Y-80.01
X111.76Y-99.06
X111.76Y-118.11
X111.76Y-137.16
T2
X119.22Y-107.32
X119.22Y-136.22
X150.02Y-107.32
X150.02Y-136.22
T3
X57.15Y-54.61
X57.15Y-99.06
X57.15Y-143.51
X119.38Y-54.61
X119.38Y-143.51
X149.51Y-54.61
X149.51Y-99.06
X149.51Y-143.51
T4
X68.58Y-60.96
X68.58Y-80.01
X68.58Y-99.06
X68.58Y-118.11
X68.58Y-137.16
X87.63Y-60.96
X87.63Y-80.01
X87.63Y-99.06
X87.63Y-118.11
X87.63Y-137.16
X106.68Y-60.96
X106.68Y-80.01
X106.68Y-99.06
X106.68Y-118.11
X106.68Y-137.16
T0
M30
