%TF.GenerationSoftware,KiCad,Pcbnew,(6.0.10)*%
%TF.CreationDate,2023-02-05T13:22:51+01:00*%
%TF.ProjectId,FireKey,46697265-4b65-4792-9e6b-696361645f70,1.2.1*%
%TF.SameCoordinates,Original*%
%TF.FileFunction,Legend,Bot*%
%TF.FilePolarity,Positive*%
%FSLAX46Y46*%
G04 Gerber Fmt 4.6, Leading zero omitted, Abs format (unit mm)*
G04 Created by KiCad (PCBNEW (6.0.10)) date 2023-02-05 13:22:51*
%MOMM*%
%LPD*%
G01*
G04 APERTURE LIST*
G04 Aperture macros list*
%AMRoundRect*
0 Rectangle with rounded corners*
0 $1 Rounding radius*
0 $2 $3 $4 $5 $6 $7 $8 $9 X,Y pos of 4 corners*
0 Add a 4 corners polygon primitive as box body*
4,1,4,$2,$3,$4,$5,$6,$7,$8,$9,$2,$3,0*
0 Add four circle primitives for the rounded corners*
1,1,$1+$1,$2,$3*
1,1,$1+$1,$4,$5*
1,1,$1+$1,$6,$7*
1,1,$1+$1,$8,$9*
0 Add four rect primitives between the rounded corners*
20,1,$1+$1,$2,$3,$4,$5,0*
20,1,$1+$1,$4,$5,$6,$7,0*
20,1,$1+$1,$6,$7,$8,$9,0*
20,1,$1+$1,$8,$9,$2,$3,0*%
G04 Aperture macros list end*
%ADD10C,0.250000*%
%ADD11C,0.160000*%
%ADD12C,0.300000*%
%ADD13C,0.480000*%
%ADD14C,0.200000*%
%ADD15C,0.150000*%
%ADD16C,0.120000*%
%ADD17C,2.700000*%
%ADD18C,1.700000*%
%ADD19C,4.000000*%
%ADD20C,2.200000*%
%ADD21C,1.778000*%
%ADD22RoundRect,0.237500X0.300000X0.237500X-0.300000X0.237500X-0.300000X-0.237500X0.300000X-0.237500X0*%
%ADD23RoundRect,0.237500X-0.300000X-0.237500X0.300000X-0.237500X0.300000X0.237500X-0.300000X0.237500X0*%
%ADD24R,1.200000X0.900000*%
%ADD25R,1.500000X0.820000*%
%ADD26RoundRect,0.237500X0.250000X0.237500X-0.250000X0.237500X-0.250000X-0.237500X0.250000X-0.237500X0*%
G04 APERTURE END LIST*
D10*
X164131880Y-41469226D02*
X164131880Y-40219226D01*
X163596166Y-40338273D02*
X163536642Y-40278750D01*
X163417595Y-40219226D01*
X163119976Y-40219226D01*
X163000928Y-40278750D01*
X162941404Y-40338273D01*
X162881880Y-40457321D01*
X162881880Y-40576369D01*
X162941404Y-40754940D01*
X163655690Y-41469226D01*
X162881880Y-41469226D01*
X161631880Y-41350178D02*
X161691404Y-41409702D01*
X161869976Y-41469226D01*
X161989023Y-41469226D01*
X162167595Y-41409702D01*
X162286642Y-41290654D01*
X162346166Y-41171607D01*
X162405690Y-40933511D01*
X162405690Y-40754940D01*
X162346166Y-40516845D01*
X162286642Y-40397797D01*
X162167595Y-40278750D01*
X161989023Y-40219226D01*
X161869976Y-40219226D01*
X161691404Y-40278750D01*
X161631880Y-40338273D01*
X163893785Y-42231726D02*
X163774738Y-42231726D01*
X163655690Y-42291250D01*
X163596166Y-42350773D01*
X163536642Y-42469821D01*
X163477119Y-42707916D01*
X163477119Y-43005535D01*
X163536642Y-43243630D01*
X163596166Y-43362678D01*
X163655690Y-43422202D01*
X163774738Y-43481726D01*
X163893785Y-43481726D01*
X164012833Y-43422202D01*
X164072357Y-43362678D01*
X164131880Y-43243630D01*
X164191404Y-43005535D01*
X164191404Y-42707916D01*
X164131880Y-42469821D01*
X164072357Y-42350773D01*
X164012833Y-42291250D01*
X163893785Y-42231726D01*
X163060452Y-43481726D02*
X162405690Y-42648392D01*
X163060452Y-42648392D02*
X162405690Y-43481726D01*
X162048547Y-42231726D02*
X161274738Y-42231726D01*
X161691404Y-42707916D01*
X161512833Y-42707916D01*
X161393785Y-42767440D01*
X161334261Y-42826964D01*
X161274738Y-42946011D01*
X161274738Y-43243630D01*
X161334261Y-43362678D01*
X161393785Y-43422202D01*
X161512833Y-43481726D01*
X161869976Y-43481726D01*
X161989023Y-43422202D01*
X162048547Y-43362678D01*
X160024738Y-43362678D02*
X160084261Y-43422202D01*
X160262833Y-43481726D01*
X160381880Y-43481726D01*
X160560452Y-43422202D01*
X160679500Y-43303154D01*
X160739023Y-43184107D01*
X160798547Y-42946011D01*
X160798547Y-42767440D01*
X160739023Y-42529345D01*
X160679500Y-42410297D01*
X160560452Y-42291250D01*
X160381880Y-42231726D01*
X160262833Y-42231726D01*
X160084261Y-42291250D01*
X160024738Y-42350773D01*
D11*
X212455333Y-43544285D02*
X212355333Y-43587142D01*
X212188666Y-43587142D01*
X212122000Y-43544285D01*
X212088666Y-43501428D01*
X212055333Y-43415714D01*
X212055333Y-43330000D01*
X212088666Y-43244285D01*
X212122000Y-43201428D01*
X212188666Y-43158571D01*
X212322000Y-43115714D01*
X212388666Y-43072857D01*
X212422000Y-43030000D01*
X212455333Y-42944285D01*
X212455333Y-42858571D01*
X212422000Y-42772857D01*
X212388666Y-42730000D01*
X212322000Y-42687142D01*
X212155333Y-42687142D01*
X212055333Y-42730000D01*
X211755333Y-43587142D02*
X211755333Y-42687142D01*
X211588666Y-42687142D01*
X211488666Y-42730000D01*
X211422000Y-42815714D01*
X211388666Y-42901428D01*
X211355333Y-43072857D01*
X211355333Y-43201428D01*
X211388666Y-43372857D01*
X211422000Y-43458571D01*
X211488666Y-43544285D01*
X211588666Y-43587142D01*
X211755333Y-43587142D01*
X211088666Y-43330000D02*
X210755333Y-43330000D01*
X211155333Y-43587142D02*
X210922000Y-42687142D01*
X210688666Y-43587142D01*
X209955333Y-43544285D02*
X209855333Y-43587142D01*
X209688666Y-43587142D01*
X209622000Y-43544285D01*
X209588666Y-43501428D01*
X209555333Y-43415714D01*
X209555333Y-43330000D01*
X209588666Y-43244285D01*
X209622000Y-43201428D01*
X209688666Y-43158571D01*
X209822000Y-43115714D01*
X209888666Y-43072857D01*
X209922000Y-43030000D01*
X209955333Y-42944285D01*
X209955333Y-42858571D01*
X209922000Y-42772857D01*
X209888666Y-42730000D01*
X209822000Y-42687142D01*
X209655333Y-42687142D01*
X209555333Y-42730000D01*
X208855333Y-43501428D02*
X208888666Y-43544285D01*
X208988666Y-43587142D01*
X209055333Y-43587142D01*
X209155333Y-43544285D01*
X209222000Y-43458571D01*
X209255333Y-43372857D01*
X209288666Y-43201428D01*
X209288666Y-43072857D01*
X209255333Y-42901428D01*
X209222000Y-42815714D01*
X209155333Y-42730000D01*
X209055333Y-42687142D01*
X208988666Y-42687142D01*
X208888666Y-42730000D01*
X208855333Y-42772857D01*
X208222000Y-43587142D02*
X208555333Y-43587142D01*
X208555333Y-42687142D01*
X207555333Y-42687142D02*
X207322000Y-43587142D01*
X207088666Y-42687142D01*
X206455333Y-43501428D02*
X206488666Y-43544285D01*
X206588666Y-43587142D01*
X206655333Y-43587142D01*
X206755333Y-43544285D01*
X206822000Y-43458571D01*
X206855333Y-43372857D01*
X206888666Y-43201428D01*
X206888666Y-43072857D01*
X206855333Y-42901428D01*
X206822000Y-42815714D01*
X206755333Y-42730000D01*
X206655333Y-42687142D01*
X206588666Y-42687142D01*
X206488666Y-42730000D01*
X206455333Y-42772857D01*
X205755333Y-43501428D02*
X205788666Y-43544285D01*
X205888666Y-43587142D01*
X205955333Y-43587142D01*
X206055333Y-43544285D01*
X206122000Y-43458571D01*
X206155333Y-43372857D01*
X206188666Y-43201428D01*
X206188666Y-43072857D01*
X206155333Y-42901428D01*
X206122000Y-42815714D01*
X206055333Y-42730000D01*
X205955333Y-42687142D01*
X205888666Y-42687142D01*
X205788666Y-42730000D01*
X205755333Y-42772857D01*
X204555333Y-42730000D02*
X204622000Y-42687142D01*
X204722000Y-42687142D01*
X204822000Y-42730000D01*
X204888666Y-42815714D01*
X204922000Y-42901428D01*
X204955333Y-43072857D01*
X204955333Y-43201428D01*
X204922000Y-43372857D01*
X204888666Y-43458571D01*
X204822000Y-43544285D01*
X204722000Y-43587142D01*
X204655333Y-43587142D01*
X204555333Y-43544285D01*
X204522000Y-43501428D01*
X204522000Y-43201428D01*
X204655333Y-43201428D01*
X204222000Y-43587142D02*
X204222000Y-42687142D01*
X203822000Y-43587142D01*
X203822000Y-42687142D01*
X203488666Y-43587142D02*
X203488666Y-42687142D01*
X203322000Y-42687142D01*
X203222000Y-42730000D01*
X203155333Y-42815714D01*
X203122000Y-42901428D01*
X203088666Y-43072857D01*
X203088666Y-43201428D01*
X203122000Y-43372857D01*
X203155333Y-43458571D01*
X203222000Y-43544285D01*
X203322000Y-43587142D01*
X203488666Y-43587142D01*
X175625333Y-43544285D02*
X175525333Y-43587142D01*
X175358666Y-43587142D01*
X175292000Y-43544285D01*
X175258666Y-43501428D01*
X175225333Y-43415714D01*
X175225333Y-43330000D01*
X175258666Y-43244285D01*
X175292000Y-43201428D01*
X175358666Y-43158571D01*
X175492000Y-43115714D01*
X175558666Y-43072857D01*
X175592000Y-43030000D01*
X175625333Y-42944285D01*
X175625333Y-42858571D01*
X175592000Y-42772857D01*
X175558666Y-42730000D01*
X175492000Y-42687142D01*
X175325333Y-42687142D01*
X175225333Y-42730000D01*
X174925333Y-43587142D02*
X174925333Y-42687142D01*
X174758666Y-42687142D01*
X174658666Y-42730000D01*
X174592000Y-42815714D01*
X174558666Y-42901428D01*
X174525333Y-43072857D01*
X174525333Y-43201428D01*
X174558666Y-43372857D01*
X174592000Y-43458571D01*
X174658666Y-43544285D01*
X174758666Y-43587142D01*
X174925333Y-43587142D01*
X174258666Y-43330000D02*
X173925333Y-43330000D01*
X174325333Y-43587142D02*
X174092000Y-42687142D01*
X173858666Y-43587142D01*
X173125333Y-43544285D02*
X173025333Y-43587142D01*
X172858666Y-43587142D01*
X172792000Y-43544285D01*
X172758666Y-43501428D01*
X172725333Y-43415714D01*
X172725333Y-43330000D01*
X172758666Y-43244285D01*
X172792000Y-43201428D01*
X172858666Y-43158571D01*
X172992000Y-43115714D01*
X173058666Y-43072857D01*
X173092000Y-43030000D01*
X173125333Y-42944285D01*
X173125333Y-42858571D01*
X173092000Y-42772857D01*
X173058666Y-42730000D01*
X172992000Y-42687142D01*
X172825333Y-42687142D01*
X172725333Y-42730000D01*
X172025333Y-43501428D02*
X172058666Y-43544285D01*
X172158666Y-43587142D01*
X172225333Y-43587142D01*
X172325333Y-43544285D01*
X172392000Y-43458571D01*
X172425333Y-43372857D01*
X172458666Y-43201428D01*
X172458666Y-43072857D01*
X172425333Y-42901428D01*
X172392000Y-42815714D01*
X172325333Y-42730000D01*
X172225333Y-42687142D01*
X172158666Y-42687142D01*
X172058666Y-42730000D01*
X172025333Y-42772857D01*
X171392000Y-43587142D02*
X171725333Y-43587142D01*
X171725333Y-42687142D01*
X170725333Y-42687142D02*
X170492000Y-43587142D01*
X170258666Y-42687142D01*
X169625333Y-43501428D02*
X169658666Y-43544285D01*
X169758666Y-43587142D01*
X169825333Y-43587142D01*
X169925333Y-43544285D01*
X169992000Y-43458571D01*
X170025333Y-43372857D01*
X170058666Y-43201428D01*
X170058666Y-43072857D01*
X170025333Y-42901428D01*
X169992000Y-42815714D01*
X169925333Y-42730000D01*
X169825333Y-42687142D01*
X169758666Y-42687142D01*
X169658666Y-42730000D01*
X169625333Y-42772857D01*
X168925333Y-43501428D02*
X168958666Y-43544285D01*
X169058666Y-43587142D01*
X169125333Y-43587142D01*
X169225333Y-43544285D01*
X169292000Y-43458571D01*
X169325333Y-43372857D01*
X169358666Y-43201428D01*
X169358666Y-43072857D01*
X169325333Y-42901428D01*
X169292000Y-42815714D01*
X169225333Y-42730000D01*
X169125333Y-42687142D01*
X169058666Y-42687142D01*
X168958666Y-42730000D01*
X168925333Y-42772857D01*
X167725333Y-42730000D02*
X167792000Y-42687142D01*
X167892000Y-42687142D01*
X167992000Y-42730000D01*
X168058666Y-42815714D01*
X168092000Y-42901428D01*
X168125333Y-43072857D01*
X168125333Y-43201428D01*
X168092000Y-43372857D01*
X168058666Y-43458571D01*
X167992000Y-43544285D01*
X167892000Y-43587142D01*
X167825333Y-43587142D01*
X167725333Y-43544285D01*
X167692000Y-43501428D01*
X167692000Y-43201428D01*
X167825333Y-43201428D01*
X167392000Y-43587142D02*
X167392000Y-42687142D01*
X166992000Y-43587142D01*
X166992000Y-42687142D01*
X166658666Y-43587142D02*
X166658666Y-42687142D01*
X166492000Y-42687142D01*
X166392000Y-42730000D01*
X166325333Y-42815714D01*
X166292000Y-42901428D01*
X166258666Y-43072857D01*
X166258666Y-43201428D01*
X166292000Y-43372857D01*
X166325333Y-43458571D01*
X166392000Y-43544285D01*
X166492000Y-43587142D01*
X166658666Y-43587142D01*
D10*
X200961880Y-41469226D02*
X200961880Y-40219226D01*
X200426166Y-40338273D02*
X200366642Y-40278750D01*
X200247595Y-40219226D01*
X199949976Y-40219226D01*
X199830928Y-40278750D01*
X199771404Y-40338273D01*
X199711880Y-40457321D01*
X199711880Y-40576369D01*
X199771404Y-40754940D01*
X200485690Y-41469226D01*
X199711880Y-41469226D01*
X198461880Y-41350178D02*
X198521404Y-41409702D01*
X198699976Y-41469226D01*
X198819023Y-41469226D01*
X198997595Y-41409702D01*
X199116642Y-41290654D01*
X199176166Y-41171607D01*
X199235690Y-40933511D01*
X199235690Y-40754940D01*
X199176166Y-40516845D01*
X199116642Y-40397797D01*
X198997595Y-40278750D01*
X198819023Y-40219226D01*
X198699976Y-40219226D01*
X198521404Y-40278750D01*
X198461880Y-40338273D01*
X200723785Y-42231726D02*
X200604738Y-42231726D01*
X200485690Y-42291250D01*
X200426166Y-42350773D01*
X200366642Y-42469821D01*
X200307119Y-42707916D01*
X200307119Y-43005535D01*
X200366642Y-43243630D01*
X200426166Y-43362678D01*
X200485690Y-43422202D01*
X200604738Y-43481726D01*
X200723785Y-43481726D01*
X200842833Y-43422202D01*
X200902357Y-43362678D01*
X200961880Y-43243630D01*
X201021404Y-43005535D01*
X201021404Y-42707916D01*
X200961880Y-42469821D01*
X200902357Y-42350773D01*
X200842833Y-42291250D01*
X200723785Y-42231726D01*
X199890452Y-43481726D02*
X199235690Y-42648392D01*
X199890452Y-42648392D02*
X199235690Y-43481726D01*
X198878547Y-42231726D02*
X198104738Y-42231726D01*
X198521404Y-42707916D01*
X198342833Y-42707916D01*
X198223785Y-42767440D01*
X198164261Y-42826964D01*
X198104738Y-42946011D01*
X198104738Y-43243630D01*
X198164261Y-43362678D01*
X198223785Y-43422202D01*
X198342833Y-43481726D01*
X198699976Y-43481726D01*
X198819023Y-43422202D01*
X198878547Y-43362678D01*
X197569023Y-43481726D02*
X197569023Y-42231726D01*
X197271404Y-42231726D01*
X197092833Y-42291250D01*
X196973785Y-42410297D01*
X196914261Y-42529345D01*
X196854738Y-42767440D01*
X196854738Y-42946011D01*
X196914261Y-43184107D01*
X196973785Y-43303154D01*
X197092833Y-43422202D01*
X197271404Y-43481726D01*
X197569023Y-43481726D01*
D12*
X218098333Y-68431250D02*
X218181666Y-68514583D01*
X218431666Y-68597916D01*
X218598333Y-68597916D01*
X218848333Y-68514583D01*
X219015000Y-68347916D01*
X219098333Y-68181250D01*
X219181666Y-67847916D01*
X219181666Y-67597916D01*
X219098333Y-67264583D01*
X219015000Y-67097916D01*
X218848333Y-66931250D01*
X218598333Y-66847916D01*
X218431666Y-66847916D01*
X218181666Y-66931250D01*
X218098333Y-67014583D01*
X217515000Y-67431250D02*
X216598333Y-67431250D01*
X217515000Y-68597916D01*
X216598333Y-68597916D01*
X215265000Y-68514583D02*
X215431666Y-68597916D01*
X215765000Y-68597916D01*
X215931666Y-68514583D01*
X216015000Y-68347916D01*
X216015000Y-67681250D01*
X215931666Y-67514583D01*
X215765000Y-67431250D01*
X215431666Y-67431250D01*
X215265000Y-67514583D01*
X215181666Y-67681250D01*
X215181666Y-67847916D01*
X216015000Y-68014583D01*
X214515000Y-68514583D02*
X214348333Y-68597916D01*
X214015000Y-68597916D01*
X213848333Y-68514583D01*
X213765000Y-68347916D01*
X213765000Y-68264583D01*
X213848333Y-68097916D01*
X214015000Y-68014583D01*
X214265000Y-68014583D01*
X214431666Y-67931250D01*
X214515000Y-67764583D01*
X214515000Y-67681250D01*
X214431666Y-67514583D01*
X214265000Y-67431250D01*
X214015000Y-67431250D01*
X213848333Y-67514583D01*
X212265000Y-68514583D02*
X212431666Y-68597916D01*
X212765000Y-68597916D01*
X212931666Y-68514583D01*
X213015000Y-68431250D01*
X213098333Y-68264583D01*
X213098333Y-67764583D01*
X213015000Y-67597916D01*
X212931666Y-67514583D01*
X212765000Y-67431250D01*
X212431666Y-67431250D01*
X212265000Y-67514583D01*
X211515000Y-68597916D02*
X211515000Y-66847916D01*
X210765000Y-68597916D02*
X210765000Y-67681250D01*
X210848333Y-67514583D01*
X211015000Y-67431250D01*
X211265000Y-67431250D01*
X211431666Y-67514583D01*
X211515000Y-67597916D01*
X209931666Y-67431250D02*
X209931666Y-68597916D01*
X209931666Y-67597916D02*
X209848333Y-67514583D01*
X209681666Y-67431250D01*
X209431666Y-67431250D01*
X209265000Y-67514583D01*
X209181666Y-67681250D01*
X209181666Y-68597916D01*
X207681666Y-68514583D02*
X207848333Y-68597916D01*
X208181666Y-68597916D01*
X208348333Y-68514583D01*
X208431666Y-68347916D01*
X208431666Y-67681250D01*
X208348333Y-67514583D01*
X208181666Y-67431250D01*
X207848333Y-67431250D01*
X207681666Y-67514583D01*
X207598333Y-67681250D01*
X207598333Y-67847916D01*
X208431666Y-68014583D01*
X206848333Y-68597916D02*
X206848333Y-67431250D01*
X206848333Y-67764583D02*
X206765000Y-67597916D01*
X206681666Y-67514583D01*
X206515000Y-67431250D01*
X206348333Y-67431250D01*
X219265000Y-69665416D02*
X218848333Y-71415416D01*
X218515000Y-70165416D01*
X218181666Y-71415416D01*
X217765000Y-69665416D01*
X216848333Y-71415416D02*
X217015000Y-71332083D01*
X217098333Y-71248750D01*
X217181666Y-71082083D01*
X217181666Y-70582083D01*
X217098333Y-70415416D01*
X217015000Y-70332083D01*
X216848333Y-70248750D01*
X216598333Y-70248750D01*
X216431666Y-70332083D01*
X216348333Y-70415416D01*
X216265000Y-70582083D01*
X216265000Y-71082083D01*
X216348333Y-71248750D01*
X216431666Y-71332083D01*
X216598333Y-71415416D01*
X216848333Y-71415416D01*
X215265000Y-71415416D02*
X215431666Y-71332083D01*
X215515000Y-71165416D01*
X215515000Y-69665416D01*
X214848333Y-70248750D02*
X214181666Y-70248750D01*
X214598333Y-69665416D02*
X214598333Y-71165416D01*
X214515000Y-71332083D01*
X214348333Y-71415416D01*
X214181666Y-71415416D01*
X212931666Y-71332083D02*
X213098333Y-71415416D01*
X213431666Y-71415416D01*
X213598333Y-71332083D01*
X213681666Y-71165416D01*
X213681666Y-70498750D01*
X213598333Y-70332083D01*
X213431666Y-70248750D01*
X213098333Y-70248750D01*
X212931666Y-70332083D01*
X212848333Y-70498750D01*
X212848333Y-70665416D01*
X213681666Y-70832083D01*
X212098333Y-71415416D02*
X212098333Y-70248750D01*
X212098333Y-70582083D02*
X212015000Y-70415416D01*
X211931666Y-70332083D01*
X211765000Y-70248750D01*
X211598333Y-70248750D01*
D13*
X202437619Y-66849761D02*
X201770952Y-68849761D01*
X201104285Y-66849761D01*
X199390000Y-68849761D02*
X200532857Y-68849761D01*
X199961428Y-68849761D02*
X199961428Y-66849761D01*
X200151904Y-67135476D01*
X200342380Y-67325952D01*
X200532857Y-67421190D01*
X198532857Y-68659285D02*
X198437619Y-68754523D01*
X198532857Y-68849761D01*
X198628095Y-68754523D01*
X198532857Y-68659285D01*
X198532857Y-68849761D01*
X197675714Y-67040238D02*
X197580476Y-66945000D01*
X197390000Y-66849761D01*
X196913809Y-66849761D01*
X196723333Y-66945000D01*
X196628095Y-67040238D01*
X196532857Y-67230714D01*
X196532857Y-67421190D01*
X196628095Y-67706904D01*
X197770952Y-68849761D01*
X196532857Y-68849761D01*
D14*
X155487619Y-55419047D02*
X154773333Y-55419047D01*
X154630476Y-55466666D01*
X154535238Y-55561904D01*
X154487619Y-55704761D01*
X154487619Y-55800000D01*
X154487619Y-54466666D02*
X154487619Y-54942857D01*
X155487619Y-54942857D01*
X154582857Y-53561904D02*
X154535238Y-53609523D01*
X154487619Y-53752380D01*
X154487619Y-53847619D01*
X154535238Y-53990476D01*
X154630476Y-54085714D01*
X154725714Y-54133333D01*
X154916190Y-54180952D01*
X155059047Y-54180952D01*
X155249523Y-54133333D01*
X155344761Y-54085714D01*
X155440000Y-53990476D01*
X155487619Y-53847619D01*
X155487619Y-53752380D01*
X155440000Y-53609523D01*
X155392380Y-53561904D01*
X155487619Y-52847619D02*
X154773333Y-52847619D01*
X154630476Y-52895238D01*
X154535238Y-52990476D01*
X154487619Y-53133333D01*
X154487619Y-53228571D01*
X154487619Y-51895238D02*
X154487619Y-52371428D01*
X155487619Y-52371428D01*
X154582857Y-50990476D02*
X154535238Y-51038095D01*
X154487619Y-51180952D01*
X154487619Y-51276190D01*
X154535238Y-51419047D01*
X154630476Y-51514285D01*
X154725714Y-51561904D01*
X154916190Y-51609523D01*
X155059047Y-51609523D01*
X155249523Y-51561904D01*
X155344761Y-51514285D01*
X155440000Y-51419047D01*
X155487619Y-51276190D01*
X155487619Y-51180952D01*
X155440000Y-51038095D01*
X155392380Y-50990476D01*
X155487619Y-50276190D02*
X154773333Y-50276190D01*
X154630476Y-50323809D01*
X154535238Y-50419047D01*
X154487619Y-50561904D01*
X154487619Y-50657142D01*
X154487619Y-49323809D02*
X154487619Y-49800000D01*
X155487619Y-49800000D01*
X154582857Y-48419047D02*
X154535238Y-48466666D01*
X154487619Y-48609523D01*
X154487619Y-48704761D01*
X154535238Y-48847619D01*
X154630476Y-48942857D01*
X154725714Y-48990476D01*
X154916190Y-49038095D01*
X155059047Y-49038095D01*
X155249523Y-48990476D01*
X155344761Y-48942857D01*
X155440000Y-48847619D01*
X155487619Y-48704761D01*
X155487619Y-48609523D01*
X155440000Y-48466666D01*
X155392380Y-48419047D01*
X155487619Y-47704761D02*
X154773333Y-47704761D01*
X154630476Y-47752380D01*
X154535238Y-47847619D01*
X154487619Y-47990476D01*
X154487619Y-48085714D01*
X154487619Y-46752380D02*
X154487619Y-47228571D01*
X155487619Y-47228571D01*
X154582857Y-45847619D02*
X154535238Y-45895238D01*
X154487619Y-46038095D01*
X154487619Y-46133333D01*
X154535238Y-46276190D01*
X154630476Y-46371428D01*
X154725714Y-46419047D01*
X154916190Y-46466666D01*
X155059047Y-46466666D01*
X155249523Y-46419047D01*
X155344761Y-46371428D01*
X155440000Y-46276190D01*
X155487619Y-46133333D01*
X155487619Y-46038095D01*
X155440000Y-45895238D01*
X155392380Y-45847619D01*
D12*
X202304285Y-69842952D02*
X202223333Y-69762000D01*
X202061428Y-69681047D01*
X201656666Y-69681047D01*
X201494761Y-69762000D01*
X201413809Y-69842952D01*
X201332857Y-70004857D01*
X201332857Y-70166761D01*
X201413809Y-70409619D01*
X202385238Y-71381047D01*
X201332857Y-71381047D01*
X200280476Y-69681047D02*
X200118571Y-69681047D01*
X199956666Y-69762000D01*
X199875714Y-69842952D01*
X199794761Y-70004857D01*
X199713809Y-70328666D01*
X199713809Y-70733428D01*
X199794761Y-71057238D01*
X199875714Y-71219142D01*
X199956666Y-71300095D01*
X200118571Y-71381047D01*
X200280476Y-71381047D01*
X200442380Y-71300095D01*
X200523333Y-71219142D01*
X200604285Y-71057238D01*
X200685238Y-70733428D01*
X200685238Y-70328666D01*
X200604285Y-70004857D01*
X200523333Y-69842952D01*
X200442380Y-69762000D01*
X200280476Y-69681047D01*
X199066190Y-69842952D02*
X198985238Y-69762000D01*
X198823333Y-69681047D01*
X198418571Y-69681047D01*
X198256666Y-69762000D01*
X198175714Y-69842952D01*
X198094761Y-70004857D01*
X198094761Y-70166761D01*
X198175714Y-70409619D01*
X199147142Y-71381047D01*
X198094761Y-71381047D01*
X197528095Y-69681047D02*
X196475714Y-69681047D01*
X197042380Y-70328666D01*
X196799523Y-70328666D01*
X196637619Y-70409619D01*
X196556666Y-70490571D01*
X196475714Y-70652476D01*
X196475714Y-71057238D01*
X196556666Y-71219142D01*
X196637619Y-71300095D01*
X196799523Y-71381047D01*
X197285238Y-71381047D01*
X197447142Y-71300095D01*
X197528095Y-71219142D01*
D15*
%TO.C,KEY8*%
X221964047Y-97988380D02*
X221964047Y-96988380D01*
X221392619Y-97988380D02*
X221821190Y-97416952D01*
X221392619Y-96988380D02*
X221964047Y-97559809D01*
X220964047Y-97464571D02*
X220630714Y-97464571D01*
X220487857Y-97988380D02*
X220964047Y-97988380D01*
X220964047Y-96988380D01*
X220487857Y-96988380D01*
X219868809Y-97512190D02*
X219868809Y-97988380D01*
X220202142Y-96988380D02*
X219868809Y-97512190D01*
X219535476Y-96988380D01*
X219059285Y-97416952D02*
X219154523Y-97369333D01*
X219202142Y-97321714D01*
X219249761Y-97226476D01*
X219249761Y-97178857D01*
X219202142Y-97083619D01*
X219154523Y-97036000D01*
X219059285Y-96988380D01*
X218868809Y-96988380D01*
X218773571Y-97036000D01*
X218725952Y-97083619D01*
X218678333Y-97178857D01*
X218678333Y-97226476D01*
X218725952Y-97321714D01*
X218773571Y-97369333D01*
X218868809Y-97416952D01*
X219059285Y-97416952D01*
X219154523Y-97464571D01*
X219202142Y-97512190D01*
X219249761Y-97607428D01*
X219249761Y-97797904D01*
X219202142Y-97893142D01*
X219154523Y-97940761D01*
X219059285Y-97988380D01*
X218868809Y-97988380D01*
X218773571Y-97940761D01*
X218725952Y-97893142D01*
X218678333Y-97797904D01*
X218678333Y-97607428D01*
X218725952Y-97512190D01*
X218773571Y-97464571D01*
X218868809Y-97416952D01*
%TO.C,KEY9*%
X164814047Y-117038380D02*
X164814047Y-116038380D01*
X164242619Y-117038380D02*
X164671190Y-116466952D01*
X164242619Y-116038380D02*
X164814047Y-116609809D01*
X163814047Y-116514571D02*
X163480714Y-116514571D01*
X163337857Y-117038380D02*
X163814047Y-117038380D01*
X163814047Y-116038380D01*
X163337857Y-116038380D01*
X162718809Y-116562190D02*
X162718809Y-117038380D01*
X163052142Y-116038380D02*
X162718809Y-116562190D01*
X162385476Y-116038380D01*
X162004523Y-117038380D02*
X161814047Y-117038380D01*
X161718809Y-116990761D01*
X161671190Y-116943142D01*
X161575952Y-116800285D01*
X161528333Y-116609809D01*
X161528333Y-116228857D01*
X161575952Y-116133619D01*
X161623571Y-116086000D01*
X161718809Y-116038380D01*
X161909285Y-116038380D01*
X162004523Y-116086000D01*
X162052142Y-116133619D01*
X162099761Y-116228857D01*
X162099761Y-116466952D01*
X162052142Y-116562190D01*
X162004523Y-116609809D01*
X161909285Y-116657428D01*
X161718809Y-116657428D01*
X161623571Y-116609809D01*
X161575952Y-116562190D01*
X161528333Y-116466952D01*
%TO.C,KEY13*%
X241490238Y-78938380D02*
X241490238Y-77938380D01*
X240918809Y-78938380D02*
X241347380Y-78366952D01*
X240918809Y-77938380D02*
X241490238Y-78509809D01*
X240490238Y-78414571D02*
X240156904Y-78414571D01*
X240014047Y-78938380D02*
X240490238Y-78938380D01*
X240490238Y-77938380D01*
X240014047Y-77938380D01*
X239395000Y-78462190D02*
X239395000Y-78938380D01*
X239728333Y-77938380D02*
X239395000Y-78462190D01*
X239061666Y-77938380D01*
X238204523Y-78938380D02*
X238775952Y-78938380D01*
X238490238Y-78938380D02*
X238490238Y-77938380D01*
X238585476Y-78081238D01*
X238680714Y-78176476D01*
X238775952Y-78224095D01*
X237871190Y-77938380D02*
X237252142Y-77938380D01*
X237585476Y-78319333D01*
X237442619Y-78319333D01*
X237347380Y-78366952D01*
X237299761Y-78414571D01*
X237252142Y-78509809D01*
X237252142Y-78747904D01*
X237299761Y-78843142D01*
X237347380Y-78890761D01*
X237442619Y-78938380D01*
X237728333Y-78938380D01*
X237823571Y-78890761D01*
X237871190Y-78843142D01*
%TO.C,KEY14*%
X241490238Y-97988380D02*
X241490238Y-96988380D01*
X240918809Y-97988380D02*
X241347380Y-97416952D01*
X240918809Y-96988380D02*
X241490238Y-97559809D01*
X240490238Y-97464571D02*
X240156904Y-97464571D01*
X240014047Y-97988380D02*
X240490238Y-97988380D01*
X240490238Y-96988380D01*
X240014047Y-96988380D01*
X239395000Y-97512190D02*
X239395000Y-97988380D01*
X239728333Y-96988380D02*
X239395000Y-97512190D01*
X239061666Y-96988380D01*
X238204523Y-97988380D02*
X238775952Y-97988380D01*
X238490238Y-97988380D02*
X238490238Y-96988380D01*
X238585476Y-97131238D01*
X238680714Y-97226476D01*
X238775952Y-97274095D01*
X237347380Y-97321714D02*
X237347380Y-97988380D01*
X237585476Y-96940761D02*
X237823571Y-97655047D01*
X237204523Y-97655047D01*
%TO.C,KEY10*%
X184340238Y-117038380D02*
X184340238Y-116038380D01*
X183768809Y-117038380D02*
X184197380Y-116466952D01*
X183768809Y-116038380D02*
X184340238Y-116609809D01*
X183340238Y-116514571D02*
X183006904Y-116514571D01*
X182864047Y-117038380D02*
X183340238Y-117038380D01*
X183340238Y-116038380D01*
X182864047Y-116038380D01*
X182245000Y-116562190D02*
X182245000Y-117038380D01*
X182578333Y-116038380D02*
X182245000Y-116562190D01*
X181911666Y-116038380D01*
X181054523Y-117038380D02*
X181625952Y-117038380D01*
X181340238Y-117038380D02*
X181340238Y-116038380D01*
X181435476Y-116181238D01*
X181530714Y-116276476D01*
X181625952Y-116324095D01*
X180435476Y-116038380D02*
X180340238Y-116038380D01*
X180245000Y-116086000D01*
X180197380Y-116133619D01*
X180149761Y-116228857D01*
X180102142Y-116419333D01*
X180102142Y-116657428D01*
X180149761Y-116847904D01*
X180197380Y-116943142D01*
X180245000Y-116990761D01*
X180340238Y-117038380D01*
X180435476Y-117038380D01*
X180530714Y-116990761D01*
X180578333Y-116943142D01*
X180625952Y-116847904D01*
X180673571Y-116657428D01*
X180673571Y-116419333D01*
X180625952Y-116228857D01*
X180578333Y-116133619D01*
X180530714Y-116086000D01*
X180435476Y-116038380D01*
%TO.C,KEY4*%
X221964047Y-78938380D02*
X221964047Y-77938380D01*
X221392619Y-78938380D02*
X221821190Y-78366952D01*
X221392619Y-77938380D02*
X221964047Y-78509809D01*
X220964047Y-78414571D02*
X220630714Y-78414571D01*
X220487857Y-78938380D02*
X220964047Y-78938380D01*
X220964047Y-77938380D01*
X220487857Y-77938380D01*
X219868809Y-78462190D02*
X219868809Y-78938380D01*
X220202142Y-77938380D02*
X219868809Y-78462190D01*
X219535476Y-77938380D01*
X218773571Y-78271714D02*
X218773571Y-78938380D01*
X219011666Y-77890761D02*
X219249761Y-78605047D01*
X218630714Y-78605047D01*
%TO.C,KEY1*%
X164814047Y-78938380D02*
X164814047Y-77938380D01*
X164242619Y-78938380D02*
X164671190Y-78366952D01*
X164242619Y-77938380D02*
X164814047Y-78509809D01*
X163814047Y-78414571D02*
X163480714Y-78414571D01*
X163337857Y-78938380D02*
X163814047Y-78938380D01*
X163814047Y-77938380D01*
X163337857Y-77938380D01*
X162718809Y-78462190D02*
X162718809Y-78938380D01*
X163052142Y-77938380D02*
X162718809Y-78462190D01*
X162385476Y-77938380D01*
X161528333Y-78938380D02*
X162099761Y-78938380D01*
X161814047Y-78938380D02*
X161814047Y-77938380D01*
X161909285Y-78081238D01*
X162004523Y-78176476D01*
X162099761Y-78224095D01*
%TO.C,OLED2*%
X218844571Y-40346380D02*
X218654095Y-40346380D01*
X218558857Y-40394000D01*
X218463619Y-40489238D01*
X218416000Y-40679714D01*
X218416000Y-41013047D01*
X218463619Y-41203523D01*
X218558857Y-41298761D01*
X218654095Y-41346380D01*
X218844571Y-41346380D01*
X218939809Y-41298761D01*
X219035047Y-41203523D01*
X219082666Y-41013047D01*
X219082666Y-40679714D01*
X219035047Y-40489238D01*
X218939809Y-40394000D01*
X218844571Y-40346380D01*
X217511238Y-41346380D02*
X217987428Y-41346380D01*
X217987428Y-40346380D01*
X217177904Y-40822571D02*
X216844571Y-40822571D01*
X216701714Y-41346380D02*
X217177904Y-41346380D01*
X217177904Y-40346380D01*
X216701714Y-40346380D01*
X216273142Y-41346380D02*
X216273142Y-40346380D01*
X216035047Y-40346380D01*
X215892190Y-40394000D01*
X215796952Y-40489238D01*
X215749333Y-40584476D01*
X215701714Y-40774952D01*
X215701714Y-40917809D01*
X215749333Y-41108285D01*
X215796952Y-41203523D01*
X215892190Y-41298761D01*
X216035047Y-41346380D01*
X216273142Y-41346380D01*
X215320761Y-40441619D02*
X215273142Y-40394000D01*
X215177904Y-40346380D01*
X214939809Y-40346380D01*
X214844571Y-40394000D01*
X214796952Y-40441619D01*
X214749333Y-40536857D01*
X214749333Y-40632095D01*
X214796952Y-40774952D01*
X215368380Y-41346380D01*
X214749333Y-41346380D01*
%TO.C,KEY11*%
X203390238Y-117038380D02*
X203390238Y-116038380D01*
X202818809Y-117038380D02*
X203247380Y-116466952D01*
X202818809Y-116038380D02*
X203390238Y-116609809D01*
X202390238Y-116514571D02*
X202056904Y-116514571D01*
X201914047Y-117038380D02*
X202390238Y-117038380D01*
X202390238Y-116038380D01*
X201914047Y-116038380D01*
X201295000Y-116562190D02*
X201295000Y-117038380D01*
X201628333Y-116038380D02*
X201295000Y-116562190D01*
X200961666Y-116038380D01*
X200104523Y-117038380D02*
X200675952Y-117038380D01*
X200390238Y-117038380D02*
X200390238Y-116038380D01*
X200485476Y-116181238D01*
X200580714Y-116276476D01*
X200675952Y-116324095D01*
X199152142Y-117038380D02*
X199723571Y-117038380D01*
X199437857Y-117038380D02*
X199437857Y-116038380D01*
X199533095Y-116181238D01*
X199628333Y-116276476D01*
X199723571Y-116324095D01*
%TO.C,KEY12*%
X222440238Y-117038380D02*
X222440238Y-116038380D01*
X221868809Y-117038380D02*
X222297380Y-116466952D01*
X221868809Y-116038380D02*
X222440238Y-116609809D01*
X221440238Y-116514571D02*
X221106904Y-116514571D01*
X220964047Y-117038380D02*
X221440238Y-117038380D01*
X221440238Y-116038380D01*
X220964047Y-116038380D01*
X220345000Y-116562190D02*
X220345000Y-117038380D01*
X220678333Y-116038380D02*
X220345000Y-116562190D01*
X220011666Y-116038380D01*
X219154523Y-117038380D02*
X219725952Y-117038380D01*
X219440238Y-117038380D02*
X219440238Y-116038380D01*
X219535476Y-116181238D01*
X219630714Y-116276476D01*
X219725952Y-116324095D01*
X218773571Y-116133619D02*
X218725952Y-116086000D01*
X218630714Y-116038380D01*
X218392619Y-116038380D01*
X218297380Y-116086000D01*
X218249761Y-116133619D01*
X218202142Y-116228857D01*
X218202142Y-116324095D01*
X218249761Y-116466952D01*
X218821190Y-117038380D01*
X218202142Y-117038380D01*
%TO.C,KEY6*%
X183864047Y-97988380D02*
X183864047Y-96988380D01*
X183292619Y-97988380D02*
X183721190Y-97416952D01*
X183292619Y-96988380D02*
X183864047Y-97559809D01*
X182864047Y-97464571D02*
X182530714Y-97464571D01*
X182387857Y-97988380D02*
X182864047Y-97988380D01*
X182864047Y-96988380D01*
X182387857Y-96988380D01*
X181768809Y-97512190D02*
X181768809Y-97988380D01*
X182102142Y-96988380D02*
X181768809Y-97512190D01*
X181435476Y-96988380D01*
X180673571Y-96988380D02*
X180864047Y-96988380D01*
X180959285Y-97036000D01*
X181006904Y-97083619D01*
X181102142Y-97226476D01*
X181149761Y-97416952D01*
X181149761Y-97797904D01*
X181102142Y-97893142D01*
X181054523Y-97940761D01*
X180959285Y-97988380D01*
X180768809Y-97988380D01*
X180673571Y-97940761D01*
X180625952Y-97893142D01*
X180578333Y-97797904D01*
X180578333Y-97559809D01*
X180625952Y-97464571D01*
X180673571Y-97416952D01*
X180768809Y-97369333D01*
X180959285Y-97369333D01*
X181054523Y-97416952D01*
X181102142Y-97464571D01*
X181149761Y-97559809D01*
%TO.C,KEY2*%
X183864047Y-78938380D02*
X183864047Y-77938380D01*
X183292619Y-78938380D02*
X183721190Y-78366952D01*
X183292619Y-77938380D02*
X183864047Y-78509809D01*
X182864047Y-78414571D02*
X182530714Y-78414571D01*
X182387857Y-78938380D02*
X182864047Y-78938380D01*
X182864047Y-77938380D01*
X182387857Y-77938380D01*
X181768809Y-78462190D02*
X181768809Y-78938380D01*
X182102142Y-77938380D02*
X181768809Y-78462190D01*
X181435476Y-77938380D01*
X181149761Y-78033619D02*
X181102142Y-77986000D01*
X181006904Y-77938380D01*
X180768809Y-77938380D01*
X180673571Y-77986000D01*
X180625952Y-78033619D01*
X180578333Y-78128857D01*
X180578333Y-78224095D01*
X180625952Y-78366952D01*
X181197380Y-78938380D01*
X180578333Y-78938380D01*
%TO.C,U1*%
X236346904Y-70826380D02*
X236346904Y-71635904D01*
X236299285Y-71731142D01*
X236251666Y-71778761D01*
X236156428Y-71826380D01*
X235965952Y-71826380D01*
X235870714Y-71778761D01*
X235823095Y-71731142D01*
X235775476Y-71635904D01*
X235775476Y-70826380D01*
X234775476Y-71826380D02*
X235346904Y-71826380D01*
X235061190Y-71826380D02*
X235061190Y-70826380D01*
X235156428Y-70969238D01*
X235251666Y-71064476D01*
X235346904Y-71112095D01*
X241393023Y-56300666D02*
X240916833Y-56300666D01*
X241488261Y-56586380D02*
X241154928Y-55586380D01*
X240821595Y-56586380D01*
X240535880Y-55681619D02*
X240488261Y-55634000D01*
X240393023Y-55586380D01*
X240154928Y-55586380D01*
X240059690Y-55634000D01*
X240012071Y-55681619D01*
X239964452Y-55776857D01*
X239964452Y-55872095D01*
X240012071Y-56014952D01*
X240583500Y-56586380D01*
X239964452Y-56586380D01*
X231205547Y-46426380D02*
X231538880Y-45950190D01*
X231776976Y-46426380D02*
X231776976Y-45426380D01*
X231396023Y-45426380D01*
X231300785Y-45474000D01*
X231253166Y-45521619D01*
X231205547Y-45616857D01*
X231205547Y-45759714D01*
X231253166Y-45854952D01*
X231300785Y-45902571D01*
X231396023Y-45950190D01*
X231776976Y-45950190D01*
X230872214Y-45426380D02*
X230205547Y-46426380D01*
X230205547Y-45426380D02*
X230872214Y-46426380D01*
X229824595Y-46426380D02*
X229824595Y-45426380D01*
X241345404Y-71826380D02*
X241345404Y-70826380D01*
X241107309Y-70826380D01*
X240964452Y-70874000D01*
X240869214Y-70969238D01*
X240821595Y-71064476D01*
X240773976Y-71254952D01*
X240773976Y-71397809D01*
X240821595Y-71588285D01*
X240869214Y-71683523D01*
X240964452Y-71778761D01*
X241107309Y-71826380D01*
X241345404Y-71826380D01*
X239821595Y-71826380D02*
X240393023Y-71826380D01*
X240107309Y-71826380D02*
X240107309Y-70826380D01*
X240202547Y-70969238D01*
X240297785Y-71064476D01*
X240393023Y-71112095D01*
X239202547Y-70826380D02*
X239107309Y-70826380D01*
X239012071Y-70874000D01*
X238964452Y-70921619D01*
X238916833Y-71016857D01*
X238869214Y-71207333D01*
X238869214Y-71445428D01*
X238916833Y-71635904D01*
X238964452Y-71731142D01*
X239012071Y-71778761D01*
X239107309Y-71826380D01*
X239202547Y-71826380D01*
X239297785Y-71778761D01*
X239345404Y-71731142D01*
X239393023Y-71635904D01*
X239440642Y-71445428D01*
X239440642Y-71207333D01*
X239393023Y-71016857D01*
X239345404Y-70921619D01*
X239297785Y-70874000D01*
X239202547Y-70826380D01*
X241393023Y-61380666D02*
X240916833Y-61380666D01*
X241488261Y-61666380D02*
X241154928Y-60666380D01*
X240821595Y-61666380D01*
X240297785Y-60666380D02*
X240202547Y-60666380D01*
X240107309Y-60714000D01*
X240059690Y-60761619D01*
X240012071Y-60856857D01*
X239964452Y-61047333D01*
X239964452Y-61285428D01*
X240012071Y-61475904D01*
X240059690Y-61571142D01*
X240107309Y-61618761D01*
X240202547Y-61666380D01*
X240297785Y-61666380D01*
X240393023Y-61618761D01*
X240440642Y-61571142D01*
X240488261Y-61475904D01*
X240535880Y-61285428D01*
X240535880Y-61047333D01*
X240488261Y-60856857D01*
X240440642Y-60761619D01*
X240393023Y-60714000D01*
X240297785Y-60666380D01*
X231300785Y-69286380D02*
X231300785Y-68286380D01*
X231062690Y-68286380D01*
X230919833Y-68334000D01*
X230824595Y-68429238D01*
X230776976Y-68524476D01*
X230729357Y-68714952D01*
X230729357Y-68857809D01*
X230776976Y-69048285D01*
X230824595Y-69143523D01*
X230919833Y-69238761D01*
X231062690Y-69286380D01*
X231300785Y-69286380D01*
X230157928Y-68714952D02*
X230253166Y-68667333D01*
X230300785Y-68619714D01*
X230348404Y-68524476D01*
X230348404Y-68476857D01*
X230300785Y-68381619D01*
X230253166Y-68334000D01*
X230157928Y-68286380D01*
X229967452Y-68286380D01*
X229872214Y-68334000D01*
X229824595Y-68381619D01*
X229776976Y-68476857D01*
X229776976Y-68524476D01*
X229824595Y-68619714D01*
X229872214Y-68667333D01*
X229967452Y-68714952D01*
X230157928Y-68714952D01*
X230253166Y-68762571D01*
X230300785Y-68810190D01*
X230348404Y-68905428D01*
X230348404Y-69095904D01*
X230300785Y-69191142D01*
X230253166Y-69238761D01*
X230157928Y-69286380D01*
X229967452Y-69286380D01*
X229872214Y-69238761D01*
X229824595Y-69191142D01*
X229776976Y-69095904D01*
X229776976Y-68905428D01*
X229824595Y-68810190D01*
X229872214Y-68762571D01*
X229967452Y-68714952D01*
X241599404Y-66746380D02*
X241599404Y-65746380D01*
X241361309Y-65746380D01*
X241218452Y-65794000D01*
X241123214Y-65889238D01*
X241075595Y-65984476D01*
X241027976Y-66174952D01*
X241027976Y-66317809D01*
X241075595Y-66508285D01*
X241123214Y-66603523D01*
X241218452Y-66698761D01*
X241361309Y-66746380D01*
X241599404Y-66746380D01*
X240075595Y-66746380D02*
X240647023Y-66746380D01*
X240361309Y-66746380D02*
X240361309Y-65746380D01*
X240456547Y-65889238D01*
X240551785Y-65984476D01*
X240647023Y-66032095D01*
X239218452Y-66079714D02*
X239218452Y-66746380D01*
X239456547Y-65698761D02*
X239694642Y-66413047D01*
X239075595Y-66413047D01*
X241393023Y-58840666D02*
X240916833Y-58840666D01*
X241488261Y-59126380D02*
X241154928Y-58126380D01*
X240821595Y-59126380D01*
X239964452Y-59126380D02*
X240535880Y-59126380D01*
X240250166Y-59126380D02*
X240250166Y-58126380D01*
X240345404Y-58269238D01*
X240440642Y-58364476D01*
X240535880Y-58412095D01*
X231300785Y-61666380D02*
X231300785Y-60666380D01*
X231062690Y-60666380D01*
X230919833Y-60714000D01*
X230824595Y-60809238D01*
X230776976Y-60904476D01*
X230729357Y-61094952D01*
X230729357Y-61237809D01*
X230776976Y-61428285D01*
X230824595Y-61523523D01*
X230919833Y-61618761D01*
X231062690Y-61666380D01*
X231300785Y-61666380D01*
X229824595Y-60666380D02*
X230300785Y-60666380D01*
X230348404Y-61142571D01*
X230300785Y-61094952D01*
X230205547Y-61047333D01*
X229967452Y-61047333D01*
X229872214Y-61094952D01*
X229824595Y-61142571D01*
X229776976Y-61237809D01*
X229776976Y-61475904D01*
X229824595Y-61571142D01*
X229872214Y-61618761D01*
X229967452Y-61666380D01*
X230205547Y-61666380D01*
X230300785Y-61618761D01*
X230348404Y-61571142D01*
X241599404Y-69286380D02*
X241599404Y-68286380D01*
X241361309Y-68286380D01*
X241218452Y-68334000D01*
X241123214Y-68429238D01*
X241075595Y-68524476D01*
X241027976Y-68714952D01*
X241027976Y-68857809D01*
X241075595Y-69048285D01*
X241123214Y-69143523D01*
X241218452Y-69238761D01*
X241361309Y-69286380D01*
X241599404Y-69286380D01*
X240075595Y-69286380D02*
X240647023Y-69286380D01*
X240361309Y-69286380D02*
X240361309Y-68286380D01*
X240456547Y-68429238D01*
X240551785Y-68524476D01*
X240647023Y-68572095D01*
X239218452Y-68286380D02*
X239408928Y-68286380D01*
X239504166Y-68334000D01*
X239551785Y-68381619D01*
X239647023Y-68524476D01*
X239694642Y-68714952D01*
X239694642Y-69095904D01*
X239647023Y-69191142D01*
X239599404Y-69238761D01*
X239504166Y-69286380D01*
X239313690Y-69286380D01*
X239218452Y-69238761D01*
X239170833Y-69191142D01*
X239123214Y-69095904D01*
X239123214Y-68857809D01*
X239170833Y-68762571D01*
X239218452Y-68714952D01*
X239313690Y-68667333D01*
X239504166Y-68667333D01*
X239599404Y-68714952D01*
X239647023Y-68762571D01*
X239694642Y-68857809D01*
X241393023Y-53760666D02*
X240916833Y-53760666D01*
X241488261Y-54046380D02*
X241154928Y-53046380D01*
X240821595Y-54046380D01*
X240583500Y-53046380D02*
X239964452Y-53046380D01*
X240297785Y-53427333D01*
X240154928Y-53427333D01*
X240059690Y-53474952D01*
X240012071Y-53522571D01*
X239964452Y-53617809D01*
X239964452Y-53855904D01*
X240012071Y-53951142D01*
X240059690Y-53998761D01*
X240154928Y-54046380D01*
X240440642Y-54046380D01*
X240535880Y-53998761D01*
X240583500Y-53951142D01*
X240773976Y-43886380D02*
X241107309Y-43410190D01*
X241345404Y-43886380D02*
X241345404Y-42886380D01*
X240964452Y-42886380D01*
X240869214Y-42934000D01*
X240821595Y-42981619D01*
X240773976Y-43076857D01*
X240773976Y-43219714D01*
X240821595Y-43314952D01*
X240869214Y-43362571D01*
X240964452Y-43410190D01*
X241345404Y-43410190D01*
X240393023Y-43600666D02*
X239916833Y-43600666D01*
X240488261Y-43886380D02*
X240154928Y-42886380D01*
X239821595Y-43886380D01*
X239583500Y-42886380D02*
X239345404Y-43886380D01*
X239154928Y-43172095D01*
X238964452Y-43886380D01*
X238726357Y-42886380D01*
X231300785Y-64206380D02*
X231300785Y-63206380D01*
X231062690Y-63206380D01*
X230919833Y-63254000D01*
X230824595Y-63349238D01*
X230776976Y-63444476D01*
X230729357Y-63634952D01*
X230729357Y-63777809D01*
X230776976Y-63968285D01*
X230824595Y-64063523D01*
X230919833Y-64158761D01*
X231062690Y-64206380D01*
X231300785Y-64206380D01*
X229872214Y-63206380D02*
X230062690Y-63206380D01*
X230157928Y-63254000D01*
X230205547Y-63301619D01*
X230300785Y-63444476D01*
X230348404Y-63634952D01*
X230348404Y-64015904D01*
X230300785Y-64111142D01*
X230253166Y-64158761D01*
X230157928Y-64206380D01*
X229967452Y-64206380D01*
X229872214Y-64158761D01*
X229824595Y-64111142D01*
X229776976Y-64015904D01*
X229776976Y-63777809D01*
X229824595Y-63682571D01*
X229872214Y-63634952D01*
X229967452Y-63587333D01*
X230157928Y-63587333D01*
X230253166Y-63634952D01*
X230300785Y-63682571D01*
X230348404Y-63777809D01*
X241599404Y-64206380D02*
X241599404Y-63206380D01*
X241361309Y-63206380D01*
X241218452Y-63254000D01*
X241123214Y-63349238D01*
X241075595Y-63444476D01*
X241027976Y-63634952D01*
X241027976Y-63777809D01*
X241075595Y-63968285D01*
X241123214Y-64063523D01*
X241218452Y-64158761D01*
X241361309Y-64206380D01*
X241599404Y-64206380D01*
X240075595Y-64206380D02*
X240647023Y-64206380D01*
X240361309Y-64206380D02*
X240361309Y-63206380D01*
X240456547Y-63349238D01*
X240551785Y-63444476D01*
X240647023Y-63492095D01*
X239170833Y-63206380D02*
X239647023Y-63206380D01*
X239694642Y-63682571D01*
X239647023Y-63634952D01*
X239551785Y-63587333D01*
X239313690Y-63587333D01*
X239218452Y-63634952D01*
X239170833Y-63682571D01*
X239123214Y-63777809D01*
X239123214Y-64015904D01*
X239170833Y-64111142D01*
X239218452Y-64158761D01*
X239313690Y-64206380D01*
X239551785Y-64206380D01*
X239647023Y-64158761D01*
X239694642Y-64111142D01*
X232157928Y-42886380D02*
X231586500Y-42886380D01*
X231872214Y-43886380D02*
X231872214Y-42886380D01*
X231348404Y-42886380D02*
X230681738Y-43886380D01*
X230681738Y-42886380D02*
X231348404Y-43886380D01*
X230110309Y-42886380D02*
X230015071Y-42886380D01*
X229919833Y-42934000D01*
X229872214Y-42981619D01*
X229824595Y-43076857D01*
X229776976Y-43267333D01*
X229776976Y-43505428D01*
X229824595Y-43695904D01*
X229872214Y-43791142D01*
X229919833Y-43838761D01*
X230015071Y-43886380D01*
X230110309Y-43886380D01*
X230205547Y-43838761D01*
X230253166Y-43791142D01*
X230300785Y-43695904D01*
X230348404Y-43505428D01*
X230348404Y-43267333D01*
X230300785Y-43076857D01*
X230253166Y-42981619D01*
X230205547Y-42934000D01*
X230110309Y-42886380D01*
X231300785Y-56586380D02*
X231300785Y-55586380D01*
X231062690Y-55586380D01*
X230919833Y-55634000D01*
X230824595Y-55729238D01*
X230776976Y-55824476D01*
X230729357Y-56014952D01*
X230729357Y-56157809D01*
X230776976Y-56348285D01*
X230824595Y-56443523D01*
X230919833Y-56538761D01*
X231062690Y-56586380D01*
X231300785Y-56586380D01*
X230396023Y-55586380D02*
X229776976Y-55586380D01*
X230110309Y-55967333D01*
X229967452Y-55967333D01*
X229872214Y-56014952D01*
X229824595Y-56062571D01*
X229776976Y-56157809D01*
X229776976Y-56395904D01*
X229824595Y-56491142D01*
X229872214Y-56538761D01*
X229967452Y-56586380D01*
X230253166Y-56586380D01*
X230348404Y-56538761D01*
X230396023Y-56491142D01*
X231300785Y-59380380D02*
X231300785Y-58380380D01*
X231062690Y-58380380D01*
X230919833Y-58428000D01*
X230824595Y-58523238D01*
X230776976Y-58618476D01*
X230729357Y-58808952D01*
X230729357Y-58951809D01*
X230776976Y-59142285D01*
X230824595Y-59237523D01*
X230919833Y-59332761D01*
X231062690Y-59380380D01*
X231300785Y-59380380D01*
X229872214Y-58713714D02*
X229872214Y-59380380D01*
X230110309Y-58332761D02*
X230348404Y-59047047D01*
X229729357Y-59047047D01*
X231872214Y-48014000D02*
X231967452Y-47966380D01*
X232110309Y-47966380D01*
X232253166Y-48014000D01*
X232348404Y-48109238D01*
X232396023Y-48204476D01*
X232443642Y-48394952D01*
X232443642Y-48537809D01*
X232396023Y-48728285D01*
X232348404Y-48823523D01*
X232253166Y-48918761D01*
X232110309Y-48966380D01*
X232015071Y-48966380D01*
X231872214Y-48918761D01*
X231824595Y-48871142D01*
X231824595Y-48537809D01*
X232015071Y-48537809D01*
X231396023Y-48966380D02*
X231396023Y-47966380D01*
X230824595Y-48966380D01*
X230824595Y-47966380D01*
X230348404Y-48966380D02*
X230348404Y-47966380D01*
X230110309Y-47966380D01*
X229967452Y-48014000D01*
X229872214Y-48109238D01*
X229824595Y-48204476D01*
X229776976Y-48394952D01*
X229776976Y-48537809D01*
X229824595Y-48728285D01*
X229872214Y-48823523D01*
X229967452Y-48918761D01*
X230110309Y-48966380D01*
X230348404Y-48966380D01*
X231872214Y-50554000D02*
X231967452Y-50506380D01*
X232110309Y-50506380D01*
X232253166Y-50554000D01*
X232348404Y-50649238D01*
X232396023Y-50744476D01*
X232443642Y-50934952D01*
X232443642Y-51077809D01*
X232396023Y-51268285D01*
X232348404Y-51363523D01*
X232253166Y-51458761D01*
X232110309Y-51506380D01*
X232015071Y-51506380D01*
X231872214Y-51458761D01*
X231824595Y-51411142D01*
X231824595Y-51077809D01*
X232015071Y-51077809D01*
X231396023Y-51506380D02*
X231396023Y-50506380D01*
X230824595Y-51506380D01*
X230824595Y-50506380D01*
X230348404Y-51506380D02*
X230348404Y-50506380D01*
X230110309Y-50506380D01*
X229967452Y-50554000D01*
X229872214Y-50649238D01*
X229824595Y-50744476D01*
X229776976Y-50934952D01*
X229776976Y-51077809D01*
X229824595Y-51268285D01*
X229872214Y-51363523D01*
X229967452Y-51458761D01*
X230110309Y-51506380D01*
X230348404Y-51506380D01*
X231300785Y-66746380D02*
X231300785Y-65746380D01*
X231062690Y-65746380D01*
X230919833Y-65794000D01*
X230824595Y-65889238D01*
X230776976Y-65984476D01*
X230729357Y-66174952D01*
X230729357Y-66317809D01*
X230776976Y-66508285D01*
X230824595Y-66603523D01*
X230919833Y-66698761D01*
X231062690Y-66746380D01*
X231300785Y-66746380D01*
X230396023Y-65746380D02*
X229729357Y-65746380D01*
X230157928Y-66746380D01*
X240773976Y-48966380D02*
X241107309Y-48490190D01*
X241345404Y-48966380D02*
X241345404Y-47966380D01*
X240964452Y-47966380D01*
X240869214Y-48014000D01*
X240821595Y-48061619D01*
X240773976Y-48156857D01*
X240773976Y-48299714D01*
X240821595Y-48394952D01*
X240869214Y-48442571D01*
X240964452Y-48490190D01*
X241345404Y-48490190D01*
X240393023Y-48918761D02*
X240250166Y-48966380D01*
X240012071Y-48966380D01*
X239916833Y-48918761D01*
X239869214Y-48871142D01*
X239821595Y-48775904D01*
X239821595Y-48680666D01*
X239869214Y-48585428D01*
X239916833Y-48537809D01*
X240012071Y-48490190D01*
X240202547Y-48442571D01*
X240297785Y-48394952D01*
X240345404Y-48347333D01*
X240393023Y-48252095D01*
X240393023Y-48156857D01*
X240345404Y-48061619D01*
X240297785Y-48014000D01*
X240202547Y-47966380D01*
X239964452Y-47966380D01*
X239821595Y-48014000D01*
X239535880Y-47966380D02*
X238964452Y-47966380D01*
X239250166Y-48966380D02*
X239250166Y-47966380D01*
X231300785Y-54046380D02*
X231300785Y-53046380D01*
X231062690Y-53046380D01*
X230919833Y-53094000D01*
X230824595Y-53189238D01*
X230776976Y-53284476D01*
X230729357Y-53474952D01*
X230729357Y-53617809D01*
X230776976Y-53808285D01*
X230824595Y-53903523D01*
X230919833Y-53998761D01*
X231062690Y-54046380D01*
X231300785Y-54046380D01*
X230348404Y-53141619D02*
X230300785Y-53094000D01*
X230205547Y-53046380D01*
X229967452Y-53046380D01*
X229872214Y-53094000D01*
X229824595Y-53141619D01*
X229776976Y-53236857D01*
X229776976Y-53332095D01*
X229824595Y-53474952D01*
X230396023Y-54046380D01*
X229776976Y-54046380D01*
X231300785Y-71826380D02*
X231300785Y-70826380D01*
X231062690Y-70826380D01*
X230919833Y-70874000D01*
X230824595Y-70969238D01*
X230776976Y-71064476D01*
X230729357Y-71254952D01*
X230729357Y-71397809D01*
X230776976Y-71588285D01*
X230824595Y-71683523D01*
X230919833Y-71778761D01*
X231062690Y-71826380D01*
X231300785Y-71826380D01*
X230253166Y-71826380D02*
X230062690Y-71826380D01*
X229967452Y-71778761D01*
X229919833Y-71731142D01*
X229824595Y-71588285D01*
X229776976Y-71397809D01*
X229776976Y-71016857D01*
X229824595Y-70921619D01*
X229872214Y-70874000D01*
X229967452Y-70826380D01*
X230157928Y-70826380D01*
X230253166Y-70874000D01*
X230300785Y-70921619D01*
X230348404Y-71016857D01*
X230348404Y-71254952D01*
X230300785Y-71350190D01*
X230253166Y-71397809D01*
X230157928Y-71445428D01*
X229967452Y-71445428D01*
X229872214Y-71397809D01*
X229824595Y-71350190D01*
X229776976Y-71254952D01*
X240821595Y-45474000D02*
X240916833Y-45426380D01*
X241059690Y-45426380D01*
X241202547Y-45474000D01*
X241297785Y-45569238D01*
X241345404Y-45664476D01*
X241393023Y-45854952D01*
X241393023Y-45997809D01*
X241345404Y-46188285D01*
X241297785Y-46283523D01*
X241202547Y-46378761D01*
X241059690Y-46426380D01*
X240964452Y-46426380D01*
X240821595Y-46378761D01*
X240773976Y-46331142D01*
X240773976Y-45997809D01*
X240964452Y-45997809D01*
X240345404Y-46426380D02*
X240345404Y-45426380D01*
X239773976Y-46426380D01*
X239773976Y-45426380D01*
X239297785Y-46426380D02*
X239297785Y-45426380D01*
X239059690Y-45426380D01*
X238916833Y-45474000D01*
X238821595Y-45569238D01*
X238773976Y-45664476D01*
X238726357Y-45854952D01*
X238726357Y-45997809D01*
X238773976Y-46188285D01*
X238821595Y-46283523D01*
X238916833Y-46378761D01*
X239059690Y-46426380D01*
X239297785Y-46426380D01*
X235751666Y-47784952D02*
X235751666Y-48261142D01*
X236037380Y-47689714D02*
X235037380Y-48023047D01*
X236037380Y-48356380D01*
X236037380Y-48689714D02*
X235370714Y-48689714D01*
X235561190Y-48689714D02*
X235465952Y-48737333D01*
X235418333Y-48784952D01*
X235370714Y-48880190D01*
X235370714Y-48975428D01*
X236037380Y-49737333D02*
X235037380Y-49737333D01*
X235989761Y-49737333D02*
X236037380Y-49642095D01*
X236037380Y-49451619D01*
X235989761Y-49356380D01*
X235942142Y-49308761D01*
X235846904Y-49261142D01*
X235561190Y-49261142D01*
X235465952Y-49308761D01*
X235418333Y-49356380D01*
X235370714Y-49451619D01*
X235370714Y-49642095D01*
X235418333Y-49737333D01*
X235370714Y-50642095D02*
X236037380Y-50642095D01*
X235370714Y-50213523D02*
X235894523Y-50213523D01*
X235989761Y-50261142D01*
X236037380Y-50356380D01*
X236037380Y-50499238D01*
X235989761Y-50594476D01*
X235942142Y-50642095D01*
X236037380Y-51118285D02*
X235370714Y-51118285D01*
X235037380Y-51118285D02*
X235085000Y-51070666D01*
X235132619Y-51118285D01*
X235085000Y-51165904D01*
X235037380Y-51118285D01*
X235132619Y-51118285D01*
X235370714Y-51594476D02*
X236037380Y-51594476D01*
X235465952Y-51594476D02*
X235418333Y-51642095D01*
X235370714Y-51737333D01*
X235370714Y-51880190D01*
X235418333Y-51975428D01*
X235513571Y-52023047D01*
X236037380Y-52023047D01*
X236037380Y-52642095D02*
X235989761Y-52546857D01*
X235942142Y-52499238D01*
X235846904Y-52451619D01*
X235561190Y-52451619D01*
X235465952Y-52499238D01*
X235418333Y-52546857D01*
X235370714Y-52642095D01*
X235370714Y-52784952D01*
X235418333Y-52880190D01*
X235465952Y-52927809D01*
X235561190Y-52975428D01*
X235846904Y-52975428D01*
X235942142Y-52927809D01*
X235989761Y-52880190D01*
X236037380Y-52784952D01*
X236037380Y-52642095D01*
X236037380Y-54165904D02*
X235037380Y-54165904D01*
X235037380Y-54546857D01*
X235085000Y-54642095D01*
X235132619Y-54689714D01*
X235227857Y-54737333D01*
X235370714Y-54737333D01*
X235465952Y-54689714D01*
X235513571Y-54642095D01*
X235561190Y-54546857D01*
X235561190Y-54165904D01*
X236037380Y-55165904D02*
X235370714Y-55165904D01*
X235561190Y-55165904D02*
X235465952Y-55213523D01*
X235418333Y-55261142D01*
X235370714Y-55356380D01*
X235370714Y-55451619D01*
X236037380Y-55927809D02*
X235989761Y-55832571D01*
X235942142Y-55784952D01*
X235846904Y-55737333D01*
X235561190Y-55737333D01*
X235465952Y-55784952D01*
X235418333Y-55832571D01*
X235370714Y-55927809D01*
X235370714Y-56070666D01*
X235418333Y-56165904D01*
X235465952Y-56213523D01*
X235561190Y-56261142D01*
X235846904Y-56261142D01*
X235942142Y-56213523D01*
X235989761Y-56165904D01*
X236037380Y-56070666D01*
X236037380Y-55927809D01*
X236037380Y-57451619D02*
X235037380Y-57451619D01*
X235751666Y-57784952D01*
X235037380Y-58118285D01*
X236037380Y-58118285D01*
X236037380Y-58594476D02*
X235370714Y-58594476D01*
X235037380Y-58594476D02*
X235085000Y-58546857D01*
X235132619Y-58594476D01*
X235085000Y-58642095D01*
X235037380Y-58594476D01*
X235132619Y-58594476D01*
X235989761Y-59499238D02*
X236037380Y-59404000D01*
X236037380Y-59213523D01*
X235989761Y-59118285D01*
X235942142Y-59070666D01*
X235846904Y-59023047D01*
X235561190Y-59023047D01*
X235465952Y-59070666D01*
X235418333Y-59118285D01*
X235370714Y-59213523D01*
X235370714Y-59404000D01*
X235418333Y-59499238D01*
X236037380Y-59927809D02*
X235370714Y-59927809D01*
X235561190Y-59927809D02*
X235465952Y-59975428D01*
X235418333Y-60023047D01*
X235370714Y-60118285D01*
X235370714Y-60213523D01*
X236037380Y-60689714D02*
X235989761Y-60594476D01*
X235942142Y-60546857D01*
X235846904Y-60499238D01*
X235561190Y-60499238D01*
X235465952Y-60546857D01*
X235418333Y-60594476D01*
X235370714Y-60689714D01*
X235370714Y-60832571D01*
X235418333Y-60927809D01*
X235465952Y-60975428D01*
X235561190Y-61023047D01*
X235846904Y-61023047D01*
X235942142Y-60975428D01*
X235989761Y-60927809D01*
X236037380Y-60832571D01*
X236037380Y-60689714D01*
X235037380Y-62213523D02*
X235846904Y-62213523D01*
X235942142Y-62261142D01*
X235989761Y-62308761D01*
X236037380Y-62404000D01*
X236037380Y-62594476D01*
X235989761Y-62689714D01*
X235942142Y-62737333D01*
X235846904Y-62784952D01*
X235037380Y-62784952D01*
X235989761Y-63213523D02*
X236037380Y-63356380D01*
X236037380Y-63594476D01*
X235989761Y-63689714D01*
X235942142Y-63737333D01*
X235846904Y-63784952D01*
X235751666Y-63784952D01*
X235656428Y-63737333D01*
X235608809Y-63689714D01*
X235561190Y-63594476D01*
X235513571Y-63404000D01*
X235465952Y-63308761D01*
X235418333Y-63261142D01*
X235323095Y-63213523D01*
X235227857Y-63213523D01*
X235132619Y-63261142D01*
X235085000Y-63308761D01*
X235037380Y-63404000D01*
X235037380Y-63642095D01*
X235085000Y-63784952D01*
X235513571Y-64546857D02*
X235561190Y-64689714D01*
X235608809Y-64737333D01*
X235704047Y-64784952D01*
X235846904Y-64784952D01*
X235942142Y-64737333D01*
X235989761Y-64689714D01*
X236037380Y-64594476D01*
X236037380Y-64213523D01*
X235037380Y-64213523D01*
X235037380Y-64546857D01*
X235085000Y-64642095D01*
X235132619Y-64689714D01*
X235227857Y-64737333D01*
X235323095Y-64737333D01*
X235418333Y-64689714D01*
X235465952Y-64642095D01*
X235513571Y-64546857D01*
X235513571Y-64213523D01*
X235656428Y-65213523D02*
X235656428Y-65975428D01*
X235942142Y-67023047D02*
X235989761Y-66975428D01*
X236037380Y-66832571D01*
X236037380Y-66737333D01*
X235989761Y-66594476D01*
X235894523Y-66499238D01*
X235799285Y-66451619D01*
X235608809Y-66404000D01*
X235465952Y-66404000D01*
X235275476Y-66451619D01*
X235180238Y-66499238D01*
X235085000Y-66594476D01*
X235037380Y-66737333D01*
X235037380Y-66832571D01*
X235085000Y-66975428D01*
X235132619Y-67023047D01*
X241488261Y-50506380D02*
X241154928Y-51506380D01*
X240821595Y-50506380D01*
X239916833Y-51411142D02*
X239964452Y-51458761D01*
X240107309Y-51506380D01*
X240202547Y-51506380D01*
X240345404Y-51458761D01*
X240440642Y-51363523D01*
X240488261Y-51268285D01*
X240535880Y-51077809D01*
X240535880Y-50934952D01*
X240488261Y-50744476D01*
X240440642Y-50649238D01*
X240345404Y-50554000D01*
X240202547Y-50506380D01*
X240107309Y-50506380D01*
X239964452Y-50554000D01*
X239916833Y-50601619D01*
X238916833Y-51411142D02*
X238964452Y-51458761D01*
X239107309Y-51506380D01*
X239202547Y-51506380D01*
X239345404Y-51458761D01*
X239440642Y-51363523D01*
X239488261Y-51268285D01*
X239535880Y-51077809D01*
X239535880Y-50934952D01*
X239488261Y-50744476D01*
X239440642Y-50649238D01*
X239345404Y-50554000D01*
X239202547Y-50506380D01*
X239107309Y-50506380D01*
X238964452Y-50554000D01*
X238916833Y-50601619D01*
%TO.C,OLED1*%
X181760571Y-40346380D02*
X181570095Y-40346380D01*
X181474857Y-40394000D01*
X181379619Y-40489238D01*
X181332000Y-40679714D01*
X181332000Y-41013047D01*
X181379619Y-41203523D01*
X181474857Y-41298761D01*
X181570095Y-41346380D01*
X181760571Y-41346380D01*
X181855809Y-41298761D01*
X181951047Y-41203523D01*
X181998666Y-41013047D01*
X181998666Y-40679714D01*
X181951047Y-40489238D01*
X181855809Y-40394000D01*
X181760571Y-40346380D01*
X180427238Y-41346380D02*
X180903428Y-41346380D01*
X180903428Y-40346380D01*
X180093904Y-40822571D02*
X179760571Y-40822571D01*
X179617714Y-41346380D02*
X180093904Y-41346380D01*
X180093904Y-40346380D01*
X179617714Y-40346380D01*
X179189142Y-41346380D02*
X179189142Y-40346380D01*
X178951047Y-40346380D01*
X178808190Y-40394000D01*
X178712952Y-40489238D01*
X178665333Y-40584476D01*
X178617714Y-40774952D01*
X178617714Y-40917809D01*
X178665333Y-41108285D01*
X178712952Y-41203523D01*
X178808190Y-41298761D01*
X178951047Y-41346380D01*
X179189142Y-41346380D01*
X177665333Y-41346380D02*
X178236761Y-41346380D01*
X177951047Y-41346380D02*
X177951047Y-40346380D01*
X178046285Y-40489238D01*
X178141523Y-40584476D01*
X178236761Y-40632095D01*
%TO.C,KEY7*%
X202914047Y-97988380D02*
X202914047Y-96988380D01*
X202342619Y-97988380D02*
X202771190Y-97416952D01*
X202342619Y-96988380D02*
X202914047Y-97559809D01*
X201914047Y-97464571D02*
X201580714Y-97464571D01*
X201437857Y-97988380D02*
X201914047Y-97988380D01*
X201914047Y-96988380D01*
X201437857Y-96988380D01*
X200818809Y-97512190D02*
X200818809Y-97988380D01*
X201152142Y-96988380D02*
X200818809Y-97512190D01*
X200485476Y-96988380D01*
X200247380Y-96988380D02*
X199580714Y-96988380D01*
X200009285Y-97988380D01*
%TO.C,KEY15*%
X241490238Y-117038380D02*
X241490238Y-116038380D01*
X240918809Y-117038380D02*
X241347380Y-116466952D01*
X240918809Y-116038380D02*
X241490238Y-116609809D01*
X240490238Y-116514571D02*
X240156904Y-116514571D01*
X240014047Y-117038380D02*
X240490238Y-117038380D01*
X240490238Y-116038380D01*
X240014047Y-116038380D01*
X239395000Y-116562190D02*
X239395000Y-117038380D01*
X239728333Y-116038380D02*
X239395000Y-116562190D01*
X239061666Y-116038380D01*
X238204523Y-117038380D02*
X238775952Y-117038380D01*
X238490238Y-117038380D02*
X238490238Y-116038380D01*
X238585476Y-116181238D01*
X238680714Y-116276476D01*
X238775952Y-116324095D01*
X237299761Y-116038380D02*
X237775952Y-116038380D01*
X237823571Y-116514571D01*
X237775952Y-116466952D01*
X237680714Y-116419333D01*
X237442619Y-116419333D01*
X237347380Y-116466952D01*
X237299761Y-116514571D01*
X237252142Y-116609809D01*
X237252142Y-116847904D01*
X237299761Y-116943142D01*
X237347380Y-116990761D01*
X237442619Y-117038380D01*
X237680714Y-117038380D01*
X237775952Y-116990761D01*
X237823571Y-116943142D01*
%TO.C,KEY3*%
X202914047Y-78938380D02*
X202914047Y-77938380D01*
X202342619Y-78938380D02*
X202771190Y-78366952D01*
X202342619Y-77938380D02*
X202914047Y-78509809D01*
X201914047Y-78414571D02*
X201580714Y-78414571D01*
X201437857Y-78938380D02*
X201914047Y-78938380D01*
X201914047Y-77938380D01*
X201437857Y-77938380D01*
X200818809Y-78462190D02*
X200818809Y-78938380D01*
X201152142Y-77938380D02*
X200818809Y-78462190D01*
X200485476Y-77938380D01*
X200247380Y-77938380D02*
X199628333Y-77938380D01*
X199961666Y-78319333D01*
X199818809Y-78319333D01*
X199723571Y-78366952D01*
X199675952Y-78414571D01*
X199628333Y-78509809D01*
X199628333Y-78747904D01*
X199675952Y-78843142D01*
X199723571Y-78890761D01*
X199818809Y-78938380D01*
X200104523Y-78938380D01*
X200199761Y-78890761D01*
X200247380Y-78843142D01*
%TO.C,KEY5*%
X164814047Y-97988380D02*
X164814047Y-96988380D01*
X164242619Y-97988380D02*
X164671190Y-97416952D01*
X164242619Y-96988380D02*
X164814047Y-97559809D01*
X163814047Y-97464571D02*
X163480714Y-97464571D01*
X163337857Y-97988380D02*
X163814047Y-97988380D01*
X163814047Y-96988380D01*
X163337857Y-96988380D01*
X162718809Y-97512190D02*
X162718809Y-97988380D01*
X163052142Y-96988380D02*
X162718809Y-97512190D01*
X162385476Y-96988380D01*
X161575952Y-96988380D02*
X162052142Y-96988380D01*
X162099761Y-97464571D01*
X162052142Y-97416952D01*
X161956904Y-97369333D01*
X161718809Y-97369333D01*
X161623571Y-97416952D01*
X161575952Y-97464571D01*
X161528333Y-97559809D01*
X161528333Y-97797904D01*
X161575952Y-97893142D01*
X161623571Y-97940761D01*
X161718809Y-97988380D01*
X161956904Y-97988380D01*
X162052142Y-97940761D01*
X162099761Y-97893142D01*
%TO.C,C13*%
X174124857Y-128340142D02*
X174172476Y-128387761D01*
X174315333Y-128435380D01*
X174410571Y-128435380D01*
X174553428Y-128387761D01*
X174648666Y-128292523D01*
X174696285Y-128197285D01*
X174743904Y-128006809D01*
X174743904Y-127863952D01*
X174696285Y-127673476D01*
X174648666Y-127578238D01*
X174553428Y-127483000D01*
X174410571Y-127435380D01*
X174315333Y-127435380D01*
X174172476Y-127483000D01*
X174124857Y-127530619D01*
X173172476Y-128435380D02*
X173743904Y-128435380D01*
X173458190Y-128435380D02*
X173458190Y-127435380D01*
X173553428Y-127578238D01*
X173648666Y-127673476D01*
X173743904Y-127721095D01*
X172839142Y-127435380D02*
X172220095Y-127435380D01*
X172553428Y-127816333D01*
X172410571Y-127816333D01*
X172315333Y-127863952D01*
X172267714Y-127911571D01*
X172220095Y-128006809D01*
X172220095Y-128244904D01*
X172267714Y-128340142D01*
X172315333Y-128387761D01*
X172410571Y-128435380D01*
X172696285Y-128435380D01*
X172791523Y-128387761D01*
X172839142Y-128340142D01*
%TO.C,C7*%
X209716666Y-110847142D02*
X209764285Y-110894761D01*
X209907142Y-110942380D01*
X210002380Y-110942380D01*
X210145238Y-110894761D01*
X210240476Y-110799523D01*
X210288095Y-110704285D01*
X210335714Y-110513809D01*
X210335714Y-110370952D01*
X210288095Y-110180476D01*
X210240476Y-110085238D01*
X210145238Y-109990000D01*
X210002380Y-109942380D01*
X209907142Y-109942380D01*
X209764285Y-109990000D01*
X209716666Y-110037619D01*
X209383333Y-109942380D02*
X208716666Y-109942380D01*
X209145238Y-110942380D01*
%TO.C,C6*%
X190666666Y-110847142D02*
X190714285Y-110894761D01*
X190857142Y-110942380D01*
X190952380Y-110942380D01*
X191095238Y-110894761D01*
X191190476Y-110799523D01*
X191238095Y-110704285D01*
X191285714Y-110513809D01*
X191285714Y-110370952D01*
X191238095Y-110180476D01*
X191190476Y-110085238D01*
X191095238Y-109990000D01*
X190952380Y-109942380D01*
X190857142Y-109942380D01*
X190714285Y-109990000D01*
X190666666Y-110037619D01*
X189809523Y-109942380D02*
X190000000Y-109942380D01*
X190095238Y-109990000D01*
X190142857Y-110037619D01*
X190238095Y-110180476D01*
X190285714Y-110370952D01*
X190285714Y-110751904D01*
X190238095Y-110847142D01*
X190190476Y-110894761D01*
X190095238Y-110942380D01*
X189904761Y-110942380D01*
X189809523Y-110894761D01*
X189761904Y-110847142D01*
X189714285Y-110751904D01*
X189714285Y-110513809D01*
X189761904Y-110418571D01*
X189809523Y-110370952D01*
X189904761Y-110323333D01*
X190095238Y-110323333D01*
X190190476Y-110370952D01*
X190238095Y-110418571D01*
X190285714Y-110513809D01*
%TO.C,D3*%
X210637380Y-79271904D02*
X209637380Y-79271904D01*
X209637380Y-79510000D01*
X209685000Y-79652857D01*
X209780238Y-79748095D01*
X209875476Y-79795714D01*
X210065952Y-79843333D01*
X210208809Y-79843333D01*
X210399285Y-79795714D01*
X210494523Y-79748095D01*
X210589761Y-79652857D01*
X210637380Y-79510000D01*
X210637380Y-79271904D01*
X209637380Y-80176666D02*
X209637380Y-80795714D01*
X210018333Y-80462380D01*
X210018333Y-80605238D01*
X210065952Y-80700476D01*
X210113571Y-80748095D01*
X210208809Y-80795714D01*
X210446904Y-80795714D01*
X210542142Y-80748095D01*
X210589761Y-80700476D01*
X210637380Y-80605238D01*
X210637380Y-80319523D01*
X210589761Y-80224285D01*
X210542142Y-80176666D01*
%TO.C,C8*%
X228766666Y-110847142D02*
X228814285Y-110894761D01*
X228957142Y-110942380D01*
X229052380Y-110942380D01*
X229195238Y-110894761D01*
X229290476Y-110799523D01*
X229338095Y-110704285D01*
X229385714Y-110513809D01*
X229385714Y-110370952D01*
X229338095Y-110180476D01*
X229290476Y-110085238D01*
X229195238Y-109990000D01*
X229052380Y-109942380D01*
X228957142Y-109942380D01*
X228814285Y-109990000D01*
X228766666Y-110037619D01*
X228195238Y-110370952D02*
X228290476Y-110323333D01*
X228338095Y-110275714D01*
X228385714Y-110180476D01*
X228385714Y-110132857D01*
X228338095Y-110037619D01*
X228290476Y-109990000D01*
X228195238Y-109942380D01*
X228004761Y-109942380D01*
X227909523Y-109990000D01*
X227861904Y-110037619D01*
X227814285Y-110132857D01*
X227814285Y-110180476D01*
X227861904Y-110275714D01*
X227909523Y-110323333D01*
X228004761Y-110370952D01*
X228195238Y-110370952D01*
X228290476Y-110418571D01*
X228338095Y-110466190D01*
X228385714Y-110561428D01*
X228385714Y-110751904D01*
X228338095Y-110847142D01*
X228290476Y-110894761D01*
X228195238Y-110942380D01*
X228004761Y-110942380D01*
X227909523Y-110894761D01*
X227861904Y-110847142D01*
X227814285Y-110751904D01*
X227814285Y-110561428D01*
X227861904Y-110466190D01*
X227909523Y-110418571D01*
X228004761Y-110370952D01*
%TO.C,LED14*%
X164790238Y-128214380D02*
X165266428Y-128214380D01*
X165266428Y-127214380D01*
X164456904Y-127690571D02*
X164123571Y-127690571D01*
X163980714Y-128214380D02*
X164456904Y-128214380D01*
X164456904Y-127214380D01*
X163980714Y-127214380D01*
X163552142Y-128214380D02*
X163552142Y-127214380D01*
X163314047Y-127214380D01*
X163171190Y-127262000D01*
X163075952Y-127357238D01*
X163028333Y-127452476D01*
X162980714Y-127642952D01*
X162980714Y-127785809D01*
X163028333Y-127976285D01*
X163075952Y-128071523D01*
X163171190Y-128166761D01*
X163314047Y-128214380D01*
X163552142Y-128214380D01*
X162028333Y-128214380D02*
X162599761Y-128214380D01*
X162314047Y-128214380D02*
X162314047Y-127214380D01*
X162409285Y-127357238D01*
X162504523Y-127452476D01*
X162599761Y-127500095D01*
X161171190Y-127547714D02*
X161171190Y-128214380D01*
X161409285Y-127166761D02*
X161647380Y-127881047D01*
X161028333Y-127881047D01*
%TO.C,R1*%
X242586166Y-74714380D02*
X242919500Y-74238190D01*
X243157595Y-74714380D02*
X243157595Y-73714380D01*
X242776642Y-73714380D01*
X242681404Y-73762000D01*
X242633785Y-73809619D01*
X242586166Y-73904857D01*
X242586166Y-74047714D01*
X242633785Y-74142952D01*
X242681404Y-74190571D01*
X242776642Y-74238190D01*
X243157595Y-74238190D01*
X241633785Y-74714380D02*
X242205214Y-74714380D01*
X241919500Y-74714380D02*
X241919500Y-73714380D01*
X242014738Y-73857238D01*
X242109976Y-73952476D01*
X242205214Y-74000095D01*
%TO.C,C11*%
X212224857Y-128340142D02*
X212272476Y-128387761D01*
X212415333Y-128435380D01*
X212510571Y-128435380D01*
X212653428Y-128387761D01*
X212748666Y-128292523D01*
X212796285Y-128197285D01*
X212843904Y-128006809D01*
X212843904Y-127863952D01*
X212796285Y-127673476D01*
X212748666Y-127578238D01*
X212653428Y-127483000D01*
X212510571Y-127435380D01*
X212415333Y-127435380D01*
X212272476Y-127483000D01*
X212224857Y-127530619D01*
X211272476Y-128435380D02*
X211843904Y-128435380D01*
X211558190Y-128435380D02*
X211558190Y-127435380D01*
X211653428Y-127578238D01*
X211748666Y-127673476D01*
X211843904Y-127721095D01*
X210320095Y-128435380D02*
X210891523Y-128435380D01*
X210605809Y-128435380D02*
X210605809Y-127435380D01*
X210701047Y-127578238D01*
X210796285Y-127673476D01*
X210891523Y-127721095D01*
%TO.C,LED4*%
X164314047Y-90114380D02*
X164790238Y-90114380D01*
X164790238Y-89114380D01*
X163980714Y-89590571D02*
X163647380Y-89590571D01*
X163504523Y-90114380D02*
X163980714Y-90114380D01*
X163980714Y-89114380D01*
X163504523Y-89114380D01*
X163075952Y-90114380D02*
X163075952Y-89114380D01*
X162837857Y-89114380D01*
X162695000Y-89162000D01*
X162599761Y-89257238D01*
X162552142Y-89352476D01*
X162504523Y-89542952D01*
X162504523Y-89685809D01*
X162552142Y-89876285D01*
X162599761Y-89971523D01*
X162695000Y-90066761D01*
X162837857Y-90114380D01*
X163075952Y-90114380D01*
X161647380Y-89447714D02*
X161647380Y-90114380D01*
X161885476Y-89066761D02*
X162123571Y-89781047D01*
X161504523Y-89781047D01*
%TO.C,LED3*%
X183364047Y-90114380D02*
X183840238Y-90114380D01*
X183840238Y-89114380D01*
X183030714Y-89590571D02*
X182697380Y-89590571D01*
X182554523Y-90114380D02*
X183030714Y-90114380D01*
X183030714Y-89114380D01*
X182554523Y-89114380D01*
X182125952Y-90114380D02*
X182125952Y-89114380D01*
X181887857Y-89114380D01*
X181745000Y-89162000D01*
X181649761Y-89257238D01*
X181602142Y-89352476D01*
X181554523Y-89542952D01*
X181554523Y-89685809D01*
X181602142Y-89876285D01*
X181649761Y-89971523D01*
X181745000Y-90066761D01*
X181887857Y-90114380D01*
X182125952Y-90114380D01*
X181221190Y-89114380D02*
X180602142Y-89114380D01*
X180935476Y-89495333D01*
X180792619Y-89495333D01*
X180697380Y-89542952D01*
X180649761Y-89590571D01*
X180602142Y-89685809D01*
X180602142Y-89923904D01*
X180649761Y-90019142D01*
X180697380Y-90066761D01*
X180792619Y-90114380D01*
X181078333Y-90114380D01*
X181173571Y-90066761D01*
X181221190Y-90019142D01*
%TO.C,C9*%
X247816666Y-110847142D02*
X247864285Y-110894761D01*
X248007142Y-110942380D01*
X248102380Y-110942380D01*
X248245238Y-110894761D01*
X248340476Y-110799523D01*
X248388095Y-110704285D01*
X248435714Y-110513809D01*
X248435714Y-110370952D01*
X248388095Y-110180476D01*
X248340476Y-110085238D01*
X248245238Y-109990000D01*
X248102380Y-109942380D01*
X248007142Y-109942380D01*
X247864285Y-109990000D01*
X247816666Y-110037619D01*
X247340476Y-110942380D02*
X247150000Y-110942380D01*
X247054761Y-110894761D01*
X247007142Y-110847142D01*
X246911904Y-110704285D01*
X246864285Y-110513809D01*
X246864285Y-110132857D01*
X246911904Y-110037619D01*
X246959523Y-109990000D01*
X247054761Y-109942380D01*
X247245238Y-109942380D01*
X247340476Y-109990000D01*
X247388095Y-110037619D01*
X247435714Y-110132857D01*
X247435714Y-110370952D01*
X247388095Y-110466190D01*
X247340476Y-110513809D01*
X247245238Y-110561428D01*
X247054761Y-110561428D01*
X246959523Y-110513809D01*
X246911904Y-110466190D01*
X246864285Y-110370952D01*
%TO.C,LED5*%
X164314047Y-109132380D02*
X164790238Y-109132380D01*
X164790238Y-108132380D01*
X163980714Y-108608571D02*
X163647380Y-108608571D01*
X163504523Y-109132380D02*
X163980714Y-109132380D01*
X163980714Y-108132380D01*
X163504523Y-108132380D01*
X163075952Y-109132380D02*
X163075952Y-108132380D01*
X162837857Y-108132380D01*
X162695000Y-108180000D01*
X162599761Y-108275238D01*
X162552142Y-108370476D01*
X162504523Y-108560952D01*
X162504523Y-108703809D01*
X162552142Y-108894285D01*
X162599761Y-108989523D01*
X162695000Y-109084761D01*
X162837857Y-109132380D01*
X163075952Y-109132380D01*
X161599761Y-108132380D02*
X162075952Y-108132380D01*
X162123571Y-108608571D01*
X162075952Y-108560952D01*
X161980714Y-108513333D01*
X161742619Y-108513333D01*
X161647380Y-108560952D01*
X161599761Y-108608571D01*
X161552142Y-108703809D01*
X161552142Y-108941904D01*
X161599761Y-109037142D01*
X161647380Y-109084761D01*
X161742619Y-109132380D01*
X161980714Y-109132380D01*
X162075952Y-109084761D01*
X162123571Y-109037142D01*
%TO.C,C5*%
X171616666Y-110847142D02*
X171664285Y-110894761D01*
X171807142Y-110942380D01*
X171902380Y-110942380D01*
X172045238Y-110894761D01*
X172140476Y-110799523D01*
X172188095Y-110704285D01*
X172235714Y-110513809D01*
X172235714Y-110370952D01*
X172188095Y-110180476D01*
X172140476Y-110085238D01*
X172045238Y-109990000D01*
X171902380Y-109942380D01*
X171807142Y-109942380D01*
X171664285Y-109990000D01*
X171616666Y-110037619D01*
X170711904Y-109942380D02*
X171188095Y-109942380D01*
X171235714Y-110418571D01*
X171188095Y-110370952D01*
X171092857Y-110323333D01*
X170854761Y-110323333D01*
X170759523Y-110370952D01*
X170711904Y-110418571D01*
X170664285Y-110513809D01*
X170664285Y-110751904D01*
X170711904Y-110847142D01*
X170759523Y-110894761D01*
X170854761Y-110942380D01*
X171092857Y-110942380D01*
X171188095Y-110894761D01*
X171235714Y-110847142D01*
%TO.C,D10*%
X191587380Y-116895714D02*
X190587380Y-116895714D01*
X190587380Y-117133809D01*
X190635000Y-117276666D01*
X190730238Y-117371904D01*
X190825476Y-117419523D01*
X191015952Y-117467142D01*
X191158809Y-117467142D01*
X191349285Y-117419523D01*
X191444523Y-117371904D01*
X191539761Y-117276666D01*
X191587380Y-117133809D01*
X191587380Y-116895714D01*
X191587380Y-118419523D02*
X191587380Y-117848095D01*
X191587380Y-118133809D02*
X190587380Y-118133809D01*
X190730238Y-118038571D01*
X190825476Y-117943333D01*
X190873095Y-117848095D01*
X190587380Y-119038571D02*
X190587380Y-119133809D01*
X190635000Y-119229047D01*
X190682619Y-119276666D01*
X190777857Y-119324285D01*
X190968333Y-119371904D01*
X191206428Y-119371904D01*
X191396904Y-119324285D01*
X191492142Y-119276666D01*
X191539761Y-119229047D01*
X191587380Y-119133809D01*
X191587380Y-119038571D01*
X191539761Y-118943333D01*
X191492142Y-118895714D01*
X191396904Y-118848095D01*
X191206428Y-118800476D01*
X190968333Y-118800476D01*
X190777857Y-118848095D01*
X190682619Y-118895714D01*
X190635000Y-118943333D01*
X190587380Y-119038571D01*
%TO.C,C3*%
X174156666Y-90240142D02*
X174204285Y-90287761D01*
X174347142Y-90335380D01*
X174442380Y-90335380D01*
X174585238Y-90287761D01*
X174680476Y-90192523D01*
X174728095Y-90097285D01*
X174775714Y-89906809D01*
X174775714Y-89763952D01*
X174728095Y-89573476D01*
X174680476Y-89478238D01*
X174585238Y-89383000D01*
X174442380Y-89335380D01*
X174347142Y-89335380D01*
X174204285Y-89383000D01*
X174156666Y-89430619D01*
X173823333Y-89335380D02*
X173204285Y-89335380D01*
X173537619Y-89716333D01*
X173394761Y-89716333D01*
X173299523Y-89763952D01*
X173251904Y-89811571D01*
X173204285Y-89906809D01*
X173204285Y-90144904D01*
X173251904Y-90240142D01*
X173299523Y-90287761D01*
X173394761Y-90335380D01*
X173680476Y-90335380D01*
X173775714Y-90287761D01*
X173823333Y-90240142D01*
%TO.C,D15*%
X248737380Y-116895714D02*
X247737380Y-116895714D01*
X247737380Y-117133809D01*
X247785000Y-117276666D01*
X247880238Y-117371904D01*
X247975476Y-117419523D01*
X248165952Y-117467142D01*
X248308809Y-117467142D01*
X248499285Y-117419523D01*
X248594523Y-117371904D01*
X248689761Y-117276666D01*
X248737380Y-117133809D01*
X248737380Y-116895714D01*
X248737380Y-118419523D02*
X248737380Y-117848095D01*
X248737380Y-118133809D02*
X247737380Y-118133809D01*
X247880238Y-118038571D01*
X247975476Y-117943333D01*
X248023095Y-117848095D01*
X247737380Y-119324285D02*
X247737380Y-118848095D01*
X248213571Y-118800476D01*
X248165952Y-118848095D01*
X248118333Y-118943333D01*
X248118333Y-119181428D01*
X248165952Y-119276666D01*
X248213571Y-119324285D01*
X248308809Y-119371904D01*
X248546904Y-119371904D01*
X248642142Y-119324285D01*
X248689761Y-119276666D01*
X248737380Y-119181428D01*
X248737380Y-118943333D01*
X248689761Y-118848095D01*
X248642142Y-118800476D01*
%TO.C,LED8*%
X221464047Y-109132380D02*
X221940238Y-109132380D01*
X221940238Y-108132380D01*
X221130714Y-108608571D02*
X220797380Y-108608571D01*
X220654523Y-109132380D02*
X221130714Y-109132380D01*
X221130714Y-108132380D01*
X220654523Y-108132380D01*
X220225952Y-109132380D02*
X220225952Y-108132380D01*
X219987857Y-108132380D01*
X219845000Y-108180000D01*
X219749761Y-108275238D01*
X219702142Y-108370476D01*
X219654523Y-108560952D01*
X219654523Y-108703809D01*
X219702142Y-108894285D01*
X219749761Y-108989523D01*
X219845000Y-109084761D01*
X219987857Y-109132380D01*
X220225952Y-109132380D01*
X219083095Y-108560952D02*
X219178333Y-108513333D01*
X219225952Y-108465714D01*
X219273571Y-108370476D01*
X219273571Y-108322857D01*
X219225952Y-108227619D01*
X219178333Y-108180000D01*
X219083095Y-108132380D01*
X218892619Y-108132380D01*
X218797380Y-108180000D01*
X218749761Y-108227619D01*
X218702142Y-108322857D01*
X218702142Y-108370476D01*
X218749761Y-108465714D01*
X218797380Y-108513333D01*
X218892619Y-108560952D01*
X219083095Y-108560952D01*
X219178333Y-108608571D01*
X219225952Y-108656190D01*
X219273571Y-108751428D01*
X219273571Y-108941904D01*
X219225952Y-109037142D01*
X219178333Y-109084761D01*
X219083095Y-109132380D01*
X218892619Y-109132380D01*
X218797380Y-109084761D01*
X218749761Y-109037142D01*
X218702142Y-108941904D01*
X218702142Y-108751428D01*
X218749761Y-108656190D01*
X218797380Y-108608571D01*
X218892619Y-108560952D01*
%TO.C,D2*%
X191587380Y-79271904D02*
X190587380Y-79271904D01*
X190587380Y-79510000D01*
X190635000Y-79652857D01*
X190730238Y-79748095D01*
X190825476Y-79795714D01*
X191015952Y-79843333D01*
X191158809Y-79843333D01*
X191349285Y-79795714D01*
X191444523Y-79748095D01*
X191539761Y-79652857D01*
X191587380Y-79510000D01*
X191587380Y-79271904D01*
X190682619Y-80224285D02*
X190635000Y-80271904D01*
X190587380Y-80367142D01*
X190587380Y-80605238D01*
X190635000Y-80700476D01*
X190682619Y-80748095D01*
X190777857Y-80795714D01*
X190873095Y-80795714D01*
X191015952Y-80748095D01*
X191587380Y-80176666D01*
X191587380Y-80795714D01*
%TO.C,D9*%
X172537380Y-117371904D02*
X171537380Y-117371904D01*
X171537380Y-117610000D01*
X171585000Y-117752857D01*
X171680238Y-117848095D01*
X171775476Y-117895714D01*
X171965952Y-117943333D01*
X172108809Y-117943333D01*
X172299285Y-117895714D01*
X172394523Y-117848095D01*
X172489761Y-117752857D01*
X172537380Y-117610000D01*
X172537380Y-117371904D01*
X172537380Y-118419523D02*
X172537380Y-118610000D01*
X172489761Y-118705238D01*
X172442142Y-118752857D01*
X172299285Y-118848095D01*
X172108809Y-118895714D01*
X171727857Y-118895714D01*
X171632619Y-118848095D01*
X171585000Y-118800476D01*
X171537380Y-118705238D01*
X171537380Y-118514761D01*
X171585000Y-118419523D01*
X171632619Y-118371904D01*
X171727857Y-118324285D01*
X171965952Y-118324285D01*
X172061190Y-118371904D01*
X172108809Y-118419523D01*
X172156428Y-118514761D01*
X172156428Y-118705238D01*
X172108809Y-118800476D01*
X172061190Y-118848095D01*
X171965952Y-118895714D01*
%TO.C,LED1*%
X221464047Y-90114380D02*
X221940238Y-90114380D01*
X221940238Y-89114380D01*
X221130714Y-89590571D02*
X220797380Y-89590571D01*
X220654523Y-90114380D02*
X221130714Y-90114380D01*
X221130714Y-89114380D01*
X220654523Y-89114380D01*
X220225952Y-90114380D02*
X220225952Y-89114380D01*
X219987857Y-89114380D01*
X219845000Y-89162000D01*
X219749761Y-89257238D01*
X219702142Y-89352476D01*
X219654523Y-89542952D01*
X219654523Y-89685809D01*
X219702142Y-89876285D01*
X219749761Y-89971523D01*
X219845000Y-90066761D01*
X219987857Y-90114380D01*
X220225952Y-90114380D01*
X218702142Y-90114380D02*
X219273571Y-90114380D01*
X218987857Y-90114380D02*
X218987857Y-89114380D01*
X219083095Y-89257238D01*
X219178333Y-89352476D01*
X219273571Y-89400095D01*
%TO.C,LED2*%
X202414047Y-90114380D02*
X202890238Y-90114380D01*
X202890238Y-89114380D01*
X202080714Y-89590571D02*
X201747380Y-89590571D01*
X201604523Y-90114380D02*
X202080714Y-90114380D01*
X202080714Y-89114380D01*
X201604523Y-89114380D01*
X201175952Y-90114380D02*
X201175952Y-89114380D01*
X200937857Y-89114380D01*
X200795000Y-89162000D01*
X200699761Y-89257238D01*
X200652142Y-89352476D01*
X200604523Y-89542952D01*
X200604523Y-89685809D01*
X200652142Y-89876285D01*
X200699761Y-89971523D01*
X200795000Y-90066761D01*
X200937857Y-90114380D01*
X201175952Y-90114380D01*
X200223571Y-89209619D02*
X200175952Y-89162000D01*
X200080714Y-89114380D01*
X199842619Y-89114380D01*
X199747380Y-89162000D01*
X199699761Y-89209619D01*
X199652142Y-89304857D01*
X199652142Y-89400095D01*
X199699761Y-89542952D01*
X200271190Y-90114380D01*
X199652142Y-90114380D01*
%TO.C,D1*%
X172537380Y-79271904D02*
X171537380Y-79271904D01*
X171537380Y-79510000D01*
X171585000Y-79652857D01*
X171680238Y-79748095D01*
X171775476Y-79795714D01*
X171965952Y-79843333D01*
X172108809Y-79843333D01*
X172299285Y-79795714D01*
X172394523Y-79748095D01*
X172489761Y-79652857D01*
X172537380Y-79510000D01*
X172537380Y-79271904D01*
X172537380Y-80795714D02*
X172537380Y-80224285D01*
X172537380Y-80510000D02*
X171537380Y-80510000D01*
X171680238Y-80414761D01*
X171775476Y-80319523D01*
X171823095Y-80224285D01*
%TO.C,D12*%
X229687380Y-116895714D02*
X228687380Y-116895714D01*
X228687380Y-117133809D01*
X228735000Y-117276666D01*
X228830238Y-117371904D01*
X228925476Y-117419523D01*
X229115952Y-117467142D01*
X229258809Y-117467142D01*
X229449285Y-117419523D01*
X229544523Y-117371904D01*
X229639761Y-117276666D01*
X229687380Y-117133809D01*
X229687380Y-116895714D01*
X229687380Y-118419523D02*
X229687380Y-117848095D01*
X229687380Y-118133809D02*
X228687380Y-118133809D01*
X228830238Y-118038571D01*
X228925476Y-117943333D01*
X228973095Y-117848095D01*
X228782619Y-118800476D02*
X228735000Y-118848095D01*
X228687380Y-118943333D01*
X228687380Y-119181428D01*
X228735000Y-119276666D01*
X228782619Y-119324285D01*
X228877857Y-119371904D01*
X228973095Y-119371904D01*
X229115952Y-119324285D01*
X229687380Y-118752857D01*
X229687380Y-119371904D01*
%TO.C,C2*%
X193206666Y-90240142D02*
X193254285Y-90287761D01*
X193397142Y-90335380D01*
X193492380Y-90335380D01*
X193635238Y-90287761D01*
X193730476Y-90192523D01*
X193778095Y-90097285D01*
X193825714Y-89906809D01*
X193825714Y-89763952D01*
X193778095Y-89573476D01*
X193730476Y-89478238D01*
X193635238Y-89383000D01*
X193492380Y-89335380D01*
X193397142Y-89335380D01*
X193254285Y-89383000D01*
X193206666Y-89430619D01*
X192825714Y-89430619D02*
X192778095Y-89383000D01*
X192682857Y-89335380D01*
X192444761Y-89335380D01*
X192349523Y-89383000D01*
X192301904Y-89430619D01*
X192254285Y-89525857D01*
X192254285Y-89621095D01*
X192301904Y-89763952D01*
X192873333Y-90335380D01*
X192254285Y-90335380D01*
%TO.C,D11*%
X210637380Y-116895714D02*
X209637380Y-116895714D01*
X209637380Y-117133809D01*
X209685000Y-117276666D01*
X209780238Y-117371904D01*
X209875476Y-117419523D01*
X210065952Y-117467142D01*
X210208809Y-117467142D01*
X210399285Y-117419523D01*
X210494523Y-117371904D01*
X210589761Y-117276666D01*
X210637380Y-117133809D01*
X210637380Y-116895714D01*
X210637380Y-118419523D02*
X210637380Y-117848095D01*
X210637380Y-118133809D02*
X209637380Y-118133809D01*
X209780238Y-118038571D01*
X209875476Y-117943333D01*
X209923095Y-117848095D01*
X210637380Y-119371904D02*
X210637380Y-118800476D01*
X210637380Y-119086190D02*
X209637380Y-119086190D01*
X209780238Y-118990952D01*
X209875476Y-118895714D01*
X209923095Y-118800476D01*
%TO.C,LED9*%
X240514047Y-109037380D02*
X240990238Y-109037380D01*
X240990238Y-108037380D01*
X240180714Y-108513571D02*
X239847380Y-108513571D01*
X239704523Y-109037380D02*
X240180714Y-109037380D01*
X240180714Y-108037380D01*
X239704523Y-108037380D01*
X239275952Y-109037380D02*
X239275952Y-108037380D01*
X239037857Y-108037380D01*
X238895000Y-108085000D01*
X238799761Y-108180238D01*
X238752142Y-108275476D01*
X238704523Y-108465952D01*
X238704523Y-108608809D01*
X238752142Y-108799285D01*
X238799761Y-108894523D01*
X238895000Y-108989761D01*
X239037857Y-109037380D01*
X239275952Y-109037380D01*
X238228333Y-109037380D02*
X238037857Y-109037380D01*
X237942619Y-108989761D01*
X237895000Y-108942142D01*
X237799761Y-108799285D01*
X237752142Y-108608809D01*
X237752142Y-108227857D01*
X237799761Y-108132619D01*
X237847380Y-108085000D01*
X237942619Y-108037380D01*
X238133095Y-108037380D01*
X238228333Y-108085000D01*
X238275952Y-108132619D01*
X238323571Y-108227857D01*
X238323571Y-108465952D01*
X238275952Y-108561190D01*
X238228333Y-108608809D01*
X238133095Y-108656428D01*
X237942619Y-108656428D01*
X237847380Y-108608809D01*
X237799761Y-108561190D01*
X237752142Y-108465952D01*
%TO.C,D4*%
X229687380Y-79271904D02*
X228687380Y-79271904D01*
X228687380Y-79510000D01*
X228735000Y-79652857D01*
X228830238Y-79748095D01*
X228925476Y-79795714D01*
X229115952Y-79843333D01*
X229258809Y-79843333D01*
X229449285Y-79795714D01*
X229544523Y-79748095D01*
X229639761Y-79652857D01*
X229687380Y-79510000D01*
X229687380Y-79271904D01*
X229020714Y-80700476D02*
X229687380Y-80700476D01*
X228639761Y-80462380D02*
X229354047Y-80224285D01*
X229354047Y-80843333D01*
%TO.C,D13*%
X248737380Y-78795714D02*
X247737380Y-78795714D01*
X247737380Y-79033809D01*
X247785000Y-79176666D01*
X247880238Y-79271904D01*
X247975476Y-79319523D01*
X248165952Y-79367142D01*
X248308809Y-79367142D01*
X248499285Y-79319523D01*
X248594523Y-79271904D01*
X248689761Y-79176666D01*
X248737380Y-79033809D01*
X248737380Y-78795714D01*
X248737380Y-80319523D02*
X248737380Y-79748095D01*
X248737380Y-80033809D02*
X247737380Y-80033809D01*
X247880238Y-79938571D01*
X247975476Y-79843333D01*
X248023095Y-79748095D01*
X247737380Y-80652857D02*
X247737380Y-81271904D01*
X248118333Y-80938571D01*
X248118333Y-81081428D01*
X248165952Y-81176666D01*
X248213571Y-81224285D01*
X248308809Y-81271904D01*
X248546904Y-81271904D01*
X248642142Y-81224285D01*
X248689761Y-81176666D01*
X248737380Y-81081428D01*
X248737380Y-80795714D01*
X248689761Y-80700476D01*
X248642142Y-80652857D01*
%TO.C,LED0*%
X240514047Y-90114380D02*
X240990238Y-90114380D01*
X240990238Y-89114380D01*
X240180714Y-89590571D02*
X239847380Y-89590571D01*
X239704523Y-90114380D02*
X240180714Y-90114380D01*
X240180714Y-89114380D01*
X239704523Y-89114380D01*
X239275952Y-90114380D02*
X239275952Y-89114380D01*
X239037857Y-89114380D01*
X238895000Y-89162000D01*
X238799761Y-89257238D01*
X238752142Y-89352476D01*
X238704523Y-89542952D01*
X238704523Y-89685809D01*
X238752142Y-89876285D01*
X238799761Y-89971523D01*
X238895000Y-90066761D01*
X239037857Y-90114380D01*
X239275952Y-90114380D01*
X238085476Y-89114380D02*
X237990238Y-89114380D01*
X237895000Y-89162000D01*
X237847380Y-89209619D01*
X237799761Y-89304857D01*
X237752142Y-89495333D01*
X237752142Y-89733428D01*
X237799761Y-89923904D01*
X237847380Y-90019142D01*
X237895000Y-90066761D01*
X237990238Y-90114380D01*
X238085476Y-90114380D01*
X238180714Y-90066761D01*
X238228333Y-90019142D01*
X238275952Y-89923904D01*
X238323571Y-89733428D01*
X238323571Y-89495333D01*
X238275952Y-89304857D01*
X238228333Y-89209619D01*
X238180714Y-89162000D01*
X238085476Y-89114380D01*
%TO.C,D14*%
X248737380Y-97845714D02*
X247737380Y-97845714D01*
X247737380Y-98083809D01*
X247785000Y-98226666D01*
X247880238Y-98321904D01*
X247975476Y-98369523D01*
X248165952Y-98417142D01*
X248308809Y-98417142D01*
X248499285Y-98369523D01*
X248594523Y-98321904D01*
X248689761Y-98226666D01*
X248737380Y-98083809D01*
X248737380Y-97845714D01*
X248737380Y-99369523D02*
X248737380Y-98798095D01*
X248737380Y-99083809D02*
X247737380Y-99083809D01*
X247880238Y-98988571D01*
X247975476Y-98893333D01*
X248023095Y-98798095D01*
X248070714Y-100226666D02*
X248737380Y-100226666D01*
X247689761Y-99988571D02*
X248404047Y-99750476D01*
X248404047Y-100369523D01*
%TO.C,D8*%
X229687380Y-98321904D02*
X228687380Y-98321904D01*
X228687380Y-98560000D01*
X228735000Y-98702857D01*
X228830238Y-98798095D01*
X228925476Y-98845714D01*
X229115952Y-98893333D01*
X229258809Y-98893333D01*
X229449285Y-98845714D01*
X229544523Y-98798095D01*
X229639761Y-98702857D01*
X229687380Y-98560000D01*
X229687380Y-98321904D01*
X229115952Y-99464761D02*
X229068333Y-99369523D01*
X229020714Y-99321904D01*
X228925476Y-99274285D01*
X228877857Y-99274285D01*
X228782619Y-99321904D01*
X228735000Y-99369523D01*
X228687380Y-99464761D01*
X228687380Y-99655238D01*
X228735000Y-99750476D01*
X228782619Y-99798095D01*
X228877857Y-99845714D01*
X228925476Y-99845714D01*
X229020714Y-99798095D01*
X229068333Y-99750476D01*
X229115952Y-99655238D01*
X229115952Y-99464761D01*
X229163571Y-99369523D01*
X229211190Y-99321904D01*
X229306428Y-99274285D01*
X229496904Y-99274285D01*
X229592142Y-99321904D01*
X229639761Y-99369523D01*
X229687380Y-99464761D01*
X229687380Y-99655238D01*
X229639761Y-99750476D01*
X229592142Y-99798095D01*
X229496904Y-99845714D01*
X229306428Y-99845714D01*
X229211190Y-99798095D01*
X229163571Y-99750476D01*
X229115952Y-99655238D01*
%TO.C,D5*%
X172537380Y-98321904D02*
X171537380Y-98321904D01*
X171537380Y-98560000D01*
X171585000Y-98702857D01*
X171680238Y-98798095D01*
X171775476Y-98845714D01*
X171965952Y-98893333D01*
X172108809Y-98893333D01*
X172299285Y-98845714D01*
X172394523Y-98798095D01*
X172489761Y-98702857D01*
X172537380Y-98560000D01*
X172537380Y-98321904D01*
X171537380Y-99798095D02*
X171537380Y-99321904D01*
X172013571Y-99274285D01*
X171965952Y-99321904D01*
X171918333Y-99417142D01*
X171918333Y-99655238D01*
X171965952Y-99750476D01*
X172013571Y-99798095D01*
X172108809Y-99845714D01*
X172346904Y-99845714D01*
X172442142Y-99798095D01*
X172489761Y-99750476D01*
X172537380Y-99655238D01*
X172537380Y-99417142D01*
X172489761Y-99321904D01*
X172442142Y-99274285D01*
%TO.C,D6*%
X191587380Y-98321904D02*
X190587380Y-98321904D01*
X190587380Y-98560000D01*
X190635000Y-98702857D01*
X190730238Y-98798095D01*
X190825476Y-98845714D01*
X191015952Y-98893333D01*
X191158809Y-98893333D01*
X191349285Y-98845714D01*
X191444523Y-98798095D01*
X191539761Y-98702857D01*
X191587380Y-98560000D01*
X191587380Y-98321904D01*
X190587380Y-99750476D02*
X190587380Y-99560000D01*
X190635000Y-99464761D01*
X190682619Y-99417142D01*
X190825476Y-99321904D01*
X191015952Y-99274285D01*
X191396904Y-99274285D01*
X191492142Y-99321904D01*
X191539761Y-99369523D01*
X191587380Y-99464761D01*
X191587380Y-99655238D01*
X191539761Y-99750476D01*
X191492142Y-99798095D01*
X191396904Y-99845714D01*
X191158809Y-99845714D01*
X191063571Y-99798095D01*
X191015952Y-99750476D01*
X190968333Y-99655238D01*
X190968333Y-99464761D01*
X191015952Y-99369523D01*
X191063571Y-99321904D01*
X191158809Y-99274285D01*
%TO.C,C4*%
X155106666Y-90240142D02*
X155154285Y-90287761D01*
X155297142Y-90335380D01*
X155392380Y-90335380D01*
X155535238Y-90287761D01*
X155630476Y-90192523D01*
X155678095Y-90097285D01*
X155725714Y-89906809D01*
X155725714Y-89763952D01*
X155678095Y-89573476D01*
X155630476Y-89478238D01*
X155535238Y-89383000D01*
X155392380Y-89335380D01*
X155297142Y-89335380D01*
X155154285Y-89383000D01*
X155106666Y-89430619D01*
X154249523Y-89668714D02*
X154249523Y-90335380D01*
X154487619Y-89287761D02*
X154725714Y-90002047D01*
X154106666Y-90002047D01*
%TO.C,D7*%
X210637380Y-98321904D02*
X209637380Y-98321904D01*
X209637380Y-98560000D01*
X209685000Y-98702857D01*
X209780238Y-98798095D01*
X209875476Y-98845714D01*
X210065952Y-98893333D01*
X210208809Y-98893333D01*
X210399285Y-98845714D01*
X210494523Y-98798095D01*
X210589761Y-98702857D01*
X210637380Y-98560000D01*
X210637380Y-98321904D01*
X209637380Y-99226666D02*
X209637380Y-99893333D01*
X210637380Y-99464761D01*
%TO.C,C0*%
X231306666Y-90240142D02*
X231354285Y-90287761D01*
X231497142Y-90335380D01*
X231592380Y-90335380D01*
X231735238Y-90287761D01*
X231830476Y-90192523D01*
X231878095Y-90097285D01*
X231925714Y-89906809D01*
X231925714Y-89763952D01*
X231878095Y-89573476D01*
X231830476Y-89478238D01*
X231735238Y-89383000D01*
X231592380Y-89335380D01*
X231497142Y-89335380D01*
X231354285Y-89383000D01*
X231306666Y-89430619D01*
X230687619Y-89335380D02*
X230592380Y-89335380D01*
X230497142Y-89383000D01*
X230449523Y-89430619D01*
X230401904Y-89525857D01*
X230354285Y-89716333D01*
X230354285Y-89954428D01*
X230401904Y-90144904D01*
X230449523Y-90240142D01*
X230497142Y-90287761D01*
X230592380Y-90335380D01*
X230687619Y-90335380D01*
X230782857Y-90287761D01*
X230830476Y-90240142D01*
X230878095Y-90144904D01*
X230925714Y-89954428D01*
X230925714Y-89716333D01*
X230878095Y-89525857D01*
X230830476Y-89430619D01*
X230782857Y-89383000D01*
X230687619Y-89335380D01*
%TO.C,C12*%
X193174857Y-128340142D02*
X193222476Y-128387761D01*
X193365333Y-128435380D01*
X193460571Y-128435380D01*
X193603428Y-128387761D01*
X193698666Y-128292523D01*
X193746285Y-128197285D01*
X193793904Y-128006809D01*
X193793904Y-127863952D01*
X193746285Y-127673476D01*
X193698666Y-127578238D01*
X193603428Y-127483000D01*
X193460571Y-127435380D01*
X193365333Y-127435380D01*
X193222476Y-127483000D01*
X193174857Y-127530619D01*
X192222476Y-128435380D02*
X192793904Y-128435380D01*
X192508190Y-128435380D02*
X192508190Y-127435380D01*
X192603428Y-127578238D01*
X192698666Y-127673476D01*
X192793904Y-127721095D01*
X191841523Y-127530619D02*
X191793904Y-127483000D01*
X191698666Y-127435380D01*
X191460571Y-127435380D01*
X191365333Y-127483000D01*
X191317714Y-127530619D01*
X191270095Y-127625857D01*
X191270095Y-127721095D01*
X191317714Y-127863952D01*
X191889142Y-128435380D01*
X191270095Y-128435380D01*
%TO.C,LED11*%
X221940238Y-128214380D02*
X222416428Y-128214380D01*
X222416428Y-127214380D01*
X221606904Y-127690571D02*
X221273571Y-127690571D01*
X221130714Y-128214380D02*
X221606904Y-128214380D01*
X221606904Y-127214380D01*
X221130714Y-127214380D01*
X220702142Y-128214380D02*
X220702142Y-127214380D01*
X220464047Y-127214380D01*
X220321190Y-127262000D01*
X220225952Y-127357238D01*
X220178333Y-127452476D01*
X220130714Y-127642952D01*
X220130714Y-127785809D01*
X220178333Y-127976285D01*
X220225952Y-128071523D01*
X220321190Y-128166761D01*
X220464047Y-128214380D01*
X220702142Y-128214380D01*
X219178333Y-128214380D02*
X219749761Y-128214380D01*
X219464047Y-128214380D02*
X219464047Y-127214380D01*
X219559285Y-127357238D01*
X219654523Y-127452476D01*
X219749761Y-127500095D01*
X218225952Y-128214380D02*
X218797380Y-128214380D01*
X218511666Y-128214380D02*
X218511666Y-127214380D01*
X218606904Y-127357238D01*
X218702142Y-127452476D01*
X218797380Y-127500095D01*
%TO.C,C1*%
X212256666Y-90240142D02*
X212304285Y-90287761D01*
X212447142Y-90335380D01*
X212542380Y-90335380D01*
X212685238Y-90287761D01*
X212780476Y-90192523D01*
X212828095Y-90097285D01*
X212875714Y-89906809D01*
X212875714Y-89763952D01*
X212828095Y-89573476D01*
X212780476Y-89478238D01*
X212685238Y-89383000D01*
X212542380Y-89335380D01*
X212447142Y-89335380D01*
X212304285Y-89383000D01*
X212256666Y-89430619D01*
X211304285Y-90335380D02*
X211875714Y-90335380D01*
X211590000Y-90335380D02*
X211590000Y-89335380D01*
X211685238Y-89478238D01*
X211780476Y-89573476D01*
X211875714Y-89621095D01*
%TO.C,C10*%
X231274857Y-128340142D02*
X231322476Y-128387761D01*
X231465333Y-128435380D01*
X231560571Y-128435380D01*
X231703428Y-128387761D01*
X231798666Y-128292523D01*
X231846285Y-128197285D01*
X231893904Y-128006809D01*
X231893904Y-127863952D01*
X231846285Y-127673476D01*
X231798666Y-127578238D01*
X231703428Y-127483000D01*
X231560571Y-127435380D01*
X231465333Y-127435380D01*
X231322476Y-127483000D01*
X231274857Y-127530619D01*
X230322476Y-128435380D02*
X230893904Y-128435380D01*
X230608190Y-128435380D02*
X230608190Y-127435380D01*
X230703428Y-127578238D01*
X230798666Y-127673476D01*
X230893904Y-127721095D01*
X229703428Y-127435380D02*
X229608190Y-127435380D01*
X229512952Y-127483000D01*
X229465333Y-127530619D01*
X229417714Y-127625857D01*
X229370095Y-127816333D01*
X229370095Y-128054428D01*
X229417714Y-128244904D01*
X229465333Y-128340142D01*
X229512952Y-128387761D01*
X229608190Y-128435380D01*
X229703428Y-128435380D01*
X229798666Y-128387761D01*
X229846285Y-128340142D01*
X229893904Y-128244904D01*
X229941523Y-128054428D01*
X229941523Y-127816333D01*
X229893904Y-127625857D01*
X229846285Y-127530619D01*
X229798666Y-127483000D01*
X229703428Y-127435380D01*
%TO.C,LED10*%
X240990238Y-128214380D02*
X241466428Y-128214380D01*
X241466428Y-127214380D01*
X240656904Y-127690571D02*
X240323571Y-127690571D01*
X240180714Y-128214380D02*
X240656904Y-128214380D01*
X240656904Y-127214380D01*
X240180714Y-127214380D01*
X239752142Y-128214380D02*
X239752142Y-127214380D01*
X239514047Y-127214380D01*
X239371190Y-127262000D01*
X239275952Y-127357238D01*
X239228333Y-127452476D01*
X239180714Y-127642952D01*
X239180714Y-127785809D01*
X239228333Y-127976285D01*
X239275952Y-128071523D01*
X239371190Y-128166761D01*
X239514047Y-128214380D01*
X239752142Y-128214380D01*
X238228333Y-128214380D02*
X238799761Y-128214380D01*
X238514047Y-128214380D02*
X238514047Y-127214380D01*
X238609285Y-127357238D01*
X238704523Y-127452476D01*
X238799761Y-127500095D01*
X237609285Y-127214380D02*
X237514047Y-127214380D01*
X237418809Y-127262000D01*
X237371190Y-127309619D01*
X237323571Y-127404857D01*
X237275952Y-127595333D01*
X237275952Y-127833428D01*
X237323571Y-128023904D01*
X237371190Y-128119142D01*
X237418809Y-128166761D01*
X237514047Y-128214380D01*
X237609285Y-128214380D01*
X237704523Y-128166761D01*
X237752142Y-128119142D01*
X237799761Y-128023904D01*
X237847380Y-127833428D01*
X237847380Y-127595333D01*
X237799761Y-127404857D01*
X237752142Y-127309619D01*
X237704523Y-127262000D01*
X237609285Y-127214380D01*
%TO.C,LED13*%
X183840238Y-128214380D02*
X184316428Y-128214380D01*
X184316428Y-127214380D01*
X183506904Y-127690571D02*
X183173571Y-127690571D01*
X183030714Y-128214380D02*
X183506904Y-128214380D01*
X183506904Y-127214380D01*
X183030714Y-127214380D01*
X182602142Y-128214380D02*
X182602142Y-127214380D01*
X182364047Y-127214380D01*
X182221190Y-127262000D01*
X182125952Y-127357238D01*
X182078333Y-127452476D01*
X182030714Y-127642952D01*
X182030714Y-127785809D01*
X182078333Y-127976285D01*
X182125952Y-128071523D01*
X182221190Y-128166761D01*
X182364047Y-128214380D01*
X182602142Y-128214380D01*
X181078333Y-128214380D02*
X181649761Y-128214380D01*
X181364047Y-128214380D02*
X181364047Y-127214380D01*
X181459285Y-127357238D01*
X181554523Y-127452476D01*
X181649761Y-127500095D01*
X180745000Y-127214380D02*
X180125952Y-127214380D01*
X180459285Y-127595333D01*
X180316428Y-127595333D01*
X180221190Y-127642952D01*
X180173571Y-127690571D01*
X180125952Y-127785809D01*
X180125952Y-128023904D01*
X180173571Y-128119142D01*
X180221190Y-128166761D01*
X180316428Y-128214380D01*
X180602142Y-128214380D01*
X180697380Y-128166761D01*
X180745000Y-128119142D01*
%TO.C,LED7*%
X202414047Y-109132380D02*
X202890238Y-109132380D01*
X202890238Y-108132380D01*
X202080714Y-108608571D02*
X201747380Y-108608571D01*
X201604523Y-109132380D02*
X202080714Y-109132380D01*
X202080714Y-108132380D01*
X201604523Y-108132380D01*
X201175952Y-109132380D02*
X201175952Y-108132380D01*
X200937857Y-108132380D01*
X200795000Y-108180000D01*
X200699761Y-108275238D01*
X200652142Y-108370476D01*
X200604523Y-108560952D01*
X200604523Y-108703809D01*
X200652142Y-108894285D01*
X200699761Y-108989523D01*
X200795000Y-109084761D01*
X200937857Y-109132380D01*
X201175952Y-109132380D01*
X200271190Y-108132380D02*
X199604523Y-108132380D01*
X200033095Y-109132380D01*
%TO.C,LED6*%
X183364047Y-109037380D02*
X183840238Y-109037380D01*
X183840238Y-108037380D01*
X183030714Y-108513571D02*
X182697380Y-108513571D01*
X182554523Y-109037380D02*
X183030714Y-109037380D01*
X183030714Y-108037380D01*
X182554523Y-108037380D01*
X182125952Y-109037380D02*
X182125952Y-108037380D01*
X181887857Y-108037380D01*
X181745000Y-108085000D01*
X181649761Y-108180238D01*
X181602142Y-108275476D01*
X181554523Y-108465952D01*
X181554523Y-108608809D01*
X181602142Y-108799285D01*
X181649761Y-108894523D01*
X181745000Y-108989761D01*
X181887857Y-109037380D01*
X182125952Y-109037380D01*
X180697380Y-108037380D02*
X180887857Y-108037380D01*
X180983095Y-108085000D01*
X181030714Y-108132619D01*
X181125952Y-108275476D01*
X181173571Y-108465952D01*
X181173571Y-108846904D01*
X181125952Y-108942142D01*
X181078333Y-108989761D01*
X180983095Y-109037380D01*
X180792619Y-109037380D01*
X180697380Y-108989761D01*
X180649761Y-108942142D01*
X180602142Y-108846904D01*
X180602142Y-108608809D01*
X180649761Y-108513571D01*
X180697380Y-108465952D01*
X180792619Y-108418333D01*
X180983095Y-108418333D01*
X181078333Y-108465952D01*
X181125952Y-108513571D01*
X181173571Y-108608809D01*
%TO.C,C14*%
X155074857Y-128340142D02*
X155122476Y-128387761D01*
X155265333Y-128435380D01*
X155360571Y-128435380D01*
X155503428Y-128387761D01*
X155598666Y-128292523D01*
X155646285Y-128197285D01*
X155693904Y-128006809D01*
X155693904Y-127863952D01*
X155646285Y-127673476D01*
X155598666Y-127578238D01*
X155503428Y-127483000D01*
X155360571Y-127435380D01*
X155265333Y-127435380D01*
X155122476Y-127483000D01*
X155074857Y-127530619D01*
X154122476Y-128435380D02*
X154693904Y-128435380D01*
X154408190Y-128435380D02*
X154408190Y-127435380D01*
X154503428Y-127578238D01*
X154598666Y-127673476D01*
X154693904Y-127721095D01*
X153265333Y-127768714D02*
X153265333Y-128435380D01*
X153503428Y-127387761D02*
X153741523Y-128102047D01*
X153122476Y-128102047D01*
%TO.C,LED12*%
X202890238Y-128214380D02*
X203366428Y-128214380D01*
X203366428Y-127214380D01*
X202556904Y-127690571D02*
X202223571Y-127690571D01*
X202080714Y-128214380D02*
X202556904Y-128214380D01*
X202556904Y-127214380D01*
X202080714Y-127214380D01*
X201652142Y-128214380D02*
X201652142Y-127214380D01*
X201414047Y-127214380D01*
X201271190Y-127262000D01*
X201175952Y-127357238D01*
X201128333Y-127452476D01*
X201080714Y-127642952D01*
X201080714Y-127785809D01*
X201128333Y-127976285D01*
X201175952Y-128071523D01*
X201271190Y-128166761D01*
X201414047Y-128214380D01*
X201652142Y-128214380D01*
X200128333Y-128214380D02*
X200699761Y-128214380D01*
X200414047Y-128214380D02*
X200414047Y-127214380D01*
X200509285Y-127357238D01*
X200604523Y-127452476D01*
X200699761Y-127500095D01*
X199747380Y-127309619D02*
X199699761Y-127262000D01*
X199604523Y-127214380D01*
X199366428Y-127214380D01*
X199271190Y-127262000D01*
X199223571Y-127309619D01*
X199175952Y-127404857D01*
X199175952Y-127500095D01*
X199223571Y-127642952D01*
X199795000Y-128214380D01*
X199175952Y-128214380D01*
D16*
%TO.C,KEY8*%
X213360000Y-109347000D02*
X213360000Y-98425000D01*
X213360000Y-112395000D02*
X213360000Y-111252000D01*
X213360000Y-98425000D02*
X226060000Y-98425000D01*
X226060000Y-112395000D02*
X224155000Y-112395000D01*
X216535000Y-112395000D02*
X213360000Y-112395000D01*
X227330000Y-101346000D02*
X227330000Y-111125000D01*
%TO.C,KEY9*%
X156210000Y-128397000D02*
X156210000Y-117475000D01*
X159385000Y-131445000D02*
X156210000Y-131445000D01*
X170180000Y-120396000D02*
X170180000Y-130175000D01*
X156210000Y-117475000D02*
X168910000Y-117475000D01*
X156210000Y-131445000D02*
X156210000Y-130302000D01*
X168910000Y-131445000D02*
X167005000Y-131445000D01*
%TO.C,KEY13*%
X245110000Y-93345000D02*
X243205000Y-93345000D01*
X232410000Y-93345000D02*
X232410000Y-92202000D01*
X235585000Y-93345000D02*
X232410000Y-93345000D01*
X232410000Y-79375000D02*
X245110000Y-79375000D01*
X232410000Y-90297000D02*
X232410000Y-79375000D01*
X246380000Y-82296000D02*
X246380000Y-92075000D01*
%TO.C,KEY14*%
X232410000Y-112395000D02*
X232410000Y-111252000D01*
X235585000Y-112395000D02*
X232410000Y-112395000D01*
X246380000Y-101346000D02*
X246380000Y-111125000D01*
X232410000Y-98425000D02*
X245110000Y-98425000D01*
X232410000Y-109347000D02*
X232410000Y-98425000D01*
X245110000Y-112395000D02*
X243205000Y-112395000D01*
%TO.C,KEY10*%
X175260000Y-131445000D02*
X175260000Y-130302000D01*
X175260000Y-117475000D02*
X187960000Y-117475000D01*
X189230000Y-120396000D02*
X189230000Y-130175000D01*
X175260000Y-128397000D02*
X175260000Y-117475000D01*
X187960000Y-131445000D02*
X186055000Y-131445000D01*
X178435000Y-131445000D02*
X175260000Y-131445000D01*
%TO.C,KEY4*%
X216535000Y-93345000D02*
X213360000Y-93345000D01*
X213360000Y-93345000D02*
X213360000Y-92202000D01*
X213360000Y-90297000D02*
X213360000Y-79375000D01*
X227330000Y-82296000D02*
X227330000Y-92075000D01*
X226060000Y-93345000D02*
X224155000Y-93345000D01*
X213360000Y-79375000D02*
X226060000Y-79375000D01*
%TO.C,KEY1*%
X156210000Y-90297000D02*
X156210000Y-79375000D01*
X159385000Y-93345000D02*
X156210000Y-93345000D01*
X170180000Y-82296000D02*
X170180000Y-92075000D01*
X156210000Y-79375000D02*
X168910000Y-79375000D01*
X156210000Y-93345000D02*
X156210000Y-92202000D01*
X168910000Y-93345000D02*
X167005000Y-93345000D01*
%TO.C,OLED2*%
X190025000Y-72575000D02*
X225585000Y-72575000D01*
X225585000Y-38875000D02*
X190025000Y-38875000D01*
X225585000Y-72575000D02*
X225585000Y-38875000D01*
X190025000Y-38875000D02*
X190025000Y-72575000D01*
%TO.C,KEY11*%
X197485000Y-131445000D02*
X194310000Y-131445000D01*
X194310000Y-128397000D02*
X194310000Y-117475000D01*
X194310000Y-117475000D02*
X207010000Y-117475000D01*
X194310000Y-131445000D02*
X194310000Y-130302000D01*
X208280000Y-120396000D02*
X208280000Y-130175000D01*
X207010000Y-131445000D02*
X205105000Y-131445000D01*
%TO.C,KEY12*%
X226060000Y-131445000D02*
X224155000Y-131445000D01*
X213360000Y-131445000D02*
X213360000Y-130302000D01*
X213360000Y-128397000D02*
X213360000Y-117475000D01*
X227330000Y-120396000D02*
X227330000Y-130175000D01*
X213360000Y-117475000D02*
X226060000Y-117475000D01*
X216535000Y-131445000D02*
X213360000Y-131445000D01*
%TO.C,KEY6*%
X187960000Y-112395000D02*
X186055000Y-112395000D01*
X175260000Y-98425000D02*
X187960000Y-98425000D01*
X175260000Y-109347000D02*
X175260000Y-98425000D01*
X178435000Y-112395000D02*
X175260000Y-112395000D01*
X189230000Y-101346000D02*
X189230000Y-111125000D01*
X175260000Y-112395000D02*
X175260000Y-111252000D01*
%TO.C,KEY2*%
X175260000Y-90297000D02*
X175260000Y-79375000D01*
X189230000Y-82296000D02*
X189230000Y-92075000D01*
X187960000Y-93345000D02*
X186055000Y-93345000D01*
X175260000Y-79375000D02*
X187960000Y-79375000D01*
X178435000Y-93345000D02*
X175260000Y-93345000D01*
X175260000Y-93345000D02*
X175260000Y-92202000D01*
%TO.C,U1*%
X244525800Y-39116000D02*
X244525800Y-72694800D01*
X226593400Y-72694800D02*
X226593400Y-39116000D01*
X226593400Y-39116000D02*
X244525800Y-39116000D01*
X244525800Y-72694800D02*
X226593400Y-72694800D01*
%TO.C,OLED1*%
X153195000Y-72575000D02*
X188755000Y-72575000D01*
X188755000Y-72575000D02*
X188755000Y-38875000D01*
X188755000Y-38875000D02*
X153195000Y-38875000D01*
X153195000Y-38875000D02*
X153195000Y-72575000D01*
%TO.C,KEY7*%
X194310000Y-112395000D02*
X194310000Y-111252000D01*
X208280000Y-101346000D02*
X208280000Y-111125000D01*
X194310000Y-98425000D02*
X207010000Y-98425000D01*
X194310000Y-109347000D02*
X194310000Y-98425000D01*
X197485000Y-112395000D02*
X194310000Y-112395000D01*
X207010000Y-112395000D02*
X205105000Y-112395000D01*
%TO.C,KEY15*%
X232410000Y-128397000D02*
X232410000Y-117475000D01*
X246380000Y-120396000D02*
X246380000Y-130175000D01*
X232410000Y-117475000D02*
X245110000Y-117475000D01*
X232410000Y-131445000D02*
X232410000Y-130302000D01*
X245110000Y-131445000D02*
X243205000Y-131445000D01*
X235585000Y-131445000D02*
X232410000Y-131445000D01*
%TO.C,KEY3*%
X194310000Y-90297000D02*
X194310000Y-79375000D01*
X208280000Y-82296000D02*
X208280000Y-92075000D01*
X207010000Y-93345000D02*
X205105000Y-93345000D01*
X194310000Y-79375000D02*
X207010000Y-79375000D01*
X194310000Y-93345000D02*
X194310000Y-92202000D01*
X197485000Y-93345000D02*
X194310000Y-93345000D01*
%TO.C,KEY5*%
X170180000Y-101346000D02*
X170180000Y-111125000D01*
X156210000Y-98425000D02*
X168910000Y-98425000D01*
X156210000Y-112395000D02*
X156210000Y-111252000D01*
X156210000Y-109347000D02*
X156210000Y-98425000D01*
X159385000Y-112395000D02*
X156210000Y-112395000D01*
X168910000Y-112395000D02*
X167005000Y-112395000D01*
%TO.C,C13*%
X175152267Y-128903000D02*
X174859733Y-128903000D01*
X175152267Y-129923000D02*
X174859733Y-129923000D01*
%TO.C,C7*%
X208387733Y-112397000D02*
X208680267Y-112397000D01*
X208387733Y-111377000D02*
X208680267Y-111377000D01*
%TO.C,C6*%
X189337733Y-112397000D02*
X189630267Y-112397000D01*
X189337733Y-111377000D02*
X189630267Y-111377000D01*
%TO.C,D3*%
X209280000Y-77724000D02*
X209280000Y-81660000D01*
X207280000Y-78994000D02*
X209280000Y-78994000D01*
X207280000Y-77724000D02*
X207280000Y-81660000D01*
X207280000Y-77724000D02*
X209280000Y-77724000D01*
%TO.C,C8*%
X227437733Y-111377000D02*
X227730267Y-111377000D01*
X227437733Y-112397000D02*
X227730267Y-112397000D01*
%TO.C,LED14*%
G36*
X165608000Y-132080000D02*
G01*
X165100000Y-132080000D01*
X165608000Y-131597400D01*
X165608000Y-132080000D01*
G37*
X165608000Y-132080000D02*
X165100000Y-132080000D01*
X165608000Y-131597400D01*
X165608000Y-132080000D01*
%TO.C,R1*%
X242674224Y-76214500D02*
X242164776Y-76214500D01*
X242674224Y-75169500D02*
X242164776Y-75169500D01*
%TO.C,C11*%
X213252267Y-129923000D02*
X212959733Y-129923000D01*
X213252267Y-128903000D02*
X212959733Y-128903000D01*
%TO.C,LED4*%
G36*
X165608000Y-93980000D02*
G01*
X165100000Y-93980000D01*
X165608000Y-93497400D01*
X165608000Y-93980000D01*
G37*
X165608000Y-93980000D02*
X165100000Y-93980000D01*
X165608000Y-93497400D01*
X165608000Y-93980000D01*
%TO.C,LED3*%
G36*
X184658000Y-93980000D02*
G01*
X184150000Y-93980000D01*
X184658000Y-93497400D01*
X184658000Y-93980000D01*
G37*
X184658000Y-93980000D02*
X184150000Y-93980000D01*
X184658000Y-93497400D01*
X184658000Y-93980000D01*
%TO.C,C9*%
X246487733Y-112397000D02*
X246780267Y-112397000D01*
X246487733Y-111377000D02*
X246780267Y-111377000D01*
%TO.C,LED5*%
G36*
X160782000Y-109702600D02*
G01*
X160782000Y-109220000D01*
X161290000Y-109220000D01*
X160782000Y-109702600D01*
G37*
X160782000Y-109702600D02*
X160782000Y-109220000D01*
X161290000Y-109220000D01*
X160782000Y-109702600D01*
%TO.C,C5*%
X170287733Y-112397000D02*
X170580267Y-112397000D01*
X170287733Y-111377000D02*
X170580267Y-111377000D01*
%TO.C,D10*%
X188230000Y-115824000D02*
X188230000Y-119760000D01*
X188230000Y-115824000D02*
X190230000Y-115824000D01*
X190230000Y-115824000D02*
X190230000Y-119760000D01*
X188230000Y-117094000D02*
X190230000Y-117094000D01*
%TO.C,C3*%
X175152267Y-91823000D02*
X174859733Y-91823000D01*
X175152267Y-90803000D02*
X174859733Y-90803000D01*
%TO.C,D15*%
X245380000Y-117094000D02*
X247380000Y-117094000D01*
X247380000Y-115824000D02*
X247380000Y-119760000D01*
X245380000Y-115824000D02*
X245380000Y-119760000D01*
X245380000Y-115824000D02*
X247380000Y-115824000D01*
%TO.C,LED8*%
G36*
X217932000Y-109702600D02*
G01*
X217932000Y-109220000D01*
X218440000Y-109220000D01*
X217932000Y-109702600D01*
G37*
X217932000Y-109702600D02*
X217932000Y-109220000D01*
X218440000Y-109220000D01*
X217932000Y-109702600D01*
%TO.C,D2*%
X188230000Y-77724000D02*
X190230000Y-77724000D01*
X188230000Y-77724000D02*
X188230000Y-81660000D01*
X190230000Y-77724000D02*
X190230000Y-81660000D01*
X188230000Y-78994000D02*
X190230000Y-78994000D01*
%TO.C,D9*%
X169180000Y-115824000D02*
X171180000Y-115824000D01*
X169180000Y-115824000D02*
X169180000Y-119760000D01*
X171180000Y-115824000D02*
X171180000Y-119760000D01*
X169180000Y-117094000D02*
X171180000Y-117094000D01*
%TO.C,LED1*%
G36*
X222758000Y-93980000D02*
G01*
X222250000Y-93980000D01*
X222758000Y-93497400D01*
X222758000Y-93980000D01*
G37*
X222758000Y-93980000D02*
X222250000Y-93980000D01*
X222758000Y-93497400D01*
X222758000Y-93980000D01*
%TO.C,LED2*%
G36*
X203708000Y-93980000D02*
G01*
X203200000Y-93980000D01*
X203708000Y-93497400D01*
X203708000Y-93980000D01*
G37*
X203708000Y-93980000D02*
X203200000Y-93980000D01*
X203708000Y-93497400D01*
X203708000Y-93980000D01*
%TO.C,D1*%
X169180000Y-77724000D02*
X169180000Y-81660000D01*
X169180000Y-78994000D02*
X171180000Y-78994000D01*
X169180000Y-77724000D02*
X171180000Y-77724000D01*
X171180000Y-77724000D02*
X171180000Y-81660000D01*
%TO.C,Logo1*%
G36*
X176633456Y-65887434D02*
G01*
X176700999Y-65899735D01*
X176763251Y-65918586D01*
X176808096Y-65937531D01*
X176875499Y-65974939D01*
X176935930Y-66020220D01*
X176989105Y-66072978D01*
X177034738Y-66132821D01*
X177072546Y-66199354D01*
X177102245Y-66272183D01*
X177123549Y-66350915D01*
X177136175Y-66435155D01*
X177138957Y-66490353D01*
X177134639Y-66564702D01*
X177121107Y-66634947D01*
X177098785Y-66700517D01*
X177068097Y-66760838D01*
X177029469Y-66815337D01*
X176983325Y-66863441D01*
X176930089Y-66904578D01*
X176870186Y-66938176D01*
X176804039Y-66963660D01*
X176732074Y-66980459D01*
X176714769Y-66982750D01*
X176674731Y-66985308D01*
X176629828Y-66985389D01*
X176583713Y-66983125D01*
X176540039Y-66978650D01*
X176502460Y-66972096D01*
X176494897Y-66970331D01*
X176419800Y-66946848D01*
X176349056Y-66913643D01*
X176283135Y-66870972D01*
X176222506Y-66819091D01*
X176182911Y-66776754D01*
X176135919Y-66713422D01*
X176098323Y-66644948D01*
X176070168Y-66571419D01*
X176051499Y-66492920D01*
X176049827Y-66482219D01*
X176045649Y-66441270D01*
X176043747Y-66395834D01*
X176044118Y-66349651D01*
X176046759Y-66306461D01*
X176051667Y-66270003D01*
X176060945Y-66229614D01*
X176084403Y-66162194D01*
X176116386Y-66100664D01*
X176156399Y-66045571D01*
X176203949Y-65997458D01*
X176258542Y-65956870D01*
X176319684Y-65924352D01*
X176386880Y-65900449D01*
X176427491Y-65891191D01*
X176493860Y-65883025D01*
X176563462Y-65881818D01*
X176633456Y-65887434D01*
G37*
G36*
X180546445Y-66192309D02*
G01*
X180567400Y-66208590D01*
X180584668Y-66232490D01*
X180585272Y-66233995D01*
X180586963Y-66239885D01*
X180589340Y-66249827D01*
X180592448Y-66264070D01*
X180596332Y-66282864D01*
X180601038Y-66306459D01*
X180606611Y-66335107D01*
X180613097Y-66369055D01*
X180620539Y-66408555D01*
X180628985Y-66453856D01*
X180638479Y-66505209D01*
X180649067Y-66562863D01*
X180660793Y-66627068D01*
X180673704Y-66698075D01*
X180687845Y-66776133D01*
X180703260Y-66861493D01*
X180719996Y-66954405D01*
X180738097Y-67055117D01*
X180757609Y-67163882D01*
X180778577Y-67280948D01*
X180801047Y-67406565D01*
X180825064Y-67540984D01*
X180850673Y-67684455D01*
X180877919Y-67837227D01*
X180906849Y-67999550D01*
X180937506Y-68171676D01*
X180969938Y-68353853D01*
X181004188Y-68546331D01*
X181009480Y-68576077D01*
X181036960Y-68730590D01*
X181063951Y-68882420D01*
X181090392Y-69031224D01*
X181116222Y-69176660D01*
X181141381Y-69318387D01*
X181165809Y-69456063D01*
X181189445Y-69589345D01*
X181212229Y-69717891D01*
X181234100Y-69841361D01*
X181254998Y-69959411D01*
X181274863Y-70071699D01*
X181293634Y-70177885D01*
X181311250Y-70277625D01*
X181327652Y-70370578D01*
X181342778Y-70456401D01*
X181356569Y-70534754D01*
X181368963Y-70605293D01*
X181379901Y-70667678D01*
X181389322Y-70721565D01*
X181397166Y-70766613D01*
X181403371Y-70802480D01*
X181407879Y-70828824D01*
X181410628Y-70845304D01*
X181411557Y-70851576D01*
X181411313Y-70856284D01*
X181406551Y-70877328D01*
X181397358Y-70899345D01*
X181385905Y-70916814D01*
X181383592Y-70919120D01*
X181370989Y-70928384D01*
X181355303Y-70936983D01*
X181351869Y-70938432D01*
X181346930Y-70940015D01*
X181340549Y-70941386D01*
X181332014Y-70942562D01*
X181320610Y-70943556D01*
X181305624Y-70944385D01*
X181286344Y-70945063D01*
X181262055Y-70945607D01*
X181232044Y-70946030D01*
X181195598Y-70946349D01*
X181152004Y-70946579D01*
X181100549Y-70946735D01*
X181040518Y-70946832D01*
X180971199Y-70946886D01*
X180891878Y-70946912D01*
X180881822Y-70946913D01*
X180792590Y-70946847D01*
X180712720Y-70946641D01*
X180642380Y-70946298D01*
X180581740Y-70945819D01*
X180530970Y-70945207D01*
X180490237Y-70944464D01*
X180459712Y-70943591D01*
X180439562Y-70942591D01*
X180429958Y-70941466D01*
X180406086Y-70930771D01*
X180382865Y-70910976D01*
X180366666Y-70885625D01*
X180365610Y-70881907D01*
X180362486Y-70867821D01*
X180357653Y-70844136D01*
X180351219Y-70811431D01*
X180343291Y-70770284D01*
X180333977Y-70721272D01*
X180323385Y-70664973D01*
X180311622Y-70601966D01*
X180298797Y-70532827D01*
X180285017Y-70458136D01*
X180270390Y-70378470D01*
X180255024Y-70294407D01*
X180239026Y-70206525D01*
X180222504Y-70115402D01*
X180205566Y-70021615D01*
X180053727Y-69179213D01*
X179241034Y-69177806D01*
X178428340Y-69176399D01*
X178405110Y-69160327D01*
X178403865Y-69159464D01*
X178395869Y-69153721D01*
X178388756Y-69147807D01*
X178382326Y-69140981D01*
X178376377Y-69132501D01*
X178370709Y-69121629D01*
X178365121Y-69107623D01*
X178359412Y-69089741D01*
X178353382Y-69067245D01*
X178346829Y-69039393D01*
X178339554Y-69005444D01*
X178331355Y-68964658D01*
X178322031Y-68916295D01*
X178311383Y-68859613D01*
X178299208Y-68793872D01*
X178285307Y-68718331D01*
X178272054Y-68646108D01*
X178259704Y-68578314D01*
X178249171Y-68519624D01*
X178240377Y-68469298D01*
X178233242Y-68426598D01*
X178227685Y-68390785D01*
X178223629Y-68361120D01*
X178220994Y-68336865D01*
X178219699Y-68317281D01*
X178219666Y-68301630D01*
X178220816Y-68289172D01*
X178223068Y-68279168D01*
X178226343Y-68270882D01*
X178230563Y-68263572D01*
X178235647Y-68256501D01*
X178236122Y-68255871D01*
X178239447Y-68251054D01*
X178242240Y-68246688D01*
X178245010Y-68242750D01*
X178248270Y-68239218D01*
X178252530Y-68236070D01*
X178258302Y-68233285D01*
X178266097Y-68230840D01*
X178276427Y-68228713D01*
X178289803Y-68226883D01*
X178306736Y-68225327D01*
X178327737Y-68224024D01*
X178353317Y-68222951D01*
X178383989Y-68222087D01*
X178420263Y-68221410D01*
X178462650Y-68220897D01*
X178511662Y-68220526D01*
X178567810Y-68220277D01*
X178631605Y-68220126D01*
X178703559Y-68220051D01*
X178784182Y-68220032D01*
X178873987Y-68220045D01*
X178973485Y-68220069D01*
X179083185Y-68220082D01*
X179098329Y-68220082D01*
X179189340Y-68220056D01*
X179277284Y-68219992D01*
X179361574Y-68219894D01*
X179441622Y-68219763D01*
X179516839Y-68219601D01*
X179586636Y-68219411D01*
X179650425Y-68219194D01*
X179707619Y-68218953D01*
X179757627Y-68218690D01*
X179799863Y-68218407D01*
X179833737Y-68218107D01*
X179858661Y-68217791D01*
X179874047Y-68217462D01*
X179879307Y-68217122D01*
X179879213Y-68216470D01*
X179877730Y-68207777D01*
X179874562Y-68189667D01*
X179869862Y-68163000D01*
X179863784Y-68128633D01*
X179856481Y-68087427D01*
X179848105Y-68040239D01*
X179838811Y-67987930D01*
X179828750Y-67931357D01*
X179818077Y-67871379D01*
X179806944Y-67808856D01*
X179795505Y-67744647D01*
X179783912Y-67679610D01*
X179772319Y-67614604D01*
X179760878Y-67550488D01*
X179749744Y-67488121D01*
X179739068Y-67428362D01*
X179729005Y-67372069D01*
X179719707Y-67320102D01*
X179711328Y-67273320D01*
X179704020Y-67232581D01*
X179697937Y-67198745D01*
X179693232Y-67172670D01*
X179690057Y-67155215D01*
X179688567Y-67147239D01*
X179685585Y-67132506D01*
X177814687Y-67132506D01*
X177791490Y-67121276D01*
X177785219Y-67118241D01*
X177778183Y-67114502D01*
X177771910Y-67110182D01*
X177766215Y-67104570D01*
X177760909Y-67096953D01*
X177755805Y-67086618D01*
X177750716Y-67072854D01*
X177745455Y-67054948D01*
X177739834Y-67032188D01*
X177733665Y-67003862D01*
X177726762Y-66969256D01*
X177718938Y-66927660D01*
X177710004Y-66878360D01*
X177699773Y-66820644D01*
X177688059Y-66753800D01*
X177674674Y-66677116D01*
X177671905Y-66661241D01*
X177657712Y-66579328D01*
X177645444Y-66507551D01*
X177635048Y-66445577D01*
X177626472Y-66393074D01*
X177619663Y-66349707D01*
X177614569Y-66315145D01*
X177611137Y-66289055D01*
X177609314Y-66271103D01*
X177609049Y-66260956D01*
X177609100Y-66260330D01*
X177616728Y-66230272D01*
X177633343Y-66204628D01*
X177657553Y-66185558D01*
X177658803Y-66184953D01*
X177661481Y-66184032D01*
X177665311Y-66183178D01*
X177670677Y-66182389D01*
X177677960Y-66181660D01*
X177687544Y-66180991D01*
X177699810Y-66180379D01*
X177715141Y-66179820D01*
X177733920Y-66179314D01*
X177756529Y-66178856D01*
X177783351Y-66178445D01*
X177814768Y-66178079D01*
X177851162Y-66177754D01*
X177892917Y-66177468D01*
X177940414Y-66177219D01*
X177994036Y-66177004D01*
X178054166Y-66176821D01*
X178121185Y-66176667D01*
X178195478Y-66176540D01*
X178277425Y-66176437D01*
X178367410Y-66176356D01*
X178465815Y-66176295D01*
X178573023Y-66176250D01*
X178689416Y-66176219D01*
X178815376Y-66176200D01*
X178951286Y-66176191D01*
X179097529Y-66176188D01*
X180520371Y-66176188D01*
X180546445Y-66192309D01*
G37*
G36*
X173552212Y-69021861D02*
G01*
X173568420Y-69112109D01*
X173570802Y-69125389D01*
X173586917Y-69215259D01*
X173601266Y-69295360D01*
X173613960Y-69366375D01*
X173625110Y-69428989D01*
X173634827Y-69483883D01*
X173643224Y-69531742D01*
X173650410Y-69573248D01*
X173656498Y-69609085D01*
X173661599Y-69639935D01*
X173665823Y-69666483D01*
X173669283Y-69689410D01*
X173672089Y-69709401D01*
X173674353Y-69727139D01*
X173676186Y-69743306D01*
X173677700Y-69758585D01*
X173679005Y-69773661D01*
X173680213Y-69789216D01*
X173681435Y-69805934D01*
X173684524Y-69876877D01*
X173681373Y-69985163D01*
X173668806Y-70091389D01*
X173647018Y-70194488D01*
X173616199Y-70293392D01*
X173576544Y-70387032D01*
X173542612Y-70450931D01*
X173486901Y-70536726D01*
X173422714Y-70616401D01*
X173350366Y-70689766D01*
X173270169Y-70756631D01*
X173182437Y-70816807D01*
X173087485Y-70870106D01*
X172985626Y-70916338D01*
X172877174Y-70955314D01*
X172762442Y-70986844D01*
X172641745Y-71010740D01*
X172515396Y-71026812D01*
X172496715Y-71028194D01*
X172463600Y-71029719D01*
X172423404Y-71030843D01*
X172378211Y-71031562D01*
X172330107Y-71031875D01*
X172281180Y-71031780D01*
X172233513Y-71031273D01*
X172189194Y-71030353D01*
X172150307Y-71029017D01*
X172118940Y-71027262D01*
X171988326Y-71014713D01*
X171828651Y-70990645D01*
X171673920Y-70957272D01*
X171523769Y-70914501D01*
X171377835Y-70862239D01*
X171235754Y-70800391D01*
X171231656Y-70798434D01*
X171192121Y-70778744D01*
X171150517Y-70756726D01*
X171108135Y-70733177D01*
X171066268Y-70708892D01*
X171026208Y-70684668D01*
X170989247Y-70661303D01*
X170956678Y-70639591D01*
X170929791Y-70620330D01*
X170909881Y-70604316D01*
X170898237Y-70592346D01*
X170897037Y-70590586D01*
X170889509Y-70572067D01*
X170885330Y-70547520D01*
X170884881Y-70520735D01*
X170888540Y-70495501D01*
X170888647Y-70495119D01*
X170892510Y-70485875D01*
X170900860Y-70468351D01*
X170913145Y-70443594D01*
X170928813Y-70412650D01*
X170947311Y-70376569D01*
X170968086Y-70336397D01*
X170990587Y-70293181D01*
X171014260Y-70247969D01*
X171038553Y-70201810D01*
X171062913Y-70155749D01*
X171086788Y-70110835D01*
X171109626Y-70068114D01*
X171130874Y-70028636D01*
X171149979Y-69993446D01*
X171166389Y-69963593D01*
X171179552Y-69940124D01*
X171188915Y-69924087D01*
X171193925Y-69916528D01*
X171204333Y-69907467D01*
X171218412Y-69898519D01*
X171230737Y-69893701D01*
X171246374Y-69892031D01*
X171264784Y-69895003D01*
X171287439Y-69903031D01*
X171315814Y-69916530D01*
X171351383Y-69935915D01*
X171356309Y-69938699D01*
X171481236Y-70004688D01*
X171603693Y-70060366D01*
X171723882Y-70105796D01*
X171842008Y-70141038D01*
X171958276Y-70166153D01*
X172072888Y-70181202D01*
X172186049Y-70186248D01*
X172223822Y-70185817D01*
X172286749Y-70182487D01*
X172342414Y-70175557D01*
X172392776Y-70164654D01*
X172439792Y-70149408D01*
X172485420Y-70129446D01*
X172498820Y-70122525D01*
X172547196Y-70090901D01*
X172587217Y-70052864D01*
X172619001Y-70008220D01*
X172642667Y-69956774D01*
X172658334Y-69898331D01*
X172666121Y-69832695D01*
X172666651Y-69819230D01*
X172665760Y-69770644D01*
X172661187Y-69716829D01*
X172653305Y-69661327D01*
X172642486Y-69607680D01*
X172633003Y-69567498D01*
X171682173Y-69564819D01*
X171610517Y-69564616D01*
X171497962Y-69564288D01*
X171395373Y-69563973D01*
X171302279Y-69563666D01*
X171218211Y-69563361D01*
X171142698Y-69563052D01*
X171075269Y-69562733D01*
X171015455Y-69562398D01*
X170962784Y-69562041D01*
X170916788Y-69561657D01*
X170876995Y-69561239D01*
X170842936Y-69560783D01*
X170814139Y-69560281D01*
X170790135Y-69559728D01*
X170770454Y-69559119D01*
X170754624Y-69558446D01*
X170742177Y-69557706D01*
X170732641Y-69556891D01*
X170725546Y-69555996D01*
X170720423Y-69555015D01*
X170716800Y-69553941D01*
X170714207Y-69552771D01*
X170695388Y-69538400D01*
X170677337Y-69516853D01*
X170664500Y-69492827D01*
X170662915Y-69486244D01*
X170659619Y-69469940D01*
X170654853Y-69445097D01*
X170648805Y-69412759D01*
X170641661Y-69373972D01*
X170633607Y-69329782D01*
X170624828Y-69281233D01*
X170615512Y-69229370D01*
X170605844Y-69175240D01*
X170596010Y-69119888D01*
X170586197Y-69064359D01*
X170576591Y-69009698D01*
X170567378Y-68956952D01*
X170558744Y-68907164D01*
X170550875Y-68861381D01*
X170543958Y-68820648D01*
X170538178Y-68786010D01*
X170533723Y-68758513D01*
X170528661Y-68724859D01*
X170521757Y-68669342D01*
X170517720Y-68621896D01*
X171498219Y-68621896D01*
X171498262Y-68645388D01*
X171498910Y-68675239D01*
X171500589Y-68701086D01*
X171503667Y-68726535D01*
X171508514Y-68755190D01*
X171515498Y-68790658D01*
X171519334Y-68809405D01*
X171525150Y-68837629D01*
X171530139Y-68861596D01*
X171533867Y-68879224D01*
X171535899Y-68888433D01*
X171538811Y-68900487D01*
X172031355Y-68900487D01*
X172102358Y-68900450D01*
X172170169Y-68900352D01*
X172234037Y-68900198D01*
X172293209Y-68899993D01*
X172346932Y-68899740D01*
X172394454Y-68899446D01*
X172435022Y-68899113D01*
X172467885Y-68898748D01*
X172492291Y-68898354D01*
X172507485Y-68897936D01*
X172512718Y-68897499D01*
X172512586Y-68895394D01*
X172510802Y-68882930D01*
X172507238Y-68862565D01*
X172502282Y-68836209D01*
X172496323Y-68805772D01*
X172489749Y-68773165D01*
X172482948Y-68740299D01*
X172476310Y-68709084D01*
X172470222Y-68681430D01*
X172465074Y-68659249D01*
X172461254Y-68644450D01*
X172450173Y-68610678D01*
X172428154Y-68557236D01*
X172401754Y-68504995D01*
X172373226Y-68458712D01*
X172361766Y-68443166D01*
X172334970Y-68411502D01*
X172304194Y-68379648D01*
X172272566Y-68350751D01*
X172243217Y-68327958D01*
X172224317Y-68315972D01*
X172187730Y-68296278D01*
X172146582Y-68277400D01*
X172104564Y-68260985D01*
X172065365Y-68248676D01*
X172058315Y-68246826D01*
X172038579Y-68242060D01*
X172020507Y-68238670D01*
X172001624Y-68236416D01*
X171979455Y-68235057D01*
X171951524Y-68234352D01*
X171915354Y-68234058D01*
X171909517Y-68234037D01*
X171874497Y-68234101D01*
X171847535Y-68234674D01*
X171826311Y-68235951D01*
X171808506Y-68238127D01*
X171791800Y-68241396D01*
X171773874Y-68245955D01*
X171754670Y-68251511D01*
X171697329Y-68272838D01*
X171648410Y-68299391D01*
X171606791Y-68332002D01*
X171571353Y-68371503D01*
X171540975Y-68418723D01*
X171536275Y-68427501D01*
X171521307Y-68460122D01*
X171510534Y-68493414D01*
X171503440Y-68529836D01*
X171499507Y-68571844D01*
X171498219Y-68621896D01*
X170517720Y-68621896D01*
X170517145Y-68615134D01*
X170514522Y-68558256D01*
X170513585Y-68494731D01*
X170513564Y-68465321D01*
X170513879Y-68429045D01*
X170514781Y-68398641D01*
X170516463Y-68371226D01*
X170519117Y-68343918D01*
X170522938Y-68313831D01*
X170528119Y-68278083D01*
X170544031Y-68195151D01*
X170571772Y-68098529D01*
X170608499Y-68006130D01*
X170653788Y-67918754D01*
X170707216Y-67837200D01*
X170768360Y-67762270D01*
X170836796Y-67694763D01*
X170844544Y-67687989D01*
X170924079Y-67625696D01*
X171010504Y-67570598D01*
X171104086Y-67522585D01*
X171205092Y-67481547D01*
X171313787Y-67447375D01*
X171430440Y-67419959D01*
X171555317Y-67399189D01*
X171557145Y-67398942D01*
X171583283Y-67395612D01*
X171607903Y-67392972D01*
X171632752Y-67390943D01*
X171659578Y-67389446D01*
X171690128Y-67388403D01*
X171726149Y-67387735D01*
X171769390Y-67387363D01*
X171821597Y-67387210D01*
X171864617Y-67387233D01*
X171916212Y-67387597D01*
X171960498Y-67388465D01*
X171999447Y-67389973D01*
X172035034Y-67392255D01*
X172069232Y-67395445D01*
X172104015Y-67399677D01*
X172141357Y-67405086D01*
X172183230Y-67411806D01*
X172270114Y-67428057D01*
X172402993Y-67460713D01*
X172529130Y-67501693D01*
X172648523Y-67550995D01*
X172761169Y-67608618D01*
X172867066Y-67674561D01*
X172966211Y-67748822D01*
X173058602Y-67831401D01*
X173072367Y-67844972D01*
X173151574Y-67930141D01*
X173222006Y-68019146D01*
X173284325Y-68113061D01*
X173339189Y-68212963D01*
X173387261Y-68319925D01*
X173429198Y-68435024D01*
X173435557Y-68454758D01*
X173441650Y-68474458D01*
X173447482Y-68494418D01*
X173453205Y-68515374D01*
X173458971Y-68538060D01*
X173464930Y-68563213D01*
X173471234Y-68591567D01*
X173478034Y-68623857D01*
X173485480Y-68660819D01*
X173493725Y-68703187D01*
X173502919Y-68751697D01*
X173513214Y-68807085D01*
X173524760Y-68870084D01*
X173529736Y-68897499D01*
X173537709Y-68941432D01*
X173552212Y-69021861D01*
G37*
G36*
X161928495Y-67475163D02*
G01*
X161986927Y-67475349D01*
X162043150Y-67475659D01*
X162096102Y-67476093D01*
X162144720Y-67476652D01*
X162187939Y-67477336D01*
X162224698Y-67478145D01*
X162253932Y-67479079D01*
X162274578Y-67480138D01*
X162285573Y-67481322D01*
X162305070Y-67487726D01*
X162329646Y-67502532D01*
X162348992Y-67522154D01*
X162360367Y-67544284D01*
X162361835Y-67551224D01*
X162365100Y-67568118D01*
X162370025Y-67594246D01*
X162376489Y-67628943D01*
X162384373Y-67671543D01*
X162393555Y-67721382D01*
X162403914Y-67777795D01*
X162415331Y-67840117D01*
X162427685Y-67907682D01*
X162440854Y-67979825D01*
X162454719Y-68055882D01*
X162469158Y-68135187D01*
X162484052Y-68217075D01*
X162499279Y-68300882D01*
X162514719Y-68385942D01*
X162530251Y-68471589D01*
X162545755Y-68557160D01*
X162561110Y-68641989D01*
X162576195Y-68725410D01*
X162590891Y-68806759D01*
X162605075Y-68885371D01*
X162618629Y-68960581D01*
X162631430Y-69031723D01*
X162643359Y-69098133D01*
X162654294Y-69159145D01*
X162664116Y-69214095D01*
X162672703Y-69262317D01*
X162679936Y-69303146D01*
X162685692Y-69335918D01*
X162689853Y-69359967D01*
X162692296Y-69374628D01*
X162697460Y-69408375D01*
X162704804Y-69463354D01*
X162710053Y-69515057D01*
X162713470Y-69566970D01*
X162715321Y-69622577D01*
X162715869Y-69685364D01*
X162715168Y-69744748D01*
X162711728Y-69820355D01*
X162705094Y-69890298D01*
X162694906Y-69957334D01*
X162680801Y-70024220D01*
X162662420Y-70093712D01*
X162648600Y-70138475D01*
X162610140Y-70239003D01*
X162563510Y-70332726D01*
X162508953Y-70419430D01*
X162446715Y-70498902D01*
X162377037Y-70570928D01*
X162300166Y-70635294D01*
X162216344Y-70691787D01*
X162125815Y-70740192D01*
X162028824Y-70780297D01*
X161925614Y-70811887D01*
X161816430Y-70834749D01*
X161813667Y-70835200D01*
X161697432Y-70849358D01*
X161579981Y-70854153D01*
X161460618Y-70849531D01*
X161338647Y-70835439D01*
X161213371Y-70811824D01*
X161084093Y-70778632D01*
X161005373Y-70755887D01*
X161008291Y-70772450D01*
X161016950Y-70818143D01*
X161038391Y-70908889D01*
X161064002Y-70990469D01*
X161094038Y-71063464D01*
X161128758Y-71128458D01*
X161168419Y-71186033D01*
X161213278Y-71236773D01*
X161224100Y-71247338D01*
X161272368Y-71288463D01*
X161324063Y-71322618D01*
X161380854Y-71350656D01*
X161444412Y-71373432D01*
X161516409Y-71391801D01*
X161546847Y-71396859D01*
X161585771Y-71401054D01*
X161630559Y-71404265D01*
X161678796Y-71406412D01*
X161728061Y-71407420D01*
X161775936Y-71407208D01*
X161820004Y-71405700D01*
X161857847Y-71402816D01*
X161912086Y-71395953D01*
X161968798Y-71386745D01*
X162023129Y-71376013D01*
X162070912Y-71364508D01*
X162099816Y-71356172D01*
X162160959Y-71335538D01*
X162223436Y-71310879D01*
X162284252Y-71283500D01*
X162340411Y-71254709D01*
X162388918Y-71225810D01*
X162406950Y-71214192D01*
X162435517Y-71196832D01*
X162458523Y-71184765D01*
X162477875Y-71177166D01*
X162495479Y-71173211D01*
X162513242Y-71172075D01*
X162514259Y-71172079D01*
X162540144Y-71174638D01*
X162559618Y-71181451D01*
X162560390Y-71182048D01*
X162567337Y-71189406D01*
X162580048Y-71204137D01*
X162597851Y-71225399D01*
X162620070Y-71252348D01*
X162646034Y-71284144D01*
X162675069Y-71319941D01*
X162706501Y-71358899D01*
X162739658Y-71400174D01*
X162773865Y-71442924D01*
X162808449Y-71486305D01*
X162842737Y-71529476D01*
X162876056Y-71571593D01*
X162907732Y-71611813D01*
X162937092Y-71649295D01*
X162963462Y-71683195D01*
X162986169Y-71712670D01*
X163004539Y-71736878D01*
X163017900Y-71754977D01*
X163023282Y-71763080D01*
X163037043Y-71793332D01*
X163042933Y-71824846D01*
X163040218Y-71854363D01*
X163033882Y-71869208D01*
X163018427Y-71890564D01*
X162994254Y-71915485D01*
X162961037Y-71944301D01*
X162918448Y-71977342D01*
X162845072Y-72028565D01*
X162740591Y-72090819D01*
X162630363Y-72144694D01*
X162514133Y-72190276D01*
X162391646Y-72227651D01*
X162262646Y-72256904D01*
X162126879Y-72278122D01*
X161984089Y-72291389D01*
X161972904Y-72292078D01*
X161857633Y-72296511D01*
X161740395Y-72296417D01*
X161623197Y-72291943D01*
X161508047Y-72283237D01*
X161396952Y-72270447D01*
X161291920Y-72253721D01*
X161194958Y-72233207D01*
X161162192Y-72224942D01*
X161047692Y-72190561D01*
X160939509Y-72149044D01*
X160837502Y-72100209D01*
X160741528Y-72043876D01*
X160651446Y-71979860D01*
X160567113Y-71907982D01*
X160488386Y-71828058D01*
X160415123Y-71739907D01*
X160347182Y-71643347D01*
X160284420Y-71538196D01*
X160226696Y-71424271D01*
X160173866Y-71301392D01*
X160125789Y-71169376D01*
X160082322Y-71028041D01*
X160043323Y-70877205D01*
X160008650Y-70716686D01*
X160006153Y-70703663D01*
X160001446Y-70678347D01*
X159995156Y-70643939D01*
X159987369Y-70600941D01*
X159978175Y-70549857D01*
X159967663Y-70491192D01*
X159955919Y-70425447D01*
X159943034Y-70353129D01*
X159929096Y-70274739D01*
X159914193Y-70190782D01*
X159898413Y-70101761D01*
X159881846Y-70008180D01*
X159864579Y-69910544D01*
X159846702Y-69809354D01*
X159828302Y-69705116D01*
X159809469Y-69598333D01*
X159790290Y-69489509D01*
X159770855Y-69379147D01*
X159751251Y-69267750D01*
X159731568Y-69155824D01*
X159711893Y-69043870D01*
X159692316Y-68932394D01*
X159672924Y-68821899D01*
X159653807Y-68712888D01*
X159635053Y-68605866D01*
X159616750Y-68501335D01*
X159598987Y-68399800D01*
X159581853Y-68301764D01*
X159565435Y-68207731D01*
X159549823Y-68118204D01*
X159535105Y-68033688D01*
X159521369Y-67954686D01*
X159508704Y-67881702D01*
X159497198Y-67815240D01*
X159486941Y-67755802D01*
X159478020Y-67703893D01*
X159470524Y-67660017D01*
X159464541Y-67624677D01*
X159460161Y-67598377D01*
X159457471Y-67581621D01*
X159456560Y-67574912D01*
X159457255Y-67564588D01*
X159463957Y-67538450D01*
X159476274Y-67514912D01*
X159492361Y-67497945D01*
X159493835Y-67496903D01*
X159499941Y-67492879D01*
X159506485Y-67489380D01*
X159514201Y-67486372D01*
X159523823Y-67483823D01*
X159536085Y-67481698D01*
X159551721Y-67479964D01*
X159571465Y-67478589D01*
X159596052Y-67477538D01*
X159626215Y-67476779D01*
X159662689Y-67476278D01*
X159706207Y-67476003D01*
X159757504Y-67475918D01*
X159817314Y-67475992D01*
X159886370Y-67476192D01*
X159965407Y-67476482D01*
X160375257Y-67478066D01*
X160397520Y-67489971D01*
X160416823Y-67502572D01*
X160435872Y-67523538D01*
X160449811Y-67552041D01*
X160449888Y-67552273D01*
X160451749Y-67560543D01*
X160455358Y-67578832D01*
X160460628Y-67606650D01*
X160467470Y-67643503D01*
X160475796Y-67688901D01*
X160485517Y-67742350D01*
X160496546Y-67803359D01*
X160508794Y-67871436D01*
X160522174Y-67946089D01*
X160536597Y-68026826D01*
X160551974Y-68113155D01*
X160568218Y-68204584D01*
X160585240Y-68300621D01*
X160602953Y-68400774D01*
X160621268Y-68504551D01*
X160640096Y-68611461D01*
X160659351Y-68721010D01*
X160661390Y-68732620D01*
X160680567Y-68841753D01*
X160699284Y-68948112D01*
X160717453Y-69051210D01*
X160734988Y-69150563D01*
X160751801Y-69245682D01*
X160767807Y-69336082D01*
X160782919Y-69421277D01*
X160797050Y-69500781D01*
X160810114Y-69574106D01*
X160822023Y-69640767D01*
X160832692Y-69700278D01*
X160842033Y-69752151D01*
X160849960Y-69795902D01*
X160856387Y-69831043D01*
X160861226Y-69857089D01*
X160864392Y-69873552D01*
X160865797Y-69879947D01*
X160870896Y-69886702D01*
X160886028Y-69897867D01*
X160909140Y-69910427D01*
X160938782Y-69923822D01*
X160973505Y-69937493D01*
X161011861Y-69950879D01*
X161052401Y-69963420D01*
X161093675Y-69974557D01*
X161134237Y-69983728D01*
X161142536Y-69985369D01*
X161164629Y-69989286D01*
X161185770Y-69992110D01*
X161208291Y-69994004D01*
X161234526Y-69995127D01*
X161266806Y-69995643D01*
X161307465Y-69995712D01*
X161336085Y-69995593D01*
X161368977Y-69995180D01*
X161394513Y-69994342D01*
X161414665Y-69992927D01*
X161431403Y-69990780D01*
X161446699Y-69987750D01*
X161462523Y-69983683D01*
X161470250Y-69981478D01*
X161529921Y-69959344D01*
X161581450Y-69930366D01*
X161624888Y-69894468D01*
X161660290Y-69851577D01*
X161687707Y-69801614D01*
X161707192Y-69744506D01*
X161718797Y-69680176D01*
X161722575Y-69608548D01*
X161722296Y-69590867D01*
X161720737Y-69556288D01*
X161718121Y-69521712D01*
X161714806Y-69492493D01*
X161714551Y-69490798D01*
X161712337Y-69477378D01*
X161708338Y-69454130D01*
X161702656Y-69421631D01*
X161695394Y-69380459D01*
X161686657Y-69331190D01*
X161676547Y-69274402D01*
X161665168Y-69210671D01*
X161652622Y-69140573D01*
X161639014Y-69064687D01*
X161624445Y-68983588D01*
X161609020Y-68897854D01*
X161592842Y-68808062D01*
X161576013Y-68714788D01*
X161558638Y-68618609D01*
X161540819Y-68520103D01*
X161535334Y-68489805D01*
X161517759Y-68392701D01*
X161500706Y-68298467D01*
X161484273Y-68207650D01*
X161468559Y-68120799D01*
X161453665Y-68038462D01*
X161439689Y-67961188D01*
X161426729Y-67889523D01*
X161414886Y-67824017D01*
X161404258Y-67765218D01*
X161394945Y-67713673D01*
X161387045Y-67669931D01*
X161380657Y-67634541D01*
X161375882Y-67608049D01*
X161372817Y-67591005D01*
X161371562Y-67583956D01*
X161370587Y-67562941D01*
X161377449Y-67535079D01*
X161392717Y-67510928D01*
X161415049Y-67492411D01*
X161443099Y-67481456D01*
X161444111Y-67481267D01*
X161456655Y-67480097D01*
X161478688Y-67479051D01*
X161509144Y-67478126D01*
X161546963Y-67477325D01*
X161591079Y-67476646D01*
X161640430Y-67476090D01*
X161693953Y-67475657D01*
X161750584Y-67475348D01*
X161809261Y-67475163D01*
X161868919Y-67475101D01*
X161928495Y-67475163D01*
G37*
G36*
X166806105Y-66174163D02*
G01*
X166854120Y-66174399D01*
X166895245Y-66174818D01*
X166930111Y-66175451D01*
X166959349Y-66176327D01*
X166983588Y-66177475D01*
X167003461Y-66178924D01*
X167019596Y-66180705D01*
X167032626Y-66182846D01*
X167043180Y-66185378D01*
X167051889Y-66188328D01*
X167059383Y-66191727D01*
X167066294Y-66195605D01*
X167073252Y-66199990D01*
X167080888Y-66204912D01*
X167081332Y-66205215D01*
X167087697Y-66210896D01*
X167099139Y-66222470D01*
X167115788Y-66240082D01*
X167137775Y-66263880D01*
X167165229Y-66294009D01*
X167198281Y-66330616D01*
X167237061Y-66373846D01*
X167281699Y-66423845D01*
X167332327Y-66480761D01*
X167389073Y-66544739D01*
X167452068Y-66615926D01*
X167521443Y-66694467D01*
X167597329Y-66780509D01*
X167679854Y-66874197D01*
X167769150Y-66975679D01*
X167865346Y-67085100D01*
X167867118Y-67087117D01*
X167939871Y-67169905D01*
X168010736Y-67250547D01*
X168079389Y-67328674D01*
X168145506Y-67403916D01*
X168208762Y-67475906D01*
X168268834Y-67544273D01*
X168325397Y-67608649D01*
X168378127Y-67668666D01*
X168426701Y-67723953D01*
X168470794Y-67774144D01*
X168510082Y-67818868D01*
X168544241Y-67857756D01*
X168572947Y-67890441D01*
X168595875Y-67916552D01*
X168612703Y-67935722D01*
X168623105Y-67947580D01*
X168626759Y-67951760D01*
X168630245Y-67951760D01*
X168630107Y-67950301D01*
X168628465Y-67939762D01*
X168625087Y-67919528D01*
X168620075Y-67890168D01*
X168613526Y-67852248D01*
X168605541Y-67806337D01*
X168596220Y-67753002D01*
X168585662Y-67692810D01*
X168573966Y-67626329D01*
X168561233Y-67554126D01*
X168547561Y-67476769D01*
X168533052Y-67394825D01*
X168517803Y-67308862D01*
X168501915Y-67219447D01*
X168485487Y-67127148D01*
X168473991Y-67062605D01*
X168454932Y-66955576D01*
X168437640Y-66858331D01*
X168422043Y-66770379D01*
X168408070Y-66691231D01*
X168395651Y-66620396D01*
X168384716Y-66557384D01*
X168375193Y-66501704D01*
X168367012Y-66452867D01*
X168360103Y-66410381D01*
X168354395Y-66373757D01*
X168349817Y-66342504D01*
X168346299Y-66316131D01*
X168343770Y-66294150D01*
X168342159Y-66276069D01*
X168341397Y-66261397D01*
X168341412Y-66249645D01*
X168342134Y-66240323D01*
X168343492Y-66232939D01*
X168345416Y-66227004D01*
X168347835Y-66222028D01*
X168350678Y-66217519D01*
X168353875Y-66212988D01*
X168355535Y-66210803D01*
X168369582Y-66197108D01*
X168385983Y-66186225D01*
X168386191Y-66186122D01*
X168390203Y-66184345D01*
X168395028Y-66182794D01*
X168401373Y-66181452D01*
X168409945Y-66180305D01*
X168421452Y-66179338D01*
X168436601Y-66178535D01*
X168456099Y-66177880D01*
X168480653Y-66177360D01*
X168510972Y-66176958D01*
X168547761Y-66176659D01*
X168591729Y-66176449D01*
X168643583Y-66176312D01*
X168704030Y-66176233D01*
X168773777Y-66176197D01*
X168853532Y-66176188D01*
X168893532Y-66176205D01*
X168960591Y-66176307D01*
X169024312Y-66176496D01*
X169083873Y-66176766D01*
X169138457Y-66177108D01*
X169187242Y-66177516D01*
X169229410Y-66177982D01*
X169264142Y-66178499D01*
X169290617Y-66179060D01*
X169308016Y-66179657D01*
X169315519Y-66180284D01*
X169328279Y-66185927D01*
X169347479Y-66199948D01*
X169365429Y-66218399D01*
X169378779Y-66238212D01*
X169379497Y-66239478D01*
X169380279Y-66240526D01*
X169380965Y-66241215D01*
X169381606Y-66241831D01*
X169382253Y-66242662D01*
X169382959Y-66243996D01*
X169383775Y-66246118D01*
X169384752Y-66249317D01*
X169385942Y-66253879D01*
X169387397Y-66260091D01*
X169389168Y-66268241D01*
X169391307Y-66278616D01*
X169393865Y-66291503D01*
X169396895Y-66307189D01*
X169400447Y-66325961D01*
X169404573Y-66348106D01*
X169409325Y-66373912D01*
X169414754Y-66403666D01*
X169420912Y-66437654D01*
X169427851Y-66476164D01*
X169435622Y-66519483D01*
X169444277Y-66567898D01*
X169453867Y-66621696D01*
X169464444Y-66681165D01*
X169476059Y-66746591D01*
X169488765Y-66818262D01*
X169502612Y-66896465D01*
X169517653Y-66981486D01*
X169533939Y-67073614D01*
X169551521Y-67173135D01*
X169570451Y-67280336D01*
X169590781Y-67395505D01*
X169612562Y-67518928D01*
X169635846Y-67650893D01*
X169660684Y-67791687D01*
X169687128Y-67941596D01*
X169715230Y-68100909D01*
X169745042Y-68269913D01*
X169776614Y-68448893D01*
X169809998Y-68638138D01*
X169813841Y-68659922D01*
X169848237Y-68854959D01*
X169880788Y-69039656D01*
X169911527Y-69214201D01*
X169940488Y-69378782D01*
X169967702Y-69533586D01*
X169993202Y-69678803D01*
X170017020Y-69814620D01*
X170039190Y-69941225D01*
X170059744Y-70058807D01*
X170078714Y-70167554D01*
X170096134Y-70267652D01*
X170112035Y-70359292D01*
X170126450Y-70442660D01*
X170139412Y-70517945D01*
X170150953Y-70585336D01*
X170161107Y-70645019D01*
X170169905Y-70697183D01*
X170177380Y-70742017D01*
X170183564Y-70779708D01*
X170188492Y-70810445D01*
X170192194Y-70834415D01*
X170194703Y-70851806D01*
X170196053Y-70862808D01*
X170196276Y-70867607D01*
X170188188Y-70891623D01*
X170170224Y-70916598D01*
X170144855Y-70935005D01*
X170120993Y-70947059D01*
X169681473Y-70947030D01*
X169599634Y-70946970D01*
X169514981Y-70946767D01*
X169441026Y-70946421D01*
X169377760Y-70945930D01*
X169325176Y-70945296D01*
X169283264Y-70944517D01*
X169252017Y-70943594D01*
X169231426Y-70942527D01*
X169221482Y-70941316D01*
X169207126Y-70935547D01*
X169184073Y-70919738D01*
X169164200Y-70898723D01*
X169150979Y-70875732D01*
X169150462Y-70873989D01*
X169147842Y-70862304D01*
X169143529Y-70840941D01*
X169137640Y-70810536D01*
X169130291Y-70771727D01*
X169121601Y-70725154D01*
X169111685Y-70671453D01*
X169100661Y-70611264D01*
X169088646Y-70545223D01*
X169075757Y-70473968D01*
X169062111Y-70398139D01*
X169047825Y-70318372D01*
X169033016Y-70235306D01*
X169017801Y-70149579D01*
X168893180Y-69445855D01*
X168695763Y-69254873D01*
X168683774Y-69243279D01*
X168646112Y-69206903D01*
X168610994Y-69173054D01*
X168579154Y-69142436D01*
X168551328Y-69115754D01*
X168528252Y-69093711D01*
X168510661Y-69077013D01*
X168499292Y-69066365D01*
X168494880Y-69062471D01*
X168494878Y-69062471D01*
X168492197Y-69067127D01*
X168485079Y-69080958D01*
X168473752Y-69103495D01*
X168458446Y-69134271D01*
X168439390Y-69172818D01*
X168416813Y-69218667D01*
X168390943Y-69271353D01*
X168362010Y-69330406D01*
X168330242Y-69395358D01*
X168295870Y-69465743D01*
X168259120Y-69541092D01*
X168220223Y-69620938D01*
X168179408Y-69704812D01*
X168136903Y-69792247D01*
X168092938Y-69882775D01*
X168047741Y-69975928D01*
X168003657Y-70066764D01*
X167959403Y-70157808D01*
X167916509Y-70245916D01*
X167875209Y-70330609D01*
X167835740Y-70411407D01*
X167798338Y-70487831D01*
X167763239Y-70559401D01*
X167730679Y-70625639D01*
X167700894Y-70686064D01*
X167674120Y-70740198D01*
X167650592Y-70787561D01*
X167630547Y-70827673D01*
X167614221Y-70860055D01*
X167601850Y-70884228D01*
X167593669Y-70899713D01*
X167589915Y-70906029D01*
X167587070Y-70908908D01*
X167571485Y-70921767D01*
X167554333Y-70932817D01*
X167532903Y-70944381D01*
X167023939Y-70945878D01*
X166942379Y-70946121D01*
X166864090Y-70946342D01*
X166795268Y-70946487D01*
X166735266Y-70946524D01*
X166683436Y-70946420D01*
X166639131Y-70946144D01*
X166601702Y-70945662D01*
X166570503Y-70944942D01*
X166544885Y-70943952D01*
X166524200Y-70942658D01*
X166507803Y-70941029D01*
X166495043Y-70939032D01*
X166485275Y-70936634D01*
X166477850Y-70933804D01*
X166472121Y-70930507D01*
X166467440Y-70926713D01*
X166463160Y-70922388D01*
X166458633Y-70917499D01*
X166455972Y-70914227D01*
X166447799Y-70896335D01*
X166443475Y-70873296D01*
X166443468Y-70849136D01*
X166448244Y-70827882D01*
X166449824Y-70824562D01*
X166456112Y-70811971D01*
X166466946Y-70790531D01*
X166482120Y-70760645D01*
X166501427Y-70722717D01*
X166524662Y-70677151D01*
X166551617Y-70624349D01*
X166582086Y-70564716D01*
X166615863Y-70498655D01*
X166652741Y-70426570D01*
X166692514Y-70348863D01*
X166734975Y-70265938D01*
X166779919Y-70178199D01*
X166827138Y-70086049D01*
X166876426Y-69989892D01*
X166927577Y-69890131D01*
X166980385Y-69787170D01*
X167034642Y-69681412D01*
X167090143Y-69573260D01*
X167129474Y-69496612D01*
X167184012Y-69390279D01*
X167237115Y-69286681D01*
X167288581Y-69186218D01*
X167338204Y-69089291D01*
X167385783Y-68996297D01*
X167431112Y-68907639D01*
X167473988Y-68823713D01*
X167514208Y-68744922D01*
X167551567Y-68671664D01*
X167585861Y-68604338D01*
X167616888Y-68543345D01*
X167644443Y-68489085D01*
X167668321Y-68441956D01*
X167688321Y-68402359D01*
X167704237Y-68370693D01*
X167715867Y-68347358D01*
X167723005Y-68332753D01*
X167725449Y-68327278D01*
X167724185Y-68325461D01*
X167716369Y-68316384D01*
X167701681Y-68300045D01*
X167680431Y-68276774D01*
X167652925Y-68246899D01*
X167619472Y-68210750D01*
X167580379Y-68168656D01*
X167535953Y-68120947D01*
X167486504Y-68067950D01*
X167432339Y-68009997D01*
X167373765Y-67947415D01*
X167311090Y-67880534D01*
X167244622Y-67809684D01*
X167174669Y-67735194D01*
X167101539Y-67657392D01*
X167025540Y-67576609D01*
X166946979Y-67493173D01*
X166866164Y-67407414D01*
X166783403Y-67319660D01*
X166736624Y-67270070D01*
X166654662Y-67183140D01*
X166574717Y-67098293D01*
X166497103Y-67015865D01*
X166422134Y-66936192D01*
X166350124Y-66859610D01*
X166281388Y-66786453D01*
X166216240Y-66717057D01*
X166154995Y-66651759D01*
X166097966Y-66590893D01*
X166045468Y-66534794D01*
X165997815Y-66483800D01*
X165955322Y-66438244D01*
X165918302Y-66398463D01*
X165887071Y-66364791D01*
X165861942Y-66337566D01*
X165843230Y-66317121D01*
X165831249Y-66303793D01*
X165826313Y-66297918D01*
X165814759Y-66276035D01*
X165807963Y-66248707D01*
X165810880Y-66224249D01*
X165823367Y-66203486D01*
X165845284Y-66187241D01*
X165847517Y-66186114D01*
X165851225Y-66184480D01*
X165855663Y-66183032D01*
X165861454Y-66181758D01*
X165869224Y-66180644D01*
X165879595Y-66179678D01*
X165893192Y-66178845D01*
X165910640Y-66178133D01*
X165932562Y-66177529D01*
X165959582Y-66177018D01*
X165992324Y-66176588D01*
X166031413Y-66176226D01*
X166077473Y-66175918D01*
X166131127Y-66175652D01*
X166192999Y-66175413D01*
X166263715Y-66175188D01*
X166343897Y-66174965D01*
X166434171Y-66174730D01*
X166440613Y-66174713D01*
X166532535Y-66174471D01*
X166614415Y-66174265D01*
X166686883Y-66174126D01*
X166750570Y-66174082D01*
X166806105Y-66174163D01*
G37*
G36*
X177218035Y-67490635D02*
G01*
X177219598Y-67491362D01*
X177223696Y-67492909D01*
X177227467Y-67494019D01*
X177230980Y-67495035D01*
X177234304Y-67496300D01*
X177237507Y-67498158D01*
X177240660Y-67500952D01*
X177243832Y-67505024D01*
X177247091Y-67510719D01*
X177250507Y-67518379D01*
X177254150Y-67528349D01*
X177258087Y-67540970D01*
X177262389Y-67556587D01*
X177267125Y-67575543D01*
X177272364Y-67598180D01*
X177278175Y-67624843D01*
X177284627Y-67655875D01*
X177291790Y-67691618D01*
X177299732Y-67732416D01*
X177308524Y-67778613D01*
X177318233Y-67830552D01*
X177328930Y-67888575D01*
X177340684Y-67953027D01*
X177353563Y-68024250D01*
X177367637Y-68102588D01*
X177382976Y-68188384D01*
X177399647Y-68281981D01*
X177417722Y-68383723D01*
X177437268Y-68493953D01*
X177458355Y-68613014D01*
X177481052Y-68741249D01*
X177505429Y-68879003D01*
X177531554Y-69026617D01*
X177559497Y-69184436D01*
X177569514Y-69241009D01*
X177592506Y-69370979D01*
X177614979Y-69498184D01*
X177636863Y-69622214D01*
X177658086Y-69742660D01*
X177678576Y-69859111D01*
X177698262Y-69971158D01*
X177717073Y-70078391D01*
X177734938Y-70180400D01*
X177751784Y-70276776D01*
X177767541Y-70367110D01*
X177782137Y-70450990D01*
X177795500Y-70528009D01*
X177807560Y-70597755D01*
X177818244Y-70659819D01*
X177827482Y-70713792D01*
X177835201Y-70759264D01*
X177841332Y-70795825D01*
X177845801Y-70823065D01*
X177848538Y-70840575D01*
X177849471Y-70847945D01*
X177847495Y-70874877D01*
X177838846Y-70901380D01*
X177822585Y-70921621D01*
X177797911Y-70936983D01*
X177796577Y-70937578D01*
X177791954Y-70939322D01*
X177786221Y-70940833D01*
X177778639Y-70942127D01*
X177768469Y-70943223D01*
X177754972Y-70944137D01*
X177737410Y-70944885D01*
X177715043Y-70945484D01*
X177687134Y-70945952D01*
X177652942Y-70946306D01*
X177611729Y-70946561D01*
X177562757Y-70946735D01*
X177505287Y-70946846D01*
X177438579Y-70946909D01*
X177361894Y-70946942D01*
X177303576Y-70946937D01*
X177228410Y-70946850D01*
X177163021Y-70946662D01*
X177106854Y-70946362D01*
X177059355Y-70945944D01*
X177019970Y-70945400D01*
X176988147Y-70944721D01*
X176963330Y-70943898D01*
X176944967Y-70942925D01*
X176932503Y-70941792D01*
X176925385Y-70940491D01*
X176912901Y-70935544D01*
X176888466Y-70918458D01*
X176868432Y-70894367D01*
X176855135Y-70865757D01*
X176854288Y-70862243D01*
X176851421Y-70848136D01*
X176846855Y-70824300D01*
X176840678Y-70791230D01*
X176832978Y-70749418D01*
X176823842Y-70699361D01*
X176813357Y-70641553D01*
X176801610Y-70576488D01*
X176788689Y-70504661D01*
X176774680Y-70426566D01*
X176759672Y-70342699D01*
X176743751Y-70253553D01*
X176727005Y-70159624D01*
X176709520Y-70061406D01*
X176691385Y-69959393D01*
X176672686Y-69854081D01*
X176653511Y-69745963D01*
X176633947Y-69635534D01*
X176614082Y-69523290D01*
X176594002Y-69409724D01*
X176573794Y-69295331D01*
X176553547Y-69180606D01*
X176533347Y-69066043D01*
X176513282Y-68952137D01*
X176493439Y-68839382D01*
X176473905Y-68728274D01*
X176454767Y-68619306D01*
X176436113Y-68512974D01*
X176418030Y-68409771D01*
X176400606Y-68310193D01*
X176383927Y-68214734D01*
X176368080Y-68123889D01*
X176353154Y-68038152D01*
X176339235Y-67958018D01*
X176326411Y-67883981D01*
X176314769Y-67816536D01*
X176304396Y-67756178D01*
X176295379Y-67703401D01*
X176287806Y-67658700D01*
X176281764Y-67622570D01*
X176277340Y-67595504D01*
X176274622Y-67577998D01*
X176273696Y-67570546D01*
X176273889Y-67563035D01*
X176279700Y-67533216D01*
X176293946Y-67509639D01*
X176317089Y-67491459D01*
X176340665Y-67478066D01*
X177192511Y-67478066D01*
X177218035Y-67490635D01*
G37*
G36*
X166141130Y-68996724D02*
G01*
X166153126Y-69064006D01*
X166165335Y-69132761D01*
X166177593Y-69202065D01*
X166189737Y-69270994D01*
X166201605Y-69338623D01*
X166213032Y-69404027D01*
X166223858Y-69466283D01*
X166233917Y-69524466D01*
X166243048Y-69577651D01*
X166251087Y-69624915D01*
X166257871Y-69665332D01*
X166263238Y-69697978D01*
X166267024Y-69721929D01*
X166269066Y-69736260D01*
X166269638Y-69741147D01*
X166273510Y-69787632D01*
X166275595Y-69840446D01*
X166275952Y-69896762D01*
X166274641Y-69953758D01*
X166271724Y-70008608D01*
X166267259Y-70058487D01*
X166261308Y-70100571D01*
X166259843Y-70108591D01*
X166235026Y-70214457D01*
X166201020Y-70314889D01*
X166157867Y-70409804D01*
X166105610Y-70499117D01*
X166044293Y-70582743D01*
X165973958Y-70660599D01*
X165935611Y-70697074D01*
X165853824Y-70763936D01*
X165764240Y-70823872D01*
X165667245Y-70876725D01*
X165563222Y-70922336D01*
X165452554Y-70960544D01*
X165335624Y-70991192D01*
X165212817Y-71014119D01*
X165084517Y-71029169D01*
X165076443Y-71029722D01*
X165052138Y-71030689D01*
X165019972Y-71031358D01*
X164981892Y-71031739D01*
X164939843Y-71031842D01*
X164895771Y-71031679D01*
X164851622Y-71031258D01*
X164809342Y-71030591D01*
X164770876Y-71029688D01*
X164738171Y-71028558D01*
X164713173Y-71027212D01*
X164599221Y-71016827D01*
X164438605Y-70993856D01*
X164282987Y-70961457D01*
X164132234Y-70919587D01*
X163986212Y-70868201D01*
X163844787Y-70807256D01*
X163707824Y-70736707D01*
X163575189Y-70656512D01*
X163546660Y-70637387D01*
X163519717Y-70617854D01*
X163500864Y-70602218D01*
X163490801Y-70591021D01*
X163479536Y-70564034D01*
X163476145Y-70531291D01*
X163481773Y-70496502D01*
X163484486Y-70489327D01*
X163492206Y-70472278D01*
X163504039Y-70447849D01*
X163519423Y-70417098D01*
X163537793Y-70381080D01*
X163558588Y-70340853D01*
X163581242Y-70297473D01*
X163605193Y-70251997D01*
X163629877Y-70205481D01*
X163654732Y-70158984D01*
X163679193Y-70113561D01*
X163702697Y-70070269D01*
X163724681Y-70030165D01*
X163744581Y-69994306D01*
X163761834Y-69963749D01*
X163775877Y-69939549D01*
X163786146Y-69922765D01*
X163792078Y-69914453D01*
X163804163Y-69903614D01*
X163819675Y-69895208D01*
X163837188Y-69892350D01*
X163857993Y-69895249D01*
X163883377Y-69904114D01*
X163914629Y-69919155D01*
X163953038Y-69940581D01*
X163976460Y-69953969D01*
X164087965Y-70011687D01*
X164206042Y-70063542D01*
X164328088Y-70108370D01*
X164349657Y-70115420D01*
X164432353Y-70139938D01*
X164510395Y-70158573D01*
X164586835Y-70171884D01*
X164664724Y-70180427D01*
X164747114Y-70184756D01*
X164769242Y-70185280D01*
X164821750Y-70185439D01*
X164867273Y-70183636D01*
X164908425Y-70179648D01*
X164947823Y-70173252D01*
X164988081Y-70164225D01*
X165020569Y-70154817D01*
X165078460Y-70130690D01*
X165128996Y-70099162D01*
X165171839Y-70060566D01*
X165206647Y-70015239D01*
X165233079Y-69963515D01*
X165250796Y-69905729D01*
X165251007Y-69904755D01*
X165254647Y-69885229D01*
X165256947Y-69865267D01*
X165258033Y-69842307D01*
X165258028Y-69813788D01*
X165257058Y-69777149D01*
X165256617Y-69765158D01*
X165254510Y-69726445D01*
X165251210Y-69691851D01*
X165246215Y-69657790D01*
X165239027Y-69620674D01*
X165229144Y-69576918D01*
X165226309Y-69564907D01*
X164276780Y-69563524D01*
X164239473Y-69563469D01*
X164124284Y-69563297D01*
X164019191Y-69563128D01*
X163923719Y-69562959D01*
X163837394Y-69562782D01*
X163759741Y-69562593D01*
X163690287Y-69562386D01*
X163628555Y-69562155D01*
X163574074Y-69561894D01*
X163526367Y-69561599D01*
X163484960Y-69561262D01*
X163449379Y-69560880D01*
X163419150Y-69560445D01*
X163393798Y-69559953D01*
X163372849Y-69559397D01*
X163355829Y-69558773D01*
X163342263Y-69558074D01*
X163331676Y-69557295D01*
X163323594Y-69556430D01*
X163317543Y-69555474D01*
X163313049Y-69554420D01*
X163309637Y-69553264D01*
X163306832Y-69551999D01*
X163305838Y-69551495D01*
X163284333Y-69535127D01*
X163266496Y-69511565D01*
X163254875Y-69484135D01*
X163253607Y-69478385D01*
X163250473Y-69462296D01*
X163245854Y-69437536D01*
X163239939Y-69405180D01*
X163232916Y-69366302D01*
X163224975Y-69321980D01*
X163216304Y-69273287D01*
X163207093Y-69221300D01*
X163197530Y-69167093D01*
X163187803Y-69111743D01*
X163178103Y-69056324D01*
X163168617Y-69001913D01*
X163159535Y-68949583D01*
X163151046Y-68900412D01*
X163143338Y-68855474D01*
X163136600Y-68815844D01*
X163131022Y-68782599D01*
X163126792Y-68756813D01*
X163124098Y-68739562D01*
X163115790Y-68675714D01*
X163110475Y-68606743D01*
X164089512Y-68606743D01*
X164090158Y-68651182D01*
X164094281Y-68699275D01*
X164102078Y-68753108D01*
X164113747Y-68814767D01*
X164130878Y-68897808D01*
X164617073Y-68899176D01*
X164617092Y-68899176D01*
X164700281Y-68899404D01*
X164773404Y-68899584D01*
X164837108Y-68899703D01*
X164892043Y-68899751D01*
X164938857Y-68899716D01*
X164978198Y-68899585D01*
X165010715Y-68899349D01*
X165037057Y-68898994D01*
X165057870Y-68898510D01*
X165073805Y-68897886D01*
X165085510Y-68897109D01*
X165093632Y-68896168D01*
X165098820Y-68895051D01*
X165101724Y-68893748D01*
X165102990Y-68892246D01*
X165103268Y-68890534D01*
X165103213Y-68888986D01*
X165101685Y-68876156D01*
X165098349Y-68855312D01*
X165093597Y-68828467D01*
X165087819Y-68797632D01*
X165081407Y-68764820D01*
X165074754Y-68732043D01*
X165068249Y-68701312D01*
X165062286Y-68674641D01*
X165057255Y-68654041D01*
X165043376Y-68610839D01*
X165023195Y-68562374D01*
X164998914Y-68513783D01*
X164972330Y-68468654D01*
X164945241Y-68430574D01*
X164898148Y-68379260D01*
X164841728Y-68332718D01*
X164779322Y-68294620D01*
X164711564Y-68265240D01*
X164639091Y-68244850D01*
X164562540Y-68233724D01*
X164482546Y-68232133D01*
X164460223Y-68233268D01*
X164411069Y-68238081D01*
X164367785Y-68246338D01*
X164327123Y-68258765D01*
X164285832Y-68276088D01*
X164272996Y-68282419D01*
X164222980Y-68314104D01*
X164180476Y-68353225D01*
X164145760Y-68399358D01*
X164119110Y-68452077D01*
X164100801Y-68510958D01*
X164091110Y-68575575D01*
X164089512Y-68606743D01*
X163110475Y-68606743D01*
X163106407Y-68553952D01*
X163106138Y-68436849D01*
X163114955Y-68324615D01*
X163132826Y-68217458D01*
X163159722Y-68115589D01*
X163195614Y-68019216D01*
X163240470Y-67928548D01*
X163251709Y-67909355D01*
X163291126Y-67850677D01*
X163337568Y-67791888D01*
X163388733Y-67735585D01*
X163442315Y-67684359D01*
X163496012Y-67640806D01*
X163555357Y-67600129D01*
X163643762Y-67549003D01*
X163738399Y-67504830D01*
X163839796Y-67467423D01*
X163948479Y-67436595D01*
X164064975Y-67412157D01*
X164189811Y-67393924D01*
X164194926Y-67393367D01*
X164223084Y-67391225D01*
X164259605Y-67389519D01*
X164302586Y-67388249D01*
X164350123Y-67387416D01*
X164400312Y-67387020D01*
X164451250Y-67387061D01*
X164501034Y-67387539D01*
X164547760Y-67388456D01*
X164589525Y-67389811D01*
X164624425Y-67391605D01*
X164650558Y-67393838D01*
X164758006Y-67408628D01*
X164889657Y-67433793D01*
X165014139Y-67466041D01*
X165132143Y-67505609D01*
X165244359Y-67552734D01*
X165351476Y-67607655D01*
X165454186Y-67670608D01*
X165508989Y-67708929D01*
X165604208Y-67785384D01*
X165691626Y-67869153D01*
X165771164Y-67960135D01*
X165842746Y-68058229D01*
X165906295Y-68163336D01*
X165961733Y-68275354D01*
X166008984Y-68394183D01*
X166021428Y-68431118D01*
X166041876Y-68499050D01*
X166060218Y-68568942D01*
X166074949Y-68635290D01*
X166076787Y-68644658D01*
X166082734Y-68675742D01*
X166090035Y-68714771D01*
X166098525Y-68760819D01*
X166108043Y-68812963D01*
X166118425Y-68870278D01*
X166122072Y-68890534D01*
X166129508Y-68931840D01*
X166141130Y-68996724D01*
G37*
G36*
X174421390Y-67389548D02*
G01*
X174592342Y-67404005D01*
X174761328Y-67428702D01*
X174928775Y-67463732D01*
X175095109Y-67509192D01*
X175260756Y-67565175D01*
X175426143Y-67631777D01*
X175426706Y-67632022D01*
X175470383Y-67651981D01*
X175505101Y-67670198D01*
X175532238Y-67687681D01*
X175553171Y-67705437D01*
X175569277Y-67724477D01*
X175581935Y-67745807D01*
X175582303Y-67746523D01*
X175583500Y-67748591D01*
X175584549Y-67750122D01*
X175585512Y-67751464D01*
X175586452Y-67752964D01*
X175587429Y-67754967D01*
X175588507Y-67757821D01*
X175589748Y-67761872D01*
X175591213Y-67767467D01*
X175592965Y-67774952D01*
X175595067Y-67784674D01*
X175597579Y-67796980D01*
X175600565Y-67812216D01*
X175604087Y-67830729D01*
X175608206Y-67852866D01*
X175612986Y-67878972D01*
X175618487Y-67909395D01*
X175624773Y-67944481D01*
X175631905Y-67984578D01*
X175639945Y-68030031D01*
X175648957Y-68081187D01*
X175659001Y-68138392D01*
X175670141Y-68201994D01*
X175682438Y-68272339D01*
X175695954Y-68349774D01*
X175710752Y-68434644D01*
X175726893Y-68527298D01*
X175744441Y-68628081D01*
X175763456Y-68737340D01*
X175784002Y-68855421D01*
X175806141Y-68982672D01*
X175829933Y-69119438D01*
X175855443Y-69266067D01*
X175882732Y-69422906D01*
X175890294Y-69466375D01*
X175917088Y-69620497D01*
X175942066Y-69764365D01*
X175965267Y-69898212D01*
X175986731Y-70022272D01*
X176006497Y-70136778D01*
X176024604Y-70241964D01*
X176041093Y-70338063D01*
X176056002Y-70425308D01*
X176069372Y-70503934D01*
X176081241Y-70574174D01*
X176091650Y-70636262D01*
X176100637Y-70690430D01*
X176108242Y-70736913D01*
X176114506Y-70775945D01*
X176119466Y-70807758D01*
X176123163Y-70832586D01*
X176125637Y-70850663D01*
X176126926Y-70862222D01*
X176127070Y-70867498D01*
X176118996Y-70891539D01*
X176101031Y-70916568D01*
X176075629Y-70935005D01*
X176051768Y-70947059D01*
X175633677Y-70946652D01*
X175603618Y-70946617D01*
X175523475Y-70946457D01*
X175453404Y-70946203D01*
X175392928Y-70945848D01*
X175341570Y-70945385D01*
X175298852Y-70944807D01*
X175264297Y-70944106D01*
X175237428Y-70943274D01*
X175217767Y-70942304D01*
X175204836Y-70941190D01*
X175198158Y-70939923D01*
X175196849Y-70939431D01*
X175173552Y-70925701D01*
X175152588Y-70904776D01*
X175137279Y-70879929D01*
X175135701Y-70873940D01*
X175132229Y-70857498D01*
X175127041Y-70831160D01*
X175120199Y-70795279D01*
X175111768Y-70750208D01*
X175101812Y-70696298D01*
X175090393Y-70633903D01*
X175077576Y-70563376D01*
X175063424Y-70485068D01*
X175048002Y-70399333D01*
X175031372Y-70306524D01*
X175013599Y-70206992D01*
X174994746Y-70101090D01*
X174974876Y-69989171D01*
X174954055Y-69871589D01*
X174932345Y-69748694D01*
X174909810Y-69620840D01*
X174907094Y-69605419D01*
X174882183Y-69464032D01*
X174859041Y-69332872D01*
X174837613Y-69211637D01*
X174817846Y-69100027D01*
X174799684Y-68997742D01*
X174783072Y-68904481D01*
X174767956Y-68819945D01*
X174754281Y-68743832D01*
X174741993Y-68675842D01*
X174731037Y-68615676D01*
X174721358Y-68563032D01*
X174712901Y-68517610D01*
X174705613Y-68479110D01*
X174699437Y-68447232D01*
X174694321Y-68421676D01*
X174690208Y-68402140D01*
X174687044Y-68388324D01*
X174684774Y-68379929D01*
X174683345Y-68376653D01*
X174678996Y-68374049D01*
X174664318Y-68367732D01*
X174642674Y-68359896D01*
X174616261Y-68351248D01*
X174587274Y-68342494D01*
X174557913Y-68334340D01*
X174530373Y-68327492D01*
X174499935Y-68321001D01*
X174406041Y-68306684D01*
X174304843Y-68299199D01*
X174197058Y-68298556D01*
X174083407Y-68304767D01*
X173964605Y-68317846D01*
X173926486Y-68322801D01*
X173888707Y-68326880D01*
X173858699Y-68328831D01*
X173834962Y-68328629D01*
X173815997Y-68326249D01*
X173800301Y-68321665D01*
X173786375Y-68314853D01*
X173769276Y-68302118D01*
X173751050Y-68277981D01*
X173748595Y-68270894D01*
X173744106Y-68253507D01*
X173738175Y-68227562D01*
X173731008Y-68194158D01*
X173722809Y-68154398D01*
X173713785Y-68109381D01*
X173704140Y-68060210D01*
X173694079Y-68007984D01*
X173683809Y-67953805D01*
X173673534Y-67898774D01*
X173663459Y-67843992D01*
X173653790Y-67790560D01*
X173644733Y-67739579D01*
X173636492Y-67692150D01*
X173629272Y-67649373D01*
X173623280Y-67612351D01*
X173618719Y-67582183D01*
X173615797Y-67559971D01*
X173614717Y-67546816D01*
X173614694Y-67542708D01*
X173615841Y-67522604D01*
X173620109Y-67507347D01*
X173628762Y-67492007D01*
X173633666Y-67485174D01*
X173646693Y-67471759D01*
X173663640Y-67460752D01*
X173686203Y-67451380D01*
X173716073Y-67442872D01*
X173754943Y-67434455D01*
X173822854Y-67421919D01*
X173946288Y-67403615D01*
X174068322Y-67391703D01*
X174192490Y-67385879D01*
X174322329Y-67385840D01*
X174421390Y-67389548D01*
G37*
%TO.C,D12*%
X226330000Y-117094000D02*
X228330000Y-117094000D01*
X228330000Y-115824000D02*
X228330000Y-119760000D01*
X226330000Y-115824000D02*
X226330000Y-119760000D01*
X226330000Y-115824000D02*
X228330000Y-115824000D01*
%TO.C,C2*%
X194202267Y-91823000D02*
X193909733Y-91823000D01*
X194202267Y-90803000D02*
X193909733Y-90803000D01*
%TO.C,D11*%
X207280000Y-117094000D02*
X209280000Y-117094000D01*
X209280000Y-115824000D02*
X209280000Y-119760000D01*
X207280000Y-115824000D02*
X207280000Y-119760000D01*
X207280000Y-115824000D02*
X209280000Y-115824000D01*
%TO.C,LED9*%
G36*
X236982000Y-109702600D02*
G01*
X236982000Y-109220000D01*
X237490000Y-109220000D01*
X236982000Y-109702600D01*
G37*
X236982000Y-109702600D02*
X236982000Y-109220000D01*
X237490000Y-109220000D01*
X236982000Y-109702600D01*
%TO.C,D4*%
X226330000Y-77724000D02*
X226330000Y-81660000D01*
X226330000Y-78994000D02*
X228330000Y-78994000D01*
X226330000Y-77724000D02*
X228330000Y-77724000D01*
X228330000Y-77724000D02*
X228330000Y-81660000D01*
%TO.C,D13*%
X245380000Y-78994000D02*
X247380000Y-78994000D01*
X247380000Y-77724000D02*
X247380000Y-81660000D01*
X245380000Y-77724000D02*
X245380000Y-81660000D01*
X245380000Y-77724000D02*
X247380000Y-77724000D01*
%TO.C,LED0*%
G36*
X241808000Y-93980000D02*
G01*
X241300000Y-93980000D01*
X241808000Y-93497400D01*
X241808000Y-93980000D01*
G37*
X241808000Y-93980000D02*
X241300000Y-93980000D01*
X241808000Y-93497400D01*
X241808000Y-93980000D01*
%TO.C,D14*%
X245380000Y-96774000D02*
X247380000Y-96774000D01*
X247380000Y-96774000D02*
X247380000Y-100710000D01*
X245380000Y-96774000D02*
X245380000Y-100710000D01*
X245380000Y-98044000D02*
X247380000Y-98044000D01*
%TO.C,D8*%
X226330000Y-96774000D02*
X226330000Y-100710000D01*
X226330000Y-96774000D02*
X228330000Y-96774000D01*
X228330000Y-96774000D02*
X228330000Y-100710000D01*
X226330000Y-98044000D02*
X228330000Y-98044000D01*
%TO.C,D5*%
X169180000Y-96774000D02*
X171180000Y-96774000D01*
X169180000Y-98044000D02*
X171180000Y-98044000D01*
X171180000Y-96774000D02*
X171180000Y-100710000D01*
X169180000Y-96774000D02*
X169180000Y-100710000D01*
%TO.C,D6*%
X188230000Y-96774000D02*
X190230000Y-96774000D01*
X188230000Y-96774000D02*
X188230000Y-100710000D01*
X190230000Y-96774000D02*
X190230000Y-100710000D01*
X188230000Y-98044000D02*
X190230000Y-98044000D01*
%TO.C,C4*%
X156102267Y-90803000D02*
X155809733Y-90803000D01*
X156102267Y-91823000D02*
X155809733Y-91823000D01*
%TO.C,D7*%
X209280000Y-96774000D02*
X209280000Y-100710000D01*
X207280000Y-98044000D02*
X209280000Y-98044000D01*
X207280000Y-96774000D02*
X207280000Y-100710000D01*
X207280000Y-96774000D02*
X209280000Y-96774000D01*
%TO.C,C0*%
X232302267Y-91823000D02*
X232009733Y-91823000D01*
X232302267Y-90803000D02*
X232009733Y-90803000D01*
%TO.C,C12*%
X194202267Y-129923000D02*
X193909733Y-129923000D01*
X194202267Y-128903000D02*
X193909733Y-128903000D01*
%TO.C,LED11*%
G36*
X222758000Y-132080000D02*
G01*
X222250000Y-132080000D01*
X222758000Y-131597400D01*
X222758000Y-132080000D01*
G37*
X222758000Y-132080000D02*
X222250000Y-132080000D01*
X222758000Y-131597400D01*
X222758000Y-132080000D01*
%TO.C,C1*%
X213252267Y-91823000D02*
X212959733Y-91823000D01*
X213252267Y-90803000D02*
X212959733Y-90803000D01*
%TO.C,C10*%
X232302267Y-129923000D02*
X232009733Y-129923000D01*
X232302267Y-128903000D02*
X232009733Y-128903000D01*
%TO.C,LED10*%
G36*
X241808000Y-132080000D02*
G01*
X241300000Y-132080000D01*
X241808000Y-131597400D01*
X241808000Y-132080000D01*
G37*
X241808000Y-132080000D02*
X241300000Y-132080000D01*
X241808000Y-131597400D01*
X241808000Y-132080000D01*
%TO.C,LED13*%
G36*
X184658000Y-132080000D02*
G01*
X184150000Y-132080000D01*
X184658000Y-131597400D01*
X184658000Y-132080000D01*
G37*
X184658000Y-132080000D02*
X184150000Y-132080000D01*
X184658000Y-131597400D01*
X184658000Y-132080000D01*
%TO.C,LED7*%
G36*
X198882000Y-109702600D02*
G01*
X198882000Y-109220000D01*
X199390000Y-109220000D01*
X198882000Y-109702600D01*
G37*
X198882000Y-109702600D02*
X198882000Y-109220000D01*
X199390000Y-109220000D01*
X198882000Y-109702600D01*
%TO.C,LED6*%
G36*
X179832000Y-109702600D02*
G01*
X179832000Y-109220000D01*
X180340000Y-109220000D01*
X179832000Y-109702600D01*
G37*
X179832000Y-109702600D02*
X179832000Y-109220000D01*
X180340000Y-109220000D01*
X179832000Y-109702600D01*
%TO.C,C14*%
X156102267Y-129923000D02*
X155809733Y-129923000D01*
X156102267Y-128903000D02*
X155809733Y-128903000D01*
%TO.C,LED12*%
G36*
X203708000Y-132080000D02*
G01*
X203200000Y-132080000D01*
X203708000Y-131597400D01*
X203708000Y-132080000D01*
G37*
X203708000Y-132080000D02*
X203200000Y-132080000D01*
X203708000Y-131597400D01*
X203708000Y-132080000D01*
%TD*%
%LPC*%
D17*
%TO.C,H1*%
X248920000Y-41275000D03*
%TD*%
D18*
%TO.C,KEY8*%
X225425000Y-105410000D03*
D19*
X220345000Y-105410000D03*
D18*
X215265000Y-105410000D03*
D20*
X222885000Y-100330000D03*
X216535000Y-102870000D03*
%TD*%
D18*
%TO.C,KEY9*%
X168275000Y-124460000D03*
X158115000Y-124460000D03*
D19*
X163195000Y-124460000D03*
D20*
X165735000Y-119380000D03*
X159385000Y-121920000D03*
%TD*%
D18*
%TO.C,KEY13*%
X244475000Y-86360000D03*
X234315000Y-86360000D03*
D19*
X239395000Y-86360000D03*
D20*
X241935000Y-81280000D03*
X235585000Y-83820000D03*
%TD*%
D17*
%TO.C,H2*%
X155575000Y-133985000D03*
%TD*%
D19*
%TO.C,KEY14*%
X239395000Y-105410000D03*
D18*
X234315000Y-105410000D03*
X244475000Y-105410000D03*
D20*
X241935000Y-100330000D03*
X235585000Y-102870000D03*
%TD*%
D18*
%TO.C,KEY10*%
X187325000Y-124460000D03*
D19*
X182245000Y-124460000D03*
D18*
X177165000Y-124460000D03*
D20*
X184785000Y-119380000D03*
X178435000Y-121920000D03*
%TD*%
D18*
%TO.C,KEY4*%
X215265000Y-86360000D03*
D19*
X220345000Y-86360000D03*
D18*
X225425000Y-86360000D03*
D20*
X222885000Y-81280000D03*
X216535000Y-83820000D03*
%TD*%
D18*
%TO.C,KEY1*%
X168275000Y-86360000D03*
D19*
X163195000Y-86360000D03*
D18*
X158115000Y-86360000D03*
D20*
X165735000Y-81280000D03*
X159385000Y-83820000D03*
%TD*%
D17*
%TO.C,OLED2*%
X223205000Y-41275000D03*
X192405000Y-41275000D03*
X223205000Y-70175000D03*
X192405000Y-70175000D03*
D21*
X203995000Y-40875000D03*
X206535000Y-40875000D03*
X209075000Y-40875000D03*
X211615000Y-40875000D03*
%TD*%
D19*
%TO.C,KEY11*%
X201295000Y-124460000D03*
D18*
X196215000Y-124460000D03*
X206375000Y-124460000D03*
D20*
X203835000Y-119380000D03*
X197485000Y-121920000D03*
%TD*%
D18*
%TO.C,KEY12*%
X215265000Y-124460000D03*
X225425000Y-124460000D03*
D19*
X220345000Y-124460000D03*
D20*
X222885000Y-119380000D03*
X216535000Y-121920000D03*
%TD*%
D19*
%TO.C,KEY6*%
X182245000Y-105410000D03*
D18*
X177165000Y-105410000D03*
X187325000Y-105410000D03*
D20*
X184785000Y-100330000D03*
X178435000Y-102870000D03*
%TD*%
D18*
%TO.C,KEY2*%
X177165000Y-86360000D03*
D19*
X182245000Y-86360000D03*
D18*
X187325000Y-86360000D03*
D20*
X184785000Y-81280000D03*
X178435000Y-83820000D03*
%TD*%
D21*
%TO.C,U1*%
X227965000Y-45974000D03*
X227965000Y-43434000D03*
X227965000Y-53594000D03*
X227965000Y-56134000D03*
X227965000Y-58674000D03*
X227965000Y-61214000D03*
X227965000Y-63754000D03*
X227965000Y-66294000D03*
X227965000Y-68834000D03*
X227965000Y-71374000D03*
X243205000Y-71374000D03*
X243205000Y-66294000D03*
X243205000Y-63754000D03*
X243205000Y-68834000D03*
X243205000Y-61214000D03*
X243205000Y-58674000D03*
X243205000Y-56134000D03*
X243205000Y-53594000D03*
X227965000Y-48514000D03*
X227965000Y-51054000D03*
X243205000Y-43434000D03*
X243205000Y-45974000D03*
X243205000Y-48514000D03*
X243205000Y-51054000D03*
%TD*%
D17*
%TO.C,H3*%
X248920000Y-133985000D03*
%TD*%
%TO.C,OLED1*%
X186375000Y-70175000D03*
X155575000Y-41275000D03*
X186375000Y-41275000D03*
X155575000Y-70175000D03*
D21*
X167165000Y-40875000D03*
X169705000Y-40875000D03*
X172245000Y-40875000D03*
X174785000Y-40875000D03*
%TD*%
D18*
%TO.C,KEY7*%
X206375000Y-105410000D03*
D19*
X201295000Y-105410000D03*
D18*
X196215000Y-105410000D03*
D20*
X203835000Y-100330000D03*
X197485000Y-102870000D03*
%TD*%
D18*
%TO.C,KEY15*%
X234315000Y-124460000D03*
D19*
X239395000Y-124460000D03*
D18*
X244475000Y-124460000D03*
D20*
X241935000Y-119380000D03*
X235585000Y-121920000D03*
%TD*%
D18*
%TO.C,KEY3*%
X196215000Y-86360000D03*
D19*
X201295000Y-86360000D03*
D18*
X206375000Y-86360000D03*
D20*
X203835000Y-81280000D03*
X197485000Y-83820000D03*
%TD*%
D18*
%TO.C,KEY5*%
X158115000Y-105410000D03*
D19*
X163195000Y-105410000D03*
D18*
X168275000Y-105410000D03*
D20*
X165735000Y-100330000D03*
X159385000Y-102870000D03*
%TD*%
D22*
%TO.C,C13*%
X175868500Y-129413000D03*
X174143500Y-129413000D03*
%TD*%
D23*
%TO.C,C7*%
X207671500Y-111887000D03*
X209396500Y-111887000D03*
%TD*%
%TO.C,C6*%
X188621500Y-111887000D03*
X190346500Y-111887000D03*
%TD*%
D24*
%TO.C,D3*%
X208280000Y-78360000D03*
X208280000Y-81660000D03*
%TD*%
D23*
%TO.C,C8*%
X226721500Y-111887000D03*
X228446500Y-111887000D03*
%TD*%
D25*
%TO.C,LED14*%
X160395000Y-129425000D03*
X160395000Y-130925000D03*
X165995000Y-130925000D03*
X165995000Y-129425000D03*
%TD*%
D26*
%TO.C,R1*%
X243332000Y-75692000D03*
X241507000Y-75692000D03*
%TD*%
D22*
%TO.C,C11*%
X213968500Y-129413000D03*
X212243500Y-129413000D03*
%TD*%
D25*
%TO.C,LED4*%
X160395000Y-91325000D03*
X160395000Y-92825000D03*
X165995000Y-92825000D03*
X165995000Y-91325000D03*
%TD*%
%TO.C,LED3*%
X179445000Y-91325000D03*
X179445000Y-92825000D03*
X185045000Y-92825000D03*
X185045000Y-91325000D03*
%TD*%
D23*
%TO.C,C9*%
X245771500Y-111887000D03*
X247496500Y-111887000D03*
%TD*%
D25*
%TO.C,LED5*%
X165995000Y-111875000D03*
X165995000Y-110375000D03*
X160395000Y-110375000D03*
X160395000Y-111875000D03*
%TD*%
D23*
%TO.C,C5*%
X169571500Y-111887000D03*
X171296500Y-111887000D03*
%TD*%
D24*
%TO.C,D10*%
X189230000Y-116460000D03*
X189230000Y-119760000D03*
%TD*%
D22*
%TO.C,C3*%
X175868500Y-91313000D03*
X174143500Y-91313000D03*
%TD*%
D24*
%TO.C,D15*%
X246380000Y-116460000D03*
X246380000Y-119760000D03*
%TD*%
D25*
%TO.C,LED8*%
X223145000Y-111875000D03*
X223145000Y-110375000D03*
X217545000Y-110375000D03*
X217545000Y-111875000D03*
%TD*%
D24*
%TO.C,D2*%
X189230000Y-78360000D03*
X189230000Y-81660000D03*
%TD*%
%TO.C,D9*%
X170180000Y-116460000D03*
X170180000Y-119760000D03*
%TD*%
D25*
%TO.C,LED1*%
X217545000Y-91325000D03*
X217545000Y-92825000D03*
X223145000Y-92825000D03*
X223145000Y-91325000D03*
%TD*%
%TO.C,LED2*%
X198495000Y-91325000D03*
X198495000Y-92825000D03*
X204095000Y-92825000D03*
X204095000Y-91325000D03*
%TD*%
D24*
%TO.C,D1*%
X170180000Y-78360000D03*
X170180000Y-81660000D03*
%TD*%
%TO.C,D12*%
X227330000Y-116460000D03*
X227330000Y-119760000D03*
%TD*%
D22*
%TO.C,C2*%
X194918500Y-91313000D03*
X193193500Y-91313000D03*
%TD*%
D24*
%TO.C,D11*%
X208280000Y-116460000D03*
X208280000Y-119760000D03*
%TD*%
D25*
%TO.C,LED9*%
X242195000Y-111875000D03*
X242195000Y-110375000D03*
X236595000Y-110375000D03*
X236595000Y-111875000D03*
%TD*%
D24*
%TO.C,D4*%
X227330000Y-78360000D03*
X227330000Y-81660000D03*
%TD*%
%TO.C,D13*%
X246380000Y-78360000D03*
X246380000Y-81660000D03*
%TD*%
D25*
%TO.C,LED0*%
X236595000Y-91325000D03*
X236595000Y-92825000D03*
X242195000Y-92825000D03*
X242195000Y-91325000D03*
%TD*%
D24*
%TO.C,D14*%
X246380000Y-97410000D03*
X246380000Y-100710000D03*
%TD*%
%TO.C,D8*%
X227330000Y-97410000D03*
X227330000Y-100710000D03*
%TD*%
%TO.C,D5*%
X170180000Y-97410000D03*
X170180000Y-100710000D03*
%TD*%
%TO.C,D6*%
X189230000Y-97410000D03*
X189230000Y-100710000D03*
%TD*%
D22*
%TO.C,C4*%
X156818500Y-91313000D03*
X155093500Y-91313000D03*
%TD*%
D24*
%TO.C,D7*%
X208280000Y-97410000D03*
X208280000Y-100710000D03*
%TD*%
D22*
%TO.C,C0*%
X233018500Y-91313000D03*
X231293500Y-91313000D03*
%TD*%
%TO.C,C12*%
X194918500Y-129413000D03*
X193193500Y-129413000D03*
%TD*%
D25*
%TO.C,LED11*%
X217545000Y-129425000D03*
X217545000Y-130925000D03*
X223145000Y-130925000D03*
X223145000Y-129425000D03*
%TD*%
D22*
%TO.C,C1*%
X213968500Y-91313000D03*
X212243500Y-91313000D03*
%TD*%
%TO.C,C10*%
X233018500Y-129413000D03*
X231293500Y-129413000D03*
%TD*%
D25*
%TO.C,LED10*%
X236595000Y-129425000D03*
X236595000Y-130925000D03*
X242195000Y-130925000D03*
X242195000Y-129425000D03*
%TD*%
%TO.C,LED13*%
X179445000Y-129425000D03*
X179445000Y-130925000D03*
X185045000Y-130925000D03*
X185045000Y-129425000D03*
%TD*%
%TO.C,LED7*%
X204095000Y-111875000D03*
X204095000Y-110375000D03*
X198495000Y-110375000D03*
X198495000Y-111875000D03*
%TD*%
%TO.C,LED6*%
X185045000Y-111875000D03*
X185045000Y-110375000D03*
X179445000Y-110375000D03*
X179445000Y-111875000D03*
%TD*%
D22*
%TO.C,C14*%
X156818500Y-129413000D03*
X155093500Y-129413000D03*
%TD*%
D25*
%TO.C,LED12*%
X198495000Y-129425000D03*
X198495000Y-130925000D03*
X204095000Y-130925000D03*
X204095000Y-129425000D03*
%TD*%
M02*
