%TF.GenerationSoftware,KiCad,Pcbnew,(6.0.10)*%
%TF.CreationDate,2023-02-05T13:23:05+01:00*%
%TF.ProjectId,FireKey,46697265-4b65-4792-9e6b-696361645f70,1.2.1*%
%TF.SameCoordinates,Original*%
%TF.FileFunction,Drillmap*%
%TF.FilePolarity,Positive*%
%FSLAX45Y45*%
G04 Gerber Fmt 4.5, Leading zero omitted, Abs format (unit mm)*
G04 Created by KiCad (PCBNEW (6.0.10)) date 2023-02-05 13:23:05*
%MOMM*%
%LPD*%
G01*
G04 APERTURE LIST*
%ADD10C,0.200000*%
%ADD11C,0.040000*%
%ADD12C,0.101600*%
%ADD13C,0.150000*%
G04 APERTURE END LIST*
D10*
X24955500Y-3810000D02*
X15494000Y-3810000D01*
X24955500Y-13716000D02*
X15494000Y-13716000D01*
X15240000Y-13462000D02*
G75*
G03*
X15494000Y-13716000I254000J0D01*
G01*
X24955500Y-13716000D02*
G75*
G03*
X25209500Y-13462000I0J254000D01*
G01*
X25209500Y-4064000D02*
G75*
G03*
X24955500Y-3810000I-254000J0D01*
G01*
X15494000Y-3810000D02*
G75*
G03*
X15240000Y-4064000I0J-254000D01*
G01*
X25209500Y-4064000D02*
X25209500Y-13462000D01*
X15240000Y-13462000D02*
X15240000Y-4064000D01*
D11*
X17188500Y-9111300D02*
X17228500Y-9151300D01*
X17228500Y-9111300D02*
X17188500Y-9151300D01*
X17188500Y-12921300D02*
X17228500Y-12961300D01*
X17228500Y-12921300D02*
X17188500Y-12961300D01*
X17315500Y-11168700D02*
X17355500Y-11208700D01*
X17355500Y-11168700D02*
X17315500Y-11208700D01*
X19093500Y-9111300D02*
X19133500Y-9151300D01*
X19133500Y-9111300D02*
X19093500Y-9151300D01*
X19093500Y-12921300D02*
X19133500Y-12961300D01*
X19133500Y-12921300D02*
X19093500Y-12961300D01*
X19220500Y-11168700D02*
X19260500Y-11208700D01*
X19260500Y-11168700D02*
X19220500Y-11208700D01*
X20884200Y-4602800D02*
X20924200Y-4642800D01*
X20924200Y-4602800D02*
X20884200Y-4642800D01*
X20998500Y-9111300D02*
X21038500Y-9151300D01*
X21038500Y-9111300D02*
X20998500Y-9151300D01*
X20998500Y-12921300D02*
X21038500Y-12961300D01*
X21038500Y-12921300D02*
X20998500Y-12961300D01*
X21125500Y-11168700D02*
X21165500Y-11208700D01*
X21165500Y-11168700D02*
X21125500Y-11208700D01*
X22890800Y-12921300D02*
X22930800Y-12961300D01*
X22930800Y-12921300D02*
X22890800Y-12961300D01*
X22903500Y-9111300D02*
X22943500Y-9151300D01*
X22943500Y-9111300D02*
X22903500Y-9151300D01*
X23030500Y-11168700D02*
X23070500Y-11208700D01*
X23070500Y-11168700D02*
X23030500Y-11208700D01*
X24465600Y-7549200D02*
X24505600Y-7589200D01*
X24505600Y-7549200D02*
X24465600Y-7589200D01*
X24605300Y-11016300D02*
X24645300Y-11056300D01*
X24645300Y-11016300D02*
X24605300Y-11056300D01*
X24605300Y-12921300D02*
X24645300Y-12961300D01*
X24645300Y-12921300D02*
X24605300Y-12961300D01*
X24618000Y-9111300D02*
X24658000Y-9151300D01*
X24658000Y-9111300D02*
X24618000Y-9151300D01*
X24808500Y-8920800D02*
X24848500Y-8960800D01*
X24848500Y-8920800D02*
X24808500Y-8960800D01*
X24808500Y-11384600D02*
X24848500Y-11424600D01*
X24848500Y-11384600D02*
X24808500Y-11424600D01*
X24808500Y-12730800D02*
X24848500Y-12770800D01*
X24848500Y-12730800D02*
X24808500Y-12770800D01*
D12*
X16767300Y-4087500D02*
G75*
G03*
X16767300Y-4087500I-50800J0D01*
G01*
X17021300Y-4087500D02*
G75*
G03*
X17021300Y-4087500I-50800J0D01*
G01*
X17275300Y-4087500D02*
G75*
G03*
X17275300Y-4087500I-50800J0D01*
G01*
X17529300Y-4087500D02*
G75*
G03*
X17529300Y-4087500I-50800J0D01*
G01*
X20450300Y-4087500D02*
G75*
G03*
X20450300Y-4087500I-50800J0D01*
G01*
X20704300Y-4087500D02*
G75*
G03*
X20704300Y-4087500I-50800J0D01*
G01*
X20958300Y-4087500D02*
G75*
G03*
X20958300Y-4087500I-50800J0D01*
G01*
X21212300Y-4087500D02*
G75*
G03*
X21212300Y-4087500I-50800J0D01*
G01*
X22847300Y-4343400D02*
G75*
G03*
X22847300Y-4343400I-50800J0D01*
G01*
X22847300Y-4597400D02*
G75*
G03*
X22847300Y-4597400I-50800J0D01*
G01*
X22847300Y-4851400D02*
G75*
G03*
X22847300Y-4851400I-50800J0D01*
G01*
X22847300Y-5105400D02*
G75*
G03*
X22847300Y-5105400I-50800J0D01*
G01*
X22847300Y-5359400D02*
G75*
G03*
X22847300Y-5359400I-50800J0D01*
G01*
X22847300Y-5613400D02*
G75*
G03*
X22847300Y-5613400I-50800J0D01*
G01*
X22847300Y-5867400D02*
G75*
G03*
X22847300Y-5867400I-50800J0D01*
G01*
X22847300Y-6121400D02*
G75*
G03*
X22847300Y-6121400I-50800J0D01*
G01*
X22847300Y-6375400D02*
G75*
G03*
X22847300Y-6375400I-50800J0D01*
G01*
X22847300Y-6629400D02*
G75*
G03*
X22847300Y-6629400I-50800J0D01*
G01*
X22847300Y-6883400D02*
G75*
G03*
X22847300Y-6883400I-50800J0D01*
G01*
X22847300Y-7137400D02*
G75*
G03*
X22847300Y-7137400I-50800J0D01*
G01*
X24371300Y-4343400D02*
G75*
G03*
X24371300Y-4343400I-50800J0D01*
G01*
X24371300Y-4597400D02*
G75*
G03*
X24371300Y-4597400I-50800J0D01*
G01*
X24371300Y-4851400D02*
G75*
G03*
X24371300Y-4851400I-50800J0D01*
G01*
X24371300Y-5105400D02*
G75*
G03*
X24371300Y-5105400I-50800J0D01*
G01*
X24371300Y-5359400D02*
G75*
G03*
X24371300Y-5359400I-50800J0D01*
G01*
X24371300Y-5613400D02*
G75*
G03*
X24371300Y-5613400I-50800J0D01*
G01*
X24371300Y-5867400D02*
G75*
G03*
X24371300Y-5867400I-50800J0D01*
G01*
X24371300Y-6121400D02*
G75*
G03*
X24371300Y-6121400I-50800J0D01*
G01*
X24371300Y-6375400D02*
G75*
G03*
X24371300Y-6375400I-50800J0D01*
G01*
X24371300Y-6629400D02*
G75*
G03*
X24371300Y-6629400I-50800J0D01*
G01*
X24371300Y-6883400D02*
G75*
G03*
X24371300Y-6883400I-50800J0D01*
G01*
X24371300Y-7137400D02*
G75*
G03*
X24371300Y-7137400I-50800J0D01*
G01*
D13*
X15938500Y-8307000D02*
X15938500Y-8457000D01*
X15863500Y-8382000D02*
X16013500Y-8382000D01*
X15938500Y-10212000D02*
X15938500Y-10362000D01*
X15863500Y-10287000D02*
X16013500Y-10287000D01*
X15938500Y-12117000D02*
X15938500Y-12267000D01*
X15863500Y-12192000D02*
X16013500Y-12192000D01*
X16573500Y-8053000D02*
X16573500Y-8203000D01*
X16498500Y-8128000D02*
X16648500Y-8128000D01*
X16573500Y-9958000D02*
X16573500Y-10108000D01*
X16498500Y-10033000D02*
X16648500Y-10033000D01*
X16573500Y-11863000D02*
X16573500Y-12013000D01*
X16498500Y-11938000D02*
X16648500Y-11938000D01*
X17843500Y-8307000D02*
X17843500Y-8457000D01*
X17768500Y-8382000D02*
X17918500Y-8382000D01*
X17843500Y-10212000D02*
X17843500Y-10362000D01*
X17768500Y-10287000D02*
X17918500Y-10287000D01*
X17843500Y-12117000D02*
X17843500Y-12267000D01*
X17768500Y-12192000D02*
X17918500Y-12192000D01*
X18478500Y-8053000D02*
X18478500Y-8203000D01*
X18403500Y-8128000D02*
X18553500Y-8128000D01*
X18478500Y-9958000D02*
X18478500Y-10108000D01*
X18403500Y-10033000D02*
X18553500Y-10033000D01*
X18478500Y-11863000D02*
X18478500Y-12013000D01*
X18403500Y-11938000D02*
X18553500Y-11938000D01*
X19748500Y-8307000D02*
X19748500Y-8457000D01*
X19673500Y-8382000D02*
X19823500Y-8382000D01*
X19748500Y-10212000D02*
X19748500Y-10362000D01*
X19673500Y-10287000D02*
X19823500Y-10287000D01*
X19748500Y-12117000D02*
X19748500Y-12267000D01*
X19673500Y-12192000D02*
X19823500Y-12192000D01*
X20383500Y-8053000D02*
X20383500Y-8203000D01*
X20308500Y-8128000D02*
X20458500Y-8128000D01*
X20383500Y-9958000D02*
X20383500Y-10108000D01*
X20308500Y-10033000D02*
X20458500Y-10033000D01*
X20383500Y-11863000D02*
X20383500Y-12013000D01*
X20308500Y-11938000D02*
X20458500Y-11938000D01*
X21653500Y-8307000D02*
X21653500Y-8457000D01*
X21578500Y-8382000D02*
X21728500Y-8382000D01*
X21653500Y-10212000D02*
X21653500Y-10362000D01*
X21578500Y-10287000D02*
X21728500Y-10287000D01*
X21653500Y-12117000D02*
X21653500Y-12267000D01*
X21578500Y-12192000D02*
X21728500Y-12192000D01*
X22288500Y-8053000D02*
X22288500Y-8203000D01*
X22213500Y-8128000D02*
X22363500Y-8128000D01*
X22288500Y-9958000D02*
X22288500Y-10108000D01*
X22213500Y-10033000D02*
X22363500Y-10033000D01*
X22288500Y-11863000D02*
X22288500Y-12013000D01*
X22213500Y-11938000D02*
X22363500Y-11938000D01*
X23558500Y-8307000D02*
X23558500Y-8457000D01*
X23483500Y-8382000D02*
X23633500Y-8382000D01*
X23558500Y-10212000D02*
X23558500Y-10362000D01*
X23483500Y-10287000D02*
X23633500Y-10287000D01*
X23558500Y-12117000D02*
X23558500Y-12267000D01*
X23483500Y-12192000D02*
X23633500Y-12192000D01*
X24193500Y-8053000D02*
X24193500Y-8203000D01*
X24118500Y-8128000D02*
X24268500Y-8128000D01*
X24193500Y-9958000D02*
X24193500Y-10108000D01*
X24118500Y-10033000D02*
X24268500Y-10033000D01*
X24193500Y-11863000D02*
X24193500Y-12013000D01*
X24118500Y-11938000D02*
X24268500Y-11938000D01*
D10*
X15487619Y-14036476D02*
X15487619Y-13836476D01*
X15535238Y-13836476D01*
X15563809Y-13846000D01*
X15582857Y-13865048D01*
X15592381Y-13884095D01*
X15601905Y-13922190D01*
X15601905Y-13950762D01*
X15592381Y-13988857D01*
X15582857Y-14007905D01*
X15563809Y-14026952D01*
X15535238Y-14036476D01*
X15487619Y-14036476D01*
X15687619Y-14036476D02*
X15687619Y-13903143D01*
X15687619Y-13941238D02*
X15697143Y-13922190D01*
X15706667Y-13912667D01*
X15725714Y-13903143D01*
X15744762Y-13903143D01*
X15811428Y-14036476D02*
X15811428Y-13903143D01*
X15811428Y-13836476D02*
X15801905Y-13846000D01*
X15811428Y-13855524D01*
X15820952Y-13846000D01*
X15811428Y-13836476D01*
X15811428Y-13855524D01*
X15935238Y-14036476D02*
X15916190Y-14026952D01*
X15906667Y-14007905D01*
X15906667Y-13836476D01*
X16040000Y-14036476D02*
X16020952Y-14026952D01*
X16011428Y-14007905D01*
X16011428Y-13836476D01*
X16268571Y-14036476D02*
X16268571Y-13836476D01*
X16335238Y-13979333D01*
X16401905Y-13836476D01*
X16401905Y-14036476D01*
X16582857Y-14036476D02*
X16582857Y-13931714D01*
X16573333Y-13912667D01*
X16554286Y-13903143D01*
X16516190Y-13903143D01*
X16497143Y-13912667D01*
X16582857Y-14026952D02*
X16563809Y-14036476D01*
X16516190Y-14036476D01*
X16497143Y-14026952D01*
X16487619Y-14007905D01*
X16487619Y-13988857D01*
X16497143Y-13969809D01*
X16516190Y-13960286D01*
X16563809Y-13960286D01*
X16582857Y-13950762D01*
X16678095Y-13903143D02*
X16678095Y-14103143D01*
X16678095Y-13912667D02*
X16697143Y-13903143D01*
X16735238Y-13903143D01*
X16754286Y-13912667D01*
X16763809Y-13922190D01*
X16773333Y-13941238D01*
X16773333Y-13998381D01*
X16763809Y-14017428D01*
X16754286Y-14026952D01*
X16735238Y-14036476D01*
X16697143Y-14036476D01*
X16678095Y-14026952D01*
X16859048Y-14017428D02*
X16868571Y-14026952D01*
X16859048Y-14036476D01*
X16849524Y-14026952D01*
X16859048Y-14017428D01*
X16859048Y-14036476D01*
X16859048Y-13912667D02*
X16868571Y-13922190D01*
X16859048Y-13931714D01*
X16849524Y-13922190D01*
X16859048Y-13912667D01*
X16859048Y-13931714D01*
D11*
X15190000Y-14346000D02*
X15230000Y-14386000D01*
X15230000Y-14346000D02*
X15190000Y-14386000D01*
D10*
X15525714Y-14256476D02*
X15544762Y-14256476D01*
X15563809Y-14266000D01*
X15573333Y-14275524D01*
X15582857Y-14294571D01*
X15592381Y-14332667D01*
X15592381Y-14380286D01*
X15582857Y-14418381D01*
X15573333Y-14437428D01*
X15563809Y-14446952D01*
X15544762Y-14456476D01*
X15525714Y-14456476D01*
X15506667Y-14446952D01*
X15497143Y-14437428D01*
X15487619Y-14418381D01*
X15478095Y-14380286D01*
X15478095Y-14332667D01*
X15487619Y-14294571D01*
X15497143Y-14275524D01*
X15506667Y-14266000D01*
X15525714Y-14256476D01*
X15678095Y-14437428D02*
X15687619Y-14446952D01*
X15678095Y-14456476D01*
X15668571Y-14446952D01*
X15678095Y-14437428D01*
X15678095Y-14456476D01*
X15859048Y-14323143D02*
X15859048Y-14456476D01*
X15811428Y-14246952D02*
X15763809Y-14389809D01*
X15887619Y-14389809D01*
X16001905Y-14256476D02*
X16020952Y-14256476D01*
X16040000Y-14266000D01*
X16049524Y-14275524D01*
X16059048Y-14294571D01*
X16068571Y-14332667D01*
X16068571Y-14380286D01*
X16059048Y-14418381D01*
X16049524Y-14437428D01*
X16040000Y-14446952D01*
X16020952Y-14456476D01*
X16001905Y-14456476D01*
X15982857Y-14446952D01*
X15973333Y-14437428D01*
X15963809Y-14418381D01*
X15954286Y-14380286D01*
X15954286Y-14332667D01*
X15963809Y-14294571D01*
X15973333Y-14275524D01*
X15982857Y-14266000D01*
X16001905Y-14256476D01*
X16192381Y-14256476D02*
X16211428Y-14256476D01*
X16230476Y-14266000D01*
X16240000Y-14275524D01*
X16249524Y-14294571D01*
X16259048Y-14332667D01*
X16259048Y-14380286D01*
X16249524Y-14418381D01*
X16240000Y-14437428D01*
X16230476Y-14446952D01*
X16211428Y-14456476D01*
X16192381Y-14456476D01*
X16173333Y-14446952D01*
X16163809Y-14437428D01*
X16154286Y-14418381D01*
X16144762Y-14380286D01*
X16144762Y-14332667D01*
X16154286Y-14294571D01*
X16163809Y-14275524D01*
X16173333Y-14266000D01*
X16192381Y-14256476D01*
X16344762Y-14456476D02*
X16344762Y-14323143D01*
X16344762Y-14342190D02*
X16354286Y-14332667D01*
X16373333Y-14323143D01*
X16401905Y-14323143D01*
X16420952Y-14332667D01*
X16430476Y-14351714D01*
X16430476Y-14456476D01*
X16430476Y-14351714D02*
X16440000Y-14332667D01*
X16459048Y-14323143D01*
X16487619Y-14323143D01*
X16506667Y-14332667D01*
X16516190Y-14351714D01*
X16516190Y-14456476D01*
X16611428Y-14456476D02*
X16611428Y-14323143D01*
X16611428Y-14342190D02*
X16620952Y-14332667D01*
X16640000Y-14323143D01*
X16668571Y-14323143D01*
X16687619Y-14332667D01*
X16697143Y-14351714D01*
X16697143Y-14456476D01*
X16697143Y-14351714D02*
X16706667Y-14332667D01*
X16725714Y-14323143D01*
X16754286Y-14323143D01*
X16773333Y-14332667D01*
X16782857Y-14351714D01*
X16782857Y-14456476D01*
X17173333Y-14246952D02*
X17001905Y-14504095D01*
X17430476Y-14256476D02*
X17449524Y-14256476D01*
X17468571Y-14266000D01*
X17478095Y-14275524D01*
X17487619Y-14294571D01*
X17497143Y-14332667D01*
X17497143Y-14380286D01*
X17487619Y-14418381D01*
X17478095Y-14437428D01*
X17468571Y-14446952D01*
X17449524Y-14456476D01*
X17430476Y-14456476D01*
X17411429Y-14446952D01*
X17401905Y-14437428D01*
X17392381Y-14418381D01*
X17382857Y-14380286D01*
X17382857Y-14332667D01*
X17392381Y-14294571D01*
X17401905Y-14275524D01*
X17411429Y-14266000D01*
X17430476Y-14256476D01*
X17582857Y-14437428D02*
X17592381Y-14446952D01*
X17582857Y-14456476D01*
X17573333Y-14446952D01*
X17582857Y-14437428D01*
X17582857Y-14456476D01*
X17716190Y-14256476D02*
X17735238Y-14256476D01*
X17754286Y-14266000D01*
X17763810Y-14275524D01*
X17773333Y-14294571D01*
X17782857Y-14332667D01*
X17782857Y-14380286D01*
X17773333Y-14418381D01*
X17763810Y-14437428D01*
X17754286Y-14446952D01*
X17735238Y-14456476D01*
X17716190Y-14456476D01*
X17697143Y-14446952D01*
X17687619Y-14437428D01*
X17678095Y-14418381D01*
X17668571Y-14380286D01*
X17668571Y-14332667D01*
X17678095Y-14294571D01*
X17687619Y-14275524D01*
X17697143Y-14266000D01*
X17716190Y-14256476D01*
X17973333Y-14456476D02*
X17859048Y-14456476D01*
X17916190Y-14456476D02*
X17916190Y-14256476D01*
X17897143Y-14285048D01*
X17878095Y-14304095D01*
X17859048Y-14313619D01*
X18154286Y-14256476D02*
X18059048Y-14256476D01*
X18049524Y-14351714D01*
X18059048Y-14342190D01*
X18078095Y-14332667D01*
X18125714Y-14332667D01*
X18144762Y-14342190D01*
X18154286Y-14351714D01*
X18163810Y-14370762D01*
X18163810Y-14418381D01*
X18154286Y-14437428D01*
X18144762Y-14446952D01*
X18125714Y-14456476D01*
X18078095Y-14456476D01*
X18059048Y-14446952D01*
X18049524Y-14437428D01*
X18230476Y-14256476D02*
X18363810Y-14256476D01*
X18278095Y-14456476D01*
X18430476Y-14256476D02*
X18430476Y-14294571D01*
X18506667Y-14256476D02*
X18506667Y-14294571D01*
X18801905Y-14532667D02*
X18792381Y-14523143D01*
X18773333Y-14494571D01*
X18763810Y-14475524D01*
X18754286Y-14446952D01*
X18744762Y-14399333D01*
X18744762Y-14361238D01*
X18754286Y-14313619D01*
X18763810Y-14285048D01*
X18773333Y-14266000D01*
X18792381Y-14237428D01*
X18801905Y-14227905D01*
X18868571Y-14275524D02*
X18878095Y-14266000D01*
X18897143Y-14256476D01*
X18944762Y-14256476D01*
X18963810Y-14266000D01*
X18973333Y-14275524D01*
X18982857Y-14294571D01*
X18982857Y-14313619D01*
X18973333Y-14342190D01*
X18859048Y-14456476D01*
X18982857Y-14456476D01*
X19106667Y-14256476D02*
X19125714Y-14256476D01*
X19144762Y-14266000D01*
X19154286Y-14275524D01*
X19163810Y-14294571D01*
X19173333Y-14332667D01*
X19173333Y-14380286D01*
X19163810Y-14418381D01*
X19154286Y-14437428D01*
X19144762Y-14446952D01*
X19125714Y-14456476D01*
X19106667Y-14456476D01*
X19087619Y-14446952D01*
X19078095Y-14437428D01*
X19068571Y-14418381D01*
X19059048Y-14380286D01*
X19059048Y-14332667D01*
X19068571Y-14294571D01*
X19078095Y-14275524D01*
X19087619Y-14266000D01*
X19106667Y-14256476D01*
X19411429Y-14456476D02*
X19411429Y-14256476D01*
X19497143Y-14456476D02*
X19497143Y-14351714D01*
X19487619Y-14332667D01*
X19468571Y-14323143D01*
X19440000Y-14323143D01*
X19420952Y-14332667D01*
X19411429Y-14342190D01*
X19620952Y-14456476D02*
X19601905Y-14446952D01*
X19592381Y-14437428D01*
X19582857Y-14418381D01*
X19582857Y-14361238D01*
X19592381Y-14342190D01*
X19601905Y-14332667D01*
X19620952Y-14323143D01*
X19649524Y-14323143D01*
X19668571Y-14332667D01*
X19678095Y-14342190D01*
X19687619Y-14361238D01*
X19687619Y-14418381D01*
X19678095Y-14437428D01*
X19668571Y-14446952D01*
X19649524Y-14456476D01*
X19620952Y-14456476D01*
X19801905Y-14456476D02*
X19782857Y-14446952D01*
X19773333Y-14427905D01*
X19773333Y-14256476D01*
X19954286Y-14446952D02*
X19935238Y-14456476D01*
X19897143Y-14456476D01*
X19878095Y-14446952D01*
X19868571Y-14427905D01*
X19868571Y-14351714D01*
X19878095Y-14332667D01*
X19897143Y-14323143D01*
X19935238Y-14323143D01*
X19954286Y-14332667D01*
X19963810Y-14351714D01*
X19963810Y-14370762D01*
X19868571Y-14389809D01*
X20040000Y-14446952D02*
X20059048Y-14456476D01*
X20097143Y-14456476D01*
X20116190Y-14446952D01*
X20125714Y-14427905D01*
X20125714Y-14418381D01*
X20116190Y-14399333D01*
X20097143Y-14389809D01*
X20068571Y-14389809D01*
X20049524Y-14380286D01*
X20040000Y-14361238D01*
X20040000Y-14351714D01*
X20049524Y-14332667D01*
X20068571Y-14323143D01*
X20097143Y-14323143D01*
X20116190Y-14332667D01*
X20192381Y-14532667D02*
X20201905Y-14523143D01*
X20220952Y-14494571D01*
X20230476Y-14475524D01*
X20240000Y-14446952D01*
X20249524Y-14399333D01*
X20249524Y-14361238D01*
X20240000Y-14313619D01*
X20230476Y-14285048D01*
X20220952Y-14266000D01*
X20201905Y-14237428D01*
X20192381Y-14227905D01*
D12*
X15230000Y-14630000D02*
G75*
G03*
X15230000Y-14630000I-50800J0D01*
G01*
D10*
X15592381Y-14720476D02*
X15478095Y-14720476D01*
X15535238Y-14720476D02*
X15535238Y-14520476D01*
X15516190Y-14549048D01*
X15497143Y-14568095D01*
X15478095Y-14577619D01*
X15678095Y-14701428D02*
X15687619Y-14710952D01*
X15678095Y-14720476D01*
X15668571Y-14710952D01*
X15678095Y-14701428D01*
X15678095Y-14720476D01*
X15811428Y-14520476D02*
X15830476Y-14520476D01*
X15849524Y-14530000D01*
X15859048Y-14539524D01*
X15868571Y-14558571D01*
X15878095Y-14596667D01*
X15878095Y-14644286D01*
X15868571Y-14682381D01*
X15859048Y-14701428D01*
X15849524Y-14710952D01*
X15830476Y-14720476D01*
X15811428Y-14720476D01*
X15792381Y-14710952D01*
X15782857Y-14701428D01*
X15773333Y-14682381D01*
X15763809Y-14644286D01*
X15763809Y-14596667D01*
X15773333Y-14558571D01*
X15782857Y-14539524D01*
X15792381Y-14530000D01*
X15811428Y-14520476D01*
X16068571Y-14720476D02*
X15954286Y-14720476D01*
X16011428Y-14720476D02*
X16011428Y-14520476D01*
X15992381Y-14549048D01*
X15973333Y-14568095D01*
X15954286Y-14577619D01*
X16240000Y-14520476D02*
X16201905Y-14520476D01*
X16182857Y-14530000D01*
X16173333Y-14539524D01*
X16154286Y-14568095D01*
X16144762Y-14606190D01*
X16144762Y-14682381D01*
X16154286Y-14701428D01*
X16163809Y-14710952D01*
X16182857Y-14720476D01*
X16220952Y-14720476D01*
X16240000Y-14710952D01*
X16249524Y-14701428D01*
X16259048Y-14682381D01*
X16259048Y-14634762D01*
X16249524Y-14615714D01*
X16240000Y-14606190D01*
X16220952Y-14596667D01*
X16182857Y-14596667D01*
X16163809Y-14606190D01*
X16154286Y-14615714D01*
X16144762Y-14634762D01*
X16344762Y-14720476D02*
X16344762Y-14587143D01*
X16344762Y-14606190D02*
X16354286Y-14596667D01*
X16373333Y-14587143D01*
X16401905Y-14587143D01*
X16420952Y-14596667D01*
X16430476Y-14615714D01*
X16430476Y-14720476D01*
X16430476Y-14615714D02*
X16440000Y-14596667D01*
X16459048Y-14587143D01*
X16487619Y-14587143D01*
X16506667Y-14596667D01*
X16516190Y-14615714D01*
X16516190Y-14720476D01*
X16611428Y-14720476D02*
X16611428Y-14587143D01*
X16611428Y-14606190D02*
X16620952Y-14596667D01*
X16640000Y-14587143D01*
X16668571Y-14587143D01*
X16687619Y-14596667D01*
X16697143Y-14615714D01*
X16697143Y-14720476D01*
X16697143Y-14615714D02*
X16706667Y-14596667D01*
X16725714Y-14587143D01*
X16754286Y-14587143D01*
X16773333Y-14596667D01*
X16782857Y-14615714D01*
X16782857Y-14720476D01*
X17173333Y-14510952D02*
X17001905Y-14768095D01*
X17430476Y-14520476D02*
X17449524Y-14520476D01*
X17468571Y-14530000D01*
X17478095Y-14539524D01*
X17487619Y-14558571D01*
X17497143Y-14596667D01*
X17497143Y-14644286D01*
X17487619Y-14682381D01*
X17478095Y-14701428D01*
X17468571Y-14710952D01*
X17449524Y-14720476D01*
X17430476Y-14720476D01*
X17411429Y-14710952D01*
X17401905Y-14701428D01*
X17392381Y-14682381D01*
X17382857Y-14644286D01*
X17382857Y-14596667D01*
X17392381Y-14558571D01*
X17401905Y-14539524D01*
X17411429Y-14530000D01*
X17430476Y-14520476D01*
X17582857Y-14701428D02*
X17592381Y-14710952D01*
X17582857Y-14720476D01*
X17573333Y-14710952D01*
X17582857Y-14701428D01*
X17582857Y-14720476D01*
X17716190Y-14520476D02*
X17735238Y-14520476D01*
X17754286Y-14530000D01*
X17763810Y-14539524D01*
X17773333Y-14558571D01*
X17782857Y-14596667D01*
X17782857Y-14644286D01*
X17773333Y-14682381D01*
X17763810Y-14701428D01*
X17754286Y-14710952D01*
X17735238Y-14720476D01*
X17716190Y-14720476D01*
X17697143Y-14710952D01*
X17687619Y-14701428D01*
X17678095Y-14682381D01*
X17668571Y-14644286D01*
X17668571Y-14596667D01*
X17678095Y-14558571D01*
X17687619Y-14539524D01*
X17697143Y-14530000D01*
X17716190Y-14520476D01*
X17954286Y-14587143D02*
X17954286Y-14720476D01*
X17906667Y-14510952D02*
X17859048Y-14653809D01*
X17982857Y-14653809D01*
X18097143Y-14520476D02*
X18116190Y-14520476D01*
X18135238Y-14530000D01*
X18144762Y-14539524D01*
X18154286Y-14558571D01*
X18163810Y-14596667D01*
X18163810Y-14644286D01*
X18154286Y-14682381D01*
X18144762Y-14701428D01*
X18135238Y-14710952D01*
X18116190Y-14720476D01*
X18097143Y-14720476D01*
X18078095Y-14710952D01*
X18068571Y-14701428D01*
X18059048Y-14682381D01*
X18049524Y-14644286D01*
X18049524Y-14596667D01*
X18059048Y-14558571D01*
X18068571Y-14539524D01*
X18078095Y-14530000D01*
X18097143Y-14520476D01*
X18287619Y-14520476D02*
X18306667Y-14520476D01*
X18325714Y-14530000D01*
X18335238Y-14539524D01*
X18344762Y-14558571D01*
X18354286Y-14596667D01*
X18354286Y-14644286D01*
X18344762Y-14682381D01*
X18335238Y-14701428D01*
X18325714Y-14710952D01*
X18306667Y-14720476D01*
X18287619Y-14720476D01*
X18268571Y-14710952D01*
X18259048Y-14701428D01*
X18249524Y-14682381D01*
X18240000Y-14644286D01*
X18240000Y-14596667D01*
X18249524Y-14558571D01*
X18259048Y-14539524D01*
X18268571Y-14530000D01*
X18287619Y-14520476D01*
X18430476Y-14520476D02*
X18430476Y-14558571D01*
X18506667Y-14520476D02*
X18506667Y-14558571D01*
X18801905Y-14796667D02*
X18792381Y-14787143D01*
X18773333Y-14758571D01*
X18763810Y-14739524D01*
X18754286Y-14710952D01*
X18744762Y-14663333D01*
X18744762Y-14625238D01*
X18754286Y-14577619D01*
X18763810Y-14549048D01*
X18773333Y-14530000D01*
X18792381Y-14501428D01*
X18801905Y-14491905D01*
X18859048Y-14520476D02*
X18982857Y-14520476D01*
X18916190Y-14596667D01*
X18944762Y-14596667D01*
X18963810Y-14606190D01*
X18973333Y-14615714D01*
X18982857Y-14634762D01*
X18982857Y-14682381D01*
X18973333Y-14701428D01*
X18963810Y-14710952D01*
X18944762Y-14720476D01*
X18887619Y-14720476D01*
X18868571Y-14710952D01*
X18859048Y-14701428D01*
X19059048Y-14539524D02*
X19068571Y-14530000D01*
X19087619Y-14520476D01*
X19135238Y-14520476D01*
X19154286Y-14530000D01*
X19163810Y-14539524D01*
X19173333Y-14558571D01*
X19173333Y-14577619D01*
X19163810Y-14606190D01*
X19049524Y-14720476D01*
X19173333Y-14720476D01*
X19411429Y-14720476D02*
X19411429Y-14520476D01*
X19497143Y-14720476D02*
X19497143Y-14615714D01*
X19487619Y-14596667D01*
X19468571Y-14587143D01*
X19440000Y-14587143D01*
X19420952Y-14596667D01*
X19411429Y-14606190D01*
X19620952Y-14720476D02*
X19601905Y-14710952D01*
X19592381Y-14701428D01*
X19582857Y-14682381D01*
X19582857Y-14625238D01*
X19592381Y-14606190D01*
X19601905Y-14596667D01*
X19620952Y-14587143D01*
X19649524Y-14587143D01*
X19668571Y-14596667D01*
X19678095Y-14606190D01*
X19687619Y-14625238D01*
X19687619Y-14682381D01*
X19678095Y-14701428D01*
X19668571Y-14710952D01*
X19649524Y-14720476D01*
X19620952Y-14720476D01*
X19801905Y-14720476D02*
X19782857Y-14710952D01*
X19773333Y-14691905D01*
X19773333Y-14520476D01*
X19954286Y-14710952D02*
X19935238Y-14720476D01*
X19897143Y-14720476D01*
X19878095Y-14710952D01*
X19868571Y-14691905D01*
X19868571Y-14615714D01*
X19878095Y-14596667D01*
X19897143Y-14587143D01*
X19935238Y-14587143D01*
X19954286Y-14596667D01*
X19963810Y-14615714D01*
X19963810Y-14634762D01*
X19868571Y-14653809D01*
X20040000Y-14710952D02*
X20059048Y-14720476D01*
X20097143Y-14720476D01*
X20116190Y-14710952D01*
X20125714Y-14691905D01*
X20125714Y-14682381D01*
X20116190Y-14663333D01*
X20097143Y-14653809D01*
X20068571Y-14653809D01*
X20049524Y-14644286D01*
X20040000Y-14625238D01*
X20040000Y-14615714D01*
X20049524Y-14596667D01*
X20068571Y-14587143D01*
X20097143Y-14587143D01*
X20116190Y-14596667D01*
X20192381Y-14796667D02*
X20201905Y-14787143D01*
X20220952Y-14758571D01*
X20230476Y-14739524D01*
X20240000Y-14710952D01*
X20249524Y-14663333D01*
X20249524Y-14625238D01*
X20240000Y-14577619D01*
X20230476Y-14549048D01*
X20220952Y-14530000D01*
X20201905Y-14501428D01*
X20192381Y-14491905D01*
D13*
X15155000Y-14819000D02*
X15155000Y-14969000D01*
X15080000Y-14894000D02*
X15230000Y-14894000D01*
D10*
X15592381Y-14984476D02*
X15478095Y-14984476D01*
X15535238Y-14984476D02*
X15535238Y-14784476D01*
X15516190Y-14813048D01*
X15497143Y-14832095D01*
X15478095Y-14841619D01*
X15678095Y-14965428D02*
X15687619Y-14974952D01*
X15678095Y-14984476D01*
X15668571Y-14974952D01*
X15678095Y-14965428D01*
X15678095Y-14984476D01*
X15868571Y-14784476D02*
X15773333Y-14784476D01*
X15763809Y-14879714D01*
X15773333Y-14870190D01*
X15792381Y-14860667D01*
X15840000Y-14860667D01*
X15859048Y-14870190D01*
X15868571Y-14879714D01*
X15878095Y-14898762D01*
X15878095Y-14946381D01*
X15868571Y-14965428D01*
X15859048Y-14974952D01*
X15840000Y-14984476D01*
X15792381Y-14984476D01*
X15773333Y-14974952D01*
X15763809Y-14965428D01*
X16001905Y-14784476D02*
X16020952Y-14784476D01*
X16040000Y-14794000D01*
X16049524Y-14803524D01*
X16059048Y-14822571D01*
X16068571Y-14860667D01*
X16068571Y-14908286D01*
X16059048Y-14946381D01*
X16049524Y-14965428D01*
X16040000Y-14974952D01*
X16020952Y-14984476D01*
X16001905Y-14984476D01*
X15982857Y-14974952D01*
X15973333Y-14965428D01*
X15963809Y-14946381D01*
X15954286Y-14908286D01*
X15954286Y-14860667D01*
X15963809Y-14822571D01*
X15973333Y-14803524D01*
X15982857Y-14794000D01*
X16001905Y-14784476D01*
X16192381Y-14784476D02*
X16211428Y-14784476D01*
X16230476Y-14794000D01*
X16240000Y-14803524D01*
X16249524Y-14822571D01*
X16259048Y-14860667D01*
X16259048Y-14908286D01*
X16249524Y-14946381D01*
X16240000Y-14965428D01*
X16230476Y-14974952D01*
X16211428Y-14984476D01*
X16192381Y-14984476D01*
X16173333Y-14974952D01*
X16163809Y-14965428D01*
X16154286Y-14946381D01*
X16144762Y-14908286D01*
X16144762Y-14860667D01*
X16154286Y-14822571D01*
X16163809Y-14803524D01*
X16173333Y-14794000D01*
X16192381Y-14784476D01*
X16344762Y-14984476D02*
X16344762Y-14851143D01*
X16344762Y-14870190D02*
X16354286Y-14860667D01*
X16373333Y-14851143D01*
X16401905Y-14851143D01*
X16420952Y-14860667D01*
X16430476Y-14879714D01*
X16430476Y-14984476D01*
X16430476Y-14879714D02*
X16440000Y-14860667D01*
X16459048Y-14851143D01*
X16487619Y-14851143D01*
X16506667Y-14860667D01*
X16516190Y-14879714D01*
X16516190Y-14984476D01*
X16611428Y-14984476D02*
X16611428Y-14851143D01*
X16611428Y-14870190D02*
X16620952Y-14860667D01*
X16640000Y-14851143D01*
X16668571Y-14851143D01*
X16687619Y-14860667D01*
X16697143Y-14879714D01*
X16697143Y-14984476D01*
X16697143Y-14879714D02*
X16706667Y-14860667D01*
X16725714Y-14851143D01*
X16754286Y-14851143D01*
X16773333Y-14860667D01*
X16782857Y-14879714D01*
X16782857Y-14984476D01*
X17173333Y-14774952D02*
X17001905Y-15032095D01*
X17430476Y-14784476D02*
X17449524Y-14784476D01*
X17468571Y-14794000D01*
X17478095Y-14803524D01*
X17487619Y-14822571D01*
X17497143Y-14860667D01*
X17497143Y-14908286D01*
X17487619Y-14946381D01*
X17478095Y-14965428D01*
X17468571Y-14974952D01*
X17449524Y-14984476D01*
X17430476Y-14984476D01*
X17411429Y-14974952D01*
X17401905Y-14965428D01*
X17392381Y-14946381D01*
X17382857Y-14908286D01*
X17382857Y-14860667D01*
X17392381Y-14822571D01*
X17401905Y-14803524D01*
X17411429Y-14794000D01*
X17430476Y-14784476D01*
X17582857Y-14965428D02*
X17592381Y-14974952D01*
X17582857Y-14984476D01*
X17573333Y-14974952D01*
X17582857Y-14965428D01*
X17582857Y-14984476D01*
X17716190Y-14784476D02*
X17735238Y-14784476D01*
X17754286Y-14794000D01*
X17763810Y-14803524D01*
X17773333Y-14822571D01*
X17782857Y-14860667D01*
X17782857Y-14908286D01*
X17773333Y-14946381D01*
X17763810Y-14965428D01*
X17754286Y-14974952D01*
X17735238Y-14984476D01*
X17716190Y-14984476D01*
X17697143Y-14974952D01*
X17687619Y-14965428D01*
X17678095Y-14946381D01*
X17668571Y-14908286D01*
X17668571Y-14860667D01*
X17678095Y-14822571D01*
X17687619Y-14803524D01*
X17697143Y-14794000D01*
X17716190Y-14784476D01*
X17963810Y-14784476D02*
X17868571Y-14784476D01*
X17859048Y-14879714D01*
X17868571Y-14870190D01*
X17887619Y-14860667D01*
X17935238Y-14860667D01*
X17954286Y-14870190D01*
X17963810Y-14879714D01*
X17973333Y-14898762D01*
X17973333Y-14946381D01*
X17963810Y-14965428D01*
X17954286Y-14974952D01*
X17935238Y-14984476D01*
X17887619Y-14984476D01*
X17868571Y-14974952D01*
X17859048Y-14965428D01*
X18068571Y-14984476D02*
X18106667Y-14984476D01*
X18125714Y-14974952D01*
X18135238Y-14965428D01*
X18154286Y-14936857D01*
X18163810Y-14898762D01*
X18163810Y-14822571D01*
X18154286Y-14803524D01*
X18144762Y-14794000D01*
X18125714Y-14784476D01*
X18087619Y-14784476D01*
X18068571Y-14794000D01*
X18059048Y-14803524D01*
X18049524Y-14822571D01*
X18049524Y-14870190D01*
X18059048Y-14889238D01*
X18068571Y-14898762D01*
X18087619Y-14908286D01*
X18125714Y-14908286D01*
X18144762Y-14898762D01*
X18154286Y-14889238D01*
X18163810Y-14870190D01*
X18354286Y-14984476D02*
X18240000Y-14984476D01*
X18297143Y-14984476D02*
X18297143Y-14784476D01*
X18278095Y-14813048D01*
X18259048Y-14832095D01*
X18240000Y-14841619D01*
X18430476Y-14784476D02*
X18430476Y-14822571D01*
X18506667Y-14784476D02*
X18506667Y-14822571D01*
X18801905Y-15060667D02*
X18792381Y-15051143D01*
X18773333Y-15022571D01*
X18763810Y-15003524D01*
X18754286Y-14974952D01*
X18744762Y-14927333D01*
X18744762Y-14889238D01*
X18754286Y-14841619D01*
X18763810Y-14813048D01*
X18773333Y-14794000D01*
X18792381Y-14765428D01*
X18801905Y-14755905D01*
X18859048Y-14784476D02*
X18982857Y-14784476D01*
X18916190Y-14860667D01*
X18944762Y-14860667D01*
X18963810Y-14870190D01*
X18973333Y-14879714D01*
X18982857Y-14898762D01*
X18982857Y-14946381D01*
X18973333Y-14965428D01*
X18963810Y-14974952D01*
X18944762Y-14984476D01*
X18887619Y-14984476D01*
X18868571Y-14974952D01*
X18859048Y-14965428D01*
X19106667Y-14784476D02*
X19125714Y-14784476D01*
X19144762Y-14794000D01*
X19154286Y-14803524D01*
X19163810Y-14822571D01*
X19173333Y-14860667D01*
X19173333Y-14908286D01*
X19163810Y-14946381D01*
X19154286Y-14965428D01*
X19144762Y-14974952D01*
X19125714Y-14984476D01*
X19106667Y-14984476D01*
X19087619Y-14974952D01*
X19078095Y-14965428D01*
X19068571Y-14946381D01*
X19059048Y-14908286D01*
X19059048Y-14860667D01*
X19068571Y-14822571D01*
X19078095Y-14803524D01*
X19087619Y-14794000D01*
X19106667Y-14784476D01*
X19411429Y-14984476D02*
X19411429Y-14784476D01*
X19497143Y-14984476D02*
X19497143Y-14879714D01*
X19487619Y-14860667D01*
X19468571Y-14851143D01*
X19440000Y-14851143D01*
X19420952Y-14860667D01*
X19411429Y-14870190D01*
X19620952Y-14984476D02*
X19601905Y-14974952D01*
X19592381Y-14965428D01*
X19582857Y-14946381D01*
X19582857Y-14889238D01*
X19592381Y-14870190D01*
X19601905Y-14860667D01*
X19620952Y-14851143D01*
X19649524Y-14851143D01*
X19668571Y-14860667D01*
X19678095Y-14870190D01*
X19687619Y-14889238D01*
X19687619Y-14946381D01*
X19678095Y-14965428D01*
X19668571Y-14974952D01*
X19649524Y-14984476D01*
X19620952Y-14984476D01*
X19801905Y-14984476D02*
X19782857Y-14974952D01*
X19773333Y-14955905D01*
X19773333Y-14784476D01*
X19954286Y-14974952D02*
X19935238Y-14984476D01*
X19897143Y-14984476D01*
X19878095Y-14974952D01*
X19868571Y-14955905D01*
X19868571Y-14879714D01*
X19878095Y-14860667D01*
X19897143Y-14851143D01*
X19935238Y-14851143D01*
X19954286Y-14860667D01*
X19963810Y-14879714D01*
X19963810Y-14898762D01*
X19868571Y-14917809D01*
X20040000Y-14974952D02*
X20059048Y-14984476D01*
X20097143Y-14984476D01*
X20116190Y-14974952D01*
X20125714Y-14955905D01*
X20125714Y-14946381D01*
X20116190Y-14927333D01*
X20097143Y-14917809D01*
X20068571Y-14917809D01*
X20049524Y-14908286D01*
X20040000Y-14889238D01*
X20040000Y-14879714D01*
X20049524Y-14860667D01*
X20068571Y-14851143D01*
X20097143Y-14851143D01*
X20116190Y-14860667D01*
X20192381Y-15060667D02*
X20201905Y-15051143D01*
X20220952Y-15022571D01*
X20230476Y-15003524D01*
X20240000Y-14974952D01*
X20249524Y-14927333D01*
X20249524Y-14889238D01*
X20240000Y-14841619D01*
X20230476Y-14813048D01*
X20220952Y-14794000D01*
X20201905Y-14765428D01*
X20192381Y-14755905D01*
M02*
