%TF.GenerationSoftware,KiCad,Pcbnew,(6.0.10)*%
%TF.CreationDate,2023-02-05T13:22:51+01:00*%
%TF.ProjectId,FireKey,46697265-4b65-4792-9e6b-696361645f70,1.2.1*%
%TF.SameCoordinates,Original*%
%TF.FileFunction,Profile,NP*%
%FSLAX46Y46*%
G04 Gerber Fmt 4.6, Leading zero omitted, Abs format (unit mm)*
G04 Created by KiCad (PCBNEW (6.0.10)) date 2023-02-05 13:22:51*
%MOMM*%
%LPD*%
G01*
G04 APERTURE LIST*
%TA.AperFunction,Profile*%
%ADD10C,0.200000*%
%TD*%
%TA.AperFunction,Profile*%
%ADD11C,0.120000*%
%TD*%
G04 APERTURE END LIST*
D10*
X249555000Y-38100000D02*
X154940000Y-38100000D01*
X249555000Y-137160000D02*
X154940000Y-137160000D01*
X152400000Y-134620000D02*
G75*
G03*
X154940000Y-137160000I2540000J0D01*
G01*
X249555000Y-137160000D02*
G75*
G03*
X252095000Y-134620000I0J2540000D01*
G01*
X252095000Y-40640000D02*
G75*
G03*
X249555000Y-38100000I-2540000J0D01*
G01*
X154940000Y-38100000D02*
G75*
G03*
X152400000Y-40640000I0J-2540000D01*
G01*
X252095000Y-40640000D02*
X252095000Y-134620000D01*
X152400000Y-134620000D02*
X152400000Y-40640000D01*
D11*
%TO.C,LED14*%
X161395000Y-131775000D02*
X164995000Y-131775000D01*
X164995000Y-131775000D02*
X164995000Y-128575000D01*
X164995000Y-128575000D02*
X161395000Y-128575000D01*
X161395000Y-128575000D02*
X161395000Y-131775000D01*
G36*
X161395000Y-131775000D02*
G01*
X164995000Y-131775000D01*
X164995000Y-128575000D01*
X161395000Y-128575000D01*
X161395000Y-131775000D01*
G37*
%TO.C,LED4*%
X161395000Y-93675000D02*
X164995000Y-93675000D01*
X164995000Y-93675000D02*
X164995000Y-90475000D01*
X164995000Y-90475000D02*
X161395000Y-90475000D01*
X161395000Y-90475000D02*
X161395000Y-93675000D01*
G36*
X161395000Y-93675000D02*
G01*
X164995000Y-93675000D01*
X164995000Y-90475000D01*
X161395000Y-90475000D01*
X161395000Y-93675000D01*
G37*
%TO.C,LED3*%
X180445000Y-93675000D02*
X184045000Y-93675000D01*
X184045000Y-93675000D02*
X184045000Y-90475000D01*
X184045000Y-90475000D02*
X180445000Y-90475000D01*
X180445000Y-90475000D02*
X180445000Y-93675000D01*
G36*
X180445000Y-93675000D02*
G01*
X184045000Y-93675000D01*
X184045000Y-90475000D01*
X180445000Y-90475000D01*
X180445000Y-93675000D01*
G37*
%TO.C,LED5*%
X164995000Y-109525000D02*
X161395000Y-109525000D01*
X161395000Y-109525000D02*
X161395000Y-112725000D01*
X161395000Y-112725000D02*
X164995000Y-112725000D01*
X164995000Y-112725000D02*
X164995000Y-109525000D01*
G36*
X164995000Y-109525000D02*
G01*
X161395000Y-109525000D01*
X161395000Y-112725000D01*
X164995000Y-112725000D01*
X164995000Y-109525000D01*
G37*
%TO.C,LED8*%
X222145000Y-109525000D02*
X218545000Y-109525000D01*
X218545000Y-109525000D02*
X218545000Y-112725000D01*
X218545000Y-112725000D02*
X222145000Y-112725000D01*
X222145000Y-112725000D02*
X222145000Y-109525000D01*
G36*
X222145000Y-109525000D02*
G01*
X218545000Y-109525000D01*
X218545000Y-112725000D01*
X222145000Y-112725000D01*
X222145000Y-109525000D01*
G37*
%TO.C,LED1*%
X218545000Y-93675000D02*
X222145000Y-93675000D01*
X222145000Y-93675000D02*
X222145000Y-90475000D01*
X222145000Y-90475000D02*
X218545000Y-90475000D01*
X218545000Y-90475000D02*
X218545000Y-93675000D01*
G36*
X218545000Y-93675000D02*
G01*
X222145000Y-93675000D01*
X222145000Y-90475000D01*
X218545000Y-90475000D01*
X218545000Y-93675000D01*
G37*
%TO.C,LED2*%
X199495000Y-93675000D02*
X203095000Y-93675000D01*
X203095000Y-93675000D02*
X203095000Y-90475000D01*
X203095000Y-90475000D02*
X199495000Y-90475000D01*
X199495000Y-90475000D02*
X199495000Y-93675000D01*
G36*
X199495000Y-93675000D02*
G01*
X203095000Y-93675000D01*
X203095000Y-90475000D01*
X199495000Y-90475000D01*
X199495000Y-93675000D01*
G37*
%TO.C,LED9*%
X241195000Y-109525000D02*
X237595000Y-109525000D01*
X237595000Y-109525000D02*
X237595000Y-112725000D01*
X237595000Y-112725000D02*
X241195000Y-112725000D01*
X241195000Y-112725000D02*
X241195000Y-109525000D01*
G36*
X241195000Y-109525000D02*
G01*
X237595000Y-109525000D01*
X237595000Y-112725000D01*
X241195000Y-112725000D01*
X241195000Y-109525000D01*
G37*
%TO.C,LED0*%
X237595000Y-93675000D02*
X241195000Y-93675000D01*
X241195000Y-93675000D02*
X241195000Y-90475000D01*
X241195000Y-90475000D02*
X237595000Y-90475000D01*
X237595000Y-90475000D02*
X237595000Y-93675000D01*
G36*
X237595000Y-93675000D02*
G01*
X241195000Y-93675000D01*
X241195000Y-90475000D01*
X237595000Y-90475000D01*
X237595000Y-93675000D01*
G37*
%TO.C,LED11*%
X218545000Y-131775000D02*
X222145000Y-131775000D01*
X222145000Y-131775000D02*
X222145000Y-128575000D01*
X222145000Y-128575000D02*
X218545000Y-128575000D01*
X218545000Y-128575000D02*
X218545000Y-131775000D01*
G36*
X218545000Y-131775000D02*
G01*
X222145000Y-131775000D01*
X222145000Y-128575000D01*
X218545000Y-128575000D01*
X218545000Y-131775000D01*
G37*
%TO.C,LED10*%
X237595000Y-131775000D02*
X241195000Y-131775000D01*
X241195000Y-131775000D02*
X241195000Y-128575000D01*
X241195000Y-128575000D02*
X237595000Y-128575000D01*
X237595000Y-128575000D02*
X237595000Y-131775000D01*
G36*
X237595000Y-131775000D02*
G01*
X241195000Y-131775000D01*
X241195000Y-128575000D01*
X237595000Y-128575000D01*
X237595000Y-131775000D01*
G37*
%TO.C,LED13*%
X180445000Y-131775000D02*
X184045000Y-131775000D01*
X184045000Y-131775000D02*
X184045000Y-128575000D01*
X184045000Y-128575000D02*
X180445000Y-128575000D01*
X180445000Y-128575000D02*
X180445000Y-131775000D01*
G36*
X180445000Y-131775000D02*
G01*
X184045000Y-131775000D01*
X184045000Y-128575000D01*
X180445000Y-128575000D01*
X180445000Y-131775000D01*
G37*
%TO.C,LED7*%
X203095000Y-109525000D02*
X199495000Y-109525000D01*
X199495000Y-109525000D02*
X199495000Y-112725000D01*
X199495000Y-112725000D02*
X203095000Y-112725000D01*
X203095000Y-112725000D02*
X203095000Y-109525000D01*
G36*
X203095000Y-109525000D02*
G01*
X199495000Y-109525000D01*
X199495000Y-112725000D01*
X203095000Y-112725000D01*
X203095000Y-109525000D01*
G37*
%TO.C,LED6*%
X184045000Y-109525000D02*
X180445000Y-109525000D01*
X180445000Y-109525000D02*
X180445000Y-112725000D01*
X180445000Y-112725000D02*
X184045000Y-112725000D01*
X184045000Y-112725000D02*
X184045000Y-109525000D01*
G36*
X184045000Y-109525000D02*
G01*
X180445000Y-109525000D01*
X180445000Y-112725000D01*
X184045000Y-112725000D01*
X184045000Y-109525000D01*
G37*
%TO.C,LED12*%
X199495000Y-131775000D02*
X203095000Y-131775000D01*
X203095000Y-131775000D02*
X203095000Y-128575000D01*
X203095000Y-128575000D02*
X199495000Y-128575000D01*
X199495000Y-128575000D02*
X199495000Y-131775000D01*
G36*
X199495000Y-131775000D02*
G01*
X203095000Y-131775000D01*
X203095000Y-128575000D01*
X199495000Y-128575000D01*
X199495000Y-131775000D01*
G37*
%TD*%
M02*
