%TF.GenerationSoftware,KiCad,Pcbnew,(6.0.9)*%
%TF.CreationDate,2022-12-04T21:05:02+01:00*%
%TF.ProjectId,FireKey,46697265-4b65-4792-9e6b-696361645f70,0.1.1*%
%TF.SameCoordinates,Original*%
%TF.FileFunction,Drillmap*%
%TF.FilePolarity,Positive*%
%FSLAX45Y45*%
G04 Gerber Fmt 4.5, Leading zero omitted, Abs format (unit mm)*
G04 Created by KiCad (PCBNEW (6.0.9)) date 2022-12-04 21:05:02*
%MOMM*%
%LPD*%
G01*
G04 APERTURE LIST*
%ADD10C,0.200000*%
%ADD11C,0.170000*%
%ADD12C,0.270000*%
%ADD13C,0.320000*%
%ADD14C,0.400000*%
G04 APERTURE END LIST*
D10*
X5334000Y-14432000D02*
G75*
G03*
X5634000Y-14732000I300000J0D01*
G01*
X5634000Y-5080000D02*
X15032000Y-5080000D01*
X15332000Y-14432000D02*
X15332000Y-5380000D01*
X15332000Y-5380000D02*
G75*
G03*
X15032000Y-5080000I-300000J0D01*
G01*
X15032000Y-14732000D02*
G75*
G03*
X15332000Y-14432000I0J300000D01*
G01*
X15032000Y-14732000D02*
X5634000Y-14732000D01*
X5634000Y-5080000D02*
G75*
G03*
X5334000Y-5380000I0J-300000D01*
G01*
X5334000Y-5380000D02*
X5334000Y-14432000D01*
D11*
X6265000Y-6011000D02*
X6435000Y-6181000D01*
X6435000Y-6011000D02*
X6265000Y-6181000D01*
X6265000Y-7916000D02*
X6435000Y-8086000D01*
X6435000Y-7916000D02*
X6265000Y-8086000D01*
X6265000Y-9821000D02*
X6435000Y-9991000D01*
X6435000Y-9821000D02*
X6265000Y-9991000D01*
X6265000Y-11726000D02*
X6435000Y-11896000D01*
X6435000Y-11726000D02*
X6265000Y-11896000D01*
X6265000Y-13631000D02*
X6435000Y-13801000D01*
X6435000Y-13631000D02*
X6265000Y-13801000D01*
X7281000Y-6011000D02*
X7451000Y-6181000D01*
X7451000Y-6011000D02*
X7281000Y-6181000D01*
X7281000Y-7916000D02*
X7451000Y-8086000D01*
X7451000Y-7916000D02*
X7281000Y-8086000D01*
X7281000Y-9821000D02*
X7451000Y-9991000D01*
X7451000Y-9821000D02*
X7281000Y-9991000D01*
X7281000Y-11726000D02*
X7451000Y-11896000D01*
X7451000Y-11726000D02*
X7281000Y-11896000D01*
X7281000Y-13631000D02*
X7451000Y-13801000D01*
X7451000Y-13631000D02*
X7281000Y-13801000D01*
X8170000Y-6011000D02*
X8340000Y-6181000D01*
X8340000Y-6011000D02*
X8170000Y-6181000D01*
X8170000Y-7916000D02*
X8340000Y-8086000D01*
X8340000Y-7916000D02*
X8170000Y-8086000D01*
X8170000Y-9821000D02*
X8340000Y-9991000D01*
X8340000Y-9821000D02*
X8170000Y-9991000D01*
X8170000Y-11726000D02*
X8340000Y-11896000D01*
X8340000Y-11726000D02*
X8170000Y-11896000D01*
X8170000Y-13631000D02*
X8340000Y-13801000D01*
X8340000Y-13631000D02*
X8170000Y-13801000D01*
X9186000Y-6011000D02*
X9356000Y-6181000D01*
X9356000Y-6011000D02*
X9186000Y-6181000D01*
X9186000Y-7916000D02*
X9356000Y-8086000D01*
X9356000Y-7916000D02*
X9186000Y-8086000D01*
X9186000Y-9821000D02*
X9356000Y-9991000D01*
X9356000Y-9821000D02*
X9186000Y-9991000D01*
X9186000Y-11726000D02*
X9356000Y-11896000D01*
X9356000Y-11726000D02*
X9186000Y-11896000D01*
X9186000Y-13631000D02*
X9356000Y-13801000D01*
X9356000Y-13631000D02*
X9186000Y-13801000D01*
X10075000Y-6011000D02*
X10245000Y-6181000D01*
X10245000Y-6011000D02*
X10075000Y-6181000D01*
X10075000Y-7916000D02*
X10245000Y-8086000D01*
X10245000Y-7916000D02*
X10075000Y-8086000D01*
X10075000Y-9821000D02*
X10245000Y-9991000D01*
X10245000Y-9821000D02*
X10075000Y-9991000D01*
X10075000Y-11726000D02*
X10245000Y-11896000D01*
X10245000Y-11726000D02*
X10075000Y-11896000D01*
X10075000Y-13631000D02*
X10245000Y-13801000D01*
X10245000Y-13631000D02*
X10075000Y-13801000D01*
X11091000Y-6011000D02*
X11261000Y-6181000D01*
X11261000Y-6011000D02*
X11091000Y-6181000D01*
X11091000Y-7916000D02*
X11261000Y-8086000D01*
X11261000Y-7916000D02*
X11091000Y-8086000D01*
X11091000Y-9821000D02*
X11261000Y-9991000D01*
X11261000Y-9821000D02*
X11091000Y-9991000D01*
X11091000Y-11726000D02*
X11261000Y-11896000D01*
X11261000Y-11726000D02*
X11091000Y-11896000D01*
X11091000Y-13631000D02*
X11261000Y-13801000D01*
X11261000Y-13631000D02*
X11091000Y-13801000D01*
D12*
X12057000Y-10732000D02*
G75*
G03*
X12057000Y-10732000I-135000J0D01*
G01*
X12057000Y-13622000D02*
G75*
G03*
X12057000Y-13622000I-135000J0D01*
G01*
X15137000Y-10732000D02*
G75*
G03*
X15137000Y-10732000I-135000J0D01*
G01*
X15137000Y-13622000D02*
G75*
G03*
X15137000Y-13622000I-135000J0D01*
G01*
D13*
X5715000Y-5301000D02*
X5715000Y-5621000D01*
X5555000Y-5461000D02*
X5875000Y-5461000D01*
X5715000Y-9746000D02*
X5715000Y-10066000D01*
X5555000Y-9906000D02*
X5875000Y-9906000D01*
X5715000Y-14191000D02*
X5715000Y-14511000D01*
X5555000Y-14351000D02*
X5875000Y-14351000D01*
X11938000Y-5301000D02*
X11938000Y-5621000D01*
X11778000Y-5461000D02*
X12098000Y-5461000D01*
X11938000Y-14191000D02*
X11938000Y-14511000D01*
X11778000Y-14351000D02*
X12098000Y-14351000D01*
X14951000Y-5301000D02*
X14951000Y-5621000D01*
X14791000Y-5461000D02*
X15111000Y-5461000D01*
X14951000Y-9746000D02*
X14951000Y-10066000D01*
X14791000Y-9906000D02*
X15111000Y-9906000D01*
X14951000Y-14191000D02*
X14951000Y-14511000D01*
X14791000Y-14351000D02*
X15111000Y-14351000D01*
D14*
X6999423Y-6237423D02*
X6999423Y-5954577D01*
X6716577Y-5954577D01*
X6716577Y-6237423D01*
X6999423Y-6237423D01*
X6999423Y-8142423D02*
X6999423Y-7859577D01*
X6716577Y-7859577D01*
X6716577Y-8142423D01*
X6999423Y-8142423D01*
X6999423Y-10047423D02*
X6999423Y-9764577D01*
X6716577Y-9764577D01*
X6716577Y-10047423D01*
X6999423Y-10047423D01*
X6999423Y-11952423D02*
X6999423Y-11669577D01*
X6716577Y-11669577D01*
X6716577Y-11952423D01*
X6999423Y-11952423D01*
X6999423Y-13857423D02*
X6999423Y-13574577D01*
X6716577Y-13574577D01*
X6716577Y-13857423D01*
X6999423Y-13857423D01*
X8904423Y-6237423D02*
X8904423Y-5954577D01*
X8621577Y-5954577D01*
X8621577Y-6237423D01*
X8904423Y-6237423D01*
X8904423Y-8142423D02*
X8904423Y-7859577D01*
X8621577Y-7859577D01*
X8621577Y-8142423D01*
X8904423Y-8142423D01*
X8904423Y-10047423D02*
X8904423Y-9764577D01*
X8621577Y-9764577D01*
X8621577Y-10047423D01*
X8904423Y-10047423D01*
X8904423Y-11952423D02*
X8904423Y-11669577D01*
X8621577Y-11669577D01*
X8621577Y-11952423D01*
X8904423Y-11952423D01*
X8904423Y-13857423D02*
X8904423Y-13574577D01*
X8621577Y-13574577D01*
X8621577Y-13857423D01*
X8904423Y-13857423D01*
X10809423Y-6237423D02*
X10809423Y-5954577D01*
X10526577Y-5954577D01*
X10526577Y-6237423D01*
X10809423Y-6237423D01*
X10809423Y-8142423D02*
X10809423Y-7859577D01*
X10526577Y-7859577D01*
X10526577Y-8142423D01*
X10809423Y-8142423D01*
X10809423Y-10047423D02*
X10809423Y-9764577D01*
X10526577Y-9764577D01*
X10526577Y-10047423D01*
X10809423Y-10047423D01*
X10809423Y-11952423D02*
X10809423Y-11669577D01*
X10526577Y-11669577D01*
X10526577Y-11952423D01*
X10809423Y-11952423D01*
X10809423Y-13857423D02*
X10809423Y-13574577D01*
X10526577Y-13574577D01*
X10526577Y-13857423D01*
X10809423Y-13857423D01*
D10*
X5581619Y-15052476D02*
X5581619Y-14852476D01*
X5629238Y-14852476D01*
X5657809Y-14862000D01*
X5676857Y-14881048D01*
X5686381Y-14900095D01*
X5695905Y-14938190D01*
X5695905Y-14966762D01*
X5686381Y-15004857D01*
X5676857Y-15023905D01*
X5657809Y-15042952D01*
X5629238Y-15052476D01*
X5581619Y-15052476D01*
X5781619Y-15052476D02*
X5781619Y-14919143D01*
X5781619Y-14957238D02*
X5791143Y-14938190D01*
X5800667Y-14928667D01*
X5819714Y-14919143D01*
X5838762Y-14919143D01*
X5905428Y-15052476D02*
X5905428Y-14919143D01*
X5905428Y-14852476D02*
X5895905Y-14862000D01*
X5905428Y-14871524D01*
X5914952Y-14862000D01*
X5905428Y-14852476D01*
X5905428Y-14871524D01*
X6029238Y-15052476D02*
X6010190Y-15042952D01*
X6000667Y-15023905D01*
X6000667Y-14852476D01*
X6134000Y-15052476D02*
X6114952Y-15042952D01*
X6105428Y-15023905D01*
X6105428Y-14852476D01*
X6362571Y-15052476D02*
X6362571Y-14852476D01*
X6429238Y-14995333D01*
X6495905Y-14852476D01*
X6495905Y-15052476D01*
X6676857Y-15052476D02*
X6676857Y-14947714D01*
X6667333Y-14928667D01*
X6648286Y-14919143D01*
X6610190Y-14919143D01*
X6591143Y-14928667D01*
X6676857Y-15042952D02*
X6657809Y-15052476D01*
X6610190Y-15052476D01*
X6591143Y-15042952D01*
X6581619Y-15023905D01*
X6581619Y-15004857D01*
X6591143Y-14985809D01*
X6610190Y-14976286D01*
X6657809Y-14976286D01*
X6676857Y-14966762D01*
X6772095Y-14919143D02*
X6772095Y-15119143D01*
X6772095Y-14928667D02*
X6791143Y-14919143D01*
X6829238Y-14919143D01*
X6848286Y-14928667D01*
X6857809Y-14938190D01*
X6867333Y-14957238D01*
X6867333Y-15014381D01*
X6857809Y-15033428D01*
X6848286Y-15042952D01*
X6829238Y-15052476D01*
X6791143Y-15052476D01*
X6772095Y-15042952D01*
X6953048Y-15033428D02*
X6962571Y-15042952D01*
X6953048Y-15052476D01*
X6943524Y-15042952D01*
X6953048Y-15033428D01*
X6953048Y-15052476D01*
X6953048Y-14928667D02*
X6962571Y-14938190D01*
X6953048Y-14947714D01*
X6943524Y-14938190D01*
X6953048Y-14928667D01*
X6953048Y-14947714D01*
D11*
X5154000Y-15297000D02*
X5324000Y-15467000D01*
X5324000Y-15297000D02*
X5154000Y-15467000D01*
D10*
X5686381Y-15472476D02*
X5572095Y-15472476D01*
X5629238Y-15472476D02*
X5629238Y-15272476D01*
X5610190Y-15301048D01*
X5591143Y-15320095D01*
X5572095Y-15329619D01*
X5772095Y-15453428D02*
X5781619Y-15462952D01*
X5772095Y-15472476D01*
X5762571Y-15462952D01*
X5772095Y-15453428D01*
X5772095Y-15472476D01*
X5848286Y-15272476D02*
X5981619Y-15272476D01*
X5895905Y-15472476D01*
X6095905Y-15272476D02*
X6114952Y-15272476D01*
X6134000Y-15282000D01*
X6143524Y-15291524D01*
X6153048Y-15310571D01*
X6162571Y-15348667D01*
X6162571Y-15396286D01*
X6153048Y-15434381D01*
X6143524Y-15453428D01*
X6134000Y-15462952D01*
X6114952Y-15472476D01*
X6095905Y-15472476D01*
X6076857Y-15462952D01*
X6067333Y-15453428D01*
X6057809Y-15434381D01*
X6048286Y-15396286D01*
X6048286Y-15348667D01*
X6057809Y-15310571D01*
X6067333Y-15291524D01*
X6076857Y-15282000D01*
X6095905Y-15272476D01*
X6286381Y-15272476D02*
X6305428Y-15272476D01*
X6324476Y-15282000D01*
X6334000Y-15291524D01*
X6343524Y-15310571D01*
X6353048Y-15348667D01*
X6353048Y-15396286D01*
X6343524Y-15434381D01*
X6334000Y-15453428D01*
X6324476Y-15462952D01*
X6305428Y-15472476D01*
X6286381Y-15472476D01*
X6267333Y-15462952D01*
X6257809Y-15453428D01*
X6248286Y-15434381D01*
X6238762Y-15396286D01*
X6238762Y-15348667D01*
X6248286Y-15310571D01*
X6257809Y-15291524D01*
X6267333Y-15282000D01*
X6286381Y-15272476D01*
X6438762Y-15472476D02*
X6438762Y-15339143D01*
X6438762Y-15358190D02*
X6448286Y-15348667D01*
X6467333Y-15339143D01*
X6495905Y-15339143D01*
X6514952Y-15348667D01*
X6524476Y-15367714D01*
X6524476Y-15472476D01*
X6524476Y-15367714D02*
X6534000Y-15348667D01*
X6553048Y-15339143D01*
X6581619Y-15339143D01*
X6600667Y-15348667D01*
X6610190Y-15367714D01*
X6610190Y-15472476D01*
X6705428Y-15472476D02*
X6705428Y-15339143D01*
X6705428Y-15358190D02*
X6714952Y-15348667D01*
X6734000Y-15339143D01*
X6762571Y-15339143D01*
X6781619Y-15348667D01*
X6791143Y-15367714D01*
X6791143Y-15472476D01*
X6791143Y-15367714D02*
X6800667Y-15348667D01*
X6819714Y-15339143D01*
X6848286Y-15339143D01*
X6867333Y-15348667D01*
X6876857Y-15367714D01*
X6876857Y-15472476D01*
X7267333Y-15262952D02*
X7095905Y-15520095D01*
X7524476Y-15272476D02*
X7543524Y-15272476D01*
X7562571Y-15282000D01*
X7572095Y-15291524D01*
X7581619Y-15310571D01*
X7591143Y-15348667D01*
X7591143Y-15396286D01*
X7581619Y-15434381D01*
X7572095Y-15453428D01*
X7562571Y-15462952D01*
X7543524Y-15472476D01*
X7524476Y-15472476D01*
X7505428Y-15462952D01*
X7495905Y-15453428D01*
X7486381Y-15434381D01*
X7476857Y-15396286D01*
X7476857Y-15348667D01*
X7486381Y-15310571D01*
X7495905Y-15291524D01*
X7505428Y-15282000D01*
X7524476Y-15272476D01*
X7676857Y-15453428D02*
X7686381Y-15462952D01*
X7676857Y-15472476D01*
X7667333Y-15462952D01*
X7676857Y-15453428D01*
X7676857Y-15472476D01*
X7810190Y-15272476D02*
X7829238Y-15272476D01*
X7848286Y-15282000D01*
X7857809Y-15291524D01*
X7867333Y-15310571D01*
X7876857Y-15348667D01*
X7876857Y-15396286D01*
X7867333Y-15434381D01*
X7857809Y-15453428D01*
X7848286Y-15462952D01*
X7829238Y-15472476D01*
X7810190Y-15472476D01*
X7791143Y-15462952D01*
X7781619Y-15453428D01*
X7772095Y-15434381D01*
X7762571Y-15396286D01*
X7762571Y-15348667D01*
X7772095Y-15310571D01*
X7781619Y-15291524D01*
X7791143Y-15282000D01*
X7810190Y-15272476D01*
X8048286Y-15272476D02*
X8010190Y-15272476D01*
X7991143Y-15282000D01*
X7981619Y-15291524D01*
X7962571Y-15320095D01*
X7953048Y-15358190D01*
X7953048Y-15434381D01*
X7962571Y-15453428D01*
X7972095Y-15462952D01*
X7991143Y-15472476D01*
X8029238Y-15472476D01*
X8048286Y-15462952D01*
X8057809Y-15453428D01*
X8067333Y-15434381D01*
X8067333Y-15386762D01*
X8057809Y-15367714D01*
X8048286Y-15358190D01*
X8029238Y-15348667D01*
X7991143Y-15348667D01*
X7972095Y-15358190D01*
X7962571Y-15367714D01*
X7953048Y-15386762D01*
X8238762Y-15272476D02*
X8200667Y-15272476D01*
X8181619Y-15282000D01*
X8172095Y-15291524D01*
X8153048Y-15320095D01*
X8143524Y-15358190D01*
X8143524Y-15434381D01*
X8153048Y-15453428D01*
X8162571Y-15462952D01*
X8181619Y-15472476D01*
X8219714Y-15472476D01*
X8238762Y-15462952D01*
X8248286Y-15453428D01*
X8257809Y-15434381D01*
X8257809Y-15386762D01*
X8248286Y-15367714D01*
X8238762Y-15358190D01*
X8219714Y-15348667D01*
X8181619Y-15348667D01*
X8162571Y-15358190D01*
X8153048Y-15367714D01*
X8143524Y-15386762D01*
X8353048Y-15472476D02*
X8391143Y-15472476D01*
X8410190Y-15462952D01*
X8419714Y-15453428D01*
X8438762Y-15424857D01*
X8448286Y-15386762D01*
X8448286Y-15310571D01*
X8438762Y-15291524D01*
X8429238Y-15282000D01*
X8410190Y-15272476D01*
X8372095Y-15272476D01*
X8353048Y-15282000D01*
X8343524Y-15291524D01*
X8334000Y-15310571D01*
X8334000Y-15358190D01*
X8343524Y-15377238D01*
X8353048Y-15386762D01*
X8372095Y-15396286D01*
X8410190Y-15396286D01*
X8429238Y-15386762D01*
X8438762Y-15377238D01*
X8448286Y-15358190D01*
X8524476Y-15272476D02*
X8524476Y-15310571D01*
X8600667Y-15272476D02*
X8600667Y-15310571D01*
X8895905Y-15548667D02*
X8886381Y-15539143D01*
X8867333Y-15510571D01*
X8857810Y-15491524D01*
X8848286Y-15462952D01*
X8838762Y-15415333D01*
X8838762Y-15377238D01*
X8848286Y-15329619D01*
X8857810Y-15301048D01*
X8867333Y-15282000D01*
X8886381Y-15253428D01*
X8895905Y-15243905D01*
X8953048Y-15272476D02*
X9076857Y-15272476D01*
X9010190Y-15348667D01*
X9038762Y-15348667D01*
X9057810Y-15358190D01*
X9067333Y-15367714D01*
X9076857Y-15386762D01*
X9076857Y-15434381D01*
X9067333Y-15453428D01*
X9057810Y-15462952D01*
X9038762Y-15472476D01*
X8981619Y-15472476D01*
X8962571Y-15462952D01*
X8953048Y-15453428D01*
X9200667Y-15272476D02*
X9219714Y-15272476D01*
X9238762Y-15282000D01*
X9248286Y-15291524D01*
X9257810Y-15310571D01*
X9267333Y-15348667D01*
X9267333Y-15396286D01*
X9257810Y-15434381D01*
X9248286Y-15453428D01*
X9238762Y-15462952D01*
X9219714Y-15472476D01*
X9200667Y-15472476D01*
X9181619Y-15462952D01*
X9172095Y-15453428D01*
X9162571Y-15434381D01*
X9153048Y-15396286D01*
X9153048Y-15348667D01*
X9162571Y-15310571D01*
X9172095Y-15291524D01*
X9181619Y-15282000D01*
X9200667Y-15272476D01*
X9505429Y-15472476D02*
X9505429Y-15272476D01*
X9591143Y-15472476D02*
X9591143Y-15367714D01*
X9581619Y-15348667D01*
X9562571Y-15339143D01*
X9534000Y-15339143D01*
X9514952Y-15348667D01*
X9505429Y-15358190D01*
X9714952Y-15472476D02*
X9695905Y-15462952D01*
X9686381Y-15453428D01*
X9676857Y-15434381D01*
X9676857Y-15377238D01*
X9686381Y-15358190D01*
X9695905Y-15348667D01*
X9714952Y-15339143D01*
X9743524Y-15339143D01*
X9762571Y-15348667D01*
X9772095Y-15358190D01*
X9781619Y-15377238D01*
X9781619Y-15434381D01*
X9772095Y-15453428D01*
X9762571Y-15462952D01*
X9743524Y-15472476D01*
X9714952Y-15472476D01*
X9895905Y-15472476D02*
X9876857Y-15462952D01*
X9867333Y-15443905D01*
X9867333Y-15272476D01*
X10048286Y-15462952D02*
X10029238Y-15472476D01*
X9991143Y-15472476D01*
X9972095Y-15462952D01*
X9962571Y-15443905D01*
X9962571Y-15367714D01*
X9972095Y-15348667D01*
X9991143Y-15339143D01*
X10029238Y-15339143D01*
X10048286Y-15348667D01*
X10057810Y-15367714D01*
X10057810Y-15386762D01*
X9962571Y-15405809D01*
X10134000Y-15462952D02*
X10153048Y-15472476D01*
X10191143Y-15472476D01*
X10210190Y-15462952D01*
X10219714Y-15443905D01*
X10219714Y-15434381D01*
X10210190Y-15415333D01*
X10191143Y-15405809D01*
X10162571Y-15405809D01*
X10143524Y-15396286D01*
X10134000Y-15377238D01*
X10134000Y-15367714D01*
X10143524Y-15348667D01*
X10162571Y-15339143D01*
X10191143Y-15339143D01*
X10210190Y-15348667D01*
X10286381Y-15548667D02*
X10295905Y-15539143D01*
X10314952Y-15510571D01*
X10324476Y-15491524D01*
X10334000Y-15462952D01*
X10343524Y-15415333D01*
X10343524Y-15377238D01*
X10334000Y-15329619D01*
X10324476Y-15301048D01*
X10314952Y-15282000D01*
X10295905Y-15253428D01*
X10286381Y-15243905D01*
X10648286Y-15548667D02*
X10638762Y-15539143D01*
X10619714Y-15510571D01*
X10610190Y-15491524D01*
X10600667Y-15462952D01*
X10591143Y-15415333D01*
X10591143Y-15377238D01*
X10600667Y-15329619D01*
X10610190Y-15301048D01*
X10619714Y-15282000D01*
X10638762Y-15253428D01*
X10648286Y-15243905D01*
X10724476Y-15339143D02*
X10724476Y-15472476D01*
X10724476Y-15358190D02*
X10734000Y-15348667D01*
X10753048Y-15339143D01*
X10781619Y-15339143D01*
X10800667Y-15348667D01*
X10810190Y-15367714D01*
X10810190Y-15472476D01*
X10934000Y-15472476D02*
X10914952Y-15462952D01*
X10905429Y-15453428D01*
X10895905Y-15434381D01*
X10895905Y-15377238D01*
X10905429Y-15358190D01*
X10914952Y-15348667D01*
X10934000Y-15339143D01*
X10962571Y-15339143D01*
X10981619Y-15348667D01*
X10991143Y-15358190D01*
X11000667Y-15377238D01*
X11000667Y-15434381D01*
X10991143Y-15453428D01*
X10981619Y-15462952D01*
X10962571Y-15472476D01*
X10934000Y-15472476D01*
X11057810Y-15339143D02*
X11134000Y-15339143D01*
X11086381Y-15272476D02*
X11086381Y-15443905D01*
X11095905Y-15462952D01*
X11114952Y-15472476D01*
X11134000Y-15472476D01*
X11353048Y-15339143D02*
X11353048Y-15539143D01*
X11353048Y-15348667D02*
X11372095Y-15339143D01*
X11410190Y-15339143D01*
X11429238Y-15348667D01*
X11438762Y-15358190D01*
X11448286Y-15377238D01*
X11448286Y-15434381D01*
X11438762Y-15453428D01*
X11429238Y-15462952D01*
X11410190Y-15472476D01*
X11372095Y-15472476D01*
X11353048Y-15462952D01*
X11562571Y-15472476D02*
X11543524Y-15462952D01*
X11534000Y-15443905D01*
X11534000Y-15272476D01*
X11724476Y-15472476D02*
X11724476Y-15367714D01*
X11714952Y-15348667D01*
X11695905Y-15339143D01*
X11657809Y-15339143D01*
X11638762Y-15348667D01*
X11724476Y-15462952D02*
X11705428Y-15472476D01*
X11657809Y-15472476D01*
X11638762Y-15462952D01*
X11629238Y-15443905D01*
X11629238Y-15424857D01*
X11638762Y-15405809D01*
X11657809Y-15396286D01*
X11705428Y-15396286D01*
X11724476Y-15386762D01*
X11791143Y-15339143D02*
X11867333Y-15339143D01*
X11819714Y-15272476D02*
X11819714Y-15443905D01*
X11829238Y-15462952D01*
X11848286Y-15472476D01*
X11867333Y-15472476D01*
X12010190Y-15462952D02*
X11991143Y-15472476D01*
X11953048Y-15472476D01*
X11934000Y-15462952D01*
X11924476Y-15443905D01*
X11924476Y-15367714D01*
X11934000Y-15348667D01*
X11953048Y-15339143D01*
X11991143Y-15339143D01*
X12010190Y-15348667D01*
X12019714Y-15367714D01*
X12019714Y-15386762D01*
X11924476Y-15405809D01*
X12191143Y-15472476D02*
X12191143Y-15272476D01*
X12191143Y-15462952D02*
X12172095Y-15472476D01*
X12134000Y-15472476D01*
X12114952Y-15462952D01*
X12105428Y-15453428D01*
X12095905Y-15434381D01*
X12095905Y-15377238D01*
X12105428Y-15358190D01*
X12114952Y-15348667D01*
X12134000Y-15339143D01*
X12172095Y-15339143D01*
X12191143Y-15348667D01*
X12267333Y-15548667D02*
X12276857Y-15539143D01*
X12295905Y-15510571D01*
X12305428Y-15491524D01*
X12314952Y-15462952D01*
X12324476Y-15415333D01*
X12324476Y-15377238D01*
X12314952Y-15329619D01*
X12305428Y-15301048D01*
X12295905Y-15282000D01*
X12276857Y-15253428D01*
X12267333Y-15243905D01*
X5324000Y-15672000D02*
G75*
G03*
X5324000Y-15672000I-100000J0D01*
G01*
X5572095Y-15581524D02*
X5581619Y-15572000D01*
X5600667Y-15562476D01*
X5648286Y-15562476D01*
X5667333Y-15572000D01*
X5676857Y-15581524D01*
X5686381Y-15600571D01*
X5686381Y-15619619D01*
X5676857Y-15648190D01*
X5562571Y-15762476D01*
X5686381Y-15762476D01*
X5772095Y-15743428D02*
X5781619Y-15752952D01*
X5772095Y-15762476D01*
X5762571Y-15752952D01*
X5772095Y-15743428D01*
X5772095Y-15762476D01*
X5848286Y-15562476D02*
X5981619Y-15562476D01*
X5895905Y-15762476D01*
X6095905Y-15562476D02*
X6114952Y-15562476D01*
X6134000Y-15572000D01*
X6143524Y-15581524D01*
X6153048Y-15600571D01*
X6162571Y-15638667D01*
X6162571Y-15686286D01*
X6153048Y-15724381D01*
X6143524Y-15743428D01*
X6134000Y-15752952D01*
X6114952Y-15762476D01*
X6095905Y-15762476D01*
X6076857Y-15752952D01*
X6067333Y-15743428D01*
X6057809Y-15724381D01*
X6048286Y-15686286D01*
X6048286Y-15638667D01*
X6057809Y-15600571D01*
X6067333Y-15581524D01*
X6076857Y-15572000D01*
X6095905Y-15562476D01*
X6286381Y-15562476D02*
X6305428Y-15562476D01*
X6324476Y-15572000D01*
X6334000Y-15581524D01*
X6343524Y-15600571D01*
X6353048Y-15638667D01*
X6353048Y-15686286D01*
X6343524Y-15724381D01*
X6334000Y-15743428D01*
X6324476Y-15752952D01*
X6305428Y-15762476D01*
X6286381Y-15762476D01*
X6267333Y-15752952D01*
X6257809Y-15743428D01*
X6248286Y-15724381D01*
X6238762Y-15686286D01*
X6238762Y-15638667D01*
X6248286Y-15600571D01*
X6257809Y-15581524D01*
X6267333Y-15572000D01*
X6286381Y-15562476D01*
X6438762Y-15762476D02*
X6438762Y-15629143D01*
X6438762Y-15648190D02*
X6448286Y-15638667D01*
X6467333Y-15629143D01*
X6495905Y-15629143D01*
X6514952Y-15638667D01*
X6524476Y-15657714D01*
X6524476Y-15762476D01*
X6524476Y-15657714D02*
X6534000Y-15638667D01*
X6553048Y-15629143D01*
X6581619Y-15629143D01*
X6600667Y-15638667D01*
X6610190Y-15657714D01*
X6610190Y-15762476D01*
X6705428Y-15762476D02*
X6705428Y-15629143D01*
X6705428Y-15648190D02*
X6714952Y-15638667D01*
X6734000Y-15629143D01*
X6762571Y-15629143D01*
X6781619Y-15638667D01*
X6791143Y-15657714D01*
X6791143Y-15762476D01*
X6791143Y-15657714D02*
X6800667Y-15638667D01*
X6819714Y-15629143D01*
X6848286Y-15629143D01*
X6867333Y-15638667D01*
X6876857Y-15657714D01*
X6876857Y-15762476D01*
X7267333Y-15552952D02*
X7095905Y-15810095D01*
X7524476Y-15562476D02*
X7543524Y-15562476D01*
X7562571Y-15572000D01*
X7572095Y-15581524D01*
X7581619Y-15600571D01*
X7591143Y-15638667D01*
X7591143Y-15686286D01*
X7581619Y-15724381D01*
X7572095Y-15743428D01*
X7562571Y-15752952D01*
X7543524Y-15762476D01*
X7524476Y-15762476D01*
X7505428Y-15752952D01*
X7495905Y-15743428D01*
X7486381Y-15724381D01*
X7476857Y-15686286D01*
X7476857Y-15638667D01*
X7486381Y-15600571D01*
X7495905Y-15581524D01*
X7505428Y-15572000D01*
X7524476Y-15562476D01*
X7676857Y-15743428D02*
X7686381Y-15752952D01*
X7676857Y-15762476D01*
X7667333Y-15752952D01*
X7676857Y-15743428D01*
X7676857Y-15762476D01*
X7876857Y-15762476D02*
X7762571Y-15762476D01*
X7819714Y-15762476D02*
X7819714Y-15562476D01*
X7800667Y-15591048D01*
X7781619Y-15610095D01*
X7762571Y-15619619D01*
X8000667Y-15562476D02*
X8019714Y-15562476D01*
X8038762Y-15572000D01*
X8048286Y-15581524D01*
X8057809Y-15600571D01*
X8067333Y-15638667D01*
X8067333Y-15686286D01*
X8057809Y-15724381D01*
X8048286Y-15743428D01*
X8038762Y-15752952D01*
X8019714Y-15762476D01*
X8000667Y-15762476D01*
X7981619Y-15752952D01*
X7972095Y-15743428D01*
X7962571Y-15724381D01*
X7953048Y-15686286D01*
X7953048Y-15638667D01*
X7962571Y-15600571D01*
X7972095Y-15581524D01*
X7981619Y-15572000D01*
X8000667Y-15562476D01*
X8238762Y-15562476D02*
X8200667Y-15562476D01*
X8181619Y-15572000D01*
X8172095Y-15581524D01*
X8153048Y-15610095D01*
X8143524Y-15648190D01*
X8143524Y-15724381D01*
X8153048Y-15743428D01*
X8162571Y-15752952D01*
X8181619Y-15762476D01*
X8219714Y-15762476D01*
X8238762Y-15752952D01*
X8248286Y-15743428D01*
X8257809Y-15724381D01*
X8257809Y-15676762D01*
X8248286Y-15657714D01*
X8238762Y-15648190D01*
X8219714Y-15638667D01*
X8181619Y-15638667D01*
X8162571Y-15648190D01*
X8153048Y-15657714D01*
X8143524Y-15676762D01*
X8324476Y-15562476D02*
X8448286Y-15562476D01*
X8381619Y-15638667D01*
X8410190Y-15638667D01*
X8429238Y-15648190D01*
X8438762Y-15657714D01*
X8448286Y-15676762D01*
X8448286Y-15724381D01*
X8438762Y-15743428D01*
X8429238Y-15752952D01*
X8410190Y-15762476D01*
X8353048Y-15762476D01*
X8334000Y-15752952D01*
X8324476Y-15743428D01*
X8524476Y-15562476D02*
X8524476Y-15600571D01*
X8600667Y-15562476D02*
X8600667Y-15600571D01*
X8895905Y-15838667D02*
X8886381Y-15829143D01*
X8867333Y-15800571D01*
X8857810Y-15781524D01*
X8848286Y-15752952D01*
X8838762Y-15705333D01*
X8838762Y-15667238D01*
X8848286Y-15619619D01*
X8857810Y-15591048D01*
X8867333Y-15572000D01*
X8886381Y-15543428D01*
X8895905Y-15533905D01*
X9057810Y-15629143D02*
X9057810Y-15762476D01*
X9010190Y-15552952D02*
X8962571Y-15695809D01*
X9086381Y-15695809D01*
X9314952Y-15762476D02*
X9314952Y-15562476D01*
X9400667Y-15762476D02*
X9400667Y-15657714D01*
X9391143Y-15638667D01*
X9372095Y-15629143D01*
X9343524Y-15629143D01*
X9324476Y-15638667D01*
X9314952Y-15648190D01*
X9524476Y-15762476D02*
X9505429Y-15752952D01*
X9495905Y-15743428D01*
X9486381Y-15724381D01*
X9486381Y-15667238D01*
X9495905Y-15648190D01*
X9505429Y-15638667D01*
X9524476Y-15629143D01*
X9553048Y-15629143D01*
X9572095Y-15638667D01*
X9581619Y-15648190D01*
X9591143Y-15667238D01*
X9591143Y-15724381D01*
X9581619Y-15743428D01*
X9572095Y-15752952D01*
X9553048Y-15762476D01*
X9524476Y-15762476D01*
X9705429Y-15762476D02*
X9686381Y-15752952D01*
X9676857Y-15733905D01*
X9676857Y-15562476D01*
X9857810Y-15752952D02*
X9838762Y-15762476D01*
X9800667Y-15762476D01*
X9781619Y-15752952D01*
X9772095Y-15733905D01*
X9772095Y-15657714D01*
X9781619Y-15638667D01*
X9800667Y-15629143D01*
X9838762Y-15629143D01*
X9857810Y-15638667D01*
X9867333Y-15657714D01*
X9867333Y-15676762D01*
X9772095Y-15695809D01*
X9943524Y-15752952D02*
X9962571Y-15762476D01*
X10000667Y-15762476D01*
X10019714Y-15752952D01*
X10029238Y-15733905D01*
X10029238Y-15724381D01*
X10019714Y-15705333D01*
X10000667Y-15695809D01*
X9972095Y-15695809D01*
X9953048Y-15686286D01*
X9943524Y-15667238D01*
X9943524Y-15657714D01*
X9953048Y-15638667D01*
X9972095Y-15629143D01*
X10000667Y-15629143D01*
X10019714Y-15638667D01*
X10095905Y-15838667D02*
X10105429Y-15829143D01*
X10124476Y-15800571D01*
X10134000Y-15781524D01*
X10143524Y-15752952D01*
X10153048Y-15705333D01*
X10153048Y-15667238D01*
X10143524Y-15619619D01*
X10134000Y-15591048D01*
X10124476Y-15572000D01*
X10105429Y-15543428D01*
X10095905Y-15533905D01*
X10457810Y-15838667D02*
X10448286Y-15829143D01*
X10429238Y-15800571D01*
X10419714Y-15781524D01*
X10410190Y-15752952D01*
X10400667Y-15705333D01*
X10400667Y-15667238D01*
X10410190Y-15619619D01*
X10419714Y-15591048D01*
X10429238Y-15572000D01*
X10448286Y-15543428D01*
X10457810Y-15533905D01*
X10534000Y-15629143D02*
X10534000Y-15762476D01*
X10534000Y-15648190D02*
X10543524Y-15638667D01*
X10562571Y-15629143D01*
X10591143Y-15629143D01*
X10610190Y-15638667D01*
X10619714Y-15657714D01*
X10619714Y-15762476D01*
X10743524Y-15762476D02*
X10724476Y-15752952D01*
X10714952Y-15743428D01*
X10705429Y-15724381D01*
X10705429Y-15667238D01*
X10714952Y-15648190D01*
X10724476Y-15638667D01*
X10743524Y-15629143D01*
X10772095Y-15629143D01*
X10791143Y-15638667D01*
X10800667Y-15648190D01*
X10810190Y-15667238D01*
X10810190Y-15724381D01*
X10800667Y-15743428D01*
X10791143Y-15752952D01*
X10772095Y-15762476D01*
X10743524Y-15762476D01*
X10867333Y-15629143D02*
X10943524Y-15629143D01*
X10895905Y-15562476D02*
X10895905Y-15733905D01*
X10905429Y-15752952D01*
X10924476Y-15762476D01*
X10943524Y-15762476D01*
X11162571Y-15629143D02*
X11162571Y-15829143D01*
X11162571Y-15638667D02*
X11181619Y-15629143D01*
X11219714Y-15629143D01*
X11238762Y-15638667D01*
X11248286Y-15648190D01*
X11257809Y-15667238D01*
X11257809Y-15724381D01*
X11248286Y-15743428D01*
X11238762Y-15752952D01*
X11219714Y-15762476D01*
X11181619Y-15762476D01*
X11162571Y-15752952D01*
X11372095Y-15762476D02*
X11353048Y-15752952D01*
X11343524Y-15733905D01*
X11343524Y-15562476D01*
X11534000Y-15762476D02*
X11534000Y-15657714D01*
X11524476Y-15638667D01*
X11505428Y-15629143D01*
X11467333Y-15629143D01*
X11448286Y-15638667D01*
X11534000Y-15752952D02*
X11514952Y-15762476D01*
X11467333Y-15762476D01*
X11448286Y-15752952D01*
X11438762Y-15733905D01*
X11438762Y-15714857D01*
X11448286Y-15695809D01*
X11467333Y-15686286D01*
X11514952Y-15686286D01*
X11534000Y-15676762D01*
X11600667Y-15629143D02*
X11676857Y-15629143D01*
X11629238Y-15562476D02*
X11629238Y-15733905D01*
X11638762Y-15752952D01*
X11657809Y-15762476D01*
X11676857Y-15762476D01*
X11819714Y-15752952D02*
X11800667Y-15762476D01*
X11762571Y-15762476D01*
X11743524Y-15752952D01*
X11734000Y-15733905D01*
X11734000Y-15657714D01*
X11743524Y-15638667D01*
X11762571Y-15629143D01*
X11800667Y-15629143D01*
X11819714Y-15638667D01*
X11829238Y-15657714D01*
X11829238Y-15676762D01*
X11734000Y-15695809D01*
X12000667Y-15762476D02*
X12000667Y-15562476D01*
X12000667Y-15752952D02*
X11981619Y-15762476D01*
X11943524Y-15762476D01*
X11924476Y-15752952D01*
X11914952Y-15743428D01*
X11905428Y-15724381D01*
X11905428Y-15667238D01*
X11914952Y-15648190D01*
X11924476Y-15638667D01*
X11943524Y-15629143D01*
X11981619Y-15629143D01*
X12000667Y-15638667D01*
X12076857Y-15838667D02*
X12086381Y-15829143D01*
X12105428Y-15800571D01*
X12114952Y-15781524D01*
X12124476Y-15752952D01*
X12134000Y-15705333D01*
X12134000Y-15667238D01*
X12124476Y-15619619D01*
X12114952Y-15591048D01*
X12105428Y-15572000D01*
X12086381Y-15543428D01*
X12076857Y-15533905D01*
X5224000Y-15892000D02*
X5224000Y-16092000D01*
X5124000Y-15992000D02*
X5324000Y-15992000D01*
X5562571Y-15882476D02*
X5686381Y-15882476D01*
X5619714Y-15958667D01*
X5648286Y-15958667D01*
X5667333Y-15968190D01*
X5676857Y-15977714D01*
X5686381Y-15996762D01*
X5686381Y-16044381D01*
X5676857Y-16063428D01*
X5667333Y-16072952D01*
X5648286Y-16082476D01*
X5591143Y-16082476D01*
X5572095Y-16072952D01*
X5562571Y-16063428D01*
X5772095Y-16063428D02*
X5781619Y-16072952D01*
X5772095Y-16082476D01*
X5762571Y-16072952D01*
X5772095Y-16063428D01*
X5772095Y-16082476D01*
X5857809Y-15901524D02*
X5867333Y-15892000D01*
X5886381Y-15882476D01*
X5934000Y-15882476D01*
X5953048Y-15892000D01*
X5962571Y-15901524D01*
X5972095Y-15920571D01*
X5972095Y-15939619D01*
X5962571Y-15968190D01*
X5848286Y-16082476D01*
X5972095Y-16082476D01*
X6095905Y-15882476D02*
X6114952Y-15882476D01*
X6134000Y-15892000D01*
X6143524Y-15901524D01*
X6153048Y-15920571D01*
X6162571Y-15958667D01*
X6162571Y-16006286D01*
X6153048Y-16044381D01*
X6143524Y-16063428D01*
X6134000Y-16072952D01*
X6114952Y-16082476D01*
X6095905Y-16082476D01*
X6076857Y-16072952D01*
X6067333Y-16063428D01*
X6057809Y-16044381D01*
X6048286Y-16006286D01*
X6048286Y-15958667D01*
X6057809Y-15920571D01*
X6067333Y-15901524D01*
X6076857Y-15892000D01*
X6095905Y-15882476D01*
X6286381Y-15882476D02*
X6305428Y-15882476D01*
X6324476Y-15892000D01*
X6334000Y-15901524D01*
X6343524Y-15920571D01*
X6353048Y-15958667D01*
X6353048Y-16006286D01*
X6343524Y-16044381D01*
X6334000Y-16063428D01*
X6324476Y-16072952D01*
X6305428Y-16082476D01*
X6286381Y-16082476D01*
X6267333Y-16072952D01*
X6257809Y-16063428D01*
X6248286Y-16044381D01*
X6238762Y-16006286D01*
X6238762Y-15958667D01*
X6248286Y-15920571D01*
X6257809Y-15901524D01*
X6267333Y-15892000D01*
X6286381Y-15882476D01*
X6438762Y-16082476D02*
X6438762Y-15949143D01*
X6438762Y-15968190D02*
X6448286Y-15958667D01*
X6467333Y-15949143D01*
X6495905Y-15949143D01*
X6514952Y-15958667D01*
X6524476Y-15977714D01*
X6524476Y-16082476D01*
X6524476Y-15977714D02*
X6534000Y-15958667D01*
X6553048Y-15949143D01*
X6581619Y-15949143D01*
X6600667Y-15958667D01*
X6610190Y-15977714D01*
X6610190Y-16082476D01*
X6705428Y-16082476D02*
X6705428Y-15949143D01*
X6705428Y-15968190D02*
X6714952Y-15958667D01*
X6734000Y-15949143D01*
X6762571Y-15949143D01*
X6781619Y-15958667D01*
X6791143Y-15977714D01*
X6791143Y-16082476D01*
X6791143Y-15977714D02*
X6800667Y-15958667D01*
X6819714Y-15949143D01*
X6848286Y-15949143D01*
X6867333Y-15958667D01*
X6876857Y-15977714D01*
X6876857Y-16082476D01*
X7267333Y-15872952D02*
X7095905Y-16130095D01*
X7524476Y-15882476D02*
X7543524Y-15882476D01*
X7562571Y-15892000D01*
X7572095Y-15901524D01*
X7581619Y-15920571D01*
X7591143Y-15958667D01*
X7591143Y-16006286D01*
X7581619Y-16044381D01*
X7572095Y-16063428D01*
X7562571Y-16072952D01*
X7543524Y-16082476D01*
X7524476Y-16082476D01*
X7505428Y-16072952D01*
X7495905Y-16063428D01*
X7486381Y-16044381D01*
X7476857Y-16006286D01*
X7476857Y-15958667D01*
X7486381Y-15920571D01*
X7495905Y-15901524D01*
X7505428Y-15892000D01*
X7524476Y-15882476D01*
X7676857Y-16063428D02*
X7686381Y-16072952D01*
X7676857Y-16082476D01*
X7667333Y-16072952D01*
X7676857Y-16063428D01*
X7676857Y-16082476D01*
X7876857Y-16082476D02*
X7762571Y-16082476D01*
X7819714Y-16082476D02*
X7819714Y-15882476D01*
X7800667Y-15911048D01*
X7781619Y-15930095D01*
X7762571Y-15939619D01*
X7953048Y-15901524D02*
X7962571Y-15892000D01*
X7981619Y-15882476D01*
X8029238Y-15882476D01*
X8048286Y-15892000D01*
X8057809Y-15901524D01*
X8067333Y-15920571D01*
X8067333Y-15939619D01*
X8057809Y-15968190D01*
X7943524Y-16082476D01*
X8067333Y-16082476D01*
X8238762Y-15882476D02*
X8200667Y-15882476D01*
X8181619Y-15892000D01*
X8172095Y-15901524D01*
X8153048Y-15930095D01*
X8143524Y-15968190D01*
X8143524Y-16044381D01*
X8153048Y-16063428D01*
X8162571Y-16072952D01*
X8181619Y-16082476D01*
X8219714Y-16082476D01*
X8238762Y-16072952D01*
X8248286Y-16063428D01*
X8257809Y-16044381D01*
X8257809Y-15996762D01*
X8248286Y-15977714D01*
X8238762Y-15968190D01*
X8219714Y-15958667D01*
X8181619Y-15958667D01*
X8162571Y-15968190D01*
X8153048Y-15977714D01*
X8143524Y-15996762D01*
X8381619Y-15882476D02*
X8400667Y-15882476D01*
X8419714Y-15892000D01*
X8429238Y-15901524D01*
X8438762Y-15920571D01*
X8448286Y-15958667D01*
X8448286Y-16006286D01*
X8438762Y-16044381D01*
X8429238Y-16063428D01*
X8419714Y-16072952D01*
X8400667Y-16082476D01*
X8381619Y-16082476D01*
X8362571Y-16072952D01*
X8353048Y-16063428D01*
X8343524Y-16044381D01*
X8334000Y-16006286D01*
X8334000Y-15958667D01*
X8343524Y-15920571D01*
X8353048Y-15901524D01*
X8362571Y-15892000D01*
X8381619Y-15882476D01*
X8524476Y-15882476D02*
X8524476Y-15920571D01*
X8600667Y-15882476D02*
X8600667Y-15920571D01*
X8895905Y-16158667D02*
X8886381Y-16149143D01*
X8867333Y-16120571D01*
X8857810Y-16101524D01*
X8848286Y-16072952D01*
X8838762Y-16025333D01*
X8838762Y-15987238D01*
X8848286Y-15939619D01*
X8857810Y-15911048D01*
X8867333Y-15892000D01*
X8886381Y-15863428D01*
X8895905Y-15853905D01*
X9000667Y-15968190D02*
X8981619Y-15958667D01*
X8972095Y-15949143D01*
X8962571Y-15930095D01*
X8962571Y-15920571D01*
X8972095Y-15901524D01*
X8981619Y-15892000D01*
X9000667Y-15882476D01*
X9038762Y-15882476D01*
X9057810Y-15892000D01*
X9067333Y-15901524D01*
X9076857Y-15920571D01*
X9076857Y-15930095D01*
X9067333Y-15949143D01*
X9057810Y-15958667D01*
X9038762Y-15968190D01*
X9000667Y-15968190D01*
X8981619Y-15977714D01*
X8972095Y-15987238D01*
X8962571Y-16006286D01*
X8962571Y-16044381D01*
X8972095Y-16063428D01*
X8981619Y-16072952D01*
X9000667Y-16082476D01*
X9038762Y-16082476D01*
X9057810Y-16072952D01*
X9067333Y-16063428D01*
X9076857Y-16044381D01*
X9076857Y-16006286D01*
X9067333Y-15987238D01*
X9057810Y-15977714D01*
X9038762Y-15968190D01*
X9314952Y-16082476D02*
X9314952Y-15882476D01*
X9400667Y-16082476D02*
X9400667Y-15977714D01*
X9391143Y-15958667D01*
X9372095Y-15949143D01*
X9343524Y-15949143D01*
X9324476Y-15958667D01*
X9314952Y-15968190D01*
X9524476Y-16082476D02*
X9505429Y-16072952D01*
X9495905Y-16063428D01*
X9486381Y-16044381D01*
X9486381Y-15987238D01*
X9495905Y-15968190D01*
X9505429Y-15958667D01*
X9524476Y-15949143D01*
X9553048Y-15949143D01*
X9572095Y-15958667D01*
X9581619Y-15968190D01*
X9591143Y-15987238D01*
X9591143Y-16044381D01*
X9581619Y-16063428D01*
X9572095Y-16072952D01*
X9553048Y-16082476D01*
X9524476Y-16082476D01*
X9705429Y-16082476D02*
X9686381Y-16072952D01*
X9676857Y-16053905D01*
X9676857Y-15882476D01*
X9857810Y-16072952D02*
X9838762Y-16082476D01*
X9800667Y-16082476D01*
X9781619Y-16072952D01*
X9772095Y-16053905D01*
X9772095Y-15977714D01*
X9781619Y-15958667D01*
X9800667Y-15949143D01*
X9838762Y-15949143D01*
X9857810Y-15958667D01*
X9867333Y-15977714D01*
X9867333Y-15996762D01*
X9772095Y-16015809D01*
X9943524Y-16072952D02*
X9962571Y-16082476D01*
X10000667Y-16082476D01*
X10019714Y-16072952D01*
X10029238Y-16053905D01*
X10029238Y-16044381D01*
X10019714Y-16025333D01*
X10000667Y-16015809D01*
X9972095Y-16015809D01*
X9953048Y-16006286D01*
X9943524Y-15987238D01*
X9943524Y-15977714D01*
X9953048Y-15958667D01*
X9972095Y-15949143D01*
X10000667Y-15949143D01*
X10019714Y-15958667D01*
X10095905Y-16158667D02*
X10105429Y-16149143D01*
X10124476Y-16120571D01*
X10134000Y-16101524D01*
X10143524Y-16072952D01*
X10153048Y-16025333D01*
X10153048Y-15987238D01*
X10143524Y-15939619D01*
X10134000Y-15911048D01*
X10124476Y-15892000D01*
X10105429Y-15863428D01*
X10095905Y-15853905D01*
X10457810Y-16158667D02*
X10448286Y-16149143D01*
X10429238Y-16120571D01*
X10419714Y-16101524D01*
X10410190Y-16072952D01*
X10400667Y-16025333D01*
X10400667Y-15987238D01*
X10410190Y-15939619D01*
X10419714Y-15911048D01*
X10429238Y-15892000D01*
X10448286Y-15863428D01*
X10457810Y-15853905D01*
X10534000Y-15949143D02*
X10534000Y-16082476D01*
X10534000Y-15968190D02*
X10543524Y-15958667D01*
X10562571Y-15949143D01*
X10591143Y-15949143D01*
X10610190Y-15958667D01*
X10619714Y-15977714D01*
X10619714Y-16082476D01*
X10743524Y-16082476D02*
X10724476Y-16072952D01*
X10714952Y-16063428D01*
X10705429Y-16044381D01*
X10705429Y-15987238D01*
X10714952Y-15968190D01*
X10724476Y-15958667D01*
X10743524Y-15949143D01*
X10772095Y-15949143D01*
X10791143Y-15958667D01*
X10800667Y-15968190D01*
X10810190Y-15987238D01*
X10810190Y-16044381D01*
X10800667Y-16063428D01*
X10791143Y-16072952D01*
X10772095Y-16082476D01*
X10743524Y-16082476D01*
X10867333Y-15949143D02*
X10943524Y-15949143D01*
X10895905Y-15882476D02*
X10895905Y-16053905D01*
X10905429Y-16072952D01*
X10924476Y-16082476D01*
X10943524Y-16082476D01*
X11162571Y-15949143D02*
X11162571Y-16149143D01*
X11162571Y-15958667D02*
X11181619Y-15949143D01*
X11219714Y-15949143D01*
X11238762Y-15958667D01*
X11248286Y-15968190D01*
X11257809Y-15987238D01*
X11257809Y-16044381D01*
X11248286Y-16063428D01*
X11238762Y-16072952D01*
X11219714Y-16082476D01*
X11181619Y-16082476D01*
X11162571Y-16072952D01*
X11372095Y-16082476D02*
X11353048Y-16072952D01*
X11343524Y-16053905D01*
X11343524Y-15882476D01*
X11534000Y-16082476D02*
X11534000Y-15977714D01*
X11524476Y-15958667D01*
X11505428Y-15949143D01*
X11467333Y-15949143D01*
X11448286Y-15958667D01*
X11534000Y-16072952D02*
X11514952Y-16082476D01*
X11467333Y-16082476D01*
X11448286Y-16072952D01*
X11438762Y-16053905D01*
X11438762Y-16034857D01*
X11448286Y-16015809D01*
X11467333Y-16006286D01*
X11514952Y-16006286D01*
X11534000Y-15996762D01*
X11600667Y-15949143D02*
X11676857Y-15949143D01*
X11629238Y-15882476D02*
X11629238Y-16053905D01*
X11638762Y-16072952D01*
X11657809Y-16082476D01*
X11676857Y-16082476D01*
X11819714Y-16072952D02*
X11800667Y-16082476D01*
X11762571Y-16082476D01*
X11743524Y-16072952D01*
X11734000Y-16053905D01*
X11734000Y-15977714D01*
X11743524Y-15958667D01*
X11762571Y-15949143D01*
X11800667Y-15949143D01*
X11819714Y-15958667D01*
X11829238Y-15977714D01*
X11829238Y-15996762D01*
X11734000Y-16015809D01*
X12000667Y-16082476D02*
X12000667Y-15882476D01*
X12000667Y-16072952D02*
X11981619Y-16082476D01*
X11943524Y-16082476D01*
X11924476Y-16072952D01*
X11914952Y-16063428D01*
X11905428Y-16044381D01*
X11905428Y-15987238D01*
X11914952Y-15968190D01*
X11924476Y-15958667D01*
X11943524Y-15949143D01*
X11981619Y-15949143D01*
X12000667Y-15958667D01*
X12076857Y-16158667D02*
X12086381Y-16149143D01*
X12105428Y-16120571D01*
X12114952Y-16101524D01*
X12124476Y-16072952D01*
X12134000Y-16025333D01*
X12134000Y-15987238D01*
X12124476Y-15939619D01*
X12114952Y-15911048D01*
X12105428Y-15892000D01*
X12086381Y-15863428D01*
X12076857Y-15853905D01*
X5294711Y-16382711D02*
X5294711Y-16241289D01*
X5153289Y-16241289D01*
X5153289Y-16382711D01*
X5294711Y-16382711D01*
X5667333Y-16269143D02*
X5667333Y-16402476D01*
X5619714Y-16192952D02*
X5572095Y-16335809D01*
X5695905Y-16335809D01*
X5772095Y-16383428D02*
X5781619Y-16392952D01*
X5772095Y-16402476D01*
X5762571Y-16392952D01*
X5772095Y-16383428D01*
X5772095Y-16402476D01*
X5905428Y-16202476D02*
X5924476Y-16202476D01*
X5943524Y-16212000D01*
X5953048Y-16221524D01*
X5962571Y-16240571D01*
X5972095Y-16278667D01*
X5972095Y-16326286D01*
X5962571Y-16364381D01*
X5953048Y-16383428D01*
X5943524Y-16392952D01*
X5924476Y-16402476D01*
X5905428Y-16402476D01*
X5886381Y-16392952D01*
X5876857Y-16383428D01*
X5867333Y-16364381D01*
X5857809Y-16326286D01*
X5857809Y-16278667D01*
X5867333Y-16240571D01*
X5876857Y-16221524D01*
X5886381Y-16212000D01*
X5905428Y-16202476D01*
X6095905Y-16202476D02*
X6114952Y-16202476D01*
X6134000Y-16212000D01*
X6143524Y-16221524D01*
X6153048Y-16240571D01*
X6162571Y-16278667D01*
X6162571Y-16326286D01*
X6153048Y-16364381D01*
X6143524Y-16383428D01*
X6134000Y-16392952D01*
X6114952Y-16402476D01*
X6095905Y-16402476D01*
X6076857Y-16392952D01*
X6067333Y-16383428D01*
X6057809Y-16364381D01*
X6048286Y-16326286D01*
X6048286Y-16278667D01*
X6057809Y-16240571D01*
X6067333Y-16221524D01*
X6076857Y-16212000D01*
X6095905Y-16202476D01*
X6286381Y-16202476D02*
X6305428Y-16202476D01*
X6324476Y-16212000D01*
X6334000Y-16221524D01*
X6343524Y-16240571D01*
X6353048Y-16278667D01*
X6353048Y-16326286D01*
X6343524Y-16364381D01*
X6334000Y-16383428D01*
X6324476Y-16392952D01*
X6305428Y-16402476D01*
X6286381Y-16402476D01*
X6267333Y-16392952D01*
X6257809Y-16383428D01*
X6248286Y-16364381D01*
X6238762Y-16326286D01*
X6238762Y-16278667D01*
X6248286Y-16240571D01*
X6257809Y-16221524D01*
X6267333Y-16212000D01*
X6286381Y-16202476D01*
X6438762Y-16402476D02*
X6438762Y-16269143D01*
X6438762Y-16288190D02*
X6448286Y-16278667D01*
X6467333Y-16269143D01*
X6495905Y-16269143D01*
X6514952Y-16278667D01*
X6524476Y-16297714D01*
X6524476Y-16402476D01*
X6524476Y-16297714D02*
X6534000Y-16278667D01*
X6553048Y-16269143D01*
X6581619Y-16269143D01*
X6600667Y-16278667D01*
X6610190Y-16297714D01*
X6610190Y-16402476D01*
X6705428Y-16402476D02*
X6705428Y-16269143D01*
X6705428Y-16288190D02*
X6714952Y-16278667D01*
X6734000Y-16269143D01*
X6762571Y-16269143D01*
X6781619Y-16278667D01*
X6791143Y-16297714D01*
X6791143Y-16402476D01*
X6791143Y-16297714D02*
X6800667Y-16278667D01*
X6819714Y-16269143D01*
X6848286Y-16269143D01*
X6867333Y-16278667D01*
X6876857Y-16297714D01*
X6876857Y-16402476D01*
X7267333Y-16192952D02*
X7095905Y-16450095D01*
X7524476Y-16202476D02*
X7543524Y-16202476D01*
X7562571Y-16212000D01*
X7572095Y-16221524D01*
X7581619Y-16240571D01*
X7591143Y-16278667D01*
X7591143Y-16326286D01*
X7581619Y-16364381D01*
X7572095Y-16383428D01*
X7562571Y-16392952D01*
X7543524Y-16402476D01*
X7524476Y-16402476D01*
X7505428Y-16392952D01*
X7495905Y-16383428D01*
X7486381Y-16364381D01*
X7476857Y-16326286D01*
X7476857Y-16278667D01*
X7486381Y-16240571D01*
X7495905Y-16221524D01*
X7505428Y-16212000D01*
X7524476Y-16202476D01*
X7676857Y-16383428D02*
X7686381Y-16392952D01*
X7676857Y-16402476D01*
X7667333Y-16392952D01*
X7676857Y-16383428D01*
X7676857Y-16402476D01*
X7876857Y-16402476D02*
X7762571Y-16402476D01*
X7819714Y-16402476D02*
X7819714Y-16202476D01*
X7800667Y-16231048D01*
X7781619Y-16250095D01*
X7762571Y-16259619D01*
X8057809Y-16202476D02*
X7962571Y-16202476D01*
X7953048Y-16297714D01*
X7962571Y-16288190D01*
X7981619Y-16278667D01*
X8029238Y-16278667D01*
X8048286Y-16288190D01*
X8057809Y-16297714D01*
X8067333Y-16316762D01*
X8067333Y-16364381D01*
X8057809Y-16383428D01*
X8048286Y-16392952D01*
X8029238Y-16402476D01*
X7981619Y-16402476D01*
X7962571Y-16392952D01*
X7953048Y-16383428D01*
X8134000Y-16202476D02*
X8267333Y-16202476D01*
X8181619Y-16402476D01*
X8438762Y-16202476D02*
X8343524Y-16202476D01*
X8334000Y-16297714D01*
X8343524Y-16288190D01*
X8362571Y-16278667D01*
X8410190Y-16278667D01*
X8429238Y-16288190D01*
X8438762Y-16297714D01*
X8448286Y-16316762D01*
X8448286Y-16364381D01*
X8438762Y-16383428D01*
X8429238Y-16392952D01*
X8410190Y-16402476D01*
X8362571Y-16402476D01*
X8343524Y-16392952D01*
X8334000Y-16383428D01*
X8524476Y-16202476D02*
X8524476Y-16240571D01*
X8600667Y-16202476D02*
X8600667Y-16240571D01*
X8895905Y-16478667D02*
X8886381Y-16469143D01*
X8867333Y-16440571D01*
X8857810Y-16421524D01*
X8848286Y-16392952D01*
X8838762Y-16345333D01*
X8838762Y-16307238D01*
X8848286Y-16259619D01*
X8857810Y-16231048D01*
X8867333Y-16212000D01*
X8886381Y-16183428D01*
X8895905Y-16173905D01*
X9076857Y-16402476D02*
X8962571Y-16402476D01*
X9019714Y-16402476D02*
X9019714Y-16202476D01*
X9000667Y-16231048D01*
X8981619Y-16250095D01*
X8962571Y-16259619D01*
X9257810Y-16202476D02*
X9162571Y-16202476D01*
X9153048Y-16297714D01*
X9162571Y-16288190D01*
X9181619Y-16278667D01*
X9229238Y-16278667D01*
X9248286Y-16288190D01*
X9257810Y-16297714D01*
X9267333Y-16316762D01*
X9267333Y-16364381D01*
X9257810Y-16383428D01*
X9248286Y-16392952D01*
X9229238Y-16402476D01*
X9181619Y-16402476D01*
X9162571Y-16392952D01*
X9153048Y-16383428D01*
X9505429Y-16402476D02*
X9505429Y-16202476D01*
X9591143Y-16402476D02*
X9591143Y-16297714D01*
X9581619Y-16278667D01*
X9562571Y-16269143D01*
X9534000Y-16269143D01*
X9514952Y-16278667D01*
X9505429Y-16288190D01*
X9714952Y-16402476D02*
X9695905Y-16392952D01*
X9686381Y-16383428D01*
X9676857Y-16364381D01*
X9676857Y-16307238D01*
X9686381Y-16288190D01*
X9695905Y-16278667D01*
X9714952Y-16269143D01*
X9743524Y-16269143D01*
X9762571Y-16278667D01*
X9772095Y-16288190D01*
X9781619Y-16307238D01*
X9781619Y-16364381D01*
X9772095Y-16383428D01*
X9762571Y-16392952D01*
X9743524Y-16402476D01*
X9714952Y-16402476D01*
X9895905Y-16402476D02*
X9876857Y-16392952D01*
X9867333Y-16373905D01*
X9867333Y-16202476D01*
X10048286Y-16392952D02*
X10029238Y-16402476D01*
X9991143Y-16402476D01*
X9972095Y-16392952D01*
X9962571Y-16373905D01*
X9962571Y-16297714D01*
X9972095Y-16278667D01*
X9991143Y-16269143D01*
X10029238Y-16269143D01*
X10048286Y-16278667D01*
X10057810Y-16297714D01*
X10057810Y-16316762D01*
X9962571Y-16335809D01*
X10134000Y-16392952D02*
X10153048Y-16402476D01*
X10191143Y-16402476D01*
X10210190Y-16392952D01*
X10219714Y-16373905D01*
X10219714Y-16364381D01*
X10210190Y-16345333D01*
X10191143Y-16335809D01*
X10162571Y-16335809D01*
X10143524Y-16326286D01*
X10134000Y-16307238D01*
X10134000Y-16297714D01*
X10143524Y-16278667D01*
X10162571Y-16269143D01*
X10191143Y-16269143D01*
X10210190Y-16278667D01*
X10286381Y-16478667D02*
X10295905Y-16469143D01*
X10314952Y-16440571D01*
X10324476Y-16421524D01*
X10334000Y-16392952D01*
X10343524Y-16345333D01*
X10343524Y-16307238D01*
X10334000Y-16259619D01*
X10324476Y-16231048D01*
X10314952Y-16212000D01*
X10295905Y-16183428D01*
X10286381Y-16173905D01*
X10648286Y-16478667D02*
X10638762Y-16469143D01*
X10619714Y-16440571D01*
X10610190Y-16421524D01*
X10600667Y-16392952D01*
X10591143Y-16345333D01*
X10591143Y-16307238D01*
X10600667Y-16259619D01*
X10610190Y-16231048D01*
X10619714Y-16212000D01*
X10638762Y-16183428D01*
X10648286Y-16173905D01*
X10724476Y-16269143D02*
X10724476Y-16402476D01*
X10724476Y-16288190D02*
X10734000Y-16278667D01*
X10753048Y-16269143D01*
X10781619Y-16269143D01*
X10800667Y-16278667D01*
X10810190Y-16297714D01*
X10810190Y-16402476D01*
X10934000Y-16402476D02*
X10914952Y-16392952D01*
X10905429Y-16383428D01*
X10895905Y-16364381D01*
X10895905Y-16307238D01*
X10905429Y-16288190D01*
X10914952Y-16278667D01*
X10934000Y-16269143D01*
X10962571Y-16269143D01*
X10981619Y-16278667D01*
X10991143Y-16288190D01*
X11000667Y-16307238D01*
X11000667Y-16364381D01*
X10991143Y-16383428D01*
X10981619Y-16392952D01*
X10962571Y-16402476D01*
X10934000Y-16402476D01*
X11057810Y-16269143D02*
X11134000Y-16269143D01*
X11086381Y-16202476D02*
X11086381Y-16373905D01*
X11095905Y-16392952D01*
X11114952Y-16402476D01*
X11134000Y-16402476D01*
X11353048Y-16269143D02*
X11353048Y-16469143D01*
X11353048Y-16278667D02*
X11372095Y-16269143D01*
X11410190Y-16269143D01*
X11429238Y-16278667D01*
X11438762Y-16288190D01*
X11448286Y-16307238D01*
X11448286Y-16364381D01*
X11438762Y-16383428D01*
X11429238Y-16392952D01*
X11410190Y-16402476D01*
X11372095Y-16402476D01*
X11353048Y-16392952D01*
X11562571Y-16402476D02*
X11543524Y-16392952D01*
X11534000Y-16373905D01*
X11534000Y-16202476D01*
X11724476Y-16402476D02*
X11724476Y-16297714D01*
X11714952Y-16278667D01*
X11695905Y-16269143D01*
X11657809Y-16269143D01*
X11638762Y-16278667D01*
X11724476Y-16392952D02*
X11705428Y-16402476D01*
X11657809Y-16402476D01*
X11638762Y-16392952D01*
X11629238Y-16373905D01*
X11629238Y-16354857D01*
X11638762Y-16335809D01*
X11657809Y-16326286D01*
X11705428Y-16326286D01*
X11724476Y-16316762D01*
X11791143Y-16269143D02*
X11867333Y-16269143D01*
X11819714Y-16202476D02*
X11819714Y-16373905D01*
X11829238Y-16392952D01*
X11848286Y-16402476D01*
X11867333Y-16402476D01*
X12010190Y-16392952D02*
X11991143Y-16402476D01*
X11953048Y-16402476D01*
X11934000Y-16392952D01*
X11924476Y-16373905D01*
X11924476Y-16297714D01*
X11934000Y-16278667D01*
X11953048Y-16269143D01*
X11991143Y-16269143D01*
X12010190Y-16278667D01*
X12019714Y-16297714D01*
X12019714Y-16316762D01*
X11924476Y-16335809D01*
X12191143Y-16402476D02*
X12191143Y-16202476D01*
X12191143Y-16392952D02*
X12172095Y-16402476D01*
X12134000Y-16402476D01*
X12114952Y-16392952D01*
X12105428Y-16383428D01*
X12095905Y-16364381D01*
X12095905Y-16307238D01*
X12105428Y-16288190D01*
X12114952Y-16278667D01*
X12134000Y-16269143D01*
X12172095Y-16269143D01*
X12191143Y-16278667D01*
X12267333Y-16478667D02*
X12276857Y-16469143D01*
X12295905Y-16440571D01*
X12305428Y-16421524D01*
X12314952Y-16392952D01*
X12324476Y-16345333D01*
X12324476Y-16307238D01*
X12314952Y-16259619D01*
X12305428Y-16231048D01*
X12295905Y-16212000D01*
X12276857Y-16183428D01*
X12267333Y-16173905D01*
M02*
