%TF.GenerationSoftware,KiCad,Pcbnew,(6.0.9)*%
%TF.CreationDate,2022-12-25T13:57:41+01:00*%
%TF.ProjectId,FireKey,46697265-4b65-4792-9e6b-696361645f70,1.0.0*%
%TF.SameCoordinates,Original*%
%TF.FileFunction,Legend,Bot*%
%TF.FilePolarity,Positive*%
%FSLAX46Y46*%
G04 Gerber Fmt 4.6, Leading zero omitted, Abs format (unit mm)*
G04 Created by KiCad (PCBNEW (6.0.9)) date 2022-12-25 13:57:41*
%MOMM*%
%LPD*%
G01*
G04 APERTURE LIST*
G04 Aperture macros list*
%AMRoundRect*
0 Rectangle with rounded corners*
0 $1 Rounding radius*
0 $2 $3 $4 $5 $6 $7 $8 $9 X,Y pos of 4 corners*
0 Add a 4 corners polygon primitive as box body*
4,1,4,$2,$3,$4,$5,$6,$7,$8,$9,$2,$3,0*
0 Add four circle primitives for the rounded corners*
1,1,$1+$1,$2,$3*
1,1,$1+$1,$4,$5*
1,1,$1+$1,$6,$7*
1,1,$1+$1,$8,$9*
0 Add four rect primitives between the rounded corners*
20,1,$1+$1,$2,$3,$4,$5,0*
20,1,$1+$1,$4,$5,$6,$7,0*
20,1,$1+$1,$6,$7,$8,$9,0*
20,1,$1+$1,$8,$9,$2,$3,0*%
G04 Aperture macros list end*
%ADD10C,0.160000*%
%ADD11C,0.200000*%
%ADD12C,0.300000*%
%ADD13C,0.400000*%
%ADD14C,0.150000*%
%ADD15C,0.120000*%
%ADD16C,2.700000*%
%ADD17C,1.778000*%
%ADD18C,4.000000*%
%ADD19C,1.700000*%
%ADD20C,2.200000*%
%ADD21RoundRect,0.237500X0.300000X0.237500X-0.300000X0.237500X-0.300000X-0.237500X0.300000X-0.237500X0*%
%ADD22RoundRect,0.237500X-0.300000X-0.237500X0.300000X-0.237500X0.300000X0.237500X-0.300000X0.237500X0*%
%ADD23R,1.200000X0.900000*%
%ADD24R,1.500000X0.820000*%
%ADD25RoundRect,0.237500X0.250000X0.237500X-0.250000X0.237500X-0.250000X-0.237500X0.250000X-0.237500X0*%
%ADD26C,2.500000*%
G04 APERTURE END LIST*
D10*
X212758000Y-43483571D02*
X212650857Y-43519285D01*
X212472285Y-43519285D01*
X212400857Y-43483571D01*
X212365142Y-43447857D01*
X212329428Y-43376428D01*
X212329428Y-43305000D01*
X212365142Y-43233571D01*
X212400857Y-43197857D01*
X212472285Y-43162142D01*
X212615142Y-43126428D01*
X212686571Y-43090714D01*
X212722285Y-43055000D01*
X212758000Y-42983571D01*
X212758000Y-42912142D01*
X212722285Y-42840714D01*
X212686571Y-42805000D01*
X212615142Y-42769285D01*
X212436571Y-42769285D01*
X212329428Y-42805000D01*
X212008000Y-43519285D02*
X212008000Y-42769285D01*
X211829428Y-42769285D01*
X211722285Y-42805000D01*
X211650857Y-42876428D01*
X211615142Y-42947857D01*
X211579428Y-43090714D01*
X211579428Y-43197857D01*
X211615142Y-43340714D01*
X211650857Y-43412142D01*
X211722285Y-43483571D01*
X211829428Y-43519285D01*
X212008000Y-43519285D01*
X211293714Y-43305000D02*
X210936571Y-43305000D01*
X211365142Y-43519285D02*
X211115142Y-42769285D01*
X210865142Y-43519285D01*
X210079428Y-43483571D02*
X209972285Y-43519285D01*
X209793714Y-43519285D01*
X209722285Y-43483571D01*
X209686571Y-43447857D01*
X209650857Y-43376428D01*
X209650857Y-43305000D01*
X209686571Y-43233571D01*
X209722285Y-43197857D01*
X209793714Y-43162142D01*
X209936571Y-43126428D01*
X210008000Y-43090714D01*
X210043714Y-43055000D01*
X210079428Y-42983571D01*
X210079428Y-42912142D01*
X210043714Y-42840714D01*
X210008000Y-42805000D01*
X209936571Y-42769285D01*
X209758000Y-42769285D01*
X209650857Y-42805000D01*
X208900857Y-43447857D02*
X208936571Y-43483571D01*
X209043714Y-43519285D01*
X209115142Y-43519285D01*
X209222285Y-43483571D01*
X209293714Y-43412142D01*
X209329428Y-43340714D01*
X209365142Y-43197857D01*
X209365142Y-43090714D01*
X209329428Y-42947857D01*
X209293714Y-42876428D01*
X209222285Y-42805000D01*
X209115142Y-42769285D01*
X209043714Y-42769285D01*
X208936571Y-42805000D01*
X208900857Y-42840714D01*
X208222285Y-43519285D02*
X208579428Y-43519285D01*
X208579428Y-42769285D01*
X207008000Y-42805000D02*
X207079428Y-42769285D01*
X207186571Y-42769285D01*
X207293714Y-42805000D01*
X207365142Y-42876428D01*
X207400857Y-42947857D01*
X207436571Y-43090714D01*
X207436571Y-43197857D01*
X207400857Y-43340714D01*
X207365142Y-43412142D01*
X207293714Y-43483571D01*
X207186571Y-43519285D01*
X207115142Y-43519285D01*
X207008000Y-43483571D01*
X206972285Y-43447857D01*
X206972285Y-43197857D01*
X207115142Y-43197857D01*
X206650857Y-43519285D02*
X206650857Y-42769285D01*
X206222285Y-43519285D01*
X206222285Y-42769285D01*
X205865142Y-43519285D02*
X205865142Y-42769285D01*
X205686571Y-42769285D01*
X205579428Y-42805000D01*
X205508000Y-42876428D01*
X205472285Y-42947857D01*
X205436571Y-43090714D01*
X205436571Y-43197857D01*
X205472285Y-43340714D01*
X205508000Y-43412142D01*
X205579428Y-43483571D01*
X205686571Y-43519285D01*
X205865142Y-43519285D01*
X204650857Y-42769285D02*
X204400857Y-43519285D01*
X204150857Y-42769285D01*
X203472285Y-43447857D02*
X203508000Y-43483571D01*
X203615142Y-43519285D01*
X203686571Y-43519285D01*
X203793714Y-43483571D01*
X203865142Y-43412142D01*
X203900857Y-43340714D01*
X203936571Y-43197857D01*
X203936571Y-43090714D01*
X203900857Y-42947857D01*
X203865142Y-42876428D01*
X203793714Y-42805000D01*
X203686571Y-42769285D01*
X203615142Y-42769285D01*
X203508000Y-42805000D01*
X203472285Y-42840714D01*
X202722285Y-43447857D02*
X202758000Y-43483571D01*
X202865142Y-43519285D01*
X202936571Y-43519285D01*
X203043714Y-43483571D01*
X203115142Y-43412142D01*
X203150857Y-43340714D01*
X203186571Y-43197857D01*
X203186571Y-43090714D01*
X203150857Y-42947857D01*
X203115142Y-42876428D01*
X203043714Y-42805000D01*
X202936571Y-42769285D01*
X202865142Y-42769285D01*
X202758000Y-42805000D01*
X202722285Y-42840714D01*
D11*
X164909333Y-50760380D02*
X164576000Y-51760380D01*
X164242666Y-50760380D01*
X163337904Y-51665142D02*
X163385523Y-51712761D01*
X163528380Y-51760380D01*
X163623619Y-51760380D01*
X163766476Y-51712761D01*
X163861714Y-51617523D01*
X163909333Y-51522285D01*
X163956952Y-51331809D01*
X163956952Y-51188952D01*
X163909333Y-50998476D01*
X163861714Y-50903238D01*
X163766476Y-50808000D01*
X163623619Y-50760380D01*
X163528380Y-50760380D01*
X163385523Y-50808000D01*
X163337904Y-50855619D01*
X162337904Y-51665142D02*
X162385523Y-51712761D01*
X162528380Y-51760380D01*
X162623619Y-51760380D01*
X162766476Y-51712761D01*
X162861714Y-51617523D01*
X162909333Y-51522285D01*
X162956952Y-51331809D01*
X162956952Y-51188952D01*
X162909333Y-50998476D01*
X162861714Y-50903238D01*
X162766476Y-50808000D01*
X162623619Y-50760380D01*
X162528380Y-50760380D01*
X162385523Y-50808000D01*
X162337904Y-50855619D01*
D10*
X175928000Y-43483571D02*
X175820857Y-43519285D01*
X175642285Y-43519285D01*
X175570857Y-43483571D01*
X175535142Y-43447857D01*
X175499428Y-43376428D01*
X175499428Y-43305000D01*
X175535142Y-43233571D01*
X175570857Y-43197857D01*
X175642285Y-43162142D01*
X175785142Y-43126428D01*
X175856571Y-43090714D01*
X175892285Y-43055000D01*
X175928000Y-42983571D01*
X175928000Y-42912142D01*
X175892285Y-42840714D01*
X175856571Y-42805000D01*
X175785142Y-42769285D01*
X175606571Y-42769285D01*
X175499428Y-42805000D01*
X175178000Y-43519285D02*
X175178000Y-42769285D01*
X174999428Y-42769285D01*
X174892285Y-42805000D01*
X174820857Y-42876428D01*
X174785142Y-42947857D01*
X174749428Y-43090714D01*
X174749428Y-43197857D01*
X174785142Y-43340714D01*
X174820857Y-43412142D01*
X174892285Y-43483571D01*
X174999428Y-43519285D01*
X175178000Y-43519285D01*
X174463714Y-43305000D02*
X174106571Y-43305000D01*
X174535142Y-43519285D02*
X174285142Y-42769285D01*
X174035142Y-43519285D01*
X173249428Y-43483571D02*
X173142285Y-43519285D01*
X172963714Y-43519285D01*
X172892285Y-43483571D01*
X172856571Y-43447857D01*
X172820857Y-43376428D01*
X172820857Y-43305000D01*
X172856571Y-43233571D01*
X172892285Y-43197857D01*
X172963714Y-43162142D01*
X173106571Y-43126428D01*
X173178000Y-43090714D01*
X173213714Y-43055000D01*
X173249428Y-42983571D01*
X173249428Y-42912142D01*
X173213714Y-42840714D01*
X173178000Y-42805000D01*
X173106571Y-42769285D01*
X172928000Y-42769285D01*
X172820857Y-42805000D01*
X172070857Y-43447857D02*
X172106571Y-43483571D01*
X172213714Y-43519285D01*
X172285142Y-43519285D01*
X172392285Y-43483571D01*
X172463714Y-43412142D01*
X172499428Y-43340714D01*
X172535142Y-43197857D01*
X172535142Y-43090714D01*
X172499428Y-42947857D01*
X172463714Y-42876428D01*
X172392285Y-42805000D01*
X172285142Y-42769285D01*
X172213714Y-42769285D01*
X172106571Y-42805000D01*
X172070857Y-42840714D01*
X171392285Y-43519285D02*
X171749428Y-43519285D01*
X171749428Y-42769285D01*
X170178000Y-42805000D02*
X170249428Y-42769285D01*
X170356571Y-42769285D01*
X170463714Y-42805000D01*
X170535142Y-42876428D01*
X170570857Y-42947857D01*
X170606571Y-43090714D01*
X170606571Y-43197857D01*
X170570857Y-43340714D01*
X170535142Y-43412142D01*
X170463714Y-43483571D01*
X170356571Y-43519285D01*
X170285142Y-43519285D01*
X170178000Y-43483571D01*
X170142285Y-43447857D01*
X170142285Y-43197857D01*
X170285142Y-43197857D01*
X169820857Y-43519285D02*
X169820857Y-42769285D01*
X169392285Y-43519285D01*
X169392285Y-42769285D01*
X169035142Y-43519285D02*
X169035142Y-42769285D01*
X168856571Y-42769285D01*
X168749428Y-42805000D01*
X168678000Y-42876428D01*
X168642285Y-42947857D01*
X168606571Y-43090714D01*
X168606571Y-43197857D01*
X168642285Y-43340714D01*
X168678000Y-43412142D01*
X168749428Y-43483571D01*
X168856571Y-43519285D01*
X169035142Y-43519285D01*
X167820857Y-42769285D02*
X167570857Y-43519285D01*
X167320857Y-42769285D01*
X166642285Y-43447857D02*
X166678000Y-43483571D01*
X166785142Y-43519285D01*
X166856571Y-43519285D01*
X166963714Y-43483571D01*
X167035142Y-43412142D01*
X167070857Y-43340714D01*
X167106571Y-43197857D01*
X167106571Y-43090714D01*
X167070857Y-42947857D01*
X167035142Y-42876428D01*
X166963714Y-42805000D01*
X166856571Y-42769285D01*
X166785142Y-42769285D01*
X166678000Y-42805000D01*
X166642285Y-42840714D01*
X165892285Y-43447857D02*
X165928000Y-43483571D01*
X166035142Y-43519285D01*
X166106571Y-43519285D01*
X166213714Y-43483571D01*
X166285142Y-43412142D01*
X166320857Y-43340714D01*
X166356571Y-43197857D01*
X166356571Y-43090714D01*
X166320857Y-42947857D01*
X166285142Y-42876428D01*
X166213714Y-42805000D01*
X166106571Y-42769285D01*
X166035142Y-42769285D01*
X165928000Y-42805000D01*
X165892285Y-42840714D01*
D11*
X170433904Y-50808000D02*
X170529142Y-50760380D01*
X170672000Y-50760380D01*
X170814857Y-50808000D01*
X170910095Y-50903238D01*
X170957714Y-50998476D01*
X171005333Y-51188952D01*
X171005333Y-51331809D01*
X170957714Y-51522285D01*
X170910095Y-51617523D01*
X170814857Y-51712761D01*
X170672000Y-51760380D01*
X170576761Y-51760380D01*
X170433904Y-51712761D01*
X170386285Y-51665142D01*
X170386285Y-51331809D01*
X170576761Y-51331809D01*
X169957714Y-51760380D02*
X169957714Y-50760380D01*
X169386285Y-51760380D01*
X169386285Y-50760380D01*
X168910095Y-51760380D02*
X168910095Y-50760380D01*
X168672000Y-50760380D01*
X168529142Y-50808000D01*
X168433904Y-50903238D01*
X168386285Y-50998476D01*
X168338666Y-51188952D01*
X168338666Y-51331809D01*
X168386285Y-51522285D01*
X168433904Y-51617523D01*
X168529142Y-51712761D01*
X168672000Y-51760380D01*
X168910095Y-51760380D01*
D12*
X218219761Y-68498428D02*
X218295952Y-68574619D01*
X218524523Y-68650809D01*
X218676904Y-68650809D01*
X218905476Y-68574619D01*
X219057857Y-68422238D01*
X219134047Y-68269857D01*
X219210238Y-67965095D01*
X219210238Y-67736523D01*
X219134047Y-67431761D01*
X219057857Y-67279380D01*
X218905476Y-67127000D01*
X218676904Y-67050809D01*
X218524523Y-67050809D01*
X218295952Y-67127000D01*
X218219761Y-67203190D01*
X217686428Y-67584142D02*
X216848333Y-67584142D01*
X217686428Y-68650809D01*
X216848333Y-68650809D01*
X215629285Y-68574619D02*
X215781666Y-68650809D01*
X216086428Y-68650809D01*
X216238809Y-68574619D01*
X216315000Y-68422238D01*
X216315000Y-67812714D01*
X216238809Y-67660333D01*
X216086428Y-67584142D01*
X215781666Y-67584142D01*
X215629285Y-67660333D01*
X215553095Y-67812714D01*
X215553095Y-67965095D01*
X216315000Y-68117476D01*
X214943571Y-68574619D02*
X214791190Y-68650809D01*
X214486428Y-68650809D01*
X214334047Y-68574619D01*
X214257857Y-68422238D01*
X214257857Y-68346047D01*
X214334047Y-68193666D01*
X214486428Y-68117476D01*
X214715000Y-68117476D01*
X214867380Y-68041285D01*
X214943571Y-67888904D01*
X214943571Y-67812714D01*
X214867380Y-67660333D01*
X214715000Y-67584142D01*
X214486428Y-67584142D01*
X214334047Y-67660333D01*
X212886428Y-68574619D02*
X213038809Y-68650809D01*
X213343571Y-68650809D01*
X213495952Y-68574619D01*
X213572142Y-68498428D01*
X213648333Y-68346047D01*
X213648333Y-67888904D01*
X213572142Y-67736523D01*
X213495952Y-67660333D01*
X213343571Y-67584142D01*
X213038809Y-67584142D01*
X212886428Y-67660333D01*
X212200714Y-68650809D02*
X212200714Y-67050809D01*
X211515000Y-68650809D02*
X211515000Y-67812714D01*
X211591190Y-67660333D01*
X211743571Y-67584142D01*
X211972142Y-67584142D01*
X212124523Y-67660333D01*
X212200714Y-67736523D01*
X210753095Y-67584142D02*
X210753095Y-68650809D01*
X210753095Y-67736523D02*
X210676904Y-67660333D01*
X210524523Y-67584142D01*
X210295952Y-67584142D01*
X210143571Y-67660333D01*
X210067380Y-67812714D01*
X210067380Y-68650809D01*
X208695952Y-68574619D02*
X208848333Y-68650809D01*
X209153095Y-68650809D01*
X209305476Y-68574619D01*
X209381666Y-68422238D01*
X209381666Y-67812714D01*
X209305476Y-67660333D01*
X209153095Y-67584142D01*
X208848333Y-67584142D01*
X208695952Y-67660333D01*
X208619761Y-67812714D01*
X208619761Y-67965095D01*
X209381666Y-68117476D01*
X207934047Y-68650809D02*
X207934047Y-67584142D01*
X207934047Y-67888904D02*
X207857857Y-67736523D01*
X207781666Y-67660333D01*
X207629285Y-67584142D01*
X207476904Y-67584142D01*
X219286428Y-69626809D02*
X218905476Y-71226809D01*
X218600714Y-70083952D01*
X218295952Y-71226809D01*
X217915000Y-69626809D01*
X217076904Y-71226809D02*
X217229285Y-71150619D01*
X217305476Y-71074428D01*
X217381666Y-70922047D01*
X217381666Y-70464904D01*
X217305476Y-70312523D01*
X217229285Y-70236333D01*
X217076904Y-70160142D01*
X216848333Y-70160142D01*
X216695952Y-70236333D01*
X216619761Y-70312523D01*
X216543571Y-70464904D01*
X216543571Y-70922047D01*
X216619761Y-71074428D01*
X216695952Y-71150619D01*
X216848333Y-71226809D01*
X217076904Y-71226809D01*
X215629285Y-71226809D02*
X215781666Y-71150619D01*
X215857857Y-70998238D01*
X215857857Y-69626809D01*
X215248333Y-70160142D02*
X214638809Y-70160142D01*
X215019761Y-69626809D02*
X215019761Y-70998238D01*
X214943571Y-71150619D01*
X214791190Y-71226809D01*
X214638809Y-71226809D01*
X213495952Y-71150619D02*
X213648333Y-71226809D01*
X213953095Y-71226809D01*
X214105476Y-71150619D01*
X214181666Y-70998238D01*
X214181666Y-70388714D01*
X214105476Y-70236333D01*
X213953095Y-70160142D01*
X213648333Y-70160142D01*
X213495952Y-70236333D01*
X213419761Y-70388714D01*
X213419761Y-70541095D01*
X214181666Y-70693476D01*
X212734047Y-71226809D02*
X212734047Y-70160142D01*
X212734047Y-70464904D02*
X212657857Y-70312523D01*
X212581666Y-70236333D01*
X212429285Y-70160142D01*
X212276904Y-70160142D01*
X202067380Y-69779190D02*
X201991190Y-69703000D01*
X201838809Y-69626809D01*
X201457857Y-69626809D01*
X201305476Y-69703000D01*
X201229285Y-69779190D01*
X201153095Y-69931571D01*
X201153095Y-70083952D01*
X201229285Y-70312523D01*
X202143571Y-71226809D01*
X201153095Y-71226809D01*
X200162619Y-69626809D02*
X200010238Y-69626809D01*
X199857857Y-69703000D01*
X199781666Y-69779190D01*
X199705476Y-69931571D01*
X199629285Y-70236333D01*
X199629285Y-70617285D01*
X199705476Y-70922047D01*
X199781666Y-71074428D01*
X199857857Y-71150619D01*
X200010238Y-71226809D01*
X200162619Y-71226809D01*
X200315000Y-71150619D01*
X200391190Y-71074428D01*
X200467380Y-70922047D01*
X200543571Y-70617285D01*
X200543571Y-70236333D01*
X200467380Y-69931571D01*
X200391190Y-69779190D01*
X200315000Y-69703000D01*
X200162619Y-69626809D01*
X199019761Y-69779190D02*
X198943571Y-69703000D01*
X198791190Y-69626809D01*
X198410238Y-69626809D01*
X198257857Y-69703000D01*
X198181666Y-69779190D01*
X198105476Y-69931571D01*
X198105476Y-70083952D01*
X198181666Y-70312523D01*
X199095952Y-71226809D01*
X198105476Y-71226809D01*
X197495952Y-69779190D02*
X197419761Y-69703000D01*
X197267380Y-69626809D01*
X196886428Y-69626809D01*
X196734047Y-69703000D01*
X196657857Y-69779190D01*
X196581666Y-69931571D01*
X196581666Y-70083952D01*
X196657857Y-70312523D01*
X197572142Y-71226809D01*
X196581666Y-71226809D01*
D13*
X202437619Y-66849761D02*
X201770952Y-68849761D01*
X201104285Y-66849761D01*
X199390000Y-68849761D02*
X200532857Y-68849761D01*
X199961428Y-68849761D02*
X199961428Y-66849761D01*
X200151904Y-67135476D01*
X200342380Y-67325952D01*
X200532857Y-67421190D01*
X198532857Y-68659285D02*
X198437619Y-68754523D01*
X198532857Y-68849761D01*
X198628095Y-68754523D01*
X198532857Y-68659285D01*
X198532857Y-68849761D01*
X197199523Y-66849761D02*
X197009047Y-66849761D01*
X196818571Y-66945000D01*
X196723333Y-67040238D01*
X196628095Y-67230714D01*
X196532857Y-67611666D01*
X196532857Y-68087857D01*
X196628095Y-68468809D01*
X196723333Y-68659285D01*
X196818571Y-68754523D01*
X197009047Y-68849761D01*
X197199523Y-68849761D01*
X197390000Y-68754523D01*
X197485238Y-68659285D01*
X197580476Y-68468809D01*
X197675714Y-68087857D01*
X197675714Y-67611666D01*
X197580476Y-67230714D01*
X197485238Y-67040238D01*
X197390000Y-66945000D01*
X197199523Y-66849761D01*
D11*
X155487619Y-55419047D02*
X154773333Y-55419047D01*
X154630476Y-55466666D01*
X154535238Y-55561904D01*
X154487619Y-55704761D01*
X154487619Y-55800000D01*
X154487619Y-54466666D02*
X154487619Y-54942857D01*
X155487619Y-54942857D01*
X154582857Y-53561904D02*
X154535238Y-53609523D01*
X154487619Y-53752380D01*
X154487619Y-53847619D01*
X154535238Y-53990476D01*
X154630476Y-54085714D01*
X154725714Y-54133333D01*
X154916190Y-54180952D01*
X155059047Y-54180952D01*
X155249523Y-54133333D01*
X155344761Y-54085714D01*
X155440000Y-53990476D01*
X155487619Y-53847619D01*
X155487619Y-53752380D01*
X155440000Y-53609523D01*
X155392380Y-53561904D01*
X155487619Y-52847619D02*
X154773333Y-52847619D01*
X154630476Y-52895238D01*
X154535238Y-52990476D01*
X154487619Y-53133333D01*
X154487619Y-53228571D01*
X154487619Y-51895238D02*
X154487619Y-52371428D01*
X155487619Y-52371428D01*
X154582857Y-50990476D02*
X154535238Y-51038095D01*
X154487619Y-51180952D01*
X154487619Y-51276190D01*
X154535238Y-51419047D01*
X154630476Y-51514285D01*
X154725714Y-51561904D01*
X154916190Y-51609523D01*
X155059047Y-51609523D01*
X155249523Y-51561904D01*
X155344761Y-51514285D01*
X155440000Y-51419047D01*
X155487619Y-51276190D01*
X155487619Y-51180952D01*
X155440000Y-51038095D01*
X155392380Y-50990476D01*
X155487619Y-50276190D02*
X154773333Y-50276190D01*
X154630476Y-50323809D01*
X154535238Y-50419047D01*
X154487619Y-50561904D01*
X154487619Y-50657142D01*
X154487619Y-49323809D02*
X154487619Y-49800000D01*
X155487619Y-49800000D01*
X154582857Y-48419047D02*
X154535238Y-48466666D01*
X154487619Y-48609523D01*
X154487619Y-48704761D01*
X154535238Y-48847619D01*
X154630476Y-48942857D01*
X154725714Y-48990476D01*
X154916190Y-49038095D01*
X155059047Y-49038095D01*
X155249523Y-48990476D01*
X155344761Y-48942857D01*
X155440000Y-48847619D01*
X155487619Y-48704761D01*
X155487619Y-48609523D01*
X155440000Y-48466666D01*
X155392380Y-48419047D01*
X155487619Y-47704761D02*
X154773333Y-47704761D01*
X154630476Y-47752380D01*
X154535238Y-47847619D01*
X154487619Y-47990476D01*
X154487619Y-48085714D01*
X154487619Y-46752380D02*
X154487619Y-47228571D01*
X155487619Y-47228571D01*
X154582857Y-45847619D02*
X154535238Y-45895238D01*
X154487619Y-46038095D01*
X154487619Y-46133333D01*
X154535238Y-46276190D01*
X154630476Y-46371428D01*
X154725714Y-46419047D01*
X154916190Y-46466666D01*
X155059047Y-46466666D01*
X155249523Y-46419047D01*
X155344761Y-46371428D01*
X155440000Y-46276190D01*
X155487619Y-46133333D01*
X155487619Y-46038095D01*
X155440000Y-45895238D01*
X155392380Y-45847619D01*
D14*
%TO.C,KEY8*%
X221964047Y-97988380D02*
X221964047Y-96988380D01*
X221392619Y-97988380D02*
X221821190Y-97416952D01*
X221392619Y-96988380D02*
X221964047Y-97559809D01*
X220964047Y-97464571D02*
X220630714Y-97464571D01*
X220487857Y-97988380D02*
X220964047Y-97988380D01*
X220964047Y-96988380D01*
X220487857Y-96988380D01*
X219868809Y-97512190D02*
X219868809Y-97988380D01*
X220202142Y-96988380D02*
X219868809Y-97512190D01*
X219535476Y-96988380D01*
X219059285Y-97416952D02*
X219154523Y-97369333D01*
X219202142Y-97321714D01*
X219249761Y-97226476D01*
X219249761Y-97178857D01*
X219202142Y-97083619D01*
X219154523Y-97036000D01*
X219059285Y-96988380D01*
X218868809Y-96988380D01*
X218773571Y-97036000D01*
X218725952Y-97083619D01*
X218678333Y-97178857D01*
X218678333Y-97226476D01*
X218725952Y-97321714D01*
X218773571Y-97369333D01*
X218868809Y-97416952D01*
X219059285Y-97416952D01*
X219154523Y-97464571D01*
X219202142Y-97512190D01*
X219249761Y-97607428D01*
X219249761Y-97797904D01*
X219202142Y-97893142D01*
X219154523Y-97940761D01*
X219059285Y-97988380D01*
X218868809Y-97988380D01*
X218773571Y-97940761D01*
X218725952Y-97893142D01*
X218678333Y-97797904D01*
X218678333Y-97607428D01*
X218725952Y-97512190D01*
X218773571Y-97464571D01*
X218868809Y-97416952D01*
%TO.C,KEY9*%
X164814047Y-117038380D02*
X164814047Y-116038380D01*
X164242619Y-117038380D02*
X164671190Y-116466952D01*
X164242619Y-116038380D02*
X164814047Y-116609809D01*
X163814047Y-116514571D02*
X163480714Y-116514571D01*
X163337857Y-117038380D02*
X163814047Y-117038380D01*
X163814047Y-116038380D01*
X163337857Y-116038380D01*
X162718809Y-116562190D02*
X162718809Y-117038380D01*
X163052142Y-116038380D02*
X162718809Y-116562190D01*
X162385476Y-116038380D01*
X162004523Y-117038380D02*
X161814047Y-117038380D01*
X161718809Y-116990761D01*
X161671190Y-116943142D01*
X161575952Y-116800285D01*
X161528333Y-116609809D01*
X161528333Y-116228857D01*
X161575952Y-116133619D01*
X161623571Y-116086000D01*
X161718809Y-116038380D01*
X161909285Y-116038380D01*
X162004523Y-116086000D01*
X162052142Y-116133619D01*
X162099761Y-116228857D01*
X162099761Y-116466952D01*
X162052142Y-116562190D01*
X162004523Y-116609809D01*
X161909285Y-116657428D01*
X161718809Y-116657428D01*
X161623571Y-116609809D01*
X161575952Y-116562190D01*
X161528333Y-116466952D01*
%TO.C,KEY13*%
X241490238Y-78938380D02*
X241490238Y-77938380D01*
X240918809Y-78938380D02*
X241347380Y-78366952D01*
X240918809Y-77938380D02*
X241490238Y-78509809D01*
X240490238Y-78414571D02*
X240156904Y-78414571D01*
X240014047Y-78938380D02*
X240490238Y-78938380D01*
X240490238Y-77938380D01*
X240014047Y-77938380D01*
X239395000Y-78462190D02*
X239395000Y-78938380D01*
X239728333Y-77938380D02*
X239395000Y-78462190D01*
X239061666Y-77938380D01*
X238204523Y-78938380D02*
X238775952Y-78938380D01*
X238490238Y-78938380D02*
X238490238Y-77938380D01*
X238585476Y-78081238D01*
X238680714Y-78176476D01*
X238775952Y-78224095D01*
X237871190Y-77938380D02*
X237252142Y-77938380D01*
X237585476Y-78319333D01*
X237442619Y-78319333D01*
X237347380Y-78366952D01*
X237299761Y-78414571D01*
X237252142Y-78509809D01*
X237252142Y-78747904D01*
X237299761Y-78843142D01*
X237347380Y-78890761D01*
X237442619Y-78938380D01*
X237728333Y-78938380D01*
X237823571Y-78890761D01*
X237871190Y-78843142D01*
%TO.C,KEY14*%
X241490238Y-97988380D02*
X241490238Y-96988380D01*
X240918809Y-97988380D02*
X241347380Y-97416952D01*
X240918809Y-96988380D02*
X241490238Y-97559809D01*
X240490238Y-97464571D02*
X240156904Y-97464571D01*
X240014047Y-97988380D02*
X240490238Y-97988380D01*
X240490238Y-96988380D01*
X240014047Y-96988380D01*
X239395000Y-97512190D02*
X239395000Y-97988380D01*
X239728333Y-96988380D02*
X239395000Y-97512190D01*
X239061666Y-96988380D01*
X238204523Y-97988380D02*
X238775952Y-97988380D01*
X238490238Y-97988380D02*
X238490238Y-96988380D01*
X238585476Y-97131238D01*
X238680714Y-97226476D01*
X238775952Y-97274095D01*
X237347380Y-97321714D02*
X237347380Y-97988380D01*
X237585476Y-96940761D02*
X237823571Y-97655047D01*
X237204523Y-97655047D01*
%TO.C,KEY10*%
X184340238Y-117038380D02*
X184340238Y-116038380D01*
X183768809Y-117038380D02*
X184197380Y-116466952D01*
X183768809Y-116038380D02*
X184340238Y-116609809D01*
X183340238Y-116514571D02*
X183006904Y-116514571D01*
X182864047Y-117038380D02*
X183340238Y-117038380D01*
X183340238Y-116038380D01*
X182864047Y-116038380D01*
X182245000Y-116562190D02*
X182245000Y-117038380D01*
X182578333Y-116038380D02*
X182245000Y-116562190D01*
X181911666Y-116038380D01*
X181054523Y-117038380D02*
X181625952Y-117038380D01*
X181340238Y-117038380D02*
X181340238Y-116038380D01*
X181435476Y-116181238D01*
X181530714Y-116276476D01*
X181625952Y-116324095D01*
X180435476Y-116038380D02*
X180340238Y-116038380D01*
X180245000Y-116086000D01*
X180197380Y-116133619D01*
X180149761Y-116228857D01*
X180102142Y-116419333D01*
X180102142Y-116657428D01*
X180149761Y-116847904D01*
X180197380Y-116943142D01*
X180245000Y-116990761D01*
X180340238Y-117038380D01*
X180435476Y-117038380D01*
X180530714Y-116990761D01*
X180578333Y-116943142D01*
X180625952Y-116847904D01*
X180673571Y-116657428D01*
X180673571Y-116419333D01*
X180625952Y-116228857D01*
X180578333Y-116133619D01*
X180530714Y-116086000D01*
X180435476Y-116038380D01*
%TO.C,KEY4*%
X221964047Y-78938380D02*
X221964047Y-77938380D01*
X221392619Y-78938380D02*
X221821190Y-78366952D01*
X221392619Y-77938380D02*
X221964047Y-78509809D01*
X220964047Y-78414571D02*
X220630714Y-78414571D01*
X220487857Y-78938380D02*
X220964047Y-78938380D01*
X220964047Y-77938380D01*
X220487857Y-77938380D01*
X219868809Y-78462190D02*
X219868809Y-78938380D01*
X220202142Y-77938380D02*
X219868809Y-78462190D01*
X219535476Y-77938380D01*
X218773571Y-78271714D02*
X218773571Y-78938380D01*
X219011666Y-77890761D02*
X219249761Y-78605047D01*
X218630714Y-78605047D01*
%TO.C,KEY1*%
X164814047Y-78938380D02*
X164814047Y-77938380D01*
X164242619Y-78938380D02*
X164671190Y-78366952D01*
X164242619Y-77938380D02*
X164814047Y-78509809D01*
X163814047Y-78414571D02*
X163480714Y-78414571D01*
X163337857Y-78938380D02*
X163814047Y-78938380D01*
X163814047Y-77938380D01*
X163337857Y-77938380D01*
X162718809Y-78462190D02*
X162718809Y-78938380D01*
X163052142Y-77938380D02*
X162718809Y-78462190D01*
X162385476Y-77938380D01*
X161528333Y-78938380D02*
X162099761Y-78938380D01*
X161814047Y-78938380D02*
X161814047Y-77938380D01*
X161909285Y-78081238D01*
X162004523Y-78176476D01*
X162099761Y-78224095D01*
%TO.C,KEY11*%
X203390238Y-117038380D02*
X203390238Y-116038380D01*
X202818809Y-117038380D02*
X203247380Y-116466952D01*
X202818809Y-116038380D02*
X203390238Y-116609809D01*
X202390238Y-116514571D02*
X202056904Y-116514571D01*
X201914047Y-117038380D02*
X202390238Y-117038380D01*
X202390238Y-116038380D01*
X201914047Y-116038380D01*
X201295000Y-116562190D02*
X201295000Y-117038380D01*
X201628333Y-116038380D02*
X201295000Y-116562190D01*
X200961666Y-116038380D01*
X200104523Y-117038380D02*
X200675952Y-117038380D01*
X200390238Y-117038380D02*
X200390238Y-116038380D01*
X200485476Y-116181238D01*
X200580714Y-116276476D01*
X200675952Y-116324095D01*
X199152142Y-117038380D02*
X199723571Y-117038380D01*
X199437857Y-117038380D02*
X199437857Y-116038380D01*
X199533095Y-116181238D01*
X199628333Y-116276476D01*
X199723571Y-116324095D01*
%TO.C,KEY12*%
X222440238Y-117038380D02*
X222440238Y-116038380D01*
X221868809Y-117038380D02*
X222297380Y-116466952D01*
X221868809Y-116038380D02*
X222440238Y-116609809D01*
X221440238Y-116514571D02*
X221106904Y-116514571D01*
X220964047Y-117038380D02*
X221440238Y-117038380D01*
X221440238Y-116038380D01*
X220964047Y-116038380D01*
X220345000Y-116562190D02*
X220345000Y-117038380D01*
X220678333Y-116038380D02*
X220345000Y-116562190D01*
X220011666Y-116038380D01*
X219154523Y-117038380D02*
X219725952Y-117038380D01*
X219440238Y-117038380D02*
X219440238Y-116038380D01*
X219535476Y-116181238D01*
X219630714Y-116276476D01*
X219725952Y-116324095D01*
X218773571Y-116133619D02*
X218725952Y-116086000D01*
X218630714Y-116038380D01*
X218392619Y-116038380D01*
X218297380Y-116086000D01*
X218249761Y-116133619D01*
X218202142Y-116228857D01*
X218202142Y-116324095D01*
X218249761Y-116466952D01*
X218821190Y-117038380D01*
X218202142Y-117038380D01*
%TO.C,KEY6*%
X183864047Y-97988380D02*
X183864047Y-96988380D01*
X183292619Y-97988380D02*
X183721190Y-97416952D01*
X183292619Y-96988380D02*
X183864047Y-97559809D01*
X182864047Y-97464571D02*
X182530714Y-97464571D01*
X182387857Y-97988380D02*
X182864047Y-97988380D01*
X182864047Y-96988380D01*
X182387857Y-96988380D01*
X181768809Y-97512190D02*
X181768809Y-97988380D01*
X182102142Y-96988380D02*
X181768809Y-97512190D01*
X181435476Y-96988380D01*
X180673571Y-96988380D02*
X180864047Y-96988380D01*
X180959285Y-97036000D01*
X181006904Y-97083619D01*
X181102142Y-97226476D01*
X181149761Y-97416952D01*
X181149761Y-97797904D01*
X181102142Y-97893142D01*
X181054523Y-97940761D01*
X180959285Y-97988380D01*
X180768809Y-97988380D01*
X180673571Y-97940761D01*
X180625952Y-97893142D01*
X180578333Y-97797904D01*
X180578333Y-97559809D01*
X180625952Y-97464571D01*
X180673571Y-97416952D01*
X180768809Y-97369333D01*
X180959285Y-97369333D01*
X181054523Y-97416952D01*
X181102142Y-97464571D01*
X181149761Y-97559809D01*
%TO.C,KEY2*%
X183864047Y-78938380D02*
X183864047Y-77938380D01*
X183292619Y-78938380D02*
X183721190Y-78366952D01*
X183292619Y-77938380D02*
X183864047Y-78509809D01*
X182864047Y-78414571D02*
X182530714Y-78414571D01*
X182387857Y-78938380D02*
X182864047Y-78938380D01*
X182864047Y-77938380D01*
X182387857Y-77938380D01*
X181768809Y-78462190D02*
X181768809Y-78938380D01*
X182102142Y-77938380D02*
X181768809Y-78462190D01*
X181435476Y-77938380D01*
X181149761Y-78033619D02*
X181102142Y-77986000D01*
X181006904Y-77938380D01*
X180768809Y-77938380D01*
X180673571Y-77986000D01*
X180625952Y-78033619D01*
X180578333Y-78128857D01*
X180578333Y-78224095D01*
X180625952Y-78366952D01*
X181197380Y-78938380D01*
X180578333Y-78938380D01*
%TO.C,U1*%
X231300785Y-61666380D02*
X231300785Y-60666380D01*
X231062690Y-60666380D01*
X230919833Y-60714000D01*
X230824595Y-60809238D01*
X230776976Y-60904476D01*
X230729357Y-61094952D01*
X230729357Y-61237809D01*
X230776976Y-61428285D01*
X230824595Y-61523523D01*
X230919833Y-61618761D01*
X231062690Y-61666380D01*
X231300785Y-61666380D01*
X229824595Y-60666380D02*
X230300785Y-60666380D01*
X230348404Y-61142571D01*
X230300785Y-61094952D01*
X230205547Y-61047333D01*
X229967452Y-61047333D01*
X229872214Y-61094952D01*
X229824595Y-61142571D01*
X229776976Y-61237809D01*
X229776976Y-61475904D01*
X229824595Y-61571142D01*
X229872214Y-61618761D01*
X229967452Y-61666380D01*
X230205547Y-61666380D01*
X230300785Y-61618761D01*
X230348404Y-61571142D01*
X240821595Y-45474000D02*
X240916833Y-45426380D01*
X241059690Y-45426380D01*
X241202547Y-45474000D01*
X241297785Y-45569238D01*
X241345404Y-45664476D01*
X241393023Y-45854952D01*
X241393023Y-45997809D01*
X241345404Y-46188285D01*
X241297785Y-46283523D01*
X241202547Y-46378761D01*
X241059690Y-46426380D01*
X240964452Y-46426380D01*
X240821595Y-46378761D01*
X240773976Y-46331142D01*
X240773976Y-45997809D01*
X240964452Y-45997809D01*
X240345404Y-46426380D02*
X240345404Y-45426380D01*
X239773976Y-46426380D01*
X239773976Y-45426380D01*
X239297785Y-46426380D02*
X239297785Y-45426380D01*
X239059690Y-45426380D01*
X238916833Y-45474000D01*
X238821595Y-45569238D01*
X238773976Y-45664476D01*
X238726357Y-45854952D01*
X238726357Y-45997809D01*
X238773976Y-46188285D01*
X238821595Y-46283523D01*
X238916833Y-46378761D01*
X239059690Y-46426380D01*
X239297785Y-46426380D01*
X241599404Y-64206380D02*
X241599404Y-63206380D01*
X241361309Y-63206380D01*
X241218452Y-63254000D01*
X241123214Y-63349238D01*
X241075595Y-63444476D01*
X241027976Y-63634952D01*
X241027976Y-63777809D01*
X241075595Y-63968285D01*
X241123214Y-64063523D01*
X241218452Y-64158761D01*
X241361309Y-64206380D01*
X241599404Y-64206380D01*
X240075595Y-64206380D02*
X240647023Y-64206380D01*
X240361309Y-64206380D02*
X240361309Y-63206380D01*
X240456547Y-63349238D01*
X240551785Y-63444476D01*
X240647023Y-63492095D01*
X239170833Y-63206380D02*
X239647023Y-63206380D01*
X239694642Y-63682571D01*
X239647023Y-63634952D01*
X239551785Y-63587333D01*
X239313690Y-63587333D01*
X239218452Y-63634952D01*
X239170833Y-63682571D01*
X239123214Y-63777809D01*
X239123214Y-64015904D01*
X239170833Y-64111142D01*
X239218452Y-64158761D01*
X239313690Y-64206380D01*
X239551785Y-64206380D01*
X239647023Y-64158761D01*
X239694642Y-64111142D01*
X241393023Y-58840666D02*
X240916833Y-58840666D01*
X241488261Y-59126380D02*
X241154928Y-58126380D01*
X240821595Y-59126380D01*
X239964452Y-59126380D02*
X240535880Y-59126380D01*
X240250166Y-59126380D02*
X240250166Y-58126380D01*
X240345404Y-58269238D01*
X240440642Y-58364476D01*
X240535880Y-58412095D01*
X232157928Y-42886380D02*
X231586500Y-42886380D01*
X231872214Y-43886380D02*
X231872214Y-42886380D01*
X231348404Y-42886380D02*
X230681738Y-43886380D01*
X230681738Y-42886380D02*
X231348404Y-43886380D01*
X230110309Y-42886380D02*
X230015071Y-42886380D01*
X229919833Y-42934000D01*
X229872214Y-42981619D01*
X229824595Y-43076857D01*
X229776976Y-43267333D01*
X229776976Y-43505428D01*
X229824595Y-43695904D01*
X229872214Y-43791142D01*
X229919833Y-43838761D01*
X230015071Y-43886380D01*
X230110309Y-43886380D01*
X230205547Y-43838761D01*
X230253166Y-43791142D01*
X230300785Y-43695904D01*
X230348404Y-43505428D01*
X230348404Y-43267333D01*
X230300785Y-43076857D01*
X230253166Y-42981619D01*
X230205547Y-42934000D01*
X230110309Y-42886380D01*
X231300785Y-59380380D02*
X231300785Y-58380380D01*
X231062690Y-58380380D01*
X230919833Y-58428000D01*
X230824595Y-58523238D01*
X230776976Y-58618476D01*
X230729357Y-58808952D01*
X230729357Y-58951809D01*
X230776976Y-59142285D01*
X230824595Y-59237523D01*
X230919833Y-59332761D01*
X231062690Y-59380380D01*
X231300785Y-59380380D01*
X229872214Y-58713714D02*
X229872214Y-59380380D01*
X230110309Y-58332761D02*
X230348404Y-59047047D01*
X229729357Y-59047047D01*
X231300785Y-66746380D02*
X231300785Y-65746380D01*
X231062690Y-65746380D01*
X230919833Y-65794000D01*
X230824595Y-65889238D01*
X230776976Y-65984476D01*
X230729357Y-66174952D01*
X230729357Y-66317809D01*
X230776976Y-66508285D01*
X230824595Y-66603523D01*
X230919833Y-66698761D01*
X231062690Y-66746380D01*
X231300785Y-66746380D01*
X230396023Y-65746380D02*
X229729357Y-65746380D01*
X230157928Y-66746380D01*
X240773976Y-48966380D02*
X241107309Y-48490190D01*
X241345404Y-48966380D02*
X241345404Y-47966380D01*
X240964452Y-47966380D01*
X240869214Y-48014000D01*
X240821595Y-48061619D01*
X240773976Y-48156857D01*
X240773976Y-48299714D01*
X240821595Y-48394952D01*
X240869214Y-48442571D01*
X240964452Y-48490190D01*
X241345404Y-48490190D01*
X240393023Y-48918761D02*
X240250166Y-48966380D01*
X240012071Y-48966380D01*
X239916833Y-48918761D01*
X239869214Y-48871142D01*
X239821595Y-48775904D01*
X239821595Y-48680666D01*
X239869214Y-48585428D01*
X239916833Y-48537809D01*
X240012071Y-48490190D01*
X240202547Y-48442571D01*
X240297785Y-48394952D01*
X240345404Y-48347333D01*
X240393023Y-48252095D01*
X240393023Y-48156857D01*
X240345404Y-48061619D01*
X240297785Y-48014000D01*
X240202547Y-47966380D01*
X239964452Y-47966380D01*
X239821595Y-48014000D01*
X239535880Y-47966380D02*
X238964452Y-47966380D01*
X239250166Y-48966380D02*
X239250166Y-47966380D01*
X231872214Y-48014000D02*
X231967452Y-47966380D01*
X232110309Y-47966380D01*
X232253166Y-48014000D01*
X232348404Y-48109238D01*
X232396023Y-48204476D01*
X232443642Y-48394952D01*
X232443642Y-48537809D01*
X232396023Y-48728285D01*
X232348404Y-48823523D01*
X232253166Y-48918761D01*
X232110309Y-48966380D01*
X232015071Y-48966380D01*
X231872214Y-48918761D01*
X231824595Y-48871142D01*
X231824595Y-48537809D01*
X232015071Y-48537809D01*
X231396023Y-48966380D02*
X231396023Y-47966380D01*
X230824595Y-48966380D01*
X230824595Y-47966380D01*
X230348404Y-48966380D02*
X230348404Y-47966380D01*
X230110309Y-47966380D01*
X229967452Y-48014000D01*
X229872214Y-48109238D01*
X229824595Y-48204476D01*
X229776976Y-48394952D01*
X229776976Y-48537809D01*
X229824595Y-48728285D01*
X229872214Y-48823523D01*
X229967452Y-48918761D01*
X230110309Y-48966380D01*
X230348404Y-48966380D01*
X231300785Y-64206380D02*
X231300785Y-63206380D01*
X231062690Y-63206380D01*
X230919833Y-63254000D01*
X230824595Y-63349238D01*
X230776976Y-63444476D01*
X230729357Y-63634952D01*
X230729357Y-63777809D01*
X230776976Y-63968285D01*
X230824595Y-64063523D01*
X230919833Y-64158761D01*
X231062690Y-64206380D01*
X231300785Y-64206380D01*
X229872214Y-63206380D02*
X230062690Y-63206380D01*
X230157928Y-63254000D01*
X230205547Y-63301619D01*
X230300785Y-63444476D01*
X230348404Y-63634952D01*
X230348404Y-64015904D01*
X230300785Y-64111142D01*
X230253166Y-64158761D01*
X230157928Y-64206380D01*
X229967452Y-64206380D01*
X229872214Y-64158761D01*
X229824595Y-64111142D01*
X229776976Y-64015904D01*
X229776976Y-63777809D01*
X229824595Y-63682571D01*
X229872214Y-63634952D01*
X229967452Y-63587333D01*
X230157928Y-63587333D01*
X230253166Y-63634952D01*
X230300785Y-63682571D01*
X230348404Y-63777809D01*
X231300785Y-56586380D02*
X231300785Y-55586380D01*
X231062690Y-55586380D01*
X230919833Y-55634000D01*
X230824595Y-55729238D01*
X230776976Y-55824476D01*
X230729357Y-56014952D01*
X230729357Y-56157809D01*
X230776976Y-56348285D01*
X230824595Y-56443523D01*
X230919833Y-56538761D01*
X231062690Y-56586380D01*
X231300785Y-56586380D01*
X230396023Y-55586380D02*
X229776976Y-55586380D01*
X230110309Y-55967333D01*
X229967452Y-55967333D01*
X229872214Y-56014952D01*
X229824595Y-56062571D01*
X229776976Y-56157809D01*
X229776976Y-56395904D01*
X229824595Y-56491142D01*
X229872214Y-56538761D01*
X229967452Y-56586380D01*
X230253166Y-56586380D01*
X230348404Y-56538761D01*
X230396023Y-56491142D01*
X241599404Y-69286380D02*
X241599404Y-68286380D01*
X241361309Y-68286380D01*
X241218452Y-68334000D01*
X241123214Y-68429238D01*
X241075595Y-68524476D01*
X241027976Y-68714952D01*
X241027976Y-68857809D01*
X241075595Y-69048285D01*
X241123214Y-69143523D01*
X241218452Y-69238761D01*
X241361309Y-69286380D01*
X241599404Y-69286380D01*
X240075595Y-69286380D02*
X240647023Y-69286380D01*
X240361309Y-69286380D02*
X240361309Y-68286380D01*
X240456547Y-68429238D01*
X240551785Y-68524476D01*
X240647023Y-68572095D01*
X239218452Y-68286380D02*
X239408928Y-68286380D01*
X239504166Y-68334000D01*
X239551785Y-68381619D01*
X239647023Y-68524476D01*
X239694642Y-68714952D01*
X239694642Y-69095904D01*
X239647023Y-69191142D01*
X239599404Y-69238761D01*
X239504166Y-69286380D01*
X239313690Y-69286380D01*
X239218452Y-69238761D01*
X239170833Y-69191142D01*
X239123214Y-69095904D01*
X239123214Y-68857809D01*
X239170833Y-68762571D01*
X239218452Y-68714952D01*
X239313690Y-68667333D01*
X239504166Y-68667333D01*
X239599404Y-68714952D01*
X239647023Y-68762571D01*
X239694642Y-68857809D01*
X235751666Y-47784952D02*
X235751666Y-48261142D01*
X236037380Y-47689714D02*
X235037380Y-48023047D01*
X236037380Y-48356380D01*
X236037380Y-48689714D02*
X235370714Y-48689714D01*
X235561190Y-48689714D02*
X235465952Y-48737333D01*
X235418333Y-48784952D01*
X235370714Y-48880190D01*
X235370714Y-48975428D01*
X236037380Y-49737333D02*
X235037380Y-49737333D01*
X235989761Y-49737333D02*
X236037380Y-49642095D01*
X236037380Y-49451619D01*
X235989761Y-49356380D01*
X235942142Y-49308761D01*
X235846904Y-49261142D01*
X235561190Y-49261142D01*
X235465952Y-49308761D01*
X235418333Y-49356380D01*
X235370714Y-49451619D01*
X235370714Y-49642095D01*
X235418333Y-49737333D01*
X235370714Y-50642095D02*
X236037380Y-50642095D01*
X235370714Y-50213523D02*
X235894523Y-50213523D01*
X235989761Y-50261142D01*
X236037380Y-50356380D01*
X236037380Y-50499238D01*
X235989761Y-50594476D01*
X235942142Y-50642095D01*
X236037380Y-51118285D02*
X235370714Y-51118285D01*
X235037380Y-51118285D02*
X235085000Y-51070666D01*
X235132619Y-51118285D01*
X235085000Y-51165904D01*
X235037380Y-51118285D01*
X235132619Y-51118285D01*
X235370714Y-51594476D02*
X236037380Y-51594476D01*
X235465952Y-51594476D02*
X235418333Y-51642095D01*
X235370714Y-51737333D01*
X235370714Y-51880190D01*
X235418333Y-51975428D01*
X235513571Y-52023047D01*
X236037380Y-52023047D01*
X236037380Y-52642095D02*
X235989761Y-52546857D01*
X235942142Y-52499238D01*
X235846904Y-52451619D01*
X235561190Y-52451619D01*
X235465952Y-52499238D01*
X235418333Y-52546857D01*
X235370714Y-52642095D01*
X235370714Y-52784952D01*
X235418333Y-52880190D01*
X235465952Y-52927809D01*
X235561190Y-52975428D01*
X235846904Y-52975428D01*
X235942142Y-52927809D01*
X235989761Y-52880190D01*
X236037380Y-52784952D01*
X236037380Y-52642095D01*
X236037380Y-54165904D02*
X235037380Y-54165904D01*
X235037380Y-54546857D01*
X235085000Y-54642095D01*
X235132619Y-54689714D01*
X235227857Y-54737333D01*
X235370714Y-54737333D01*
X235465952Y-54689714D01*
X235513571Y-54642095D01*
X235561190Y-54546857D01*
X235561190Y-54165904D01*
X236037380Y-55165904D02*
X235370714Y-55165904D01*
X235561190Y-55165904D02*
X235465952Y-55213523D01*
X235418333Y-55261142D01*
X235370714Y-55356380D01*
X235370714Y-55451619D01*
X236037380Y-55927809D02*
X235989761Y-55832571D01*
X235942142Y-55784952D01*
X235846904Y-55737333D01*
X235561190Y-55737333D01*
X235465952Y-55784952D01*
X235418333Y-55832571D01*
X235370714Y-55927809D01*
X235370714Y-56070666D01*
X235418333Y-56165904D01*
X235465952Y-56213523D01*
X235561190Y-56261142D01*
X235846904Y-56261142D01*
X235942142Y-56213523D01*
X235989761Y-56165904D01*
X236037380Y-56070666D01*
X236037380Y-55927809D01*
X236037380Y-57451619D02*
X235037380Y-57451619D01*
X235751666Y-57784952D01*
X235037380Y-58118285D01*
X236037380Y-58118285D01*
X236037380Y-58594476D02*
X235370714Y-58594476D01*
X235037380Y-58594476D02*
X235085000Y-58546857D01*
X235132619Y-58594476D01*
X235085000Y-58642095D01*
X235037380Y-58594476D01*
X235132619Y-58594476D01*
X235989761Y-59499238D02*
X236037380Y-59404000D01*
X236037380Y-59213523D01*
X235989761Y-59118285D01*
X235942142Y-59070666D01*
X235846904Y-59023047D01*
X235561190Y-59023047D01*
X235465952Y-59070666D01*
X235418333Y-59118285D01*
X235370714Y-59213523D01*
X235370714Y-59404000D01*
X235418333Y-59499238D01*
X236037380Y-59927809D02*
X235370714Y-59927809D01*
X235561190Y-59927809D02*
X235465952Y-59975428D01*
X235418333Y-60023047D01*
X235370714Y-60118285D01*
X235370714Y-60213523D01*
X236037380Y-60689714D02*
X235989761Y-60594476D01*
X235942142Y-60546857D01*
X235846904Y-60499238D01*
X235561190Y-60499238D01*
X235465952Y-60546857D01*
X235418333Y-60594476D01*
X235370714Y-60689714D01*
X235370714Y-60832571D01*
X235418333Y-60927809D01*
X235465952Y-60975428D01*
X235561190Y-61023047D01*
X235846904Y-61023047D01*
X235942142Y-60975428D01*
X235989761Y-60927809D01*
X236037380Y-60832571D01*
X236037380Y-60689714D01*
X235037380Y-62213523D02*
X235846904Y-62213523D01*
X235942142Y-62261142D01*
X235989761Y-62308761D01*
X236037380Y-62404000D01*
X236037380Y-62594476D01*
X235989761Y-62689714D01*
X235942142Y-62737333D01*
X235846904Y-62784952D01*
X235037380Y-62784952D01*
X235989761Y-63213523D02*
X236037380Y-63356380D01*
X236037380Y-63594476D01*
X235989761Y-63689714D01*
X235942142Y-63737333D01*
X235846904Y-63784952D01*
X235751666Y-63784952D01*
X235656428Y-63737333D01*
X235608809Y-63689714D01*
X235561190Y-63594476D01*
X235513571Y-63404000D01*
X235465952Y-63308761D01*
X235418333Y-63261142D01*
X235323095Y-63213523D01*
X235227857Y-63213523D01*
X235132619Y-63261142D01*
X235085000Y-63308761D01*
X235037380Y-63404000D01*
X235037380Y-63642095D01*
X235085000Y-63784952D01*
X235513571Y-64546857D02*
X235561190Y-64689714D01*
X235608809Y-64737333D01*
X235704047Y-64784952D01*
X235846904Y-64784952D01*
X235942142Y-64737333D01*
X235989761Y-64689714D01*
X236037380Y-64594476D01*
X236037380Y-64213523D01*
X235037380Y-64213523D01*
X235037380Y-64546857D01*
X235085000Y-64642095D01*
X235132619Y-64689714D01*
X235227857Y-64737333D01*
X235323095Y-64737333D01*
X235418333Y-64689714D01*
X235465952Y-64642095D01*
X235513571Y-64546857D01*
X235513571Y-64213523D01*
X235656428Y-65213523D02*
X235656428Y-65975428D01*
X235942142Y-67023047D02*
X235989761Y-66975428D01*
X236037380Y-66832571D01*
X236037380Y-66737333D01*
X235989761Y-66594476D01*
X235894523Y-66499238D01*
X235799285Y-66451619D01*
X235608809Y-66404000D01*
X235465952Y-66404000D01*
X235275476Y-66451619D01*
X235180238Y-66499238D01*
X235085000Y-66594476D01*
X235037380Y-66737333D01*
X235037380Y-66832571D01*
X235085000Y-66975428D01*
X235132619Y-67023047D01*
X231205547Y-46426380D02*
X231538880Y-45950190D01*
X231776976Y-46426380D02*
X231776976Y-45426380D01*
X231396023Y-45426380D01*
X231300785Y-45474000D01*
X231253166Y-45521619D01*
X231205547Y-45616857D01*
X231205547Y-45759714D01*
X231253166Y-45854952D01*
X231300785Y-45902571D01*
X231396023Y-45950190D01*
X231776976Y-45950190D01*
X230872214Y-45426380D02*
X230205547Y-46426380D01*
X230205547Y-45426380D02*
X230872214Y-46426380D01*
X229824595Y-46426380D02*
X229824595Y-45426380D01*
X231300785Y-54046380D02*
X231300785Y-53046380D01*
X231062690Y-53046380D01*
X230919833Y-53094000D01*
X230824595Y-53189238D01*
X230776976Y-53284476D01*
X230729357Y-53474952D01*
X230729357Y-53617809D01*
X230776976Y-53808285D01*
X230824595Y-53903523D01*
X230919833Y-53998761D01*
X231062690Y-54046380D01*
X231300785Y-54046380D01*
X230348404Y-53141619D02*
X230300785Y-53094000D01*
X230205547Y-53046380D01*
X229967452Y-53046380D01*
X229872214Y-53094000D01*
X229824595Y-53141619D01*
X229776976Y-53236857D01*
X229776976Y-53332095D01*
X229824595Y-53474952D01*
X230396023Y-54046380D01*
X229776976Y-54046380D01*
X241393023Y-56300666D02*
X240916833Y-56300666D01*
X241488261Y-56586380D02*
X241154928Y-55586380D01*
X240821595Y-56586380D01*
X240535880Y-55681619D02*
X240488261Y-55634000D01*
X240393023Y-55586380D01*
X240154928Y-55586380D01*
X240059690Y-55634000D01*
X240012071Y-55681619D01*
X239964452Y-55776857D01*
X239964452Y-55872095D01*
X240012071Y-56014952D01*
X240583500Y-56586380D01*
X239964452Y-56586380D01*
X241345404Y-71826380D02*
X241345404Y-70826380D01*
X241107309Y-70826380D01*
X240964452Y-70874000D01*
X240869214Y-70969238D01*
X240821595Y-71064476D01*
X240773976Y-71254952D01*
X240773976Y-71397809D01*
X240821595Y-71588285D01*
X240869214Y-71683523D01*
X240964452Y-71778761D01*
X241107309Y-71826380D01*
X241345404Y-71826380D01*
X239821595Y-71826380D02*
X240393023Y-71826380D01*
X240107309Y-71826380D02*
X240107309Y-70826380D01*
X240202547Y-70969238D01*
X240297785Y-71064476D01*
X240393023Y-71112095D01*
X239202547Y-70826380D02*
X239107309Y-70826380D01*
X239012071Y-70874000D01*
X238964452Y-70921619D01*
X238916833Y-71016857D01*
X238869214Y-71207333D01*
X238869214Y-71445428D01*
X238916833Y-71635904D01*
X238964452Y-71731142D01*
X239012071Y-71778761D01*
X239107309Y-71826380D01*
X239202547Y-71826380D01*
X239297785Y-71778761D01*
X239345404Y-71731142D01*
X239393023Y-71635904D01*
X239440642Y-71445428D01*
X239440642Y-71207333D01*
X239393023Y-71016857D01*
X239345404Y-70921619D01*
X239297785Y-70874000D01*
X239202547Y-70826380D01*
X240773976Y-43886380D02*
X241107309Y-43410190D01*
X241345404Y-43886380D02*
X241345404Y-42886380D01*
X240964452Y-42886380D01*
X240869214Y-42934000D01*
X240821595Y-42981619D01*
X240773976Y-43076857D01*
X240773976Y-43219714D01*
X240821595Y-43314952D01*
X240869214Y-43362571D01*
X240964452Y-43410190D01*
X241345404Y-43410190D01*
X240393023Y-43600666D02*
X239916833Y-43600666D01*
X240488261Y-43886380D02*
X240154928Y-42886380D01*
X239821595Y-43886380D01*
X239583500Y-42886380D02*
X239345404Y-43886380D01*
X239154928Y-43172095D01*
X238964452Y-43886380D01*
X238726357Y-42886380D01*
X241599404Y-66746380D02*
X241599404Y-65746380D01*
X241361309Y-65746380D01*
X241218452Y-65794000D01*
X241123214Y-65889238D01*
X241075595Y-65984476D01*
X241027976Y-66174952D01*
X241027976Y-66317809D01*
X241075595Y-66508285D01*
X241123214Y-66603523D01*
X241218452Y-66698761D01*
X241361309Y-66746380D01*
X241599404Y-66746380D01*
X240075595Y-66746380D02*
X240647023Y-66746380D01*
X240361309Y-66746380D02*
X240361309Y-65746380D01*
X240456547Y-65889238D01*
X240551785Y-65984476D01*
X240647023Y-66032095D01*
X239218452Y-66079714D02*
X239218452Y-66746380D01*
X239456547Y-65698761D02*
X239694642Y-66413047D01*
X239075595Y-66413047D01*
X241393023Y-53760666D02*
X240916833Y-53760666D01*
X241488261Y-54046380D02*
X241154928Y-53046380D01*
X240821595Y-54046380D01*
X240583500Y-53046380D02*
X239964452Y-53046380D01*
X240297785Y-53427333D01*
X240154928Y-53427333D01*
X240059690Y-53474952D01*
X240012071Y-53522571D01*
X239964452Y-53617809D01*
X239964452Y-53855904D01*
X240012071Y-53951142D01*
X240059690Y-53998761D01*
X240154928Y-54046380D01*
X240440642Y-54046380D01*
X240535880Y-53998761D01*
X240583500Y-53951142D01*
X231300785Y-71826380D02*
X231300785Y-70826380D01*
X231062690Y-70826380D01*
X230919833Y-70874000D01*
X230824595Y-70969238D01*
X230776976Y-71064476D01*
X230729357Y-71254952D01*
X230729357Y-71397809D01*
X230776976Y-71588285D01*
X230824595Y-71683523D01*
X230919833Y-71778761D01*
X231062690Y-71826380D01*
X231300785Y-71826380D01*
X230253166Y-71826380D02*
X230062690Y-71826380D01*
X229967452Y-71778761D01*
X229919833Y-71731142D01*
X229824595Y-71588285D01*
X229776976Y-71397809D01*
X229776976Y-71016857D01*
X229824595Y-70921619D01*
X229872214Y-70874000D01*
X229967452Y-70826380D01*
X230157928Y-70826380D01*
X230253166Y-70874000D01*
X230300785Y-70921619D01*
X230348404Y-71016857D01*
X230348404Y-71254952D01*
X230300785Y-71350190D01*
X230253166Y-71397809D01*
X230157928Y-71445428D01*
X229967452Y-71445428D01*
X229872214Y-71397809D01*
X229824595Y-71350190D01*
X229776976Y-71254952D01*
X231300785Y-69286380D02*
X231300785Y-68286380D01*
X231062690Y-68286380D01*
X230919833Y-68334000D01*
X230824595Y-68429238D01*
X230776976Y-68524476D01*
X230729357Y-68714952D01*
X230729357Y-68857809D01*
X230776976Y-69048285D01*
X230824595Y-69143523D01*
X230919833Y-69238761D01*
X231062690Y-69286380D01*
X231300785Y-69286380D01*
X230157928Y-68714952D02*
X230253166Y-68667333D01*
X230300785Y-68619714D01*
X230348404Y-68524476D01*
X230348404Y-68476857D01*
X230300785Y-68381619D01*
X230253166Y-68334000D01*
X230157928Y-68286380D01*
X229967452Y-68286380D01*
X229872214Y-68334000D01*
X229824595Y-68381619D01*
X229776976Y-68476857D01*
X229776976Y-68524476D01*
X229824595Y-68619714D01*
X229872214Y-68667333D01*
X229967452Y-68714952D01*
X230157928Y-68714952D01*
X230253166Y-68762571D01*
X230300785Y-68810190D01*
X230348404Y-68905428D01*
X230348404Y-69095904D01*
X230300785Y-69191142D01*
X230253166Y-69238761D01*
X230157928Y-69286380D01*
X229967452Y-69286380D01*
X229872214Y-69238761D01*
X229824595Y-69191142D01*
X229776976Y-69095904D01*
X229776976Y-68905428D01*
X229824595Y-68810190D01*
X229872214Y-68762571D01*
X229967452Y-68714952D01*
X241488261Y-50506380D02*
X241154928Y-51506380D01*
X240821595Y-50506380D01*
X239916833Y-51411142D02*
X239964452Y-51458761D01*
X240107309Y-51506380D01*
X240202547Y-51506380D01*
X240345404Y-51458761D01*
X240440642Y-51363523D01*
X240488261Y-51268285D01*
X240535880Y-51077809D01*
X240535880Y-50934952D01*
X240488261Y-50744476D01*
X240440642Y-50649238D01*
X240345404Y-50554000D01*
X240202547Y-50506380D01*
X240107309Y-50506380D01*
X239964452Y-50554000D01*
X239916833Y-50601619D01*
X238916833Y-51411142D02*
X238964452Y-51458761D01*
X239107309Y-51506380D01*
X239202547Y-51506380D01*
X239345404Y-51458761D01*
X239440642Y-51363523D01*
X239488261Y-51268285D01*
X239535880Y-51077809D01*
X239535880Y-50934952D01*
X239488261Y-50744476D01*
X239440642Y-50649238D01*
X239345404Y-50554000D01*
X239202547Y-50506380D01*
X239107309Y-50506380D01*
X238964452Y-50554000D01*
X238916833Y-50601619D01*
X231872214Y-50554000D02*
X231967452Y-50506380D01*
X232110309Y-50506380D01*
X232253166Y-50554000D01*
X232348404Y-50649238D01*
X232396023Y-50744476D01*
X232443642Y-50934952D01*
X232443642Y-51077809D01*
X232396023Y-51268285D01*
X232348404Y-51363523D01*
X232253166Y-51458761D01*
X232110309Y-51506380D01*
X232015071Y-51506380D01*
X231872214Y-51458761D01*
X231824595Y-51411142D01*
X231824595Y-51077809D01*
X232015071Y-51077809D01*
X231396023Y-51506380D02*
X231396023Y-50506380D01*
X230824595Y-51506380D01*
X230824595Y-50506380D01*
X230348404Y-51506380D02*
X230348404Y-50506380D01*
X230110309Y-50506380D01*
X229967452Y-50554000D01*
X229872214Y-50649238D01*
X229824595Y-50744476D01*
X229776976Y-50934952D01*
X229776976Y-51077809D01*
X229824595Y-51268285D01*
X229872214Y-51363523D01*
X229967452Y-51458761D01*
X230110309Y-51506380D01*
X230348404Y-51506380D01*
X241393023Y-61380666D02*
X240916833Y-61380666D01*
X241488261Y-61666380D02*
X241154928Y-60666380D01*
X240821595Y-61666380D01*
X240297785Y-60666380D02*
X240202547Y-60666380D01*
X240107309Y-60714000D01*
X240059690Y-60761619D01*
X240012071Y-60856857D01*
X239964452Y-61047333D01*
X239964452Y-61285428D01*
X240012071Y-61475904D01*
X240059690Y-61571142D01*
X240107309Y-61618761D01*
X240202547Y-61666380D01*
X240297785Y-61666380D01*
X240393023Y-61618761D01*
X240440642Y-61571142D01*
X240488261Y-61475904D01*
X240535880Y-61285428D01*
X240535880Y-61047333D01*
X240488261Y-60856857D01*
X240440642Y-60761619D01*
X240393023Y-60714000D01*
X240297785Y-60666380D01*
%TO.C,KEY7*%
X202914047Y-97988380D02*
X202914047Y-96988380D01*
X202342619Y-97988380D02*
X202771190Y-97416952D01*
X202342619Y-96988380D02*
X202914047Y-97559809D01*
X201914047Y-97464571D02*
X201580714Y-97464571D01*
X201437857Y-97988380D02*
X201914047Y-97988380D01*
X201914047Y-96988380D01*
X201437857Y-96988380D01*
X200818809Y-97512190D02*
X200818809Y-97988380D01*
X201152142Y-96988380D02*
X200818809Y-97512190D01*
X200485476Y-96988380D01*
X200247380Y-96988380D02*
X199580714Y-96988380D01*
X200009285Y-97988380D01*
%TO.C,KEY15*%
X241490238Y-117038380D02*
X241490238Y-116038380D01*
X240918809Y-117038380D02*
X241347380Y-116466952D01*
X240918809Y-116038380D02*
X241490238Y-116609809D01*
X240490238Y-116514571D02*
X240156904Y-116514571D01*
X240014047Y-117038380D02*
X240490238Y-117038380D01*
X240490238Y-116038380D01*
X240014047Y-116038380D01*
X239395000Y-116562190D02*
X239395000Y-117038380D01*
X239728333Y-116038380D02*
X239395000Y-116562190D01*
X239061666Y-116038380D01*
X238204523Y-117038380D02*
X238775952Y-117038380D01*
X238490238Y-117038380D02*
X238490238Y-116038380D01*
X238585476Y-116181238D01*
X238680714Y-116276476D01*
X238775952Y-116324095D01*
X237299761Y-116038380D02*
X237775952Y-116038380D01*
X237823571Y-116514571D01*
X237775952Y-116466952D01*
X237680714Y-116419333D01*
X237442619Y-116419333D01*
X237347380Y-116466952D01*
X237299761Y-116514571D01*
X237252142Y-116609809D01*
X237252142Y-116847904D01*
X237299761Y-116943142D01*
X237347380Y-116990761D01*
X237442619Y-117038380D01*
X237680714Y-117038380D01*
X237775952Y-116990761D01*
X237823571Y-116943142D01*
%TO.C,KEY3*%
X202914047Y-78938380D02*
X202914047Y-77938380D01*
X202342619Y-78938380D02*
X202771190Y-78366952D01*
X202342619Y-77938380D02*
X202914047Y-78509809D01*
X201914047Y-78414571D02*
X201580714Y-78414571D01*
X201437857Y-78938380D02*
X201914047Y-78938380D01*
X201914047Y-77938380D01*
X201437857Y-77938380D01*
X200818809Y-78462190D02*
X200818809Y-78938380D01*
X201152142Y-77938380D02*
X200818809Y-78462190D01*
X200485476Y-77938380D01*
X200247380Y-77938380D02*
X199628333Y-77938380D01*
X199961666Y-78319333D01*
X199818809Y-78319333D01*
X199723571Y-78366952D01*
X199675952Y-78414571D01*
X199628333Y-78509809D01*
X199628333Y-78747904D01*
X199675952Y-78843142D01*
X199723571Y-78890761D01*
X199818809Y-78938380D01*
X200104523Y-78938380D01*
X200199761Y-78890761D01*
X200247380Y-78843142D01*
%TO.C,KEY5*%
X164814047Y-97988380D02*
X164814047Y-96988380D01*
X164242619Y-97988380D02*
X164671190Y-97416952D01*
X164242619Y-96988380D02*
X164814047Y-97559809D01*
X163814047Y-97464571D02*
X163480714Y-97464571D01*
X163337857Y-97988380D02*
X163814047Y-97988380D01*
X163814047Y-96988380D01*
X163337857Y-96988380D01*
X162718809Y-97512190D02*
X162718809Y-97988380D01*
X163052142Y-96988380D02*
X162718809Y-97512190D01*
X162385476Y-96988380D01*
X161575952Y-96988380D02*
X162052142Y-96988380D01*
X162099761Y-97464571D01*
X162052142Y-97416952D01*
X161956904Y-97369333D01*
X161718809Y-97369333D01*
X161623571Y-97416952D01*
X161575952Y-97464571D01*
X161528333Y-97559809D01*
X161528333Y-97797904D01*
X161575952Y-97893142D01*
X161623571Y-97940761D01*
X161718809Y-97988380D01*
X161956904Y-97988380D01*
X162052142Y-97940761D01*
X162099761Y-97893142D01*
%TO.C,C13*%
X174124857Y-128340142D02*
X174172476Y-128387761D01*
X174315333Y-128435380D01*
X174410571Y-128435380D01*
X174553428Y-128387761D01*
X174648666Y-128292523D01*
X174696285Y-128197285D01*
X174743904Y-128006809D01*
X174743904Y-127863952D01*
X174696285Y-127673476D01*
X174648666Y-127578238D01*
X174553428Y-127483000D01*
X174410571Y-127435380D01*
X174315333Y-127435380D01*
X174172476Y-127483000D01*
X174124857Y-127530619D01*
X173172476Y-128435380D02*
X173743904Y-128435380D01*
X173458190Y-128435380D02*
X173458190Y-127435380D01*
X173553428Y-127578238D01*
X173648666Y-127673476D01*
X173743904Y-127721095D01*
X172839142Y-127435380D02*
X172220095Y-127435380D01*
X172553428Y-127816333D01*
X172410571Y-127816333D01*
X172315333Y-127863952D01*
X172267714Y-127911571D01*
X172220095Y-128006809D01*
X172220095Y-128244904D01*
X172267714Y-128340142D01*
X172315333Y-128387761D01*
X172410571Y-128435380D01*
X172696285Y-128435380D01*
X172791523Y-128387761D01*
X172839142Y-128340142D01*
%TO.C,C7*%
X209716666Y-110847142D02*
X209764285Y-110894761D01*
X209907142Y-110942380D01*
X210002380Y-110942380D01*
X210145238Y-110894761D01*
X210240476Y-110799523D01*
X210288095Y-110704285D01*
X210335714Y-110513809D01*
X210335714Y-110370952D01*
X210288095Y-110180476D01*
X210240476Y-110085238D01*
X210145238Y-109990000D01*
X210002380Y-109942380D01*
X209907142Y-109942380D01*
X209764285Y-109990000D01*
X209716666Y-110037619D01*
X209383333Y-109942380D02*
X208716666Y-109942380D01*
X209145238Y-110942380D01*
%TO.C,C6*%
X190666666Y-110847142D02*
X190714285Y-110894761D01*
X190857142Y-110942380D01*
X190952380Y-110942380D01*
X191095238Y-110894761D01*
X191190476Y-110799523D01*
X191238095Y-110704285D01*
X191285714Y-110513809D01*
X191285714Y-110370952D01*
X191238095Y-110180476D01*
X191190476Y-110085238D01*
X191095238Y-109990000D01*
X190952380Y-109942380D01*
X190857142Y-109942380D01*
X190714285Y-109990000D01*
X190666666Y-110037619D01*
X189809523Y-109942380D02*
X190000000Y-109942380D01*
X190095238Y-109990000D01*
X190142857Y-110037619D01*
X190238095Y-110180476D01*
X190285714Y-110370952D01*
X190285714Y-110751904D01*
X190238095Y-110847142D01*
X190190476Y-110894761D01*
X190095238Y-110942380D01*
X189904761Y-110942380D01*
X189809523Y-110894761D01*
X189761904Y-110847142D01*
X189714285Y-110751904D01*
X189714285Y-110513809D01*
X189761904Y-110418571D01*
X189809523Y-110370952D01*
X189904761Y-110323333D01*
X190095238Y-110323333D01*
X190190476Y-110370952D01*
X190238095Y-110418571D01*
X190285714Y-110513809D01*
%TO.C,D3*%
X210637380Y-79271904D02*
X209637380Y-79271904D01*
X209637380Y-79510000D01*
X209685000Y-79652857D01*
X209780238Y-79748095D01*
X209875476Y-79795714D01*
X210065952Y-79843333D01*
X210208809Y-79843333D01*
X210399285Y-79795714D01*
X210494523Y-79748095D01*
X210589761Y-79652857D01*
X210637380Y-79510000D01*
X210637380Y-79271904D01*
X209637380Y-80176666D02*
X209637380Y-80795714D01*
X210018333Y-80462380D01*
X210018333Y-80605238D01*
X210065952Y-80700476D01*
X210113571Y-80748095D01*
X210208809Y-80795714D01*
X210446904Y-80795714D01*
X210542142Y-80748095D01*
X210589761Y-80700476D01*
X210637380Y-80605238D01*
X210637380Y-80319523D01*
X210589761Y-80224285D01*
X210542142Y-80176666D01*
%TO.C,C8*%
X228766666Y-110847142D02*
X228814285Y-110894761D01*
X228957142Y-110942380D01*
X229052380Y-110942380D01*
X229195238Y-110894761D01*
X229290476Y-110799523D01*
X229338095Y-110704285D01*
X229385714Y-110513809D01*
X229385714Y-110370952D01*
X229338095Y-110180476D01*
X229290476Y-110085238D01*
X229195238Y-109990000D01*
X229052380Y-109942380D01*
X228957142Y-109942380D01*
X228814285Y-109990000D01*
X228766666Y-110037619D01*
X228195238Y-110370952D02*
X228290476Y-110323333D01*
X228338095Y-110275714D01*
X228385714Y-110180476D01*
X228385714Y-110132857D01*
X228338095Y-110037619D01*
X228290476Y-109990000D01*
X228195238Y-109942380D01*
X228004761Y-109942380D01*
X227909523Y-109990000D01*
X227861904Y-110037619D01*
X227814285Y-110132857D01*
X227814285Y-110180476D01*
X227861904Y-110275714D01*
X227909523Y-110323333D01*
X228004761Y-110370952D01*
X228195238Y-110370952D01*
X228290476Y-110418571D01*
X228338095Y-110466190D01*
X228385714Y-110561428D01*
X228385714Y-110751904D01*
X228338095Y-110847142D01*
X228290476Y-110894761D01*
X228195238Y-110942380D01*
X228004761Y-110942380D01*
X227909523Y-110894761D01*
X227861904Y-110847142D01*
X227814285Y-110751904D01*
X227814285Y-110561428D01*
X227861904Y-110466190D01*
X227909523Y-110418571D01*
X228004761Y-110370952D01*
%TO.C,LED14*%
X164790238Y-128214380D02*
X165266428Y-128214380D01*
X165266428Y-127214380D01*
X164456904Y-127690571D02*
X164123571Y-127690571D01*
X163980714Y-128214380D02*
X164456904Y-128214380D01*
X164456904Y-127214380D01*
X163980714Y-127214380D01*
X163552142Y-128214380D02*
X163552142Y-127214380D01*
X163314047Y-127214380D01*
X163171190Y-127262000D01*
X163075952Y-127357238D01*
X163028333Y-127452476D01*
X162980714Y-127642952D01*
X162980714Y-127785809D01*
X163028333Y-127976285D01*
X163075952Y-128071523D01*
X163171190Y-128166761D01*
X163314047Y-128214380D01*
X163552142Y-128214380D01*
X162028333Y-128214380D02*
X162599761Y-128214380D01*
X162314047Y-128214380D02*
X162314047Y-127214380D01*
X162409285Y-127357238D01*
X162504523Y-127452476D01*
X162599761Y-127500095D01*
X161171190Y-127547714D02*
X161171190Y-128214380D01*
X161409285Y-127166761D02*
X161647380Y-127881047D01*
X161028333Y-127881047D01*
%TO.C,R1*%
X242586166Y-74714380D02*
X242919500Y-74238190D01*
X243157595Y-74714380D02*
X243157595Y-73714380D01*
X242776642Y-73714380D01*
X242681404Y-73762000D01*
X242633785Y-73809619D01*
X242586166Y-73904857D01*
X242586166Y-74047714D01*
X242633785Y-74142952D01*
X242681404Y-74190571D01*
X242776642Y-74238190D01*
X243157595Y-74238190D01*
X241633785Y-74714380D02*
X242205214Y-74714380D01*
X241919500Y-74714380D02*
X241919500Y-73714380D01*
X242014738Y-73857238D01*
X242109976Y-73952476D01*
X242205214Y-74000095D01*
%TO.C,C11*%
X212224857Y-128340142D02*
X212272476Y-128387761D01*
X212415333Y-128435380D01*
X212510571Y-128435380D01*
X212653428Y-128387761D01*
X212748666Y-128292523D01*
X212796285Y-128197285D01*
X212843904Y-128006809D01*
X212843904Y-127863952D01*
X212796285Y-127673476D01*
X212748666Y-127578238D01*
X212653428Y-127483000D01*
X212510571Y-127435380D01*
X212415333Y-127435380D01*
X212272476Y-127483000D01*
X212224857Y-127530619D01*
X211272476Y-128435380D02*
X211843904Y-128435380D01*
X211558190Y-128435380D02*
X211558190Y-127435380D01*
X211653428Y-127578238D01*
X211748666Y-127673476D01*
X211843904Y-127721095D01*
X210320095Y-128435380D02*
X210891523Y-128435380D01*
X210605809Y-128435380D02*
X210605809Y-127435380D01*
X210701047Y-127578238D01*
X210796285Y-127673476D01*
X210891523Y-127721095D01*
%TO.C,LED4*%
X164314047Y-90114380D02*
X164790238Y-90114380D01*
X164790238Y-89114380D01*
X163980714Y-89590571D02*
X163647380Y-89590571D01*
X163504523Y-90114380D02*
X163980714Y-90114380D01*
X163980714Y-89114380D01*
X163504523Y-89114380D01*
X163075952Y-90114380D02*
X163075952Y-89114380D01*
X162837857Y-89114380D01*
X162695000Y-89162000D01*
X162599761Y-89257238D01*
X162552142Y-89352476D01*
X162504523Y-89542952D01*
X162504523Y-89685809D01*
X162552142Y-89876285D01*
X162599761Y-89971523D01*
X162695000Y-90066761D01*
X162837857Y-90114380D01*
X163075952Y-90114380D01*
X161647380Y-89447714D02*
X161647380Y-90114380D01*
X161885476Y-89066761D02*
X162123571Y-89781047D01*
X161504523Y-89781047D01*
%TO.C,LED3*%
X183364047Y-90114380D02*
X183840238Y-90114380D01*
X183840238Y-89114380D01*
X183030714Y-89590571D02*
X182697380Y-89590571D01*
X182554523Y-90114380D02*
X183030714Y-90114380D01*
X183030714Y-89114380D01*
X182554523Y-89114380D01*
X182125952Y-90114380D02*
X182125952Y-89114380D01*
X181887857Y-89114380D01*
X181745000Y-89162000D01*
X181649761Y-89257238D01*
X181602142Y-89352476D01*
X181554523Y-89542952D01*
X181554523Y-89685809D01*
X181602142Y-89876285D01*
X181649761Y-89971523D01*
X181745000Y-90066761D01*
X181887857Y-90114380D01*
X182125952Y-90114380D01*
X181221190Y-89114380D02*
X180602142Y-89114380D01*
X180935476Y-89495333D01*
X180792619Y-89495333D01*
X180697380Y-89542952D01*
X180649761Y-89590571D01*
X180602142Y-89685809D01*
X180602142Y-89923904D01*
X180649761Y-90019142D01*
X180697380Y-90066761D01*
X180792619Y-90114380D01*
X181078333Y-90114380D01*
X181173571Y-90066761D01*
X181221190Y-90019142D01*
%TO.C,C9*%
X247816666Y-110847142D02*
X247864285Y-110894761D01*
X248007142Y-110942380D01*
X248102380Y-110942380D01*
X248245238Y-110894761D01*
X248340476Y-110799523D01*
X248388095Y-110704285D01*
X248435714Y-110513809D01*
X248435714Y-110370952D01*
X248388095Y-110180476D01*
X248340476Y-110085238D01*
X248245238Y-109990000D01*
X248102380Y-109942380D01*
X248007142Y-109942380D01*
X247864285Y-109990000D01*
X247816666Y-110037619D01*
X247340476Y-110942380D02*
X247150000Y-110942380D01*
X247054761Y-110894761D01*
X247007142Y-110847142D01*
X246911904Y-110704285D01*
X246864285Y-110513809D01*
X246864285Y-110132857D01*
X246911904Y-110037619D01*
X246959523Y-109990000D01*
X247054761Y-109942380D01*
X247245238Y-109942380D01*
X247340476Y-109990000D01*
X247388095Y-110037619D01*
X247435714Y-110132857D01*
X247435714Y-110370952D01*
X247388095Y-110466190D01*
X247340476Y-110513809D01*
X247245238Y-110561428D01*
X247054761Y-110561428D01*
X246959523Y-110513809D01*
X246911904Y-110466190D01*
X246864285Y-110370952D01*
%TO.C,LED5*%
X164314047Y-109132380D02*
X164790238Y-109132380D01*
X164790238Y-108132380D01*
X163980714Y-108608571D02*
X163647380Y-108608571D01*
X163504523Y-109132380D02*
X163980714Y-109132380D01*
X163980714Y-108132380D01*
X163504523Y-108132380D01*
X163075952Y-109132380D02*
X163075952Y-108132380D01*
X162837857Y-108132380D01*
X162695000Y-108180000D01*
X162599761Y-108275238D01*
X162552142Y-108370476D01*
X162504523Y-108560952D01*
X162504523Y-108703809D01*
X162552142Y-108894285D01*
X162599761Y-108989523D01*
X162695000Y-109084761D01*
X162837857Y-109132380D01*
X163075952Y-109132380D01*
X161599761Y-108132380D02*
X162075952Y-108132380D01*
X162123571Y-108608571D01*
X162075952Y-108560952D01*
X161980714Y-108513333D01*
X161742619Y-108513333D01*
X161647380Y-108560952D01*
X161599761Y-108608571D01*
X161552142Y-108703809D01*
X161552142Y-108941904D01*
X161599761Y-109037142D01*
X161647380Y-109084761D01*
X161742619Y-109132380D01*
X161980714Y-109132380D01*
X162075952Y-109084761D01*
X162123571Y-109037142D01*
%TO.C,C5*%
X171616666Y-110847142D02*
X171664285Y-110894761D01*
X171807142Y-110942380D01*
X171902380Y-110942380D01*
X172045238Y-110894761D01*
X172140476Y-110799523D01*
X172188095Y-110704285D01*
X172235714Y-110513809D01*
X172235714Y-110370952D01*
X172188095Y-110180476D01*
X172140476Y-110085238D01*
X172045238Y-109990000D01*
X171902380Y-109942380D01*
X171807142Y-109942380D01*
X171664285Y-109990000D01*
X171616666Y-110037619D01*
X170711904Y-109942380D02*
X171188095Y-109942380D01*
X171235714Y-110418571D01*
X171188095Y-110370952D01*
X171092857Y-110323333D01*
X170854761Y-110323333D01*
X170759523Y-110370952D01*
X170711904Y-110418571D01*
X170664285Y-110513809D01*
X170664285Y-110751904D01*
X170711904Y-110847142D01*
X170759523Y-110894761D01*
X170854761Y-110942380D01*
X171092857Y-110942380D01*
X171188095Y-110894761D01*
X171235714Y-110847142D01*
%TO.C,D10*%
X191587380Y-116895714D02*
X190587380Y-116895714D01*
X190587380Y-117133809D01*
X190635000Y-117276666D01*
X190730238Y-117371904D01*
X190825476Y-117419523D01*
X191015952Y-117467142D01*
X191158809Y-117467142D01*
X191349285Y-117419523D01*
X191444523Y-117371904D01*
X191539761Y-117276666D01*
X191587380Y-117133809D01*
X191587380Y-116895714D01*
X191587380Y-118419523D02*
X191587380Y-117848095D01*
X191587380Y-118133809D02*
X190587380Y-118133809D01*
X190730238Y-118038571D01*
X190825476Y-117943333D01*
X190873095Y-117848095D01*
X190587380Y-119038571D02*
X190587380Y-119133809D01*
X190635000Y-119229047D01*
X190682619Y-119276666D01*
X190777857Y-119324285D01*
X190968333Y-119371904D01*
X191206428Y-119371904D01*
X191396904Y-119324285D01*
X191492142Y-119276666D01*
X191539761Y-119229047D01*
X191587380Y-119133809D01*
X191587380Y-119038571D01*
X191539761Y-118943333D01*
X191492142Y-118895714D01*
X191396904Y-118848095D01*
X191206428Y-118800476D01*
X190968333Y-118800476D01*
X190777857Y-118848095D01*
X190682619Y-118895714D01*
X190635000Y-118943333D01*
X190587380Y-119038571D01*
%TO.C,C3*%
X174156666Y-90240142D02*
X174204285Y-90287761D01*
X174347142Y-90335380D01*
X174442380Y-90335380D01*
X174585238Y-90287761D01*
X174680476Y-90192523D01*
X174728095Y-90097285D01*
X174775714Y-89906809D01*
X174775714Y-89763952D01*
X174728095Y-89573476D01*
X174680476Y-89478238D01*
X174585238Y-89383000D01*
X174442380Y-89335380D01*
X174347142Y-89335380D01*
X174204285Y-89383000D01*
X174156666Y-89430619D01*
X173823333Y-89335380D02*
X173204285Y-89335380D01*
X173537619Y-89716333D01*
X173394761Y-89716333D01*
X173299523Y-89763952D01*
X173251904Y-89811571D01*
X173204285Y-89906809D01*
X173204285Y-90144904D01*
X173251904Y-90240142D01*
X173299523Y-90287761D01*
X173394761Y-90335380D01*
X173680476Y-90335380D01*
X173775714Y-90287761D01*
X173823333Y-90240142D01*
%TO.C,D15*%
X248737380Y-116895714D02*
X247737380Y-116895714D01*
X247737380Y-117133809D01*
X247785000Y-117276666D01*
X247880238Y-117371904D01*
X247975476Y-117419523D01*
X248165952Y-117467142D01*
X248308809Y-117467142D01*
X248499285Y-117419523D01*
X248594523Y-117371904D01*
X248689761Y-117276666D01*
X248737380Y-117133809D01*
X248737380Y-116895714D01*
X248737380Y-118419523D02*
X248737380Y-117848095D01*
X248737380Y-118133809D02*
X247737380Y-118133809D01*
X247880238Y-118038571D01*
X247975476Y-117943333D01*
X248023095Y-117848095D01*
X247737380Y-119324285D02*
X247737380Y-118848095D01*
X248213571Y-118800476D01*
X248165952Y-118848095D01*
X248118333Y-118943333D01*
X248118333Y-119181428D01*
X248165952Y-119276666D01*
X248213571Y-119324285D01*
X248308809Y-119371904D01*
X248546904Y-119371904D01*
X248642142Y-119324285D01*
X248689761Y-119276666D01*
X248737380Y-119181428D01*
X248737380Y-118943333D01*
X248689761Y-118848095D01*
X248642142Y-118800476D01*
%TO.C,LED8*%
X221464047Y-109132380D02*
X221940238Y-109132380D01*
X221940238Y-108132380D01*
X221130714Y-108608571D02*
X220797380Y-108608571D01*
X220654523Y-109132380D02*
X221130714Y-109132380D01*
X221130714Y-108132380D01*
X220654523Y-108132380D01*
X220225952Y-109132380D02*
X220225952Y-108132380D01*
X219987857Y-108132380D01*
X219845000Y-108180000D01*
X219749761Y-108275238D01*
X219702142Y-108370476D01*
X219654523Y-108560952D01*
X219654523Y-108703809D01*
X219702142Y-108894285D01*
X219749761Y-108989523D01*
X219845000Y-109084761D01*
X219987857Y-109132380D01*
X220225952Y-109132380D01*
X219083095Y-108560952D02*
X219178333Y-108513333D01*
X219225952Y-108465714D01*
X219273571Y-108370476D01*
X219273571Y-108322857D01*
X219225952Y-108227619D01*
X219178333Y-108180000D01*
X219083095Y-108132380D01*
X218892619Y-108132380D01*
X218797380Y-108180000D01*
X218749761Y-108227619D01*
X218702142Y-108322857D01*
X218702142Y-108370476D01*
X218749761Y-108465714D01*
X218797380Y-108513333D01*
X218892619Y-108560952D01*
X219083095Y-108560952D01*
X219178333Y-108608571D01*
X219225952Y-108656190D01*
X219273571Y-108751428D01*
X219273571Y-108941904D01*
X219225952Y-109037142D01*
X219178333Y-109084761D01*
X219083095Y-109132380D01*
X218892619Y-109132380D01*
X218797380Y-109084761D01*
X218749761Y-109037142D01*
X218702142Y-108941904D01*
X218702142Y-108751428D01*
X218749761Y-108656190D01*
X218797380Y-108608571D01*
X218892619Y-108560952D01*
%TO.C,D2*%
X191587380Y-79271904D02*
X190587380Y-79271904D01*
X190587380Y-79510000D01*
X190635000Y-79652857D01*
X190730238Y-79748095D01*
X190825476Y-79795714D01*
X191015952Y-79843333D01*
X191158809Y-79843333D01*
X191349285Y-79795714D01*
X191444523Y-79748095D01*
X191539761Y-79652857D01*
X191587380Y-79510000D01*
X191587380Y-79271904D01*
X190682619Y-80224285D02*
X190635000Y-80271904D01*
X190587380Y-80367142D01*
X190587380Y-80605238D01*
X190635000Y-80700476D01*
X190682619Y-80748095D01*
X190777857Y-80795714D01*
X190873095Y-80795714D01*
X191015952Y-80748095D01*
X191587380Y-80176666D01*
X191587380Y-80795714D01*
%TO.C,D9*%
X172537380Y-117371904D02*
X171537380Y-117371904D01*
X171537380Y-117610000D01*
X171585000Y-117752857D01*
X171680238Y-117848095D01*
X171775476Y-117895714D01*
X171965952Y-117943333D01*
X172108809Y-117943333D01*
X172299285Y-117895714D01*
X172394523Y-117848095D01*
X172489761Y-117752857D01*
X172537380Y-117610000D01*
X172537380Y-117371904D01*
X172537380Y-118419523D02*
X172537380Y-118610000D01*
X172489761Y-118705238D01*
X172442142Y-118752857D01*
X172299285Y-118848095D01*
X172108809Y-118895714D01*
X171727857Y-118895714D01*
X171632619Y-118848095D01*
X171585000Y-118800476D01*
X171537380Y-118705238D01*
X171537380Y-118514761D01*
X171585000Y-118419523D01*
X171632619Y-118371904D01*
X171727857Y-118324285D01*
X171965952Y-118324285D01*
X172061190Y-118371904D01*
X172108809Y-118419523D01*
X172156428Y-118514761D01*
X172156428Y-118705238D01*
X172108809Y-118800476D01*
X172061190Y-118848095D01*
X171965952Y-118895714D01*
%TO.C,LED1*%
X221464047Y-90114380D02*
X221940238Y-90114380D01*
X221940238Y-89114380D01*
X221130714Y-89590571D02*
X220797380Y-89590571D01*
X220654523Y-90114380D02*
X221130714Y-90114380D01*
X221130714Y-89114380D01*
X220654523Y-89114380D01*
X220225952Y-90114380D02*
X220225952Y-89114380D01*
X219987857Y-89114380D01*
X219845000Y-89162000D01*
X219749761Y-89257238D01*
X219702142Y-89352476D01*
X219654523Y-89542952D01*
X219654523Y-89685809D01*
X219702142Y-89876285D01*
X219749761Y-89971523D01*
X219845000Y-90066761D01*
X219987857Y-90114380D01*
X220225952Y-90114380D01*
X218702142Y-90114380D02*
X219273571Y-90114380D01*
X218987857Y-90114380D02*
X218987857Y-89114380D01*
X219083095Y-89257238D01*
X219178333Y-89352476D01*
X219273571Y-89400095D01*
%TO.C,LED2*%
X202414047Y-90114380D02*
X202890238Y-90114380D01*
X202890238Y-89114380D01*
X202080714Y-89590571D02*
X201747380Y-89590571D01*
X201604523Y-90114380D02*
X202080714Y-90114380D01*
X202080714Y-89114380D01*
X201604523Y-89114380D01*
X201175952Y-90114380D02*
X201175952Y-89114380D01*
X200937857Y-89114380D01*
X200795000Y-89162000D01*
X200699761Y-89257238D01*
X200652142Y-89352476D01*
X200604523Y-89542952D01*
X200604523Y-89685809D01*
X200652142Y-89876285D01*
X200699761Y-89971523D01*
X200795000Y-90066761D01*
X200937857Y-90114380D01*
X201175952Y-90114380D01*
X200223571Y-89209619D02*
X200175952Y-89162000D01*
X200080714Y-89114380D01*
X199842619Y-89114380D01*
X199747380Y-89162000D01*
X199699761Y-89209619D01*
X199652142Y-89304857D01*
X199652142Y-89400095D01*
X199699761Y-89542952D01*
X200271190Y-90114380D01*
X199652142Y-90114380D01*
%TO.C,D1*%
X172537380Y-79271904D02*
X171537380Y-79271904D01*
X171537380Y-79510000D01*
X171585000Y-79652857D01*
X171680238Y-79748095D01*
X171775476Y-79795714D01*
X171965952Y-79843333D01*
X172108809Y-79843333D01*
X172299285Y-79795714D01*
X172394523Y-79748095D01*
X172489761Y-79652857D01*
X172537380Y-79510000D01*
X172537380Y-79271904D01*
X172537380Y-80795714D02*
X172537380Y-80224285D01*
X172537380Y-80510000D02*
X171537380Y-80510000D01*
X171680238Y-80414761D01*
X171775476Y-80319523D01*
X171823095Y-80224285D01*
%TO.C,D12*%
X229687380Y-116895714D02*
X228687380Y-116895714D01*
X228687380Y-117133809D01*
X228735000Y-117276666D01*
X228830238Y-117371904D01*
X228925476Y-117419523D01*
X229115952Y-117467142D01*
X229258809Y-117467142D01*
X229449285Y-117419523D01*
X229544523Y-117371904D01*
X229639761Y-117276666D01*
X229687380Y-117133809D01*
X229687380Y-116895714D01*
X229687380Y-118419523D02*
X229687380Y-117848095D01*
X229687380Y-118133809D02*
X228687380Y-118133809D01*
X228830238Y-118038571D01*
X228925476Y-117943333D01*
X228973095Y-117848095D01*
X228782619Y-118800476D02*
X228735000Y-118848095D01*
X228687380Y-118943333D01*
X228687380Y-119181428D01*
X228735000Y-119276666D01*
X228782619Y-119324285D01*
X228877857Y-119371904D01*
X228973095Y-119371904D01*
X229115952Y-119324285D01*
X229687380Y-118752857D01*
X229687380Y-119371904D01*
%TO.C,C2*%
X193206666Y-90240142D02*
X193254285Y-90287761D01*
X193397142Y-90335380D01*
X193492380Y-90335380D01*
X193635238Y-90287761D01*
X193730476Y-90192523D01*
X193778095Y-90097285D01*
X193825714Y-89906809D01*
X193825714Y-89763952D01*
X193778095Y-89573476D01*
X193730476Y-89478238D01*
X193635238Y-89383000D01*
X193492380Y-89335380D01*
X193397142Y-89335380D01*
X193254285Y-89383000D01*
X193206666Y-89430619D01*
X192825714Y-89430619D02*
X192778095Y-89383000D01*
X192682857Y-89335380D01*
X192444761Y-89335380D01*
X192349523Y-89383000D01*
X192301904Y-89430619D01*
X192254285Y-89525857D01*
X192254285Y-89621095D01*
X192301904Y-89763952D01*
X192873333Y-90335380D01*
X192254285Y-90335380D01*
%TO.C,D11*%
X210637380Y-116895714D02*
X209637380Y-116895714D01*
X209637380Y-117133809D01*
X209685000Y-117276666D01*
X209780238Y-117371904D01*
X209875476Y-117419523D01*
X210065952Y-117467142D01*
X210208809Y-117467142D01*
X210399285Y-117419523D01*
X210494523Y-117371904D01*
X210589761Y-117276666D01*
X210637380Y-117133809D01*
X210637380Y-116895714D01*
X210637380Y-118419523D02*
X210637380Y-117848095D01*
X210637380Y-118133809D02*
X209637380Y-118133809D01*
X209780238Y-118038571D01*
X209875476Y-117943333D01*
X209923095Y-117848095D01*
X210637380Y-119371904D02*
X210637380Y-118800476D01*
X210637380Y-119086190D02*
X209637380Y-119086190D01*
X209780238Y-118990952D01*
X209875476Y-118895714D01*
X209923095Y-118800476D01*
%TO.C,LED9*%
X240514047Y-109037380D02*
X240990238Y-109037380D01*
X240990238Y-108037380D01*
X240180714Y-108513571D02*
X239847380Y-108513571D01*
X239704523Y-109037380D02*
X240180714Y-109037380D01*
X240180714Y-108037380D01*
X239704523Y-108037380D01*
X239275952Y-109037380D02*
X239275952Y-108037380D01*
X239037857Y-108037380D01*
X238895000Y-108085000D01*
X238799761Y-108180238D01*
X238752142Y-108275476D01*
X238704523Y-108465952D01*
X238704523Y-108608809D01*
X238752142Y-108799285D01*
X238799761Y-108894523D01*
X238895000Y-108989761D01*
X239037857Y-109037380D01*
X239275952Y-109037380D01*
X238228333Y-109037380D02*
X238037857Y-109037380D01*
X237942619Y-108989761D01*
X237895000Y-108942142D01*
X237799761Y-108799285D01*
X237752142Y-108608809D01*
X237752142Y-108227857D01*
X237799761Y-108132619D01*
X237847380Y-108085000D01*
X237942619Y-108037380D01*
X238133095Y-108037380D01*
X238228333Y-108085000D01*
X238275952Y-108132619D01*
X238323571Y-108227857D01*
X238323571Y-108465952D01*
X238275952Y-108561190D01*
X238228333Y-108608809D01*
X238133095Y-108656428D01*
X237942619Y-108656428D01*
X237847380Y-108608809D01*
X237799761Y-108561190D01*
X237752142Y-108465952D01*
%TO.C,D4*%
X229687380Y-79271904D02*
X228687380Y-79271904D01*
X228687380Y-79510000D01*
X228735000Y-79652857D01*
X228830238Y-79748095D01*
X228925476Y-79795714D01*
X229115952Y-79843333D01*
X229258809Y-79843333D01*
X229449285Y-79795714D01*
X229544523Y-79748095D01*
X229639761Y-79652857D01*
X229687380Y-79510000D01*
X229687380Y-79271904D01*
X229020714Y-80700476D02*
X229687380Y-80700476D01*
X228639761Y-80462380D02*
X229354047Y-80224285D01*
X229354047Y-80843333D01*
%TO.C,D13*%
X248737380Y-78795714D02*
X247737380Y-78795714D01*
X247737380Y-79033809D01*
X247785000Y-79176666D01*
X247880238Y-79271904D01*
X247975476Y-79319523D01*
X248165952Y-79367142D01*
X248308809Y-79367142D01*
X248499285Y-79319523D01*
X248594523Y-79271904D01*
X248689761Y-79176666D01*
X248737380Y-79033809D01*
X248737380Y-78795714D01*
X248737380Y-80319523D02*
X248737380Y-79748095D01*
X248737380Y-80033809D02*
X247737380Y-80033809D01*
X247880238Y-79938571D01*
X247975476Y-79843333D01*
X248023095Y-79748095D01*
X247737380Y-80652857D02*
X247737380Y-81271904D01*
X248118333Y-80938571D01*
X248118333Y-81081428D01*
X248165952Y-81176666D01*
X248213571Y-81224285D01*
X248308809Y-81271904D01*
X248546904Y-81271904D01*
X248642142Y-81224285D01*
X248689761Y-81176666D01*
X248737380Y-81081428D01*
X248737380Y-80795714D01*
X248689761Y-80700476D01*
X248642142Y-80652857D01*
%TO.C,LED0*%
X240514047Y-90114380D02*
X240990238Y-90114380D01*
X240990238Y-89114380D01*
X240180714Y-89590571D02*
X239847380Y-89590571D01*
X239704523Y-90114380D02*
X240180714Y-90114380D01*
X240180714Y-89114380D01*
X239704523Y-89114380D01*
X239275952Y-90114380D02*
X239275952Y-89114380D01*
X239037857Y-89114380D01*
X238895000Y-89162000D01*
X238799761Y-89257238D01*
X238752142Y-89352476D01*
X238704523Y-89542952D01*
X238704523Y-89685809D01*
X238752142Y-89876285D01*
X238799761Y-89971523D01*
X238895000Y-90066761D01*
X239037857Y-90114380D01*
X239275952Y-90114380D01*
X238085476Y-89114380D02*
X237990238Y-89114380D01*
X237895000Y-89162000D01*
X237847380Y-89209619D01*
X237799761Y-89304857D01*
X237752142Y-89495333D01*
X237752142Y-89733428D01*
X237799761Y-89923904D01*
X237847380Y-90019142D01*
X237895000Y-90066761D01*
X237990238Y-90114380D01*
X238085476Y-90114380D01*
X238180714Y-90066761D01*
X238228333Y-90019142D01*
X238275952Y-89923904D01*
X238323571Y-89733428D01*
X238323571Y-89495333D01*
X238275952Y-89304857D01*
X238228333Y-89209619D01*
X238180714Y-89162000D01*
X238085476Y-89114380D01*
%TO.C,D14*%
X248737380Y-97845714D02*
X247737380Y-97845714D01*
X247737380Y-98083809D01*
X247785000Y-98226666D01*
X247880238Y-98321904D01*
X247975476Y-98369523D01*
X248165952Y-98417142D01*
X248308809Y-98417142D01*
X248499285Y-98369523D01*
X248594523Y-98321904D01*
X248689761Y-98226666D01*
X248737380Y-98083809D01*
X248737380Y-97845714D01*
X248737380Y-99369523D02*
X248737380Y-98798095D01*
X248737380Y-99083809D02*
X247737380Y-99083809D01*
X247880238Y-98988571D01*
X247975476Y-98893333D01*
X248023095Y-98798095D01*
X248070714Y-100226666D02*
X248737380Y-100226666D01*
X247689761Y-99988571D02*
X248404047Y-99750476D01*
X248404047Y-100369523D01*
%TO.C,D8*%
X229687380Y-98321904D02*
X228687380Y-98321904D01*
X228687380Y-98560000D01*
X228735000Y-98702857D01*
X228830238Y-98798095D01*
X228925476Y-98845714D01*
X229115952Y-98893333D01*
X229258809Y-98893333D01*
X229449285Y-98845714D01*
X229544523Y-98798095D01*
X229639761Y-98702857D01*
X229687380Y-98560000D01*
X229687380Y-98321904D01*
X229115952Y-99464761D02*
X229068333Y-99369523D01*
X229020714Y-99321904D01*
X228925476Y-99274285D01*
X228877857Y-99274285D01*
X228782619Y-99321904D01*
X228735000Y-99369523D01*
X228687380Y-99464761D01*
X228687380Y-99655238D01*
X228735000Y-99750476D01*
X228782619Y-99798095D01*
X228877857Y-99845714D01*
X228925476Y-99845714D01*
X229020714Y-99798095D01*
X229068333Y-99750476D01*
X229115952Y-99655238D01*
X229115952Y-99464761D01*
X229163571Y-99369523D01*
X229211190Y-99321904D01*
X229306428Y-99274285D01*
X229496904Y-99274285D01*
X229592142Y-99321904D01*
X229639761Y-99369523D01*
X229687380Y-99464761D01*
X229687380Y-99655238D01*
X229639761Y-99750476D01*
X229592142Y-99798095D01*
X229496904Y-99845714D01*
X229306428Y-99845714D01*
X229211190Y-99798095D01*
X229163571Y-99750476D01*
X229115952Y-99655238D01*
%TO.C,D5*%
X172537380Y-98321904D02*
X171537380Y-98321904D01*
X171537380Y-98560000D01*
X171585000Y-98702857D01*
X171680238Y-98798095D01*
X171775476Y-98845714D01*
X171965952Y-98893333D01*
X172108809Y-98893333D01*
X172299285Y-98845714D01*
X172394523Y-98798095D01*
X172489761Y-98702857D01*
X172537380Y-98560000D01*
X172537380Y-98321904D01*
X171537380Y-99798095D02*
X171537380Y-99321904D01*
X172013571Y-99274285D01*
X171965952Y-99321904D01*
X171918333Y-99417142D01*
X171918333Y-99655238D01*
X171965952Y-99750476D01*
X172013571Y-99798095D01*
X172108809Y-99845714D01*
X172346904Y-99845714D01*
X172442142Y-99798095D01*
X172489761Y-99750476D01*
X172537380Y-99655238D01*
X172537380Y-99417142D01*
X172489761Y-99321904D01*
X172442142Y-99274285D01*
%TO.C,D6*%
X191587380Y-98321904D02*
X190587380Y-98321904D01*
X190587380Y-98560000D01*
X190635000Y-98702857D01*
X190730238Y-98798095D01*
X190825476Y-98845714D01*
X191015952Y-98893333D01*
X191158809Y-98893333D01*
X191349285Y-98845714D01*
X191444523Y-98798095D01*
X191539761Y-98702857D01*
X191587380Y-98560000D01*
X191587380Y-98321904D01*
X190587380Y-99750476D02*
X190587380Y-99560000D01*
X190635000Y-99464761D01*
X190682619Y-99417142D01*
X190825476Y-99321904D01*
X191015952Y-99274285D01*
X191396904Y-99274285D01*
X191492142Y-99321904D01*
X191539761Y-99369523D01*
X191587380Y-99464761D01*
X191587380Y-99655238D01*
X191539761Y-99750476D01*
X191492142Y-99798095D01*
X191396904Y-99845714D01*
X191158809Y-99845714D01*
X191063571Y-99798095D01*
X191015952Y-99750476D01*
X190968333Y-99655238D01*
X190968333Y-99464761D01*
X191015952Y-99369523D01*
X191063571Y-99321904D01*
X191158809Y-99274285D01*
%TO.C,C4*%
X155106666Y-90240142D02*
X155154285Y-90287761D01*
X155297142Y-90335380D01*
X155392380Y-90335380D01*
X155535238Y-90287761D01*
X155630476Y-90192523D01*
X155678095Y-90097285D01*
X155725714Y-89906809D01*
X155725714Y-89763952D01*
X155678095Y-89573476D01*
X155630476Y-89478238D01*
X155535238Y-89383000D01*
X155392380Y-89335380D01*
X155297142Y-89335380D01*
X155154285Y-89383000D01*
X155106666Y-89430619D01*
X154249523Y-89668714D02*
X154249523Y-90335380D01*
X154487619Y-89287761D02*
X154725714Y-90002047D01*
X154106666Y-90002047D01*
%TO.C,D7*%
X210637380Y-98321904D02*
X209637380Y-98321904D01*
X209637380Y-98560000D01*
X209685000Y-98702857D01*
X209780238Y-98798095D01*
X209875476Y-98845714D01*
X210065952Y-98893333D01*
X210208809Y-98893333D01*
X210399285Y-98845714D01*
X210494523Y-98798095D01*
X210589761Y-98702857D01*
X210637380Y-98560000D01*
X210637380Y-98321904D01*
X209637380Y-99226666D02*
X209637380Y-99893333D01*
X210637380Y-99464761D01*
%TO.C,C0*%
X231306666Y-90240142D02*
X231354285Y-90287761D01*
X231497142Y-90335380D01*
X231592380Y-90335380D01*
X231735238Y-90287761D01*
X231830476Y-90192523D01*
X231878095Y-90097285D01*
X231925714Y-89906809D01*
X231925714Y-89763952D01*
X231878095Y-89573476D01*
X231830476Y-89478238D01*
X231735238Y-89383000D01*
X231592380Y-89335380D01*
X231497142Y-89335380D01*
X231354285Y-89383000D01*
X231306666Y-89430619D01*
X230687619Y-89335380D02*
X230592380Y-89335380D01*
X230497142Y-89383000D01*
X230449523Y-89430619D01*
X230401904Y-89525857D01*
X230354285Y-89716333D01*
X230354285Y-89954428D01*
X230401904Y-90144904D01*
X230449523Y-90240142D01*
X230497142Y-90287761D01*
X230592380Y-90335380D01*
X230687619Y-90335380D01*
X230782857Y-90287761D01*
X230830476Y-90240142D01*
X230878095Y-90144904D01*
X230925714Y-89954428D01*
X230925714Y-89716333D01*
X230878095Y-89525857D01*
X230830476Y-89430619D01*
X230782857Y-89383000D01*
X230687619Y-89335380D01*
%TO.C,C12*%
X193174857Y-128340142D02*
X193222476Y-128387761D01*
X193365333Y-128435380D01*
X193460571Y-128435380D01*
X193603428Y-128387761D01*
X193698666Y-128292523D01*
X193746285Y-128197285D01*
X193793904Y-128006809D01*
X193793904Y-127863952D01*
X193746285Y-127673476D01*
X193698666Y-127578238D01*
X193603428Y-127483000D01*
X193460571Y-127435380D01*
X193365333Y-127435380D01*
X193222476Y-127483000D01*
X193174857Y-127530619D01*
X192222476Y-128435380D02*
X192793904Y-128435380D01*
X192508190Y-128435380D02*
X192508190Y-127435380D01*
X192603428Y-127578238D01*
X192698666Y-127673476D01*
X192793904Y-127721095D01*
X191841523Y-127530619D02*
X191793904Y-127483000D01*
X191698666Y-127435380D01*
X191460571Y-127435380D01*
X191365333Y-127483000D01*
X191317714Y-127530619D01*
X191270095Y-127625857D01*
X191270095Y-127721095D01*
X191317714Y-127863952D01*
X191889142Y-128435380D01*
X191270095Y-128435380D01*
%TO.C,LED11*%
X221940238Y-128214380D02*
X222416428Y-128214380D01*
X222416428Y-127214380D01*
X221606904Y-127690571D02*
X221273571Y-127690571D01*
X221130714Y-128214380D02*
X221606904Y-128214380D01*
X221606904Y-127214380D01*
X221130714Y-127214380D01*
X220702142Y-128214380D02*
X220702142Y-127214380D01*
X220464047Y-127214380D01*
X220321190Y-127262000D01*
X220225952Y-127357238D01*
X220178333Y-127452476D01*
X220130714Y-127642952D01*
X220130714Y-127785809D01*
X220178333Y-127976285D01*
X220225952Y-128071523D01*
X220321190Y-128166761D01*
X220464047Y-128214380D01*
X220702142Y-128214380D01*
X219178333Y-128214380D02*
X219749761Y-128214380D01*
X219464047Y-128214380D02*
X219464047Y-127214380D01*
X219559285Y-127357238D01*
X219654523Y-127452476D01*
X219749761Y-127500095D01*
X218225952Y-128214380D02*
X218797380Y-128214380D01*
X218511666Y-128214380D02*
X218511666Y-127214380D01*
X218606904Y-127357238D01*
X218702142Y-127452476D01*
X218797380Y-127500095D01*
%TO.C,C1*%
X212256666Y-90240142D02*
X212304285Y-90287761D01*
X212447142Y-90335380D01*
X212542380Y-90335380D01*
X212685238Y-90287761D01*
X212780476Y-90192523D01*
X212828095Y-90097285D01*
X212875714Y-89906809D01*
X212875714Y-89763952D01*
X212828095Y-89573476D01*
X212780476Y-89478238D01*
X212685238Y-89383000D01*
X212542380Y-89335380D01*
X212447142Y-89335380D01*
X212304285Y-89383000D01*
X212256666Y-89430619D01*
X211304285Y-90335380D02*
X211875714Y-90335380D01*
X211590000Y-90335380D02*
X211590000Y-89335380D01*
X211685238Y-89478238D01*
X211780476Y-89573476D01*
X211875714Y-89621095D01*
%TO.C,C10*%
X231274857Y-128340142D02*
X231322476Y-128387761D01*
X231465333Y-128435380D01*
X231560571Y-128435380D01*
X231703428Y-128387761D01*
X231798666Y-128292523D01*
X231846285Y-128197285D01*
X231893904Y-128006809D01*
X231893904Y-127863952D01*
X231846285Y-127673476D01*
X231798666Y-127578238D01*
X231703428Y-127483000D01*
X231560571Y-127435380D01*
X231465333Y-127435380D01*
X231322476Y-127483000D01*
X231274857Y-127530619D01*
X230322476Y-128435380D02*
X230893904Y-128435380D01*
X230608190Y-128435380D02*
X230608190Y-127435380D01*
X230703428Y-127578238D01*
X230798666Y-127673476D01*
X230893904Y-127721095D01*
X229703428Y-127435380D02*
X229608190Y-127435380D01*
X229512952Y-127483000D01*
X229465333Y-127530619D01*
X229417714Y-127625857D01*
X229370095Y-127816333D01*
X229370095Y-128054428D01*
X229417714Y-128244904D01*
X229465333Y-128340142D01*
X229512952Y-128387761D01*
X229608190Y-128435380D01*
X229703428Y-128435380D01*
X229798666Y-128387761D01*
X229846285Y-128340142D01*
X229893904Y-128244904D01*
X229941523Y-128054428D01*
X229941523Y-127816333D01*
X229893904Y-127625857D01*
X229846285Y-127530619D01*
X229798666Y-127483000D01*
X229703428Y-127435380D01*
%TO.C,LED10*%
X240990238Y-128214380D02*
X241466428Y-128214380D01*
X241466428Y-127214380D01*
X240656904Y-127690571D02*
X240323571Y-127690571D01*
X240180714Y-128214380D02*
X240656904Y-128214380D01*
X240656904Y-127214380D01*
X240180714Y-127214380D01*
X239752142Y-128214380D02*
X239752142Y-127214380D01*
X239514047Y-127214380D01*
X239371190Y-127262000D01*
X239275952Y-127357238D01*
X239228333Y-127452476D01*
X239180714Y-127642952D01*
X239180714Y-127785809D01*
X239228333Y-127976285D01*
X239275952Y-128071523D01*
X239371190Y-128166761D01*
X239514047Y-128214380D01*
X239752142Y-128214380D01*
X238228333Y-128214380D02*
X238799761Y-128214380D01*
X238514047Y-128214380D02*
X238514047Y-127214380D01*
X238609285Y-127357238D01*
X238704523Y-127452476D01*
X238799761Y-127500095D01*
X237609285Y-127214380D02*
X237514047Y-127214380D01*
X237418809Y-127262000D01*
X237371190Y-127309619D01*
X237323571Y-127404857D01*
X237275952Y-127595333D01*
X237275952Y-127833428D01*
X237323571Y-128023904D01*
X237371190Y-128119142D01*
X237418809Y-128166761D01*
X237514047Y-128214380D01*
X237609285Y-128214380D01*
X237704523Y-128166761D01*
X237752142Y-128119142D01*
X237799761Y-128023904D01*
X237847380Y-127833428D01*
X237847380Y-127595333D01*
X237799761Y-127404857D01*
X237752142Y-127309619D01*
X237704523Y-127262000D01*
X237609285Y-127214380D01*
%TO.C,LED13*%
X183840238Y-128214380D02*
X184316428Y-128214380D01*
X184316428Y-127214380D01*
X183506904Y-127690571D02*
X183173571Y-127690571D01*
X183030714Y-128214380D02*
X183506904Y-128214380D01*
X183506904Y-127214380D01*
X183030714Y-127214380D01*
X182602142Y-128214380D02*
X182602142Y-127214380D01*
X182364047Y-127214380D01*
X182221190Y-127262000D01*
X182125952Y-127357238D01*
X182078333Y-127452476D01*
X182030714Y-127642952D01*
X182030714Y-127785809D01*
X182078333Y-127976285D01*
X182125952Y-128071523D01*
X182221190Y-128166761D01*
X182364047Y-128214380D01*
X182602142Y-128214380D01*
X181078333Y-128214380D02*
X181649761Y-128214380D01*
X181364047Y-128214380D02*
X181364047Y-127214380D01*
X181459285Y-127357238D01*
X181554523Y-127452476D01*
X181649761Y-127500095D01*
X180745000Y-127214380D02*
X180125952Y-127214380D01*
X180459285Y-127595333D01*
X180316428Y-127595333D01*
X180221190Y-127642952D01*
X180173571Y-127690571D01*
X180125952Y-127785809D01*
X180125952Y-128023904D01*
X180173571Y-128119142D01*
X180221190Y-128166761D01*
X180316428Y-128214380D01*
X180602142Y-128214380D01*
X180697380Y-128166761D01*
X180745000Y-128119142D01*
%TO.C,LED7*%
X202414047Y-109132380D02*
X202890238Y-109132380D01*
X202890238Y-108132380D01*
X202080714Y-108608571D02*
X201747380Y-108608571D01*
X201604523Y-109132380D02*
X202080714Y-109132380D01*
X202080714Y-108132380D01*
X201604523Y-108132380D01*
X201175952Y-109132380D02*
X201175952Y-108132380D01*
X200937857Y-108132380D01*
X200795000Y-108180000D01*
X200699761Y-108275238D01*
X200652142Y-108370476D01*
X200604523Y-108560952D01*
X200604523Y-108703809D01*
X200652142Y-108894285D01*
X200699761Y-108989523D01*
X200795000Y-109084761D01*
X200937857Y-109132380D01*
X201175952Y-109132380D01*
X200271190Y-108132380D02*
X199604523Y-108132380D01*
X200033095Y-109132380D01*
%TO.C,LED6*%
X183364047Y-109037380D02*
X183840238Y-109037380D01*
X183840238Y-108037380D01*
X183030714Y-108513571D02*
X182697380Y-108513571D01*
X182554523Y-109037380D02*
X183030714Y-109037380D01*
X183030714Y-108037380D01*
X182554523Y-108037380D01*
X182125952Y-109037380D02*
X182125952Y-108037380D01*
X181887857Y-108037380D01*
X181745000Y-108085000D01*
X181649761Y-108180238D01*
X181602142Y-108275476D01*
X181554523Y-108465952D01*
X181554523Y-108608809D01*
X181602142Y-108799285D01*
X181649761Y-108894523D01*
X181745000Y-108989761D01*
X181887857Y-109037380D01*
X182125952Y-109037380D01*
X180697380Y-108037380D02*
X180887857Y-108037380D01*
X180983095Y-108085000D01*
X181030714Y-108132619D01*
X181125952Y-108275476D01*
X181173571Y-108465952D01*
X181173571Y-108846904D01*
X181125952Y-108942142D01*
X181078333Y-108989761D01*
X180983095Y-109037380D01*
X180792619Y-109037380D01*
X180697380Y-108989761D01*
X180649761Y-108942142D01*
X180602142Y-108846904D01*
X180602142Y-108608809D01*
X180649761Y-108513571D01*
X180697380Y-108465952D01*
X180792619Y-108418333D01*
X180983095Y-108418333D01*
X181078333Y-108465952D01*
X181125952Y-108513571D01*
X181173571Y-108608809D01*
%TO.C,C14*%
X155074857Y-128340142D02*
X155122476Y-128387761D01*
X155265333Y-128435380D01*
X155360571Y-128435380D01*
X155503428Y-128387761D01*
X155598666Y-128292523D01*
X155646285Y-128197285D01*
X155693904Y-128006809D01*
X155693904Y-127863952D01*
X155646285Y-127673476D01*
X155598666Y-127578238D01*
X155503428Y-127483000D01*
X155360571Y-127435380D01*
X155265333Y-127435380D01*
X155122476Y-127483000D01*
X155074857Y-127530619D01*
X154122476Y-128435380D02*
X154693904Y-128435380D01*
X154408190Y-128435380D02*
X154408190Y-127435380D01*
X154503428Y-127578238D01*
X154598666Y-127673476D01*
X154693904Y-127721095D01*
X153265333Y-127768714D02*
X153265333Y-128435380D01*
X153503428Y-127387761D02*
X153741523Y-128102047D01*
X153122476Y-128102047D01*
%TO.C,LED12*%
X202890238Y-128214380D02*
X203366428Y-128214380D01*
X203366428Y-127214380D01*
X202556904Y-127690571D02*
X202223571Y-127690571D01*
X202080714Y-128214380D02*
X202556904Y-128214380D01*
X202556904Y-127214380D01*
X202080714Y-127214380D01*
X201652142Y-128214380D02*
X201652142Y-127214380D01*
X201414047Y-127214380D01*
X201271190Y-127262000D01*
X201175952Y-127357238D01*
X201128333Y-127452476D01*
X201080714Y-127642952D01*
X201080714Y-127785809D01*
X201128333Y-127976285D01*
X201175952Y-128071523D01*
X201271190Y-128166761D01*
X201414047Y-128214380D01*
X201652142Y-128214380D01*
X200128333Y-128214380D02*
X200699761Y-128214380D01*
X200414047Y-128214380D02*
X200414047Y-127214380D01*
X200509285Y-127357238D01*
X200604523Y-127452476D01*
X200699761Y-127500095D01*
X199747380Y-127309619D02*
X199699761Y-127262000D01*
X199604523Y-127214380D01*
X199366428Y-127214380D01*
X199271190Y-127262000D01*
X199223571Y-127309619D01*
X199175952Y-127404857D01*
X199175952Y-127500095D01*
X199223571Y-127642952D01*
X199795000Y-128214380D01*
X199175952Y-128214380D01*
D15*
%TO.C,KEY8*%
X227330000Y-101346000D02*
X227330000Y-111125000D01*
X213360000Y-112395000D02*
X213360000Y-111252000D01*
X216535000Y-112395000D02*
X213360000Y-112395000D01*
X226060000Y-112395000D02*
X224155000Y-112395000D01*
X213360000Y-109347000D02*
X213360000Y-98425000D01*
X213360000Y-98425000D02*
X226060000Y-98425000D01*
%TO.C,KEY9*%
X156210000Y-131445000D02*
X156210000Y-130302000D01*
X170180000Y-120396000D02*
X170180000Y-130175000D01*
X156210000Y-117475000D02*
X168910000Y-117475000D01*
X159385000Y-131445000D02*
X156210000Y-131445000D01*
X168910000Y-131445000D02*
X167005000Y-131445000D01*
X156210000Y-128397000D02*
X156210000Y-117475000D01*
%TO.C,KEY13*%
X232410000Y-90297000D02*
X232410000Y-79375000D01*
X232410000Y-93345000D02*
X232410000Y-92202000D01*
X245110000Y-93345000D02*
X243205000Y-93345000D01*
X235585000Y-93345000D02*
X232410000Y-93345000D01*
X246380000Y-82296000D02*
X246380000Y-92075000D01*
X232410000Y-79375000D02*
X245110000Y-79375000D01*
%TO.C,KEY14*%
X245110000Y-112395000D02*
X243205000Y-112395000D01*
X232410000Y-112395000D02*
X232410000Y-111252000D01*
X232410000Y-109347000D02*
X232410000Y-98425000D01*
X246380000Y-101346000D02*
X246380000Y-111125000D01*
X232410000Y-98425000D02*
X245110000Y-98425000D01*
X235585000Y-112395000D02*
X232410000Y-112395000D01*
%TO.C,KEY10*%
X175260000Y-128397000D02*
X175260000Y-117475000D01*
X175260000Y-117475000D02*
X187960000Y-117475000D01*
X189230000Y-120396000D02*
X189230000Y-130175000D01*
X178435000Y-131445000D02*
X175260000Y-131445000D01*
X187960000Y-131445000D02*
X186055000Y-131445000D01*
X175260000Y-131445000D02*
X175260000Y-130302000D01*
%TO.C,KEY4*%
X226060000Y-93345000D02*
X224155000Y-93345000D01*
X213360000Y-90297000D02*
X213360000Y-79375000D01*
X213360000Y-79375000D02*
X226060000Y-79375000D01*
X216535000Y-93345000D02*
X213360000Y-93345000D01*
X227330000Y-82296000D02*
X227330000Y-92075000D01*
X213360000Y-93345000D02*
X213360000Y-92202000D01*
%TO.C,KEY1*%
X168910000Y-93345000D02*
X167005000Y-93345000D01*
X159385000Y-93345000D02*
X156210000Y-93345000D01*
X156210000Y-93345000D02*
X156210000Y-92202000D01*
X156210000Y-79375000D02*
X168910000Y-79375000D01*
X170180000Y-82296000D02*
X170180000Y-92075000D01*
X156210000Y-90297000D02*
X156210000Y-79375000D01*
%TO.C,KEY11*%
X194310000Y-117475000D02*
X207010000Y-117475000D01*
X194310000Y-128397000D02*
X194310000Y-117475000D01*
X197485000Y-131445000D02*
X194310000Y-131445000D01*
X208280000Y-120396000D02*
X208280000Y-130175000D01*
X207010000Y-131445000D02*
X205105000Y-131445000D01*
X194310000Y-131445000D02*
X194310000Y-130302000D01*
%TO.C,KEY12*%
X213360000Y-131445000D02*
X213360000Y-130302000D01*
X213360000Y-117475000D02*
X226060000Y-117475000D01*
X227330000Y-120396000D02*
X227330000Y-130175000D01*
X216535000Y-131445000D02*
X213360000Y-131445000D01*
X213360000Y-128397000D02*
X213360000Y-117475000D01*
X226060000Y-131445000D02*
X224155000Y-131445000D01*
%TO.C,KEY6*%
X175260000Y-109347000D02*
X175260000Y-98425000D01*
X178435000Y-112395000D02*
X175260000Y-112395000D01*
X175260000Y-98425000D02*
X187960000Y-98425000D01*
X187960000Y-112395000D02*
X186055000Y-112395000D01*
X189230000Y-101346000D02*
X189230000Y-111125000D01*
X175260000Y-112395000D02*
X175260000Y-111252000D01*
%TO.C,KEY2*%
X175260000Y-93345000D02*
X175260000Y-92202000D01*
X187960000Y-93345000D02*
X186055000Y-93345000D01*
X175260000Y-90297000D02*
X175260000Y-79375000D01*
X175260000Y-79375000D02*
X187960000Y-79375000D01*
X189230000Y-82296000D02*
X189230000Y-92075000D01*
X178435000Y-93345000D02*
X175260000Y-93345000D01*
%TO.C,U1*%
X226593400Y-72694800D02*
X226593400Y-39116000D01*
X244525800Y-39116000D02*
X244525800Y-72694800D01*
X244525800Y-72694800D02*
X226593400Y-72694800D01*
X226593400Y-39116000D02*
X244525800Y-39116000D01*
%TO.C,KEY7*%
X208280000Y-101346000D02*
X208280000Y-111125000D01*
X194310000Y-112395000D02*
X194310000Y-111252000D01*
X207010000Y-112395000D02*
X205105000Y-112395000D01*
X194310000Y-109347000D02*
X194310000Y-98425000D01*
X197485000Y-112395000D02*
X194310000Y-112395000D01*
X194310000Y-98425000D02*
X207010000Y-98425000D01*
%TO.C,KEY15*%
X246380000Y-120396000D02*
X246380000Y-130175000D01*
X232410000Y-117475000D02*
X245110000Y-117475000D01*
X245110000Y-131445000D02*
X243205000Y-131445000D01*
X232410000Y-131445000D02*
X232410000Y-130302000D01*
X232410000Y-128397000D02*
X232410000Y-117475000D01*
X235585000Y-131445000D02*
X232410000Y-131445000D01*
%TO.C,KEY3*%
X197485000Y-93345000D02*
X194310000Y-93345000D01*
X208280000Y-82296000D02*
X208280000Y-92075000D01*
X194310000Y-93345000D02*
X194310000Y-92202000D01*
X194310000Y-90297000D02*
X194310000Y-79375000D01*
X207010000Y-93345000D02*
X205105000Y-93345000D01*
X194310000Y-79375000D02*
X207010000Y-79375000D01*
%TO.C,KEY5*%
X168910000Y-112395000D02*
X167005000Y-112395000D01*
X159385000Y-112395000D02*
X156210000Y-112395000D01*
X156210000Y-112395000D02*
X156210000Y-111252000D01*
X170180000Y-101346000D02*
X170180000Y-111125000D01*
X156210000Y-109347000D02*
X156210000Y-98425000D01*
X156210000Y-98425000D02*
X168910000Y-98425000D01*
%TO.C,C13*%
X175152267Y-128903000D02*
X174859733Y-128903000D01*
X175152267Y-129923000D02*
X174859733Y-129923000D01*
%TO.C,C7*%
X208387733Y-111377000D02*
X208680267Y-111377000D01*
X208387733Y-112397000D02*
X208680267Y-112397000D01*
%TO.C,C6*%
X189337733Y-112397000D02*
X189630267Y-112397000D01*
X189337733Y-111377000D02*
X189630267Y-111377000D01*
%TO.C,D3*%
X209280000Y-77724000D02*
X209280000Y-81660000D01*
X207280000Y-78994000D02*
X209280000Y-78994000D01*
X207280000Y-77724000D02*
X207280000Y-81660000D01*
X207280000Y-77724000D02*
X209280000Y-77724000D01*
%TO.C,C8*%
X227437733Y-111377000D02*
X227730267Y-111377000D01*
X227437733Y-112397000D02*
X227730267Y-112397000D01*
%TO.C,LED14*%
G36*
X165608000Y-132080000D02*
G01*
X165100000Y-132080000D01*
X165608000Y-131597400D01*
X165608000Y-132080000D01*
G37*
X165608000Y-132080000D02*
X165100000Y-132080000D01*
X165608000Y-131597400D01*
X165608000Y-132080000D01*
%TO.C,R1*%
X242674224Y-75169500D02*
X242164776Y-75169500D01*
X242674224Y-76214500D02*
X242164776Y-76214500D01*
%TO.C,C11*%
X213252267Y-128903000D02*
X212959733Y-128903000D01*
X213252267Y-129923000D02*
X212959733Y-129923000D01*
%TO.C,LED4*%
G36*
X165608000Y-93980000D02*
G01*
X165100000Y-93980000D01*
X165608000Y-93497400D01*
X165608000Y-93980000D01*
G37*
X165608000Y-93980000D02*
X165100000Y-93980000D01*
X165608000Y-93497400D01*
X165608000Y-93980000D01*
%TO.C,LED3*%
G36*
X184658000Y-93980000D02*
G01*
X184150000Y-93980000D01*
X184658000Y-93497400D01*
X184658000Y-93980000D01*
G37*
X184658000Y-93980000D02*
X184150000Y-93980000D01*
X184658000Y-93497400D01*
X184658000Y-93980000D01*
%TO.C,C9*%
X246487733Y-112397000D02*
X246780267Y-112397000D01*
X246487733Y-111377000D02*
X246780267Y-111377000D01*
%TO.C,LED5*%
G36*
X160782000Y-109702600D02*
G01*
X160782000Y-109220000D01*
X161290000Y-109220000D01*
X160782000Y-109702600D01*
G37*
X160782000Y-109702600D02*
X160782000Y-109220000D01*
X161290000Y-109220000D01*
X160782000Y-109702600D01*
%TO.C,C5*%
X170287733Y-111377000D02*
X170580267Y-111377000D01*
X170287733Y-112397000D02*
X170580267Y-112397000D01*
%TO.C,D10*%
X188230000Y-115824000D02*
X190230000Y-115824000D01*
X188230000Y-117094000D02*
X190230000Y-117094000D01*
X190230000Y-115824000D02*
X190230000Y-119760000D01*
X188230000Y-115824000D02*
X188230000Y-119760000D01*
%TO.C,C3*%
X175152267Y-91823000D02*
X174859733Y-91823000D01*
X175152267Y-90803000D02*
X174859733Y-90803000D01*
%TO.C,D15*%
X245380000Y-115824000D02*
X247380000Y-115824000D01*
X247380000Y-115824000D02*
X247380000Y-119760000D01*
X245380000Y-117094000D02*
X247380000Y-117094000D01*
X245380000Y-115824000D02*
X245380000Y-119760000D01*
%TO.C,LED8*%
G36*
X217932000Y-109702600D02*
G01*
X217932000Y-109220000D01*
X218440000Y-109220000D01*
X217932000Y-109702600D01*
G37*
X217932000Y-109702600D02*
X217932000Y-109220000D01*
X218440000Y-109220000D01*
X217932000Y-109702600D01*
%TO.C,D2*%
X188230000Y-77724000D02*
X190230000Y-77724000D01*
X188230000Y-78994000D02*
X190230000Y-78994000D01*
X188230000Y-77724000D02*
X188230000Y-81660000D01*
X190230000Y-77724000D02*
X190230000Y-81660000D01*
%TO.C,D9*%
X171180000Y-115824000D02*
X171180000Y-119760000D01*
X169180000Y-115824000D02*
X169180000Y-119760000D01*
X169180000Y-115824000D02*
X171180000Y-115824000D01*
X169180000Y-117094000D02*
X171180000Y-117094000D01*
%TO.C,LED1*%
G36*
X222758000Y-93980000D02*
G01*
X222250000Y-93980000D01*
X222758000Y-93497400D01*
X222758000Y-93980000D01*
G37*
X222758000Y-93980000D02*
X222250000Y-93980000D01*
X222758000Y-93497400D01*
X222758000Y-93980000D01*
%TO.C,LED2*%
G36*
X203708000Y-93980000D02*
G01*
X203200000Y-93980000D01*
X203708000Y-93497400D01*
X203708000Y-93980000D01*
G37*
X203708000Y-93980000D02*
X203200000Y-93980000D01*
X203708000Y-93497400D01*
X203708000Y-93980000D01*
%TO.C,D1*%
X171180000Y-77724000D02*
X171180000Y-81660000D01*
X169180000Y-77724000D02*
X171180000Y-77724000D01*
X169180000Y-78994000D02*
X171180000Y-78994000D01*
X169180000Y-77724000D02*
X169180000Y-81660000D01*
%TO.C,Logo1*%
G36*
X166395130Y-69504724D02*
G01*
X166407126Y-69572006D01*
X166419335Y-69640761D01*
X166431593Y-69710065D01*
X166443737Y-69778994D01*
X166455605Y-69846623D01*
X166467032Y-69912027D01*
X166477858Y-69974283D01*
X166487917Y-70032466D01*
X166497048Y-70085651D01*
X166505087Y-70132915D01*
X166511871Y-70173332D01*
X166517238Y-70205978D01*
X166521024Y-70229929D01*
X166523066Y-70244260D01*
X166523638Y-70249147D01*
X166527510Y-70295632D01*
X166529595Y-70348446D01*
X166529952Y-70404762D01*
X166528641Y-70461758D01*
X166525724Y-70516608D01*
X166521259Y-70566487D01*
X166515308Y-70608571D01*
X166513843Y-70616591D01*
X166489026Y-70722457D01*
X166455020Y-70822889D01*
X166411867Y-70917804D01*
X166359610Y-71007117D01*
X166298293Y-71090743D01*
X166227958Y-71168599D01*
X166189611Y-71205074D01*
X166107824Y-71271936D01*
X166018240Y-71331872D01*
X165921245Y-71384725D01*
X165817222Y-71430336D01*
X165706554Y-71468544D01*
X165589624Y-71499192D01*
X165466817Y-71522119D01*
X165338517Y-71537169D01*
X165330443Y-71537722D01*
X165306138Y-71538689D01*
X165273972Y-71539358D01*
X165235892Y-71539739D01*
X165193843Y-71539842D01*
X165149771Y-71539679D01*
X165105622Y-71539258D01*
X165063342Y-71538591D01*
X165024876Y-71537688D01*
X164992171Y-71536558D01*
X164967173Y-71535212D01*
X164853221Y-71524827D01*
X164692605Y-71501856D01*
X164536987Y-71469457D01*
X164386234Y-71427587D01*
X164240212Y-71376201D01*
X164098787Y-71315256D01*
X163961824Y-71244707D01*
X163829189Y-71164512D01*
X163800660Y-71145387D01*
X163773717Y-71125854D01*
X163754864Y-71110218D01*
X163744801Y-71099021D01*
X163733536Y-71072034D01*
X163730145Y-71039291D01*
X163735773Y-71004502D01*
X163738486Y-70997327D01*
X163746206Y-70980278D01*
X163758039Y-70955849D01*
X163773423Y-70925098D01*
X163791793Y-70889080D01*
X163812588Y-70848853D01*
X163835242Y-70805473D01*
X163859193Y-70759997D01*
X163883877Y-70713481D01*
X163908732Y-70666984D01*
X163933193Y-70621561D01*
X163956697Y-70578269D01*
X163978681Y-70538165D01*
X163998581Y-70502306D01*
X164015834Y-70471749D01*
X164029877Y-70447549D01*
X164040146Y-70430765D01*
X164046078Y-70422453D01*
X164058163Y-70411614D01*
X164073675Y-70403208D01*
X164091188Y-70400350D01*
X164111993Y-70403249D01*
X164137377Y-70412114D01*
X164168629Y-70427155D01*
X164207038Y-70448581D01*
X164230460Y-70461969D01*
X164341965Y-70519687D01*
X164460042Y-70571542D01*
X164582088Y-70616370D01*
X164603657Y-70623420D01*
X164686353Y-70647938D01*
X164764395Y-70666573D01*
X164840835Y-70679884D01*
X164918724Y-70688427D01*
X165001114Y-70692756D01*
X165023242Y-70693280D01*
X165075750Y-70693439D01*
X165121273Y-70691636D01*
X165162425Y-70687648D01*
X165201823Y-70681252D01*
X165242081Y-70672225D01*
X165274569Y-70662817D01*
X165332460Y-70638690D01*
X165382996Y-70607162D01*
X165425839Y-70568566D01*
X165460647Y-70523239D01*
X165487079Y-70471515D01*
X165504796Y-70413729D01*
X165505007Y-70412755D01*
X165508647Y-70393229D01*
X165510947Y-70373267D01*
X165512033Y-70350307D01*
X165512028Y-70321788D01*
X165511058Y-70285149D01*
X165510617Y-70273158D01*
X165508510Y-70234445D01*
X165505210Y-70199851D01*
X165500215Y-70165790D01*
X165493027Y-70128674D01*
X165483144Y-70084918D01*
X165480309Y-70072907D01*
X164530780Y-70071524D01*
X164493473Y-70071469D01*
X164378284Y-70071297D01*
X164273191Y-70071128D01*
X164177719Y-70070959D01*
X164091394Y-70070782D01*
X164013741Y-70070593D01*
X163944287Y-70070386D01*
X163882555Y-70070155D01*
X163828074Y-70069894D01*
X163780367Y-70069599D01*
X163738960Y-70069262D01*
X163703379Y-70068880D01*
X163673150Y-70068445D01*
X163647798Y-70067953D01*
X163626849Y-70067397D01*
X163609829Y-70066773D01*
X163596263Y-70066074D01*
X163585676Y-70065295D01*
X163577594Y-70064430D01*
X163571543Y-70063474D01*
X163567049Y-70062420D01*
X163563637Y-70061264D01*
X163560832Y-70059999D01*
X163559838Y-70059495D01*
X163538333Y-70043127D01*
X163520496Y-70019565D01*
X163508875Y-69992135D01*
X163507607Y-69986385D01*
X163504473Y-69970296D01*
X163499854Y-69945536D01*
X163493939Y-69913180D01*
X163486916Y-69874302D01*
X163478975Y-69829980D01*
X163470304Y-69781287D01*
X163461093Y-69729300D01*
X163451530Y-69675093D01*
X163441803Y-69619743D01*
X163432103Y-69564324D01*
X163422617Y-69509913D01*
X163413535Y-69457583D01*
X163405046Y-69408412D01*
X163397338Y-69363474D01*
X163390600Y-69323844D01*
X163385022Y-69290599D01*
X163380792Y-69264813D01*
X163378098Y-69247562D01*
X163369790Y-69183714D01*
X163364475Y-69114743D01*
X164343512Y-69114743D01*
X164344158Y-69159182D01*
X164348281Y-69207275D01*
X164356078Y-69261108D01*
X164367747Y-69322767D01*
X164384878Y-69405808D01*
X164871073Y-69407176D01*
X164871092Y-69407176D01*
X164954281Y-69407404D01*
X165027404Y-69407584D01*
X165091108Y-69407703D01*
X165146043Y-69407751D01*
X165192857Y-69407716D01*
X165232198Y-69407585D01*
X165264715Y-69407349D01*
X165291057Y-69406994D01*
X165311870Y-69406510D01*
X165327805Y-69405886D01*
X165339510Y-69405109D01*
X165347632Y-69404168D01*
X165352820Y-69403051D01*
X165355724Y-69401748D01*
X165356990Y-69400246D01*
X165357268Y-69398534D01*
X165357213Y-69396986D01*
X165355685Y-69384156D01*
X165352349Y-69363312D01*
X165347597Y-69336467D01*
X165341819Y-69305632D01*
X165335407Y-69272820D01*
X165328754Y-69240043D01*
X165322249Y-69209312D01*
X165316286Y-69182641D01*
X165311255Y-69162041D01*
X165297376Y-69118839D01*
X165277195Y-69070374D01*
X165252914Y-69021783D01*
X165226330Y-68976654D01*
X165199241Y-68938574D01*
X165152148Y-68887260D01*
X165095728Y-68840718D01*
X165033322Y-68802620D01*
X164965564Y-68773240D01*
X164893091Y-68752850D01*
X164816540Y-68741724D01*
X164736546Y-68740133D01*
X164714223Y-68741268D01*
X164665069Y-68746081D01*
X164621785Y-68754338D01*
X164581123Y-68766765D01*
X164539832Y-68784088D01*
X164526996Y-68790419D01*
X164476980Y-68822104D01*
X164434476Y-68861225D01*
X164399760Y-68907358D01*
X164373110Y-68960077D01*
X164354801Y-69018958D01*
X164345110Y-69083575D01*
X164343512Y-69114743D01*
X163364475Y-69114743D01*
X163360407Y-69061952D01*
X163360138Y-68944849D01*
X163368955Y-68832615D01*
X163386826Y-68725458D01*
X163413722Y-68623589D01*
X163449614Y-68527216D01*
X163494470Y-68436548D01*
X163505709Y-68417355D01*
X163545126Y-68358677D01*
X163591568Y-68299888D01*
X163642733Y-68243585D01*
X163696315Y-68192359D01*
X163750012Y-68148806D01*
X163809357Y-68108129D01*
X163897762Y-68057003D01*
X163992399Y-68012830D01*
X164093796Y-67975423D01*
X164202479Y-67944595D01*
X164318975Y-67920157D01*
X164443811Y-67901924D01*
X164448926Y-67901367D01*
X164477084Y-67899225D01*
X164513605Y-67897519D01*
X164556586Y-67896249D01*
X164604123Y-67895416D01*
X164654312Y-67895020D01*
X164705250Y-67895061D01*
X164755034Y-67895539D01*
X164801760Y-67896456D01*
X164843525Y-67897811D01*
X164878425Y-67899605D01*
X164904558Y-67901838D01*
X165012006Y-67916628D01*
X165143657Y-67941793D01*
X165268139Y-67974041D01*
X165386143Y-68013609D01*
X165498359Y-68060734D01*
X165605476Y-68115655D01*
X165708186Y-68178608D01*
X165762989Y-68216929D01*
X165858208Y-68293384D01*
X165945626Y-68377153D01*
X166025164Y-68468135D01*
X166096746Y-68566229D01*
X166160295Y-68671336D01*
X166215733Y-68783354D01*
X166262984Y-68902183D01*
X166275428Y-68939118D01*
X166295876Y-69007050D01*
X166314218Y-69076942D01*
X166328949Y-69143290D01*
X166330787Y-69152658D01*
X166336734Y-69183742D01*
X166344035Y-69222771D01*
X166352525Y-69268819D01*
X166362043Y-69320963D01*
X166372425Y-69378278D01*
X166376072Y-69398534D01*
X166383508Y-69439840D01*
X166395130Y-69504724D01*
G37*
G36*
X180800445Y-66700309D02*
G01*
X180821400Y-66716590D01*
X180838668Y-66740490D01*
X180839272Y-66741995D01*
X180840963Y-66747885D01*
X180843340Y-66757827D01*
X180846448Y-66772070D01*
X180850332Y-66790864D01*
X180855038Y-66814459D01*
X180860611Y-66843107D01*
X180867097Y-66877055D01*
X180874539Y-66916555D01*
X180882985Y-66961856D01*
X180892479Y-67013209D01*
X180903067Y-67070863D01*
X180914793Y-67135068D01*
X180927704Y-67206075D01*
X180941845Y-67284133D01*
X180957260Y-67369493D01*
X180973996Y-67462405D01*
X180992097Y-67563117D01*
X181011609Y-67671882D01*
X181032577Y-67788948D01*
X181055047Y-67914565D01*
X181079064Y-68048984D01*
X181104673Y-68192455D01*
X181131919Y-68345227D01*
X181160849Y-68507550D01*
X181191506Y-68679676D01*
X181223938Y-68861853D01*
X181258188Y-69054331D01*
X181263480Y-69084077D01*
X181290960Y-69238590D01*
X181317951Y-69390420D01*
X181344392Y-69539224D01*
X181370222Y-69684660D01*
X181395381Y-69826387D01*
X181419809Y-69964063D01*
X181443445Y-70097345D01*
X181466229Y-70225891D01*
X181488100Y-70349361D01*
X181508998Y-70467411D01*
X181528863Y-70579699D01*
X181547634Y-70685885D01*
X181565250Y-70785625D01*
X181581652Y-70878578D01*
X181596778Y-70964401D01*
X181610569Y-71042754D01*
X181622963Y-71113293D01*
X181633901Y-71175678D01*
X181643322Y-71229565D01*
X181651166Y-71274613D01*
X181657371Y-71310480D01*
X181661879Y-71336824D01*
X181664628Y-71353304D01*
X181665557Y-71359576D01*
X181665313Y-71364284D01*
X181660551Y-71385328D01*
X181651358Y-71407345D01*
X181639905Y-71424814D01*
X181637592Y-71427120D01*
X181624989Y-71436384D01*
X181609303Y-71444983D01*
X181605869Y-71446432D01*
X181600930Y-71448015D01*
X181594549Y-71449386D01*
X181586014Y-71450562D01*
X181574610Y-71451556D01*
X181559624Y-71452385D01*
X181540344Y-71453063D01*
X181516055Y-71453607D01*
X181486044Y-71454030D01*
X181449598Y-71454349D01*
X181406004Y-71454579D01*
X181354549Y-71454735D01*
X181294518Y-71454832D01*
X181225199Y-71454886D01*
X181145878Y-71454912D01*
X181135822Y-71454913D01*
X181046590Y-71454847D01*
X180966720Y-71454641D01*
X180896380Y-71454298D01*
X180835740Y-71453819D01*
X180784970Y-71453207D01*
X180744237Y-71452464D01*
X180713712Y-71451591D01*
X180693562Y-71450591D01*
X180683958Y-71449466D01*
X180660086Y-71438771D01*
X180636865Y-71418976D01*
X180620666Y-71393625D01*
X180619610Y-71389907D01*
X180616486Y-71375821D01*
X180611653Y-71352136D01*
X180605219Y-71319431D01*
X180597291Y-71278284D01*
X180587977Y-71229272D01*
X180577385Y-71172973D01*
X180565622Y-71109966D01*
X180552797Y-71040827D01*
X180539017Y-70966136D01*
X180524390Y-70886470D01*
X180509024Y-70802407D01*
X180493026Y-70714525D01*
X180476504Y-70623402D01*
X180459566Y-70529615D01*
X180307727Y-69687213D01*
X179495034Y-69685806D01*
X178682340Y-69684399D01*
X178659110Y-69668327D01*
X178657865Y-69667464D01*
X178649869Y-69661721D01*
X178642756Y-69655807D01*
X178636326Y-69648981D01*
X178630377Y-69640501D01*
X178624709Y-69629629D01*
X178619121Y-69615623D01*
X178613412Y-69597741D01*
X178607382Y-69575245D01*
X178600829Y-69547393D01*
X178593554Y-69513444D01*
X178585355Y-69472658D01*
X178576031Y-69424295D01*
X178565383Y-69367613D01*
X178553208Y-69301872D01*
X178539307Y-69226331D01*
X178526054Y-69154108D01*
X178513704Y-69086314D01*
X178503171Y-69027624D01*
X178494377Y-68977298D01*
X178487242Y-68934598D01*
X178481685Y-68898785D01*
X178477629Y-68869120D01*
X178474994Y-68844865D01*
X178473699Y-68825281D01*
X178473666Y-68809630D01*
X178474816Y-68797172D01*
X178477068Y-68787168D01*
X178480343Y-68778882D01*
X178484563Y-68771572D01*
X178489647Y-68764501D01*
X178490122Y-68763871D01*
X178493447Y-68759054D01*
X178496240Y-68754688D01*
X178499010Y-68750750D01*
X178502270Y-68747218D01*
X178506530Y-68744070D01*
X178512302Y-68741285D01*
X178520097Y-68738840D01*
X178530427Y-68736713D01*
X178543803Y-68734883D01*
X178560736Y-68733327D01*
X178581737Y-68732024D01*
X178607317Y-68730951D01*
X178637989Y-68730087D01*
X178674263Y-68729410D01*
X178716650Y-68728897D01*
X178765662Y-68728526D01*
X178821810Y-68728277D01*
X178885605Y-68728126D01*
X178957559Y-68728051D01*
X179038182Y-68728032D01*
X179127987Y-68728045D01*
X179227485Y-68728069D01*
X179337185Y-68728082D01*
X179352329Y-68728082D01*
X179443340Y-68728056D01*
X179531284Y-68727992D01*
X179615574Y-68727894D01*
X179695622Y-68727763D01*
X179770839Y-68727601D01*
X179840636Y-68727411D01*
X179904425Y-68727194D01*
X179961619Y-68726953D01*
X180011627Y-68726690D01*
X180053863Y-68726407D01*
X180087737Y-68726107D01*
X180112661Y-68725791D01*
X180128047Y-68725462D01*
X180133307Y-68725122D01*
X180133213Y-68724470D01*
X180131730Y-68715777D01*
X180128562Y-68697667D01*
X180123862Y-68671000D01*
X180117784Y-68636633D01*
X180110481Y-68595427D01*
X180102105Y-68548239D01*
X180092811Y-68495930D01*
X180082750Y-68439357D01*
X180072077Y-68379379D01*
X180060944Y-68316856D01*
X180049505Y-68252647D01*
X180037912Y-68187610D01*
X180026319Y-68122604D01*
X180014878Y-68058488D01*
X180003744Y-67996121D01*
X179993068Y-67936362D01*
X179983005Y-67880069D01*
X179973707Y-67828102D01*
X179965328Y-67781320D01*
X179958020Y-67740581D01*
X179951937Y-67706745D01*
X179947232Y-67680670D01*
X179944057Y-67663215D01*
X179942567Y-67655239D01*
X179939585Y-67640506D01*
X178068687Y-67640506D01*
X178045490Y-67629276D01*
X178039219Y-67626241D01*
X178032183Y-67622502D01*
X178025910Y-67618182D01*
X178020215Y-67612570D01*
X178014909Y-67604953D01*
X178009805Y-67594618D01*
X178004716Y-67580854D01*
X177999455Y-67562948D01*
X177993834Y-67540188D01*
X177987665Y-67511862D01*
X177980762Y-67477256D01*
X177972938Y-67435660D01*
X177964004Y-67386360D01*
X177953773Y-67328644D01*
X177942059Y-67261800D01*
X177928674Y-67185116D01*
X177925905Y-67169241D01*
X177911712Y-67087328D01*
X177899444Y-67015551D01*
X177889048Y-66953577D01*
X177880472Y-66901074D01*
X177873663Y-66857707D01*
X177868569Y-66823145D01*
X177865137Y-66797055D01*
X177863314Y-66779103D01*
X177863049Y-66768956D01*
X177863100Y-66768330D01*
X177870728Y-66738272D01*
X177887343Y-66712628D01*
X177911553Y-66693558D01*
X177912803Y-66692953D01*
X177915481Y-66692032D01*
X177919311Y-66691178D01*
X177924677Y-66690389D01*
X177931960Y-66689660D01*
X177941544Y-66688991D01*
X177953810Y-66688379D01*
X177969141Y-66687820D01*
X177987920Y-66687314D01*
X178010529Y-66686856D01*
X178037351Y-66686445D01*
X178068768Y-66686079D01*
X178105162Y-66685754D01*
X178146917Y-66685468D01*
X178194414Y-66685219D01*
X178248036Y-66685004D01*
X178308166Y-66684821D01*
X178375185Y-66684667D01*
X178449478Y-66684540D01*
X178531425Y-66684437D01*
X178621410Y-66684356D01*
X178719815Y-66684295D01*
X178827023Y-66684250D01*
X178943416Y-66684219D01*
X179069376Y-66684200D01*
X179205286Y-66684191D01*
X179351529Y-66684188D01*
X180774371Y-66684188D01*
X180800445Y-66700309D01*
G37*
G36*
X176887456Y-66395434D02*
G01*
X176954999Y-66407735D01*
X177017251Y-66426586D01*
X177062096Y-66445531D01*
X177129499Y-66482939D01*
X177189930Y-66528220D01*
X177243105Y-66580978D01*
X177288738Y-66640821D01*
X177326546Y-66707354D01*
X177356245Y-66780183D01*
X177377549Y-66858915D01*
X177390175Y-66943155D01*
X177392957Y-66998353D01*
X177388639Y-67072702D01*
X177375107Y-67142947D01*
X177352785Y-67208517D01*
X177322097Y-67268838D01*
X177283469Y-67323337D01*
X177237325Y-67371441D01*
X177184089Y-67412578D01*
X177124186Y-67446176D01*
X177058039Y-67471660D01*
X176986074Y-67488459D01*
X176968769Y-67490750D01*
X176928731Y-67493308D01*
X176883828Y-67493389D01*
X176837713Y-67491125D01*
X176794039Y-67486650D01*
X176756460Y-67480096D01*
X176748897Y-67478331D01*
X176673800Y-67454848D01*
X176603056Y-67421643D01*
X176537135Y-67378972D01*
X176476506Y-67327091D01*
X176436911Y-67284754D01*
X176389919Y-67221422D01*
X176352323Y-67152948D01*
X176324168Y-67079419D01*
X176305499Y-67000920D01*
X176303827Y-66990219D01*
X176299649Y-66949270D01*
X176297747Y-66903834D01*
X176298118Y-66857651D01*
X176300759Y-66814461D01*
X176305667Y-66778003D01*
X176314945Y-66737614D01*
X176338403Y-66670194D01*
X176370386Y-66608664D01*
X176410399Y-66553571D01*
X176457949Y-66505458D01*
X176512542Y-66464870D01*
X176573684Y-66432352D01*
X176640880Y-66408449D01*
X176681491Y-66399191D01*
X176747860Y-66391025D01*
X176817462Y-66389818D01*
X176887456Y-66395434D01*
G37*
G36*
X167060105Y-66682163D02*
G01*
X167108120Y-66682399D01*
X167149245Y-66682818D01*
X167184111Y-66683451D01*
X167213349Y-66684327D01*
X167237588Y-66685475D01*
X167257461Y-66686924D01*
X167273596Y-66688705D01*
X167286626Y-66690846D01*
X167297180Y-66693378D01*
X167305889Y-66696328D01*
X167313383Y-66699727D01*
X167320294Y-66703605D01*
X167327252Y-66707990D01*
X167334888Y-66712912D01*
X167335332Y-66713215D01*
X167341697Y-66718896D01*
X167353139Y-66730470D01*
X167369788Y-66748082D01*
X167391775Y-66771880D01*
X167419229Y-66802009D01*
X167452281Y-66838616D01*
X167491061Y-66881846D01*
X167535699Y-66931845D01*
X167586327Y-66988761D01*
X167643073Y-67052739D01*
X167706068Y-67123926D01*
X167775443Y-67202467D01*
X167851329Y-67288509D01*
X167933854Y-67382197D01*
X168023150Y-67483679D01*
X168119346Y-67593100D01*
X168121118Y-67595117D01*
X168193871Y-67677905D01*
X168264736Y-67758547D01*
X168333389Y-67836674D01*
X168399506Y-67911916D01*
X168462762Y-67983906D01*
X168522834Y-68052273D01*
X168579397Y-68116649D01*
X168632127Y-68176666D01*
X168680701Y-68231953D01*
X168724794Y-68282144D01*
X168764082Y-68326868D01*
X168798241Y-68365756D01*
X168826947Y-68398441D01*
X168849875Y-68424552D01*
X168866703Y-68443722D01*
X168877105Y-68455580D01*
X168880759Y-68459760D01*
X168884245Y-68459760D01*
X168884107Y-68458301D01*
X168882465Y-68447762D01*
X168879087Y-68427528D01*
X168874075Y-68398168D01*
X168867526Y-68360248D01*
X168859541Y-68314337D01*
X168850220Y-68261002D01*
X168839662Y-68200810D01*
X168827966Y-68134329D01*
X168815233Y-68062126D01*
X168801561Y-67984769D01*
X168787052Y-67902825D01*
X168771803Y-67816862D01*
X168755915Y-67727447D01*
X168739487Y-67635148D01*
X168727991Y-67570605D01*
X168708932Y-67463576D01*
X168691640Y-67366331D01*
X168676043Y-67278379D01*
X168662070Y-67199231D01*
X168649651Y-67128396D01*
X168638716Y-67065384D01*
X168629193Y-67009704D01*
X168621012Y-66960867D01*
X168614103Y-66918381D01*
X168608395Y-66881757D01*
X168603817Y-66850504D01*
X168600299Y-66824131D01*
X168597770Y-66802150D01*
X168596159Y-66784069D01*
X168595397Y-66769397D01*
X168595412Y-66757645D01*
X168596134Y-66748323D01*
X168597492Y-66740939D01*
X168599416Y-66735004D01*
X168601835Y-66730028D01*
X168604678Y-66725519D01*
X168607875Y-66720988D01*
X168609535Y-66718803D01*
X168623582Y-66705108D01*
X168639983Y-66694225D01*
X168640191Y-66694122D01*
X168644203Y-66692345D01*
X168649028Y-66690794D01*
X168655373Y-66689452D01*
X168663945Y-66688305D01*
X168675452Y-66687338D01*
X168690601Y-66686535D01*
X168710099Y-66685880D01*
X168734653Y-66685360D01*
X168764972Y-66684958D01*
X168801761Y-66684659D01*
X168845729Y-66684449D01*
X168897583Y-66684312D01*
X168958030Y-66684233D01*
X169027777Y-66684197D01*
X169107532Y-66684188D01*
X169147532Y-66684205D01*
X169214591Y-66684307D01*
X169278312Y-66684496D01*
X169337873Y-66684766D01*
X169392457Y-66685108D01*
X169441242Y-66685516D01*
X169483410Y-66685982D01*
X169518142Y-66686499D01*
X169544617Y-66687060D01*
X169562016Y-66687657D01*
X169569519Y-66688284D01*
X169582279Y-66693927D01*
X169601479Y-66707948D01*
X169619429Y-66726399D01*
X169632779Y-66746212D01*
X169633497Y-66747478D01*
X169634279Y-66748526D01*
X169634965Y-66749215D01*
X169635606Y-66749831D01*
X169636253Y-66750662D01*
X169636959Y-66751996D01*
X169637775Y-66754118D01*
X169638752Y-66757317D01*
X169639942Y-66761879D01*
X169641397Y-66768091D01*
X169643168Y-66776241D01*
X169645307Y-66786616D01*
X169647865Y-66799503D01*
X169650895Y-66815189D01*
X169654447Y-66833961D01*
X169658573Y-66856106D01*
X169663325Y-66881912D01*
X169668754Y-66911666D01*
X169674912Y-66945654D01*
X169681851Y-66984164D01*
X169689622Y-67027483D01*
X169698277Y-67075898D01*
X169707867Y-67129696D01*
X169718444Y-67189165D01*
X169730059Y-67254591D01*
X169742765Y-67326262D01*
X169756612Y-67404465D01*
X169771653Y-67489486D01*
X169787939Y-67581614D01*
X169805521Y-67681135D01*
X169824451Y-67788336D01*
X169844781Y-67903505D01*
X169866562Y-68026928D01*
X169889846Y-68158893D01*
X169914684Y-68299687D01*
X169941128Y-68449596D01*
X169969230Y-68608909D01*
X169999042Y-68777913D01*
X170030614Y-68956893D01*
X170063998Y-69146138D01*
X170067841Y-69167922D01*
X170102237Y-69362959D01*
X170134788Y-69547656D01*
X170165527Y-69722201D01*
X170194488Y-69886782D01*
X170221702Y-70041586D01*
X170247202Y-70186803D01*
X170271020Y-70322620D01*
X170293190Y-70449225D01*
X170313744Y-70566807D01*
X170332714Y-70675554D01*
X170350134Y-70775652D01*
X170366035Y-70867292D01*
X170380450Y-70950660D01*
X170393412Y-71025945D01*
X170404953Y-71093336D01*
X170415107Y-71153019D01*
X170423905Y-71205183D01*
X170431380Y-71250017D01*
X170437564Y-71287708D01*
X170442492Y-71318445D01*
X170446194Y-71342415D01*
X170448703Y-71359806D01*
X170450053Y-71370808D01*
X170450276Y-71375607D01*
X170442188Y-71399623D01*
X170424224Y-71424598D01*
X170398855Y-71443005D01*
X170374993Y-71455059D01*
X169935473Y-71455030D01*
X169853634Y-71454970D01*
X169768981Y-71454767D01*
X169695026Y-71454421D01*
X169631760Y-71453930D01*
X169579176Y-71453296D01*
X169537264Y-71452517D01*
X169506017Y-71451594D01*
X169485426Y-71450527D01*
X169475482Y-71449316D01*
X169461126Y-71443547D01*
X169438073Y-71427738D01*
X169418200Y-71406723D01*
X169404979Y-71383732D01*
X169404462Y-71381989D01*
X169401842Y-71370304D01*
X169397529Y-71348941D01*
X169391640Y-71318536D01*
X169384291Y-71279727D01*
X169375601Y-71233154D01*
X169365685Y-71179453D01*
X169354661Y-71119264D01*
X169342646Y-71053223D01*
X169329757Y-70981968D01*
X169316111Y-70906139D01*
X169301825Y-70826372D01*
X169287016Y-70743306D01*
X169271801Y-70657579D01*
X169147180Y-69953855D01*
X168949763Y-69762873D01*
X168937774Y-69751279D01*
X168900112Y-69714903D01*
X168864994Y-69681054D01*
X168833154Y-69650436D01*
X168805328Y-69623754D01*
X168782252Y-69601711D01*
X168764661Y-69585013D01*
X168753292Y-69574365D01*
X168748880Y-69570471D01*
X168748878Y-69570471D01*
X168746197Y-69575127D01*
X168739079Y-69588958D01*
X168727752Y-69611495D01*
X168712446Y-69642271D01*
X168693390Y-69680818D01*
X168670813Y-69726667D01*
X168644943Y-69779353D01*
X168616010Y-69838406D01*
X168584242Y-69903358D01*
X168549870Y-69973743D01*
X168513120Y-70049092D01*
X168474223Y-70128938D01*
X168433408Y-70212812D01*
X168390903Y-70300247D01*
X168346938Y-70390775D01*
X168301741Y-70483928D01*
X168257657Y-70574764D01*
X168213403Y-70665808D01*
X168170509Y-70753916D01*
X168129209Y-70838609D01*
X168089740Y-70919407D01*
X168052338Y-70995831D01*
X168017239Y-71067401D01*
X167984679Y-71133639D01*
X167954894Y-71194064D01*
X167928120Y-71248198D01*
X167904592Y-71295561D01*
X167884547Y-71335673D01*
X167868221Y-71368055D01*
X167855850Y-71392228D01*
X167847669Y-71407713D01*
X167843915Y-71414029D01*
X167841070Y-71416908D01*
X167825485Y-71429767D01*
X167808333Y-71440817D01*
X167786903Y-71452381D01*
X167277939Y-71453878D01*
X167196379Y-71454121D01*
X167118090Y-71454342D01*
X167049268Y-71454487D01*
X166989266Y-71454524D01*
X166937436Y-71454420D01*
X166893131Y-71454144D01*
X166855702Y-71453662D01*
X166824503Y-71452942D01*
X166798885Y-71451952D01*
X166778200Y-71450658D01*
X166761803Y-71449029D01*
X166749043Y-71447032D01*
X166739275Y-71444634D01*
X166731850Y-71441804D01*
X166726121Y-71438507D01*
X166721440Y-71434713D01*
X166717160Y-71430388D01*
X166712633Y-71425499D01*
X166709972Y-71422227D01*
X166701799Y-71404335D01*
X166697475Y-71381296D01*
X166697468Y-71357136D01*
X166702244Y-71335882D01*
X166703824Y-71332562D01*
X166710112Y-71319971D01*
X166720946Y-71298531D01*
X166736120Y-71268645D01*
X166755427Y-71230717D01*
X166778662Y-71185151D01*
X166805617Y-71132349D01*
X166836086Y-71072716D01*
X166869863Y-71006655D01*
X166906741Y-70934570D01*
X166946514Y-70856863D01*
X166988975Y-70773938D01*
X167033919Y-70686199D01*
X167081138Y-70594049D01*
X167130426Y-70497892D01*
X167181577Y-70398131D01*
X167234385Y-70295170D01*
X167288642Y-70189412D01*
X167344143Y-70081260D01*
X167383474Y-70004612D01*
X167438012Y-69898279D01*
X167491115Y-69794681D01*
X167542581Y-69694218D01*
X167592204Y-69597291D01*
X167639783Y-69504297D01*
X167685112Y-69415639D01*
X167727988Y-69331713D01*
X167768208Y-69252922D01*
X167805567Y-69179664D01*
X167839861Y-69112338D01*
X167870888Y-69051345D01*
X167898443Y-68997085D01*
X167922321Y-68949956D01*
X167942321Y-68910359D01*
X167958237Y-68878693D01*
X167969867Y-68855358D01*
X167977005Y-68840753D01*
X167979449Y-68835278D01*
X167978185Y-68833461D01*
X167970369Y-68824384D01*
X167955681Y-68808045D01*
X167934431Y-68784774D01*
X167906925Y-68754899D01*
X167873472Y-68718750D01*
X167834379Y-68676656D01*
X167789953Y-68628947D01*
X167740504Y-68575950D01*
X167686339Y-68517997D01*
X167627765Y-68455415D01*
X167565090Y-68388534D01*
X167498622Y-68317684D01*
X167428669Y-68243194D01*
X167355539Y-68165392D01*
X167279540Y-68084609D01*
X167200979Y-68001173D01*
X167120164Y-67915414D01*
X167037403Y-67827660D01*
X166990624Y-67778070D01*
X166908662Y-67691140D01*
X166828717Y-67606293D01*
X166751103Y-67523865D01*
X166676134Y-67444192D01*
X166604124Y-67367610D01*
X166535388Y-67294453D01*
X166470240Y-67225057D01*
X166408995Y-67159759D01*
X166351966Y-67098893D01*
X166299468Y-67042794D01*
X166251815Y-66991800D01*
X166209322Y-66946244D01*
X166172302Y-66906463D01*
X166141071Y-66872791D01*
X166115942Y-66845566D01*
X166097230Y-66825121D01*
X166085249Y-66811793D01*
X166080313Y-66805918D01*
X166068759Y-66784035D01*
X166061963Y-66756707D01*
X166064880Y-66732249D01*
X166077367Y-66711486D01*
X166099284Y-66695241D01*
X166101517Y-66694114D01*
X166105225Y-66692480D01*
X166109663Y-66691032D01*
X166115454Y-66689758D01*
X166123224Y-66688644D01*
X166133595Y-66687678D01*
X166147192Y-66686845D01*
X166164640Y-66686133D01*
X166186562Y-66685529D01*
X166213582Y-66685018D01*
X166246324Y-66684588D01*
X166285413Y-66684226D01*
X166331473Y-66683918D01*
X166385127Y-66683652D01*
X166446999Y-66683413D01*
X166517715Y-66683188D01*
X166597897Y-66682965D01*
X166688171Y-66682730D01*
X166694613Y-66682713D01*
X166786535Y-66682471D01*
X166868415Y-66682265D01*
X166940883Y-66682126D01*
X167004570Y-66682082D01*
X167060105Y-66682163D01*
G37*
G36*
X174675390Y-67897548D02*
G01*
X174846342Y-67912005D01*
X175015328Y-67936702D01*
X175182775Y-67971732D01*
X175349109Y-68017192D01*
X175514756Y-68073175D01*
X175680143Y-68139777D01*
X175680706Y-68140022D01*
X175724383Y-68159981D01*
X175759101Y-68178198D01*
X175786238Y-68195681D01*
X175807171Y-68213437D01*
X175823277Y-68232477D01*
X175835935Y-68253807D01*
X175836303Y-68254523D01*
X175837500Y-68256591D01*
X175838549Y-68258122D01*
X175839512Y-68259464D01*
X175840452Y-68260964D01*
X175841429Y-68262967D01*
X175842507Y-68265821D01*
X175843748Y-68269872D01*
X175845213Y-68275467D01*
X175846965Y-68282952D01*
X175849067Y-68292674D01*
X175851579Y-68304980D01*
X175854565Y-68320216D01*
X175858087Y-68338729D01*
X175862206Y-68360866D01*
X175866986Y-68386972D01*
X175872487Y-68417395D01*
X175878773Y-68452481D01*
X175885905Y-68492578D01*
X175893945Y-68538031D01*
X175902957Y-68589187D01*
X175913001Y-68646392D01*
X175924141Y-68709994D01*
X175936438Y-68780339D01*
X175949954Y-68857774D01*
X175964752Y-68942644D01*
X175980893Y-69035298D01*
X175998441Y-69136081D01*
X176017456Y-69245340D01*
X176038002Y-69363421D01*
X176060141Y-69490672D01*
X176083933Y-69627438D01*
X176109443Y-69774067D01*
X176136732Y-69930906D01*
X176144294Y-69974375D01*
X176171088Y-70128497D01*
X176196066Y-70272365D01*
X176219267Y-70406212D01*
X176240731Y-70530272D01*
X176260497Y-70644778D01*
X176278604Y-70749964D01*
X176295093Y-70846063D01*
X176310002Y-70933308D01*
X176323372Y-71011934D01*
X176335241Y-71082174D01*
X176345650Y-71144262D01*
X176354637Y-71198430D01*
X176362242Y-71244913D01*
X176368506Y-71283945D01*
X176373466Y-71315758D01*
X176377163Y-71340586D01*
X176379637Y-71358663D01*
X176380926Y-71370222D01*
X176381070Y-71375498D01*
X176372996Y-71399539D01*
X176355031Y-71424568D01*
X176329629Y-71443005D01*
X176305768Y-71455059D01*
X175887677Y-71454652D01*
X175857618Y-71454617D01*
X175777475Y-71454457D01*
X175707404Y-71454203D01*
X175646928Y-71453848D01*
X175595570Y-71453385D01*
X175552852Y-71452807D01*
X175518297Y-71452106D01*
X175491428Y-71451274D01*
X175471767Y-71450304D01*
X175458836Y-71449190D01*
X175452158Y-71447923D01*
X175450849Y-71447431D01*
X175427552Y-71433701D01*
X175406588Y-71412776D01*
X175391279Y-71387929D01*
X175389701Y-71381940D01*
X175386229Y-71365498D01*
X175381041Y-71339160D01*
X175374199Y-71303279D01*
X175365768Y-71258208D01*
X175355812Y-71204298D01*
X175344393Y-71141903D01*
X175331576Y-71071376D01*
X175317424Y-70993068D01*
X175302002Y-70907333D01*
X175285372Y-70814524D01*
X175267599Y-70714992D01*
X175248746Y-70609090D01*
X175228876Y-70497171D01*
X175208055Y-70379589D01*
X175186345Y-70256694D01*
X175163810Y-70128840D01*
X175161094Y-70113419D01*
X175136183Y-69972032D01*
X175113041Y-69840872D01*
X175091613Y-69719637D01*
X175071846Y-69608027D01*
X175053684Y-69505742D01*
X175037072Y-69412481D01*
X175021956Y-69327945D01*
X175008281Y-69251832D01*
X174995993Y-69183842D01*
X174985037Y-69123676D01*
X174975358Y-69071032D01*
X174966901Y-69025610D01*
X174959613Y-68987110D01*
X174953437Y-68955232D01*
X174948321Y-68929676D01*
X174944208Y-68910140D01*
X174941044Y-68896324D01*
X174938774Y-68887929D01*
X174937345Y-68884653D01*
X174932996Y-68882049D01*
X174918318Y-68875732D01*
X174896674Y-68867896D01*
X174870261Y-68859248D01*
X174841274Y-68850494D01*
X174811913Y-68842340D01*
X174784373Y-68835492D01*
X174753935Y-68829001D01*
X174660041Y-68814684D01*
X174558843Y-68807199D01*
X174451058Y-68806556D01*
X174337407Y-68812767D01*
X174218605Y-68825846D01*
X174180486Y-68830801D01*
X174142707Y-68834880D01*
X174112699Y-68836831D01*
X174088962Y-68836629D01*
X174069997Y-68834249D01*
X174054301Y-68829665D01*
X174040375Y-68822853D01*
X174023276Y-68810118D01*
X174005050Y-68785981D01*
X174002595Y-68778894D01*
X173998106Y-68761507D01*
X173992175Y-68735562D01*
X173985008Y-68702158D01*
X173976809Y-68662398D01*
X173967785Y-68617381D01*
X173958140Y-68568210D01*
X173948079Y-68515984D01*
X173937809Y-68461805D01*
X173927534Y-68406774D01*
X173917459Y-68351992D01*
X173907790Y-68298560D01*
X173898733Y-68247579D01*
X173890492Y-68200150D01*
X173883272Y-68157373D01*
X173877280Y-68120351D01*
X173872719Y-68090183D01*
X173869797Y-68067971D01*
X173868717Y-68054816D01*
X173868694Y-68050708D01*
X173869841Y-68030604D01*
X173874109Y-68015347D01*
X173882762Y-68000007D01*
X173887666Y-67993174D01*
X173900693Y-67979759D01*
X173917640Y-67968752D01*
X173940203Y-67959380D01*
X173970073Y-67950872D01*
X174008943Y-67942455D01*
X174076854Y-67929919D01*
X174200288Y-67911615D01*
X174322322Y-67899703D01*
X174446490Y-67893879D01*
X174576329Y-67893840D01*
X174675390Y-67897548D01*
G37*
G36*
X177472035Y-67998635D02*
G01*
X177473598Y-67999362D01*
X177477696Y-68000909D01*
X177481467Y-68002019D01*
X177484980Y-68003035D01*
X177488304Y-68004300D01*
X177491507Y-68006158D01*
X177494660Y-68008952D01*
X177497832Y-68013024D01*
X177501091Y-68018719D01*
X177504507Y-68026379D01*
X177508150Y-68036349D01*
X177512087Y-68048970D01*
X177516389Y-68064587D01*
X177521125Y-68083543D01*
X177526364Y-68106180D01*
X177532175Y-68132843D01*
X177538627Y-68163875D01*
X177545790Y-68199618D01*
X177553732Y-68240416D01*
X177562524Y-68286613D01*
X177572233Y-68338552D01*
X177582930Y-68396575D01*
X177594684Y-68461027D01*
X177607563Y-68532250D01*
X177621637Y-68610588D01*
X177636976Y-68696384D01*
X177653647Y-68789981D01*
X177671722Y-68891723D01*
X177691268Y-69001953D01*
X177712355Y-69121014D01*
X177735052Y-69249249D01*
X177759429Y-69387003D01*
X177785554Y-69534617D01*
X177813497Y-69692436D01*
X177823514Y-69749009D01*
X177846506Y-69878979D01*
X177868979Y-70006184D01*
X177890863Y-70130214D01*
X177912086Y-70250660D01*
X177932576Y-70367111D01*
X177952262Y-70479158D01*
X177971073Y-70586391D01*
X177988938Y-70688400D01*
X178005784Y-70784776D01*
X178021541Y-70875110D01*
X178036137Y-70958990D01*
X178049500Y-71036009D01*
X178061560Y-71105755D01*
X178072244Y-71167819D01*
X178081482Y-71221792D01*
X178089201Y-71267264D01*
X178095332Y-71303825D01*
X178099801Y-71331065D01*
X178102538Y-71348575D01*
X178103471Y-71355945D01*
X178101495Y-71382877D01*
X178092846Y-71409380D01*
X178076585Y-71429621D01*
X178051911Y-71444983D01*
X178050577Y-71445578D01*
X178045954Y-71447322D01*
X178040221Y-71448833D01*
X178032639Y-71450127D01*
X178022469Y-71451223D01*
X178008972Y-71452137D01*
X177991410Y-71452885D01*
X177969043Y-71453484D01*
X177941134Y-71453952D01*
X177906942Y-71454306D01*
X177865729Y-71454561D01*
X177816757Y-71454735D01*
X177759287Y-71454846D01*
X177692579Y-71454909D01*
X177615894Y-71454942D01*
X177557576Y-71454937D01*
X177482410Y-71454850D01*
X177417021Y-71454662D01*
X177360854Y-71454362D01*
X177313355Y-71453944D01*
X177273970Y-71453400D01*
X177242147Y-71452721D01*
X177217330Y-71451898D01*
X177198967Y-71450925D01*
X177186503Y-71449792D01*
X177179385Y-71448491D01*
X177166901Y-71443544D01*
X177142466Y-71426458D01*
X177122432Y-71402367D01*
X177109135Y-71373757D01*
X177108288Y-71370243D01*
X177105421Y-71356136D01*
X177100855Y-71332300D01*
X177094678Y-71299230D01*
X177086978Y-71257418D01*
X177077842Y-71207361D01*
X177067357Y-71149553D01*
X177055610Y-71084488D01*
X177042689Y-71012661D01*
X177028680Y-70934566D01*
X177013672Y-70850699D01*
X176997751Y-70761553D01*
X176981005Y-70667624D01*
X176963520Y-70569406D01*
X176945385Y-70467393D01*
X176926686Y-70362081D01*
X176907511Y-70253963D01*
X176887947Y-70143534D01*
X176868082Y-70031290D01*
X176848002Y-69917724D01*
X176827794Y-69803331D01*
X176807547Y-69688606D01*
X176787347Y-69574043D01*
X176767282Y-69460137D01*
X176747439Y-69347382D01*
X176727905Y-69236274D01*
X176708767Y-69127306D01*
X176690113Y-69020974D01*
X176672030Y-68917771D01*
X176654606Y-68818193D01*
X176637927Y-68722734D01*
X176622080Y-68631889D01*
X176607154Y-68546152D01*
X176593235Y-68466018D01*
X176580411Y-68391981D01*
X176568769Y-68324536D01*
X176558396Y-68264178D01*
X176549379Y-68211401D01*
X176541806Y-68166700D01*
X176535764Y-68130570D01*
X176531340Y-68103504D01*
X176528622Y-68085998D01*
X176527696Y-68078546D01*
X176527889Y-68071035D01*
X176533700Y-68041216D01*
X176547946Y-68017639D01*
X176571089Y-67999459D01*
X176594665Y-67986066D01*
X177446511Y-67986066D01*
X177472035Y-67998635D01*
G37*
G36*
X173806212Y-69529861D02*
G01*
X173822420Y-69620109D01*
X173824802Y-69633389D01*
X173840917Y-69723259D01*
X173855266Y-69803360D01*
X173867960Y-69874375D01*
X173879110Y-69936989D01*
X173888827Y-69991883D01*
X173897224Y-70039742D01*
X173904410Y-70081248D01*
X173910498Y-70117085D01*
X173915599Y-70147935D01*
X173919823Y-70174483D01*
X173923283Y-70197410D01*
X173926089Y-70217401D01*
X173928353Y-70235139D01*
X173930186Y-70251306D01*
X173931700Y-70266585D01*
X173933005Y-70281661D01*
X173934213Y-70297216D01*
X173935435Y-70313934D01*
X173938524Y-70384877D01*
X173935373Y-70493163D01*
X173922806Y-70599389D01*
X173901018Y-70702488D01*
X173870199Y-70801392D01*
X173830544Y-70895032D01*
X173796612Y-70958931D01*
X173740901Y-71044726D01*
X173676714Y-71124401D01*
X173604366Y-71197766D01*
X173524169Y-71264631D01*
X173436437Y-71324807D01*
X173341485Y-71378106D01*
X173239626Y-71424338D01*
X173131174Y-71463314D01*
X173016442Y-71494844D01*
X172895745Y-71518740D01*
X172769396Y-71534812D01*
X172750715Y-71536194D01*
X172717600Y-71537719D01*
X172677404Y-71538843D01*
X172632211Y-71539562D01*
X172584107Y-71539875D01*
X172535180Y-71539780D01*
X172487513Y-71539273D01*
X172443194Y-71538353D01*
X172404307Y-71537017D01*
X172372940Y-71535262D01*
X172242326Y-71522713D01*
X172082651Y-71498645D01*
X171927920Y-71465272D01*
X171777769Y-71422501D01*
X171631835Y-71370239D01*
X171489754Y-71308391D01*
X171485656Y-71306434D01*
X171446121Y-71286744D01*
X171404517Y-71264726D01*
X171362135Y-71241177D01*
X171320268Y-71216892D01*
X171280208Y-71192668D01*
X171243247Y-71169303D01*
X171210678Y-71147591D01*
X171183791Y-71128330D01*
X171163881Y-71112316D01*
X171152237Y-71100346D01*
X171151037Y-71098586D01*
X171143509Y-71080067D01*
X171139330Y-71055520D01*
X171138881Y-71028735D01*
X171142540Y-71003501D01*
X171142647Y-71003119D01*
X171146510Y-70993875D01*
X171154860Y-70976351D01*
X171167145Y-70951594D01*
X171182813Y-70920650D01*
X171201311Y-70884569D01*
X171222086Y-70844397D01*
X171244587Y-70801181D01*
X171268260Y-70755969D01*
X171292553Y-70709810D01*
X171316913Y-70663749D01*
X171340788Y-70618835D01*
X171363626Y-70576114D01*
X171384874Y-70536636D01*
X171403979Y-70501446D01*
X171420389Y-70471593D01*
X171433552Y-70448124D01*
X171442915Y-70432087D01*
X171447925Y-70424528D01*
X171458333Y-70415467D01*
X171472412Y-70406519D01*
X171484737Y-70401701D01*
X171500374Y-70400031D01*
X171518784Y-70403003D01*
X171541439Y-70411031D01*
X171569814Y-70424530D01*
X171605383Y-70443915D01*
X171610309Y-70446699D01*
X171735236Y-70512688D01*
X171857693Y-70568366D01*
X171977882Y-70613796D01*
X172096008Y-70649038D01*
X172212276Y-70674153D01*
X172326888Y-70689202D01*
X172440049Y-70694248D01*
X172477822Y-70693817D01*
X172540749Y-70690487D01*
X172596414Y-70683557D01*
X172646776Y-70672654D01*
X172693792Y-70657408D01*
X172739420Y-70637446D01*
X172752820Y-70630525D01*
X172801196Y-70598901D01*
X172841217Y-70560864D01*
X172873001Y-70516220D01*
X172896667Y-70464774D01*
X172912334Y-70406331D01*
X172920121Y-70340695D01*
X172920651Y-70327230D01*
X172919760Y-70278644D01*
X172915187Y-70224829D01*
X172907305Y-70169327D01*
X172896486Y-70115680D01*
X172887003Y-70075498D01*
X171936173Y-70072819D01*
X171864517Y-70072616D01*
X171751962Y-70072288D01*
X171649373Y-70071973D01*
X171556279Y-70071666D01*
X171472211Y-70071361D01*
X171396698Y-70071052D01*
X171329269Y-70070733D01*
X171269455Y-70070398D01*
X171216784Y-70070041D01*
X171170788Y-70069657D01*
X171130995Y-70069239D01*
X171096936Y-70068783D01*
X171068139Y-70068281D01*
X171044135Y-70067728D01*
X171024454Y-70067119D01*
X171008624Y-70066446D01*
X170996177Y-70065706D01*
X170986641Y-70064891D01*
X170979546Y-70063996D01*
X170974423Y-70063015D01*
X170970800Y-70061941D01*
X170968207Y-70060771D01*
X170949388Y-70046400D01*
X170931337Y-70024853D01*
X170918500Y-70000827D01*
X170916915Y-69994244D01*
X170913619Y-69977940D01*
X170908853Y-69953097D01*
X170902805Y-69920759D01*
X170895661Y-69881972D01*
X170887607Y-69837782D01*
X170878828Y-69789233D01*
X170869512Y-69737370D01*
X170859844Y-69683240D01*
X170850010Y-69627888D01*
X170840197Y-69572359D01*
X170830591Y-69517698D01*
X170821378Y-69464952D01*
X170812744Y-69415164D01*
X170804875Y-69369381D01*
X170797958Y-69328648D01*
X170792178Y-69294010D01*
X170787723Y-69266513D01*
X170782661Y-69232859D01*
X170775757Y-69177342D01*
X170771720Y-69129896D01*
X171752219Y-69129896D01*
X171752262Y-69153388D01*
X171752910Y-69183239D01*
X171754589Y-69209086D01*
X171757667Y-69234535D01*
X171762514Y-69263190D01*
X171769498Y-69298658D01*
X171773334Y-69317405D01*
X171779150Y-69345629D01*
X171784139Y-69369596D01*
X171787867Y-69387224D01*
X171789899Y-69396433D01*
X171792811Y-69408487D01*
X172285355Y-69408487D01*
X172356358Y-69408450D01*
X172424169Y-69408352D01*
X172488037Y-69408198D01*
X172547209Y-69407993D01*
X172600932Y-69407740D01*
X172648454Y-69407446D01*
X172689022Y-69407113D01*
X172721885Y-69406748D01*
X172746291Y-69406354D01*
X172761485Y-69405936D01*
X172766718Y-69405499D01*
X172766586Y-69403394D01*
X172764802Y-69390930D01*
X172761238Y-69370565D01*
X172756282Y-69344209D01*
X172750323Y-69313772D01*
X172743749Y-69281165D01*
X172736948Y-69248299D01*
X172730310Y-69217084D01*
X172724222Y-69189430D01*
X172719074Y-69167249D01*
X172715254Y-69152450D01*
X172704173Y-69118678D01*
X172682154Y-69065236D01*
X172655754Y-69012995D01*
X172627226Y-68966712D01*
X172615766Y-68951166D01*
X172588970Y-68919502D01*
X172558194Y-68887648D01*
X172526566Y-68858751D01*
X172497217Y-68835958D01*
X172478317Y-68823972D01*
X172441730Y-68804278D01*
X172400582Y-68785400D01*
X172358564Y-68768985D01*
X172319365Y-68756676D01*
X172312315Y-68754826D01*
X172292579Y-68750060D01*
X172274507Y-68746670D01*
X172255624Y-68744416D01*
X172233455Y-68743057D01*
X172205524Y-68742352D01*
X172169354Y-68742058D01*
X172163517Y-68742037D01*
X172128497Y-68742101D01*
X172101535Y-68742674D01*
X172080311Y-68743951D01*
X172062506Y-68746127D01*
X172045800Y-68749396D01*
X172027874Y-68753955D01*
X172008670Y-68759511D01*
X171951329Y-68780838D01*
X171902410Y-68807391D01*
X171860791Y-68840002D01*
X171825353Y-68879503D01*
X171794975Y-68926723D01*
X171790275Y-68935501D01*
X171775307Y-68968122D01*
X171764534Y-69001414D01*
X171757440Y-69037836D01*
X171753507Y-69079844D01*
X171752219Y-69129896D01*
X170771720Y-69129896D01*
X170771145Y-69123134D01*
X170768522Y-69066256D01*
X170767585Y-69002731D01*
X170767564Y-68973321D01*
X170767879Y-68937045D01*
X170768781Y-68906641D01*
X170770463Y-68879226D01*
X170773117Y-68851918D01*
X170776938Y-68821831D01*
X170782119Y-68786083D01*
X170798031Y-68703151D01*
X170825772Y-68606529D01*
X170862499Y-68514130D01*
X170907788Y-68426754D01*
X170961216Y-68345200D01*
X171022360Y-68270270D01*
X171090796Y-68202763D01*
X171098544Y-68195989D01*
X171178079Y-68133696D01*
X171264504Y-68078598D01*
X171358086Y-68030585D01*
X171459092Y-67989547D01*
X171567787Y-67955375D01*
X171684440Y-67927959D01*
X171809317Y-67907189D01*
X171811145Y-67906942D01*
X171837283Y-67903612D01*
X171861903Y-67900972D01*
X171886752Y-67898943D01*
X171913578Y-67897446D01*
X171944128Y-67896403D01*
X171980149Y-67895735D01*
X172023390Y-67895363D01*
X172075597Y-67895210D01*
X172118617Y-67895233D01*
X172170212Y-67895597D01*
X172214498Y-67896465D01*
X172253447Y-67897973D01*
X172289034Y-67900255D01*
X172323232Y-67903445D01*
X172358015Y-67907677D01*
X172395357Y-67913086D01*
X172437230Y-67919806D01*
X172524114Y-67936057D01*
X172656993Y-67968713D01*
X172783130Y-68009693D01*
X172902523Y-68058995D01*
X173015169Y-68116618D01*
X173121066Y-68182561D01*
X173220211Y-68256822D01*
X173312602Y-68339401D01*
X173326367Y-68352972D01*
X173405574Y-68438141D01*
X173476006Y-68527146D01*
X173538325Y-68621061D01*
X173593189Y-68720963D01*
X173641261Y-68827925D01*
X173683198Y-68943024D01*
X173689557Y-68962758D01*
X173695650Y-68982458D01*
X173701482Y-69002418D01*
X173707205Y-69023374D01*
X173712971Y-69046060D01*
X173718930Y-69071213D01*
X173725234Y-69099567D01*
X173732034Y-69131857D01*
X173739480Y-69168819D01*
X173747725Y-69211187D01*
X173756919Y-69259697D01*
X173767214Y-69315085D01*
X173778760Y-69378084D01*
X173783736Y-69405499D01*
X173791709Y-69449432D01*
X173806212Y-69529861D01*
G37*
G36*
X162182495Y-67983163D02*
G01*
X162240927Y-67983349D01*
X162297150Y-67983659D01*
X162350102Y-67984093D01*
X162398720Y-67984652D01*
X162441939Y-67985336D01*
X162478698Y-67986145D01*
X162507932Y-67987079D01*
X162528578Y-67988138D01*
X162539573Y-67989322D01*
X162559070Y-67995726D01*
X162583646Y-68010532D01*
X162602992Y-68030154D01*
X162614367Y-68052284D01*
X162615835Y-68059224D01*
X162619100Y-68076118D01*
X162624025Y-68102246D01*
X162630489Y-68136943D01*
X162638373Y-68179543D01*
X162647555Y-68229382D01*
X162657914Y-68285795D01*
X162669331Y-68348117D01*
X162681685Y-68415682D01*
X162694854Y-68487825D01*
X162708719Y-68563882D01*
X162723158Y-68643187D01*
X162738052Y-68725075D01*
X162753279Y-68808882D01*
X162768719Y-68893942D01*
X162784251Y-68979589D01*
X162799755Y-69065160D01*
X162815110Y-69149989D01*
X162830195Y-69233410D01*
X162844891Y-69314759D01*
X162859075Y-69393371D01*
X162872629Y-69468581D01*
X162885430Y-69539723D01*
X162897359Y-69606133D01*
X162908294Y-69667145D01*
X162918116Y-69722095D01*
X162926703Y-69770317D01*
X162933936Y-69811146D01*
X162939692Y-69843918D01*
X162943853Y-69867967D01*
X162946296Y-69882628D01*
X162951460Y-69916375D01*
X162958804Y-69971354D01*
X162964053Y-70023057D01*
X162967470Y-70074970D01*
X162969321Y-70130577D01*
X162969869Y-70193364D01*
X162969168Y-70252748D01*
X162965728Y-70328355D01*
X162959094Y-70398298D01*
X162948906Y-70465334D01*
X162934801Y-70532220D01*
X162916420Y-70601712D01*
X162902600Y-70646475D01*
X162864140Y-70747003D01*
X162817510Y-70840726D01*
X162762953Y-70927430D01*
X162700715Y-71006902D01*
X162631037Y-71078928D01*
X162554166Y-71143294D01*
X162470344Y-71199787D01*
X162379815Y-71248192D01*
X162282824Y-71288297D01*
X162179614Y-71319887D01*
X162070430Y-71342749D01*
X162067667Y-71343200D01*
X161951432Y-71357358D01*
X161833981Y-71362153D01*
X161714618Y-71357531D01*
X161592647Y-71343439D01*
X161467371Y-71319824D01*
X161338093Y-71286632D01*
X161259373Y-71263887D01*
X161262291Y-71280450D01*
X161270950Y-71326143D01*
X161292391Y-71416889D01*
X161318002Y-71498469D01*
X161348038Y-71571464D01*
X161382758Y-71636458D01*
X161422419Y-71694033D01*
X161467278Y-71744773D01*
X161478100Y-71755338D01*
X161526368Y-71796463D01*
X161578063Y-71830618D01*
X161634854Y-71858656D01*
X161698412Y-71881432D01*
X161770409Y-71899801D01*
X161800847Y-71904859D01*
X161839771Y-71909054D01*
X161884559Y-71912265D01*
X161932796Y-71914412D01*
X161982061Y-71915420D01*
X162029936Y-71915208D01*
X162074004Y-71913700D01*
X162111847Y-71910816D01*
X162166086Y-71903953D01*
X162222798Y-71894745D01*
X162277129Y-71884013D01*
X162324912Y-71872508D01*
X162353816Y-71864172D01*
X162414959Y-71843538D01*
X162477436Y-71818879D01*
X162538252Y-71791500D01*
X162594411Y-71762709D01*
X162642918Y-71733810D01*
X162660950Y-71722192D01*
X162689517Y-71704832D01*
X162712523Y-71692765D01*
X162731875Y-71685166D01*
X162749479Y-71681211D01*
X162767242Y-71680075D01*
X162768259Y-71680079D01*
X162794144Y-71682638D01*
X162813618Y-71689451D01*
X162814390Y-71690048D01*
X162821337Y-71697406D01*
X162834048Y-71712137D01*
X162851851Y-71733399D01*
X162874070Y-71760348D01*
X162900034Y-71792144D01*
X162929069Y-71827941D01*
X162960501Y-71866899D01*
X162993658Y-71908174D01*
X163027865Y-71950924D01*
X163062449Y-71994305D01*
X163096737Y-72037476D01*
X163130056Y-72079593D01*
X163161732Y-72119813D01*
X163191092Y-72157295D01*
X163217462Y-72191195D01*
X163240169Y-72220670D01*
X163258539Y-72244878D01*
X163271900Y-72262977D01*
X163277282Y-72271080D01*
X163291043Y-72301332D01*
X163296933Y-72332846D01*
X163294218Y-72362363D01*
X163287882Y-72377208D01*
X163272427Y-72398564D01*
X163248254Y-72423485D01*
X163215037Y-72452301D01*
X163172448Y-72485342D01*
X163099072Y-72536565D01*
X162994591Y-72598819D01*
X162884363Y-72652694D01*
X162768133Y-72698276D01*
X162645646Y-72735651D01*
X162516646Y-72764904D01*
X162380879Y-72786122D01*
X162238089Y-72799389D01*
X162226904Y-72800078D01*
X162111633Y-72804511D01*
X161994395Y-72804417D01*
X161877197Y-72799943D01*
X161762047Y-72791237D01*
X161650952Y-72778447D01*
X161545920Y-72761721D01*
X161448958Y-72741207D01*
X161416192Y-72732942D01*
X161301692Y-72698561D01*
X161193509Y-72657044D01*
X161091502Y-72608209D01*
X160995528Y-72551876D01*
X160905446Y-72487860D01*
X160821113Y-72415982D01*
X160742386Y-72336058D01*
X160669123Y-72247907D01*
X160601182Y-72151347D01*
X160538420Y-72046196D01*
X160480696Y-71932271D01*
X160427866Y-71809392D01*
X160379789Y-71677376D01*
X160336322Y-71536041D01*
X160297323Y-71385205D01*
X160262650Y-71224686D01*
X160260153Y-71211663D01*
X160255446Y-71186347D01*
X160249156Y-71151939D01*
X160241369Y-71108941D01*
X160232175Y-71057857D01*
X160221663Y-70999192D01*
X160209919Y-70933447D01*
X160197034Y-70861129D01*
X160183096Y-70782739D01*
X160168193Y-70698782D01*
X160152413Y-70609761D01*
X160135846Y-70516180D01*
X160118579Y-70418544D01*
X160100702Y-70317354D01*
X160082302Y-70213116D01*
X160063469Y-70106333D01*
X160044290Y-69997509D01*
X160024855Y-69887147D01*
X160005251Y-69775750D01*
X159985568Y-69663824D01*
X159965893Y-69551870D01*
X159946316Y-69440394D01*
X159926924Y-69329899D01*
X159907807Y-69220888D01*
X159889053Y-69113866D01*
X159870750Y-69009335D01*
X159852987Y-68907800D01*
X159835853Y-68809764D01*
X159819435Y-68715731D01*
X159803823Y-68626204D01*
X159789105Y-68541688D01*
X159775369Y-68462686D01*
X159762704Y-68389702D01*
X159751198Y-68323240D01*
X159740941Y-68263802D01*
X159732020Y-68211893D01*
X159724524Y-68168017D01*
X159718541Y-68132677D01*
X159714161Y-68106377D01*
X159711471Y-68089621D01*
X159710560Y-68082912D01*
X159711255Y-68072588D01*
X159717957Y-68046450D01*
X159730274Y-68022912D01*
X159746361Y-68005945D01*
X159747835Y-68004903D01*
X159753941Y-68000879D01*
X159760485Y-67997380D01*
X159768201Y-67994372D01*
X159777823Y-67991823D01*
X159790085Y-67989698D01*
X159805721Y-67987964D01*
X159825465Y-67986589D01*
X159850052Y-67985538D01*
X159880215Y-67984779D01*
X159916689Y-67984278D01*
X159960207Y-67984003D01*
X160011504Y-67983918D01*
X160071314Y-67983992D01*
X160140370Y-67984192D01*
X160219407Y-67984482D01*
X160629257Y-67986066D01*
X160651520Y-67997971D01*
X160670823Y-68010572D01*
X160689872Y-68031538D01*
X160703811Y-68060041D01*
X160703888Y-68060273D01*
X160705749Y-68068543D01*
X160709358Y-68086832D01*
X160714628Y-68114650D01*
X160721470Y-68151503D01*
X160729796Y-68196901D01*
X160739517Y-68250350D01*
X160750546Y-68311359D01*
X160762794Y-68379436D01*
X160776174Y-68454089D01*
X160790597Y-68534826D01*
X160805974Y-68621155D01*
X160822218Y-68712584D01*
X160839240Y-68808621D01*
X160856953Y-68908774D01*
X160875268Y-69012551D01*
X160894096Y-69119461D01*
X160913351Y-69229010D01*
X160915390Y-69240620D01*
X160934567Y-69349753D01*
X160953284Y-69456112D01*
X160971453Y-69559210D01*
X160988988Y-69658563D01*
X161005801Y-69753682D01*
X161021807Y-69844082D01*
X161036919Y-69929277D01*
X161051050Y-70008781D01*
X161064114Y-70082106D01*
X161076023Y-70148767D01*
X161086692Y-70208278D01*
X161096033Y-70260151D01*
X161103960Y-70303902D01*
X161110387Y-70339043D01*
X161115226Y-70365089D01*
X161118392Y-70381552D01*
X161119797Y-70387947D01*
X161124896Y-70394702D01*
X161140028Y-70405867D01*
X161163140Y-70418427D01*
X161192782Y-70431822D01*
X161227505Y-70445493D01*
X161265861Y-70458879D01*
X161306401Y-70471420D01*
X161347675Y-70482557D01*
X161388237Y-70491728D01*
X161396536Y-70493369D01*
X161418629Y-70497286D01*
X161439770Y-70500110D01*
X161462291Y-70502004D01*
X161488526Y-70503127D01*
X161520806Y-70503643D01*
X161561465Y-70503712D01*
X161590085Y-70503593D01*
X161622977Y-70503180D01*
X161648513Y-70502342D01*
X161668665Y-70500927D01*
X161685403Y-70498780D01*
X161700699Y-70495750D01*
X161716523Y-70491683D01*
X161724250Y-70489478D01*
X161783921Y-70467344D01*
X161835450Y-70438366D01*
X161878888Y-70402468D01*
X161914290Y-70359577D01*
X161941707Y-70309614D01*
X161961192Y-70252506D01*
X161972797Y-70188176D01*
X161976575Y-70116548D01*
X161976296Y-70098867D01*
X161974737Y-70064288D01*
X161972121Y-70029712D01*
X161968806Y-70000493D01*
X161968551Y-69998798D01*
X161966337Y-69985378D01*
X161962338Y-69962130D01*
X161956656Y-69929631D01*
X161949394Y-69888459D01*
X161940657Y-69839190D01*
X161930547Y-69782402D01*
X161919168Y-69718671D01*
X161906622Y-69648573D01*
X161893014Y-69572687D01*
X161878445Y-69491588D01*
X161863020Y-69405854D01*
X161846842Y-69316062D01*
X161830013Y-69222788D01*
X161812638Y-69126609D01*
X161794819Y-69028103D01*
X161789334Y-68997805D01*
X161771759Y-68900701D01*
X161754706Y-68806467D01*
X161738273Y-68715650D01*
X161722559Y-68628799D01*
X161707665Y-68546462D01*
X161693689Y-68469188D01*
X161680729Y-68397523D01*
X161668886Y-68332017D01*
X161658258Y-68273218D01*
X161648945Y-68221673D01*
X161641045Y-68177931D01*
X161634657Y-68142541D01*
X161629882Y-68116049D01*
X161626817Y-68099005D01*
X161625562Y-68091956D01*
X161624587Y-68070941D01*
X161631449Y-68043079D01*
X161646717Y-68018928D01*
X161669049Y-68000411D01*
X161697099Y-67989456D01*
X161698111Y-67989267D01*
X161710655Y-67988097D01*
X161732688Y-67987051D01*
X161763144Y-67986126D01*
X161800963Y-67985325D01*
X161845079Y-67984646D01*
X161894430Y-67984090D01*
X161947953Y-67983657D01*
X162004584Y-67983348D01*
X162063261Y-67983163D01*
X162122919Y-67983101D01*
X162182495Y-67983163D01*
G37*
%TO.C,D12*%
X226330000Y-117094000D02*
X228330000Y-117094000D01*
X228330000Y-115824000D02*
X228330000Y-119760000D01*
X226330000Y-115824000D02*
X228330000Y-115824000D01*
X226330000Y-115824000D02*
X226330000Y-119760000D01*
%TO.C,C2*%
X194202267Y-90803000D02*
X193909733Y-90803000D01*
X194202267Y-91823000D02*
X193909733Y-91823000D01*
%TO.C,D11*%
X207280000Y-115824000D02*
X209280000Y-115824000D01*
X209280000Y-115824000D02*
X209280000Y-119760000D01*
X207280000Y-117094000D02*
X209280000Y-117094000D01*
X207280000Y-115824000D02*
X207280000Y-119760000D01*
%TO.C,LED9*%
G36*
X236982000Y-109702600D02*
G01*
X236982000Y-109220000D01*
X237490000Y-109220000D01*
X236982000Y-109702600D01*
G37*
X236982000Y-109702600D02*
X236982000Y-109220000D01*
X237490000Y-109220000D01*
X236982000Y-109702600D01*
%TO.C,D4*%
X228330000Y-77724000D02*
X228330000Y-81660000D01*
X226330000Y-77724000D02*
X228330000Y-77724000D01*
X226330000Y-78994000D02*
X228330000Y-78994000D01*
X226330000Y-77724000D02*
X226330000Y-81660000D01*
%TO.C,D13*%
X245380000Y-77724000D02*
X245380000Y-81660000D01*
X245380000Y-78994000D02*
X247380000Y-78994000D01*
X247380000Y-77724000D02*
X247380000Y-81660000D01*
X245380000Y-77724000D02*
X247380000Y-77724000D01*
%TO.C,LED0*%
G36*
X241808000Y-93980000D02*
G01*
X241300000Y-93980000D01*
X241808000Y-93497400D01*
X241808000Y-93980000D01*
G37*
X241808000Y-93980000D02*
X241300000Y-93980000D01*
X241808000Y-93497400D01*
X241808000Y-93980000D01*
%TO.C,P2*%
X171122000Y-48768000D02*
G75*
G03*
X171122000Y-48768000I-1450000J0D01*
G01*
%TO.C,D14*%
X245380000Y-96774000D02*
X247380000Y-96774000D01*
X247380000Y-96774000D02*
X247380000Y-100710000D01*
X245380000Y-98044000D02*
X247380000Y-98044000D01*
X245380000Y-96774000D02*
X245380000Y-100710000D01*
%TO.C,D8*%
X226330000Y-96774000D02*
X226330000Y-100710000D01*
X226330000Y-96774000D02*
X228330000Y-96774000D01*
X228330000Y-96774000D02*
X228330000Y-100710000D01*
X226330000Y-98044000D02*
X228330000Y-98044000D01*
%TO.C,D5*%
X171180000Y-96774000D02*
X171180000Y-100710000D01*
X169180000Y-96774000D02*
X169180000Y-100710000D01*
X169180000Y-96774000D02*
X171180000Y-96774000D01*
X169180000Y-98044000D02*
X171180000Y-98044000D01*
%TO.C,D6*%
X188230000Y-98044000D02*
X190230000Y-98044000D01*
X188230000Y-96774000D02*
X190230000Y-96774000D01*
X190230000Y-96774000D02*
X190230000Y-100710000D01*
X188230000Y-96774000D02*
X188230000Y-100710000D01*
%TO.C,C4*%
X156102267Y-91823000D02*
X155809733Y-91823000D01*
X156102267Y-90803000D02*
X155809733Y-90803000D01*
%TO.C,D7*%
X209280000Y-96774000D02*
X209280000Y-100710000D01*
X207280000Y-98044000D02*
X209280000Y-98044000D01*
X207280000Y-96774000D02*
X209280000Y-96774000D01*
X207280000Y-96774000D02*
X207280000Y-100710000D01*
%TO.C,C0*%
X232302267Y-91823000D02*
X232009733Y-91823000D01*
X232302267Y-90803000D02*
X232009733Y-90803000D01*
%TO.C,C12*%
X194202267Y-128903000D02*
X193909733Y-128903000D01*
X194202267Y-129923000D02*
X193909733Y-129923000D01*
%TO.C,LED11*%
G36*
X222758000Y-132080000D02*
G01*
X222250000Y-132080000D01*
X222758000Y-131597400D01*
X222758000Y-132080000D01*
G37*
X222758000Y-132080000D02*
X222250000Y-132080000D01*
X222758000Y-131597400D01*
X222758000Y-132080000D01*
%TO.C,C1*%
X213252267Y-91823000D02*
X212959733Y-91823000D01*
X213252267Y-90803000D02*
X212959733Y-90803000D01*
%TO.C,P1*%
X165026000Y-48768000D02*
G75*
G03*
X165026000Y-48768000I-1450000J0D01*
G01*
%TO.C,C10*%
X232302267Y-128903000D02*
X232009733Y-128903000D01*
X232302267Y-129923000D02*
X232009733Y-129923000D01*
%TO.C,LED10*%
G36*
X241808000Y-132080000D02*
G01*
X241300000Y-132080000D01*
X241808000Y-131597400D01*
X241808000Y-132080000D01*
G37*
X241808000Y-132080000D02*
X241300000Y-132080000D01*
X241808000Y-131597400D01*
X241808000Y-132080000D01*
%TO.C,LED13*%
G36*
X184658000Y-132080000D02*
G01*
X184150000Y-132080000D01*
X184658000Y-131597400D01*
X184658000Y-132080000D01*
G37*
X184658000Y-132080000D02*
X184150000Y-132080000D01*
X184658000Y-131597400D01*
X184658000Y-132080000D01*
%TO.C,LED7*%
G36*
X198882000Y-109702600D02*
G01*
X198882000Y-109220000D01*
X199390000Y-109220000D01*
X198882000Y-109702600D01*
G37*
X198882000Y-109702600D02*
X198882000Y-109220000D01*
X199390000Y-109220000D01*
X198882000Y-109702600D01*
%TO.C,LED6*%
G36*
X179832000Y-109702600D02*
G01*
X179832000Y-109220000D01*
X180340000Y-109220000D01*
X179832000Y-109702600D01*
G37*
X179832000Y-109702600D02*
X179832000Y-109220000D01*
X180340000Y-109220000D01*
X179832000Y-109702600D01*
%TO.C,C14*%
X156102267Y-128903000D02*
X155809733Y-128903000D01*
X156102267Y-129923000D02*
X155809733Y-129923000D01*
%TO.C,LED12*%
G36*
X203708000Y-132080000D02*
G01*
X203200000Y-132080000D01*
X203708000Y-131597400D01*
X203708000Y-132080000D01*
G37*
X203708000Y-132080000D02*
X203200000Y-132080000D01*
X203708000Y-131597400D01*
X203708000Y-132080000D01*
%TD*%
%LPC*%
D16*
%TO.C,H1*%
X248920000Y-41275000D03*
%TD*%
%TO.C,OLED2*%
X223205000Y-41275000D03*
X192405000Y-70175000D03*
X192405000Y-41275000D03*
X223205000Y-70175000D03*
D17*
X203995000Y-40875000D03*
X206535000Y-40875000D03*
X209075000Y-40875000D03*
X211615000Y-40875000D03*
%TD*%
D18*
%TO.C,KEY8*%
X220345000Y-105410000D03*
D19*
X215265000Y-105410000D03*
X225425000Y-105410000D03*
D20*
X222885000Y-100330000D03*
X216535000Y-102870000D03*
%TD*%
D19*
%TO.C,KEY9*%
X168275000Y-124460000D03*
X158115000Y-124460000D03*
D18*
X163195000Y-124460000D03*
D20*
X165735000Y-119380000D03*
X159385000Y-121920000D03*
%TD*%
D18*
%TO.C,KEY13*%
X239395000Y-86360000D03*
D19*
X244475000Y-86360000D03*
X234315000Y-86360000D03*
D20*
X241935000Y-81280000D03*
X235585000Y-83820000D03*
%TD*%
D16*
%TO.C,H2*%
X155575000Y-133985000D03*
%TD*%
D19*
%TO.C,KEY14*%
X244475000Y-105410000D03*
X234315000Y-105410000D03*
D18*
X239395000Y-105410000D03*
D20*
X241935000Y-100330000D03*
X235585000Y-102870000D03*
%TD*%
D19*
%TO.C,KEY10*%
X187325000Y-124460000D03*
D18*
X182245000Y-124460000D03*
D19*
X177165000Y-124460000D03*
D20*
X184785000Y-119380000D03*
X178435000Y-121920000D03*
%TD*%
D18*
%TO.C,KEY4*%
X220345000Y-86360000D03*
D19*
X225425000Y-86360000D03*
X215265000Y-86360000D03*
D20*
X222885000Y-81280000D03*
X216535000Y-83820000D03*
%TD*%
D18*
%TO.C,KEY1*%
X163195000Y-86360000D03*
D19*
X158115000Y-86360000D03*
X168275000Y-86360000D03*
D20*
X165735000Y-81280000D03*
X159385000Y-83820000D03*
%TD*%
D19*
%TO.C,KEY11*%
X196215000Y-124460000D03*
D18*
X201295000Y-124460000D03*
D19*
X206375000Y-124460000D03*
D20*
X203835000Y-119380000D03*
X197485000Y-121920000D03*
%TD*%
D19*
%TO.C,KEY12*%
X225425000Y-124460000D03*
D18*
X220345000Y-124460000D03*
D19*
X215265000Y-124460000D03*
D20*
X222885000Y-119380000D03*
X216535000Y-121920000D03*
%TD*%
D19*
%TO.C,KEY6*%
X177165000Y-105410000D03*
X187325000Y-105410000D03*
D18*
X182245000Y-105410000D03*
D20*
X184785000Y-100330000D03*
X178435000Y-102870000D03*
%TD*%
D18*
%TO.C,KEY2*%
X182245000Y-86360000D03*
D19*
X177165000Y-86360000D03*
X187325000Y-86360000D03*
D20*
X184785000Y-81280000D03*
X178435000Y-83820000D03*
%TD*%
D17*
%TO.C,U1*%
X227965000Y-45974000D03*
X227965000Y-43434000D03*
X227965000Y-53594000D03*
X227965000Y-56134000D03*
X227965000Y-58674000D03*
X227965000Y-61214000D03*
X227965000Y-63754000D03*
X227965000Y-66294000D03*
X227965000Y-68834000D03*
X227965000Y-71374000D03*
X243205000Y-71374000D03*
X243205000Y-66294000D03*
X243205000Y-63754000D03*
X243205000Y-68834000D03*
X243205000Y-61214000D03*
X243205000Y-58674000D03*
X243205000Y-56134000D03*
X243205000Y-53594000D03*
X227965000Y-48514000D03*
X227965000Y-51054000D03*
X243205000Y-43434000D03*
X243205000Y-45974000D03*
X243205000Y-48514000D03*
X243205000Y-51054000D03*
%TD*%
D16*
%TO.C,H3*%
X248920000Y-133985000D03*
%TD*%
%TO.C,OLED1*%
X155575000Y-70175000D03*
X186375000Y-41275000D03*
X155575000Y-41275000D03*
X186375000Y-70175000D03*
D17*
X167165000Y-40875000D03*
X169705000Y-40875000D03*
X172245000Y-40875000D03*
X174785000Y-40875000D03*
%TD*%
D18*
%TO.C,KEY7*%
X201295000Y-105410000D03*
D19*
X196215000Y-105410000D03*
X206375000Y-105410000D03*
D20*
X203835000Y-100330000D03*
X197485000Y-102870000D03*
%TD*%
D18*
%TO.C,KEY15*%
X239395000Y-124460000D03*
D19*
X244475000Y-124460000D03*
X234315000Y-124460000D03*
D20*
X241935000Y-119380000D03*
X235585000Y-121920000D03*
%TD*%
D19*
%TO.C,KEY3*%
X206375000Y-86360000D03*
D18*
X201295000Y-86360000D03*
D19*
X196215000Y-86360000D03*
D20*
X203835000Y-81280000D03*
X197485000Y-83820000D03*
%TD*%
D19*
%TO.C,KEY5*%
X168275000Y-105410000D03*
X158115000Y-105410000D03*
D18*
X163195000Y-105410000D03*
D20*
X165735000Y-100330000D03*
X159385000Y-102870000D03*
%TD*%
D21*
%TO.C,C13*%
X175868500Y-129413000D03*
X174143500Y-129413000D03*
%TD*%
D22*
%TO.C,C7*%
X207671500Y-111887000D03*
X209396500Y-111887000D03*
%TD*%
%TO.C,C6*%
X188621500Y-111887000D03*
X190346500Y-111887000D03*
%TD*%
D23*
%TO.C,D3*%
X208280000Y-78360000D03*
X208280000Y-81660000D03*
%TD*%
D22*
%TO.C,C8*%
X226721500Y-111887000D03*
X228446500Y-111887000D03*
%TD*%
D24*
%TO.C,LED14*%
X160395000Y-129425000D03*
X160395000Y-130925000D03*
X165995000Y-130925000D03*
X165995000Y-129425000D03*
%TD*%
D25*
%TO.C,R1*%
X243332000Y-75692000D03*
X241507000Y-75692000D03*
%TD*%
D21*
%TO.C,C11*%
X213968500Y-129413000D03*
X212243500Y-129413000D03*
%TD*%
D24*
%TO.C,LED4*%
X160395000Y-91325000D03*
X160395000Y-92825000D03*
X165995000Y-92825000D03*
X165995000Y-91325000D03*
%TD*%
%TO.C,LED3*%
X179445000Y-91325000D03*
X179445000Y-92825000D03*
X185045000Y-92825000D03*
X185045000Y-91325000D03*
%TD*%
D22*
%TO.C,C9*%
X245771500Y-111887000D03*
X247496500Y-111887000D03*
%TD*%
D24*
%TO.C,LED5*%
X165995000Y-111875000D03*
X165995000Y-110375000D03*
X160395000Y-110375000D03*
X160395000Y-111875000D03*
%TD*%
D22*
%TO.C,C5*%
X169571500Y-111887000D03*
X171296500Y-111887000D03*
%TD*%
D23*
%TO.C,D10*%
X189230000Y-116460000D03*
X189230000Y-119760000D03*
%TD*%
D21*
%TO.C,C3*%
X175868500Y-91313000D03*
X174143500Y-91313000D03*
%TD*%
D23*
%TO.C,D15*%
X246380000Y-116460000D03*
X246380000Y-119760000D03*
%TD*%
D24*
%TO.C,LED8*%
X223145000Y-111875000D03*
X223145000Y-110375000D03*
X217545000Y-110375000D03*
X217545000Y-111875000D03*
%TD*%
D23*
%TO.C,D2*%
X189230000Y-78360000D03*
X189230000Y-81660000D03*
%TD*%
%TO.C,D9*%
X170180000Y-116460000D03*
X170180000Y-119760000D03*
%TD*%
D24*
%TO.C,LED1*%
X217545000Y-91325000D03*
X217545000Y-92825000D03*
X223145000Y-92825000D03*
X223145000Y-91325000D03*
%TD*%
%TO.C,LED2*%
X198495000Y-91325000D03*
X198495000Y-92825000D03*
X204095000Y-92825000D03*
X204095000Y-91325000D03*
%TD*%
D23*
%TO.C,D1*%
X170180000Y-78360000D03*
X170180000Y-81660000D03*
%TD*%
%TO.C,D12*%
X227330000Y-116460000D03*
X227330000Y-119760000D03*
%TD*%
D21*
%TO.C,C2*%
X194918500Y-91313000D03*
X193193500Y-91313000D03*
%TD*%
D23*
%TO.C,D11*%
X208280000Y-116460000D03*
X208280000Y-119760000D03*
%TD*%
D24*
%TO.C,LED9*%
X242195000Y-111875000D03*
X242195000Y-110375000D03*
X236595000Y-110375000D03*
X236595000Y-111875000D03*
%TD*%
D23*
%TO.C,D4*%
X227330000Y-78360000D03*
X227330000Y-81660000D03*
%TD*%
%TO.C,D13*%
X246380000Y-78360000D03*
X246380000Y-81660000D03*
%TD*%
D24*
%TO.C,LED0*%
X236595000Y-91325000D03*
X236595000Y-92825000D03*
X242195000Y-92825000D03*
X242195000Y-91325000D03*
%TD*%
D26*
%TO.C,P2*%
X169672000Y-48768000D03*
%TD*%
D23*
%TO.C,D14*%
X246380000Y-97410000D03*
X246380000Y-100710000D03*
%TD*%
%TO.C,D8*%
X227330000Y-97410000D03*
X227330000Y-100710000D03*
%TD*%
%TO.C,D5*%
X170180000Y-97410000D03*
X170180000Y-100710000D03*
%TD*%
%TO.C,D6*%
X189230000Y-97410000D03*
X189230000Y-100710000D03*
%TD*%
D21*
%TO.C,C4*%
X156818500Y-91313000D03*
X155093500Y-91313000D03*
%TD*%
D23*
%TO.C,D7*%
X208280000Y-97410000D03*
X208280000Y-100710000D03*
%TD*%
D21*
%TO.C,C0*%
X233018500Y-91313000D03*
X231293500Y-91313000D03*
%TD*%
%TO.C,C12*%
X194918500Y-129413000D03*
X193193500Y-129413000D03*
%TD*%
D24*
%TO.C,LED11*%
X217545000Y-129425000D03*
X217545000Y-130925000D03*
X223145000Y-130925000D03*
X223145000Y-129425000D03*
%TD*%
D21*
%TO.C,C1*%
X213968500Y-91313000D03*
X212243500Y-91313000D03*
%TD*%
D26*
%TO.C,P1*%
X163576000Y-48768000D03*
%TD*%
D21*
%TO.C,C10*%
X233018500Y-129413000D03*
X231293500Y-129413000D03*
%TD*%
D24*
%TO.C,LED10*%
X236595000Y-129425000D03*
X236595000Y-130925000D03*
X242195000Y-130925000D03*
X242195000Y-129425000D03*
%TD*%
%TO.C,LED13*%
X179445000Y-129425000D03*
X179445000Y-130925000D03*
X185045000Y-130925000D03*
X185045000Y-129425000D03*
%TD*%
%TO.C,LED7*%
X204095000Y-111875000D03*
X204095000Y-110375000D03*
X198495000Y-110375000D03*
X198495000Y-111875000D03*
%TD*%
%TO.C,LED6*%
X185045000Y-111875000D03*
X185045000Y-110375000D03*
X179445000Y-110375000D03*
X179445000Y-111875000D03*
%TD*%
D21*
%TO.C,C14*%
X156818500Y-129413000D03*
X155093500Y-129413000D03*
%TD*%
D24*
%TO.C,LED12*%
X198495000Y-129425000D03*
X198495000Y-130925000D03*
X204095000Y-130925000D03*
X204095000Y-129425000D03*
%TD*%
M02*
