M48
; DRILL file {KiCad (6.0.10)} date Sun Feb  5 13:23:04 2023
; FORMAT={-:-/ absolute / metric / decimal}
; #@! TF.CreationDate,2023-02-05T13:23:04+01:00
; #@! TF.GenerationSoftware,Kicad,Pcbnew,(6.0.10)
; #@! TF.FileFunction,NonPlated,1,2,NPTH
FMAT,2
METRIC
; #@! TA.AperFunction,NonPlated,NPTH,ComponentDrill
T1C1.700
; #@! TA.AperFunction,NonPlated,NPTH,ComponentDrill
T2C2.700
; #@! TA.AperFunction,NonPlated,NPTH,ComponentDrill
T3C4.000
%
G90
G05
T1
X158.115Y-86.36
X158.115Y-105.41
X158.115Y-124.46
X168.275Y-86.36
X168.275Y-105.41
X168.275Y-124.46
X177.165Y-86.36
X177.165Y-105.41
X177.165Y-124.46
X187.325Y-86.36
X187.325Y-105.41
X187.325Y-124.46
X196.215Y-86.36
X196.215Y-105.41
X196.215Y-124.46
X206.375Y-86.36
X206.375Y-105.41
X206.375Y-124.46
X215.265Y-86.36
X215.265Y-105.41
X215.265Y-124.46
X225.425Y-86.36
X225.425Y-105.41
X225.425Y-124.46
X234.315Y-86.36
X234.315Y-105.41
X234.315Y-124.46
X244.475Y-86.36
X244.475Y-105.41
X244.475Y-124.46
T2
X155.575Y-41.275
X155.575Y-70.175
X155.575Y-133.985
X186.375Y-41.275
X186.375Y-70.175
X192.405Y-41.275
X192.405Y-70.175
X223.205Y-41.275
X223.205Y-70.175
X248.92Y-41.275
X248.92Y-133.985
T3
X163.195Y-86.36
X163.195Y-105.41
X163.195Y-124.46
X182.245Y-86.36
X182.245Y-105.41
X182.245Y-124.46
X201.295Y-86.36
X201.295Y-105.41
X201.295Y-124.46
X220.345Y-86.36
X220.345Y-105.41
X220.345Y-124.46
X239.395Y-86.36
X239.395Y-105.41
X239.395Y-124.46
T0
M30
