%TF.GenerationSoftware,KiCad,Pcbnew,(6.0.9)*%
%TF.CreationDate,2022-12-25T13:57:41+01:00*%
%TF.ProjectId,FireKey,46697265-4b65-4792-9e6b-696361645f70,1.0.0*%
%TF.SameCoordinates,Original*%
%TF.FileFunction,Soldermask,Bot*%
%TF.FilePolarity,Negative*%
%FSLAX46Y46*%
G04 Gerber Fmt 4.6, Leading zero omitted, Abs format (unit mm)*
G04 Created by KiCad (PCBNEW (6.0.9)) date 2022-12-25 13:57:41*
%MOMM*%
%LPD*%
G01*
G04 APERTURE LIST*
G04 Aperture macros list*
%AMRoundRect*
0 Rectangle with rounded corners*
0 $1 Rounding radius*
0 $2 $3 $4 $5 $6 $7 $8 $9 X,Y pos of 4 corners*
0 Add a 4 corners polygon primitive as box body*
4,1,4,$2,$3,$4,$5,$6,$7,$8,$9,$2,$3,0*
0 Add four circle primitives for the rounded corners*
1,1,$1+$1,$2,$3*
1,1,$1+$1,$4,$5*
1,1,$1+$1,$6,$7*
1,1,$1+$1,$8,$9*
0 Add four rect primitives between the rounded corners*
20,1,$1+$1,$2,$3,$4,$5,0*
20,1,$1+$1,$4,$5,$6,$7,0*
20,1,$1+$1,$6,$7,$8,$9,0*
20,1,$1+$1,$8,$9,$2,$3,0*%
G04 Aperture macros list end*
%ADD10C,2.700000*%
%ADD11C,1.778000*%
%ADD12C,4.000000*%
%ADD13C,1.700000*%
%ADD14C,2.200000*%
%ADD15RoundRect,0.237500X0.300000X0.237500X-0.300000X0.237500X-0.300000X-0.237500X0.300000X-0.237500X0*%
%ADD16RoundRect,0.237500X-0.300000X-0.237500X0.300000X-0.237500X0.300000X0.237500X-0.300000X0.237500X0*%
%ADD17R,1.200000X0.900000*%
%ADD18R,1.500000X0.820000*%
%ADD19RoundRect,0.237500X0.250000X0.237500X-0.250000X0.237500X-0.250000X-0.237500X0.250000X-0.237500X0*%
%ADD20C,2.500000*%
G04 APERTURE END LIST*
D10*
%TO.C,H1*%
X248920000Y-41275000D03*
%TD*%
%TO.C,OLED2*%
X223205000Y-41275000D03*
X192405000Y-70175000D03*
X192405000Y-41275000D03*
X223205000Y-70175000D03*
D11*
X203995000Y-40875000D03*
X206535000Y-40875000D03*
X209075000Y-40875000D03*
X211615000Y-40875000D03*
%TD*%
D12*
%TO.C,KEY8*%
X220345000Y-105410000D03*
D13*
X215265000Y-105410000D03*
X225425000Y-105410000D03*
D14*
X222885000Y-100330000D03*
X216535000Y-102870000D03*
%TD*%
D13*
%TO.C,KEY9*%
X168275000Y-124460000D03*
X158115000Y-124460000D03*
D12*
X163195000Y-124460000D03*
D14*
X165735000Y-119380000D03*
X159385000Y-121920000D03*
%TD*%
D12*
%TO.C,KEY13*%
X239395000Y-86360000D03*
D13*
X244475000Y-86360000D03*
X234315000Y-86360000D03*
D14*
X241935000Y-81280000D03*
X235585000Y-83820000D03*
%TD*%
D10*
%TO.C,H2*%
X155575000Y-133985000D03*
%TD*%
D13*
%TO.C,KEY14*%
X244475000Y-105410000D03*
X234315000Y-105410000D03*
D12*
X239395000Y-105410000D03*
D14*
X241935000Y-100330000D03*
X235585000Y-102870000D03*
%TD*%
D13*
%TO.C,KEY10*%
X187325000Y-124460000D03*
D12*
X182245000Y-124460000D03*
D13*
X177165000Y-124460000D03*
D14*
X184785000Y-119380000D03*
X178435000Y-121920000D03*
%TD*%
D12*
%TO.C,KEY4*%
X220345000Y-86360000D03*
D13*
X225425000Y-86360000D03*
X215265000Y-86360000D03*
D14*
X222885000Y-81280000D03*
X216535000Y-83820000D03*
%TD*%
D12*
%TO.C,KEY1*%
X163195000Y-86360000D03*
D13*
X158115000Y-86360000D03*
X168275000Y-86360000D03*
D14*
X165735000Y-81280000D03*
X159385000Y-83820000D03*
%TD*%
D13*
%TO.C,KEY11*%
X196215000Y-124460000D03*
D12*
X201295000Y-124460000D03*
D13*
X206375000Y-124460000D03*
D14*
X203835000Y-119380000D03*
X197485000Y-121920000D03*
%TD*%
D13*
%TO.C,KEY12*%
X225425000Y-124460000D03*
D12*
X220345000Y-124460000D03*
D13*
X215265000Y-124460000D03*
D14*
X222885000Y-119380000D03*
X216535000Y-121920000D03*
%TD*%
D13*
%TO.C,KEY6*%
X177165000Y-105410000D03*
X187325000Y-105410000D03*
D12*
X182245000Y-105410000D03*
D14*
X184785000Y-100330000D03*
X178435000Y-102870000D03*
%TD*%
D12*
%TO.C,KEY2*%
X182245000Y-86360000D03*
D13*
X177165000Y-86360000D03*
X187325000Y-86360000D03*
D14*
X184785000Y-81280000D03*
X178435000Y-83820000D03*
%TD*%
D11*
%TO.C,U1*%
X227965000Y-45974000D03*
X227965000Y-43434000D03*
X227965000Y-53594000D03*
X227965000Y-56134000D03*
X227965000Y-58674000D03*
X227965000Y-61214000D03*
X227965000Y-63754000D03*
X227965000Y-66294000D03*
X227965000Y-68834000D03*
X227965000Y-71374000D03*
X243205000Y-71374000D03*
X243205000Y-66294000D03*
X243205000Y-63754000D03*
X243205000Y-68834000D03*
X243205000Y-61214000D03*
X243205000Y-58674000D03*
X243205000Y-56134000D03*
X243205000Y-53594000D03*
X227965000Y-48514000D03*
X227965000Y-51054000D03*
X243205000Y-43434000D03*
X243205000Y-45974000D03*
X243205000Y-48514000D03*
X243205000Y-51054000D03*
%TD*%
D10*
%TO.C,H3*%
X248920000Y-133985000D03*
%TD*%
%TO.C,OLED1*%
X155575000Y-70175000D03*
X186375000Y-41275000D03*
X155575000Y-41275000D03*
X186375000Y-70175000D03*
D11*
X167165000Y-40875000D03*
X169705000Y-40875000D03*
X172245000Y-40875000D03*
X174785000Y-40875000D03*
%TD*%
D12*
%TO.C,KEY7*%
X201295000Y-105410000D03*
D13*
X196215000Y-105410000D03*
X206375000Y-105410000D03*
D14*
X203835000Y-100330000D03*
X197485000Y-102870000D03*
%TD*%
D12*
%TO.C,KEY15*%
X239395000Y-124460000D03*
D13*
X244475000Y-124460000D03*
X234315000Y-124460000D03*
D14*
X241935000Y-119380000D03*
X235585000Y-121920000D03*
%TD*%
D13*
%TO.C,KEY3*%
X206375000Y-86360000D03*
D12*
X201295000Y-86360000D03*
D13*
X196215000Y-86360000D03*
D14*
X203835000Y-81280000D03*
X197485000Y-83820000D03*
%TD*%
D13*
%TO.C,KEY5*%
X168275000Y-105410000D03*
X158115000Y-105410000D03*
D12*
X163195000Y-105410000D03*
D14*
X165735000Y-100330000D03*
X159385000Y-102870000D03*
%TD*%
D15*
%TO.C,C13*%
X175868500Y-129413000D03*
X174143500Y-129413000D03*
%TD*%
D16*
%TO.C,C7*%
X207671500Y-111887000D03*
X209396500Y-111887000D03*
%TD*%
%TO.C,C6*%
X188621500Y-111887000D03*
X190346500Y-111887000D03*
%TD*%
D17*
%TO.C,D3*%
X208280000Y-78360000D03*
X208280000Y-81660000D03*
%TD*%
D16*
%TO.C,C8*%
X226721500Y-111887000D03*
X228446500Y-111887000D03*
%TD*%
D18*
%TO.C,LED14*%
X160395000Y-129425000D03*
X160395000Y-130925000D03*
X165995000Y-130925000D03*
X165995000Y-129425000D03*
%TD*%
D19*
%TO.C,R1*%
X243332000Y-75692000D03*
X241507000Y-75692000D03*
%TD*%
D15*
%TO.C,C11*%
X213968500Y-129413000D03*
X212243500Y-129413000D03*
%TD*%
D18*
%TO.C,LED4*%
X160395000Y-91325000D03*
X160395000Y-92825000D03*
X165995000Y-92825000D03*
X165995000Y-91325000D03*
%TD*%
%TO.C,LED3*%
X179445000Y-91325000D03*
X179445000Y-92825000D03*
X185045000Y-92825000D03*
X185045000Y-91325000D03*
%TD*%
D16*
%TO.C,C9*%
X245771500Y-111887000D03*
X247496500Y-111887000D03*
%TD*%
D18*
%TO.C,LED5*%
X165995000Y-111875000D03*
X165995000Y-110375000D03*
X160395000Y-110375000D03*
X160395000Y-111875000D03*
%TD*%
D16*
%TO.C,C5*%
X169571500Y-111887000D03*
X171296500Y-111887000D03*
%TD*%
D17*
%TO.C,D10*%
X189230000Y-116460000D03*
X189230000Y-119760000D03*
%TD*%
D15*
%TO.C,C3*%
X175868500Y-91313000D03*
X174143500Y-91313000D03*
%TD*%
D17*
%TO.C,D15*%
X246380000Y-116460000D03*
X246380000Y-119760000D03*
%TD*%
D18*
%TO.C,LED8*%
X223145000Y-111875000D03*
X223145000Y-110375000D03*
X217545000Y-110375000D03*
X217545000Y-111875000D03*
%TD*%
D17*
%TO.C,D2*%
X189230000Y-78360000D03*
X189230000Y-81660000D03*
%TD*%
%TO.C,D9*%
X170180000Y-116460000D03*
X170180000Y-119760000D03*
%TD*%
D18*
%TO.C,LED1*%
X217545000Y-91325000D03*
X217545000Y-92825000D03*
X223145000Y-92825000D03*
X223145000Y-91325000D03*
%TD*%
%TO.C,LED2*%
X198495000Y-91325000D03*
X198495000Y-92825000D03*
X204095000Y-92825000D03*
X204095000Y-91325000D03*
%TD*%
D17*
%TO.C,D1*%
X170180000Y-78360000D03*
X170180000Y-81660000D03*
%TD*%
%TO.C,D12*%
X227330000Y-116460000D03*
X227330000Y-119760000D03*
%TD*%
D15*
%TO.C,C2*%
X194918500Y-91313000D03*
X193193500Y-91313000D03*
%TD*%
D17*
%TO.C,D11*%
X208280000Y-116460000D03*
X208280000Y-119760000D03*
%TD*%
D18*
%TO.C,LED9*%
X242195000Y-111875000D03*
X242195000Y-110375000D03*
X236595000Y-110375000D03*
X236595000Y-111875000D03*
%TD*%
D17*
%TO.C,D4*%
X227330000Y-78360000D03*
X227330000Y-81660000D03*
%TD*%
%TO.C,D13*%
X246380000Y-78360000D03*
X246380000Y-81660000D03*
%TD*%
D18*
%TO.C,LED0*%
X236595000Y-91325000D03*
X236595000Y-92825000D03*
X242195000Y-92825000D03*
X242195000Y-91325000D03*
%TD*%
D20*
%TO.C,P2*%
X169672000Y-48768000D03*
%TD*%
D17*
%TO.C,D14*%
X246380000Y-97410000D03*
X246380000Y-100710000D03*
%TD*%
%TO.C,D8*%
X227330000Y-97410000D03*
X227330000Y-100710000D03*
%TD*%
%TO.C,D5*%
X170180000Y-97410000D03*
X170180000Y-100710000D03*
%TD*%
%TO.C,D6*%
X189230000Y-97410000D03*
X189230000Y-100710000D03*
%TD*%
D15*
%TO.C,C4*%
X156818500Y-91313000D03*
X155093500Y-91313000D03*
%TD*%
D17*
%TO.C,D7*%
X208280000Y-97410000D03*
X208280000Y-100710000D03*
%TD*%
D15*
%TO.C,C0*%
X233018500Y-91313000D03*
X231293500Y-91313000D03*
%TD*%
%TO.C,C12*%
X194918500Y-129413000D03*
X193193500Y-129413000D03*
%TD*%
D18*
%TO.C,LED11*%
X217545000Y-129425000D03*
X217545000Y-130925000D03*
X223145000Y-130925000D03*
X223145000Y-129425000D03*
%TD*%
D15*
%TO.C,C1*%
X213968500Y-91313000D03*
X212243500Y-91313000D03*
%TD*%
D20*
%TO.C,P1*%
X163576000Y-48768000D03*
%TD*%
D15*
%TO.C,C10*%
X233018500Y-129413000D03*
X231293500Y-129413000D03*
%TD*%
D18*
%TO.C,LED10*%
X236595000Y-129425000D03*
X236595000Y-130925000D03*
X242195000Y-130925000D03*
X242195000Y-129425000D03*
%TD*%
%TO.C,LED13*%
X179445000Y-129425000D03*
X179445000Y-130925000D03*
X185045000Y-130925000D03*
X185045000Y-129425000D03*
%TD*%
%TO.C,LED7*%
X204095000Y-111875000D03*
X204095000Y-110375000D03*
X198495000Y-110375000D03*
X198495000Y-111875000D03*
%TD*%
%TO.C,LED6*%
X185045000Y-111875000D03*
X185045000Y-110375000D03*
X179445000Y-110375000D03*
X179445000Y-111875000D03*
%TD*%
D15*
%TO.C,C14*%
X156818500Y-129413000D03*
X155093500Y-129413000D03*
%TD*%
D18*
%TO.C,LED12*%
X198495000Y-129425000D03*
X198495000Y-130925000D03*
X204095000Y-130925000D03*
X204095000Y-129425000D03*
%TD*%
M02*
