%TF.GenerationSoftware,KiCad,Pcbnew,(6.0.9)*%
%TF.CreationDate,2022-12-04T20:59:24+01:00*%
%TF.ProjectId,FireKey,46697265-4b65-4792-9e6b-696361645f70,0.1.1*%
%TF.SameCoordinates,Original*%
%TF.FileFunction,Legend,Top*%
%TF.FilePolarity,Positive*%
%FSLAX46Y46*%
G04 Gerber Fmt 4.6, Leading zero omitted, Abs format (unit mm)*
G04 Created by KiCad (PCBNEW (6.0.9)) date 2022-12-04 20:59:24*
%MOMM*%
%LPD*%
G01*
G04 APERTURE LIST*
%ADD10C,0.160000*%
%ADD11C,0.150000*%
%ADD12C,0.120000*%
%ADD13C,4.000000*%
%ADD14C,1.700000*%
%ADD15C,2.200000*%
%ADD16C,3.200000*%
%ADD17R,1.000000X1.700000*%
%ADD18C,1.778000*%
%ADD19C,2.700000*%
G04 APERTURE END LIST*
D10*
X129530714Y-108809285D02*
X129780714Y-109559285D01*
X130030714Y-108809285D01*
X130709285Y-109487857D02*
X130673571Y-109523571D01*
X130566428Y-109559285D01*
X130495000Y-109559285D01*
X130387857Y-109523571D01*
X130316428Y-109452142D01*
X130280714Y-109380714D01*
X130245000Y-109237857D01*
X130245000Y-109130714D01*
X130280714Y-108987857D01*
X130316428Y-108916428D01*
X130387857Y-108845000D01*
X130495000Y-108809285D01*
X130566428Y-108809285D01*
X130673571Y-108845000D01*
X130709285Y-108880714D01*
X131459285Y-109487857D02*
X131423571Y-109523571D01*
X131316428Y-109559285D01*
X131245000Y-109559285D01*
X131137857Y-109523571D01*
X131066428Y-109452142D01*
X131030714Y-109380714D01*
X130995000Y-109237857D01*
X130995000Y-109130714D01*
X131030714Y-108987857D01*
X131066428Y-108916428D01*
X131137857Y-108845000D01*
X131245000Y-108809285D01*
X131316428Y-108809285D01*
X131423571Y-108845000D01*
X131459285Y-108880714D01*
X132745000Y-108845000D02*
X132673571Y-108809285D01*
X132566428Y-108809285D01*
X132459285Y-108845000D01*
X132387857Y-108916428D01*
X132352142Y-108987857D01*
X132316428Y-109130714D01*
X132316428Y-109237857D01*
X132352142Y-109380714D01*
X132387857Y-109452142D01*
X132459285Y-109523571D01*
X132566428Y-109559285D01*
X132637857Y-109559285D01*
X132745000Y-109523571D01*
X132780714Y-109487857D01*
X132780714Y-109237857D01*
X132637857Y-109237857D01*
X133102142Y-109559285D02*
X133102142Y-108809285D01*
X133530714Y-109559285D01*
X133530714Y-108809285D01*
X133887857Y-109559285D02*
X133887857Y-108809285D01*
X134066428Y-108809285D01*
X134173571Y-108845000D01*
X134245000Y-108916428D01*
X134280714Y-108987857D01*
X134316428Y-109130714D01*
X134316428Y-109237857D01*
X134280714Y-109380714D01*
X134245000Y-109452142D01*
X134173571Y-109523571D01*
X134066428Y-109559285D01*
X133887857Y-109559285D01*
X135173571Y-109523571D02*
X135280714Y-109559285D01*
X135459285Y-109559285D01*
X135530714Y-109523571D01*
X135566428Y-109487857D01*
X135602142Y-109416428D01*
X135602142Y-109345000D01*
X135566428Y-109273571D01*
X135530714Y-109237857D01*
X135459285Y-109202142D01*
X135316428Y-109166428D01*
X135245000Y-109130714D01*
X135209285Y-109095000D01*
X135173571Y-109023571D01*
X135173571Y-108952142D01*
X135209285Y-108880714D01*
X135245000Y-108845000D01*
X135316428Y-108809285D01*
X135495000Y-108809285D01*
X135602142Y-108845000D01*
X136352142Y-109487857D02*
X136316428Y-109523571D01*
X136209285Y-109559285D01*
X136137857Y-109559285D01*
X136030714Y-109523571D01*
X135959285Y-109452142D01*
X135923571Y-109380714D01*
X135887857Y-109237857D01*
X135887857Y-109130714D01*
X135923571Y-108987857D01*
X135959285Y-108916428D01*
X136030714Y-108845000D01*
X136137857Y-108809285D01*
X136209285Y-108809285D01*
X136316428Y-108845000D01*
X136352142Y-108880714D01*
X137030714Y-109559285D02*
X136673571Y-109559285D01*
X136673571Y-108809285D01*
X137816428Y-109523571D02*
X137923571Y-109559285D01*
X138102142Y-109559285D01*
X138173571Y-109523571D01*
X138209285Y-109487857D01*
X138245000Y-109416428D01*
X138245000Y-109345000D01*
X138209285Y-109273571D01*
X138173571Y-109237857D01*
X138102142Y-109202142D01*
X137959285Y-109166428D01*
X137887857Y-109130714D01*
X137852142Y-109095000D01*
X137816428Y-109023571D01*
X137816428Y-108952142D01*
X137852142Y-108880714D01*
X137887857Y-108845000D01*
X137959285Y-108809285D01*
X138137857Y-108809285D01*
X138245000Y-108845000D01*
X138566428Y-109559285D02*
X138566428Y-108809285D01*
X138745000Y-108809285D01*
X138852142Y-108845000D01*
X138923571Y-108916428D01*
X138959285Y-108987857D01*
X138995000Y-109130714D01*
X138995000Y-109237857D01*
X138959285Y-109380714D01*
X138923571Y-109452142D01*
X138852142Y-109523571D01*
X138745000Y-109559285D01*
X138566428Y-109559285D01*
X139280714Y-109345000D02*
X139637857Y-109345000D01*
X139209285Y-109559285D02*
X139459285Y-108809285D01*
X139709285Y-109559285D01*
D11*
%TO.C,KEY15*%
X66484761Y-129738380D02*
X66484761Y-128738380D01*
X67056190Y-129738380D02*
X66627619Y-129166952D01*
X67056190Y-128738380D02*
X66484761Y-129309809D01*
X67484761Y-129214571D02*
X67818095Y-129214571D01*
X67960952Y-129738380D02*
X67484761Y-129738380D01*
X67484761Y-128738380D01*
X67960952Y-128738380D01*
X68580000Y-129262190D02*
X68580000Y-129738380D01*
X68246666Y-128738380D02*
X68580000Y-129262190D01*
X68913333Y-128738380D01*
X69770476Y-129738380D02*
X69199047Y-129738380D01*
X69484761Y-129738380D02*
X69484761Y-128738380D01*
X69389523Y-128881238D01*
X69294285Y-128976476D01*
X69199047Y-129024095D01*
X70675238Y-128738380D02*
X70199047Y-128738380D01*
X70151428Y-129214571D01*
X70199047Y-129166952D01*
X70294285Y-129119333D01*
X70532380Y-129119333D01*
X70627619Y-129166952D01*
X70675238Y-129214571D01*
X70722857Y-129309809D01*
X70722857Y-129547904D01*
X70675238Y-129643142D01*
X70627619Y-129690761D01*
X70532380Y-129738380D01*
X70294285Y-129738380D01*
X70199047Y-129690761D01*
X70151428Y-129643142D01*
%TO.C,KEY5*%
X86010952Y-72588380D02*
X86010952Y-71588380D01*
X86582380Y-72588380D02*
X86153809Y-72016952D01*
X86582380Y-71588380D02*
X86010952Y-72159809D01*
X87010952Y-72064571D02*
X87344285Y-72064571D01*
X87487142Y-72588380D02*
X87010952Y-72588380D01*
X87010952Y-71588380D01*
X87487142Y-71588380D01*
X88106190Y-72112190D02*
X88106190Y-72588380D01*
X87772857Y-71588380D02*
X88106190Y-72112190D01*
X88439523Y-71588380D01*
X89249047Y-71588380D02*
X88772857Y-71588380D01*
X88725238Y-72064571D01*
X88772857Y-72016952D01*
X88868095Y-71969333D01*
X89106190Y-71969333D01*
X89201428Y-72016952D01*
X89249047Y-72064571D01*
X89296666Y-72159809D01*
X89296666Y-72397904D01*
X89249047Y-72493142D01*
X89201428Y-72540761D01*
X89106190Y-72588380D01*
X88868095Y-72588380D01*
X88772857Y-72540761D01*
X88725238Y-72493142D01*
%TO.C,KEY1*%
X105060952Y-53538380D02*
X105060952Y-52538380D01*
X105632380Y-53538380D02*
X105203809Y-52966952D01*
X105632380Y-52538380D02*
X105060952Y-53109809D01*
X106060952Y-53014571D02*
X106394285Y-53014571D01*
X106537142Y-53538380D02*
X106060952Y-53538380D01*
X106060952Y-52538380D01*
X106537142Y-52538380D01*
X107156190Y-53062190D02*
X107156190Y-53538380D01*
X106822857Y-52538380D02*
X107156190Y-53062190D01*
X107489523Y-52538380D01*
X108346666Y-53538380D02*
X107775238Y-53538380D01*
X108060952Y-53538380D02*
X108060952Y-52538380D01*
X107965714Y-52681238D01*
X107870476Y-52776476D01*
X107775238Y-52824095D01*
%TO.C,KEY4*%
X66960952Y-72588380D02*
X66960952Y-71588380D01*
X67532380Y-72588380D02*
X67103809Y-72016952D01*
X67532380Y-71588380D02*
X66960952Y-72159809D01*
X67960952Y-72064571D02*
X68294285Y-72064571D01*
X68437142Y-72588380D02*
X67960952Y-72588380D01*
X67960952Y-71588380D01*
X68437142Y-71588380D01*
X69056190Y-72112190D02*
X69056190Y-72588380D01*
X68722857Y-71588380D02*
X69056190Y-72112190D01*
X69389523Y-71588380D01*
X70151428Y-71921714D02*
X70151428Y-72588380D01*
X69913333Y-71540761D02*
X69675238Y-72255047D01*
X70294285Y-72255047D01*
%TO.C,KEY7*%
X105060952Y-91638380D02*
X105060952Y-90638380D01*
X105632380Y-91638380D02*
X105203809Y-91066952D01*
X105632380Y-90638380D02*
X105060952Y-91209809D01*
X106060952Y-91114571D02*
X106394285Y-91114571D01*
X106537142Y-91638380D02*
X106060952Y-91638380D01*
X106060952Y-90638380D01*
X106537142Y-90638380D01*
X107156190Y-91162190D02*
X107156190Y-91638380D01*
X106822857Y-90638380D02*
X107156190Y-91162190D01*
X107489523Y-90638380D01*
X107727619Y-90638380D02*
X108394285Y-90638380D01*
X107965714Y-91638380D01*
%TO.C,SW1*%
X150312380Y-61507619D02*
X149836190Y-61840952D01*
X150312380Y-62079047D02*
X149312380Y-62079047D01*
X149312380Y-61698095D01*
X149360000Y-61602857D01*
X149407619Y-61555238D01*
X149502857Y-61507619D01*
X149645714Y-61507619D01*
X149740952Y-61555238D01*
X149788571Y-61602857D01*
X149836190Y-61698095D01*
X149836190Y-62079047D01*
X150264761Y-61126666D02*
X150312380Y-60983809D01*
X150312380Y-60745714D01*
X150264761Y-60650476D01*
X150217142Y-60602857D01*
X150121904Y-60555238D01*
X150026666Y-60555238D01*
X149931428Y-60602857D01*
X149883809Y-60650476D01*
X149836190Y-60745714D01*
X149788571Y-60936190D01*
X149740952Y-61031428D01*
X149693333Y-61079047D01*
X149598095Y-61126666D01*
X149502857Y-61126666D01*
X149407619Y-61079047D01*
X149360000Y-61031428D01*
X149312380Y-60936190D01*
X149312380Y-60698095D01*
X149360000Y-60555238D01*
X149312380Y-60269523D02*
X149312380Y-59698095D01*
X150312380Y-59983809D02*
X149312380Y-59983809D01*
%TO.C,KEY9*%
X66960952Y-91638380D02*
X66960952Y-90638380D01*
X67532380Y-91638380D02*
X67103809Y-91066952D01*
X67532380Y-90638380D02*
X66960952Y-91209809D01*
X67960952Y-91114571D02*
X68294285Y-91114571D01*
X68437142Y-91638380D02*
X67960952Y-91638380D01*
X67960952Y-90638380D01*
X68437142Y-90638380D01*
X69056190Y-91162190D02*
X69056190Y-91638380D01*
X68722857Y-90638380D02*
X69056190Y-91162190D01*
X69389523Y-90638380D01*
X69770476Y-91638380D02*
X69960952Y-91638380D01*
X70056190Y-91590761D01*
X70103809Y-91543142D01*
X70199047Y-91400285D01*
X70246666Y-91209809D01*
X70246666Y-90828857D01*
X70199047Y-90733619D01*
X70151428Y-90686000D01*
X70056190Y-90638380D01*
X69865714Y-90638380D01*
X69770476Y-90686000D01*
X69722857Y-90733619D01*
X69675238Y-90828857D01*
X69675238Y-91066952D01*
X69722857Y-91162190D01*
X69770476Y-91209809D01*
X69865714Y-91257428D01*
X70056190Y-91257428D01*
X70151428Y-91209809D01*
X70199047Y-91162190D01*
X70246666Y-91066952D01*
%TO.C,KEY13*%
X104584761Y-129738380D02*
X104584761Y-128738380D01*
X105156190Y-129738380D02*
X104727619Y-129166952D01*
X105156190Y-128738380D02*
X104584761Y-129309809D01*
X105584761Y-129214571D02*
X105918095Y-129214571D01*
X106060952Y-129738380D02*
X105584761Y-129738380D01*
X105584761Y-128738380D01*
X106060952Y-128738380D01*
X106680000Y-129262190D02*
X106680000Y-129738380D01*
X106346666Y-128738380D02*
X106680000Y-129262190D01*
X107013333Y-128738380D01*
X107870476Y-129738380D02*
X107299047Y-129738380D01*
X107584761Y-129738380D02*
X107584761Y-128738380D01*
X107489523Y-128881238D01*
X107394285Y-128976476D01*
X107299047Y-129024095D01*
X108203809Y-128738380D02*
X108822857Y-128738380D01*
X108489523Y-129119333D01*
X108632380Y-129119333D01*
X108727619Y-129166952D01*
X108775238Y-129214571D01*
X108822857Y-129309809D01*
X108822857Y-129547904D01*
X108775238Y-129643142D01*
X108727619Y-129690761D01*
X108632380Y-129738380D01*
X108346666Y-129738380D01*
X108251428Y-129690761D01*
X108203809Y-129643142D01*
%TO.C,KEY10*%
X66484761Y-110688380D02*
X66484761Y-109688380D01*
X67056190Y-110688380D02*
X66627619Y-110116952D01*
X67056190Y-109688380D02*
X66484761Y-110259809D01*
X67484761Y-110164571D02*
X67818095Y-110164571D01*
X67960952Y-110688380D02*
X67484761Y-110688380D01*
X67484761Y-109688380D01*
X67960952Y-109688380D01*
X68580000Y-110212190D02*
X68580000Y-110688380D01*
X68246666Y-109688380D02*
X68580000Y-110212190D01*
X68913333Y-109688380D01*
X69770476Y-110688380D02*
X69199047Y-110688380D01*
X69484761Y-110688380D02*
X69484761Y-109688380D01*
X69389523Y-109831238D01*
X69294285Y-109926476D01*
X69199047Y-109974095D01*
X70389523Y-109688380D02*
X70484761Y-109688380D01*
X70580000Y-109736000D01*
X70627619Y-109783619D01*
X70675238Y-109878857D01*
X70722857Y-110069333D01*
X70722857Y-110307428D01*
X70675238Y-110497904D01*
X70627619Y-110593142D01*
X70580000Y-110640761D01*
X70484761Y-110688380D01*
X70389523Y-110688380D01*
X70294285Y-110640761D01*
X70246666Y-110593142D01*
X70199047Y-110497904D01*
X70151428Y-110307428D01*
X70151428Y-110069333D01*
X70199047Y-109878857D01*
X70246666Y-109783619D01*
X70294285Y-109736000D01*
X70389523Y-109688380D01*
%TO.C,KEY11*%
X85534761Y-110688380D02*
X85534761Y-109688380D01*
X86106190Y-110688380D02*
X85677619Y-110116952D01*
X86106190Y-109688380D02*
X85534761Y-110259809D01*
X86534761Y-110164571D02*
X86868095Y-110164571D01*
X87010952Y-110688380D02*
X86534761Y-110688380D01*
X86534761Y-109688380D01*
X87010952Y-109688380D01*
X87630000Y-110212190D02*
X87630000Y-110688380D01*
X87296666Y-109688380D02*
X87630000Y-110212190D01*
X87963333Y-109688380D01*
X88820476Y-110688380D02*
X88249047Y-110688380D01*
X88534761Y-110688380D02*
X88534761Y-109688380D01*
X88439523Y-109831238D01*
X88344285Y-109926476D01*
X88249047Y-109974095D01*
X89772857Y-110688380D02*
X89201428Y-110688380D01*
X89487142Y-110688380D02*
X89487142Y-109688380D01*
X89391904Y-109831238D01*
X89296666Y-109926476D01*
X89201428Y-109974095D01*
%TO.C,KEY2*%
X86010952Y-53538380D02*
X86010952Y-52538380D01*
X86582380Y-53538380D02*
X86153809Y-52966952D01*
X86582380Y-52538380D02*
X86010952Y-53109809D01*
X87010952Y-53014571D02*
X87344285Y-53014571D01*
X87487142Y-53538380D02*
X87010952Y-53538380D01*
X87010952Y-52538380D01*
X87487142Y-52538380D01*
X88106190Y-53062190D02*
X88106190Y-53538380D01*
X87772857Y-52538380D02*
X88106190Y-53062190D01*
X88439523Y-52538380D01*
X88725238Y-52633619D02*
X88772857Y-52586000D01*
X88868095Y-52538380D01*
X89106190Y-52538380D01*
X89201428Y-52586000D01*
X89249047Y-52633619D01*
X89296666Y-52728857D01*
X89296666Y-52824095D01*
X89249047Y-52966952D01*
X88677619Y-53538380D01*
X89296666Y-53538380D01*
%TO.C,KEY12*%
X104584761Y-110688380D02*
X104584761Y-109688380D01*
X105156190Y-110688380D02*
X104727619Y-110116952D01*
X105156190Y-109688380D02*
X104584761Y-110259809D01*
X105584761Y-110164571D02*
X105918095Y-110164571D01*
X106060952Y-110688380D02*
X105584761Y-110688380D01*
X105584761Y-109688380D01*
X106060952Y-109688380D01*
X106680000Y-110212190D02*
X106680000Y-110688380D01*
X106346666Y-109688380D02*
X106680000Y-110212190D01*
X107013333Y-109688380D01*
X107870476Y-110688380D02*
X107299047Y-110688380D01*
X107584761Y-110688380D02*
X107584761Y-109688380D01*
X107489523Y-109831238D01*
X107394285Y-109926476D01*
X107299047Y-109974095D01*
X108251428Y-109783619D02*
X108299047Y-109736000D01*
X108394285Y-109688380D01*
X108632380Y-109688380D01*
X108727619Y-109736000D01*
X108775238Y-109783619D01*
X108822857Y-109878857D01*
X108822857Y-109974095D01*
X108775238Y-110116952D01*
X108203809Y-110688380D01*
X108822857Y-110688380D01*
%TO.C,U1*%
X136398095Y-84542380D02*
X136398095Y-85351904D01*
X136445714Y-85447142D01*
X136493333Y-85494761D01*
X136588571Y-85542380D01*
X136779047Y-85542380D01*
X136874285Y-85494761D01*
X136921904Y-85447142D01*
X136969523Y-85351904D01*
X136969523Y-84542380D01*
X137969523Y-85542380D02*
X137398095Y-85542380D01*
X137683809Y-85542380D02*
X137683809Y-84542380D01*
X137588571Y-84685238D01*
X137493333Y-84780476D01*
X137398095Y-84828095D01*
X137326666Y-80739047D02*
X137326666Y-80262857D01*
X137612380Y-80834285D02*
X136612380Y-80500952D01*
X137612380Y-80167619D01*
X137612380Y-79834285D02*
X136945714Y-79834285D01*
X137136190Y-79834285D02*
X137040952Y-79786666D01*
X136993333Y-79739047D01*
X136945714Y-79643809D01*
X136945714Y-79548571D01*
X137612380Y-78786666D02*
X136612380Y-78786666D01*
X137564761Y-78786666D02*
X137612380Y-78881904D01*
X137612380Y-79072380D01*
X137564761Y-79167619D01*
X137517142Y-79215238D01*
X137421904Y-79262857D01*
X137136190Y-79262857D01*
X137040952Y-79215238D01*
X136993333Y-79167619D01*
X136945714Y-79072380D01*
X136945714Y-78881904D01*
X136993333Y-78786666D01*
X136945714Y-77881904D02*
X137612380Y-77881904D01*
X136945714Y-78310476D02*
X137469523Y-78310476D01*
X137564761Y-78262857D01*
X137612380Y-78167619D01*
X137612380Y-78024761D01*
X137564761Y-77929523D01*
X137517142Y-77881904D01*
X137612380Y-77405714D02*
X136945714Y-77405714D01*
X136612380Y-77405714D02*
X136660000Y-77453333D01*
X136707619Y-77405714D01*
X136660000Y-77358095D01*
X136612380Y-77405714D01*
X136707619Y-77405714D01*
X136945714Y-76929523D02*
X137612380Y-76929523D01*
X137040952Y-76929523D02*
X136993333Y-76881904D01*
X136945714Y-76786666D01*
X136945714Y-76643809D01*
X136993333Y-76548571D01*
X137088571Y-76500952D01*
X137612380Y-76500952D01*
X137612380Y-75881904D02*
X137564761Y-75977142D01*
X137517142Y-76024761D01*
X137421904Y-76072380D01*
X137136190Y-76072380D01*
X137040952Y-76024761D01*
X136993333Y-75977142D01*
X136945714Y-75881904D01*
X136945714Y-75739047D01*
X136993333Y-75643809D01*
X137040952Y-75596190D01*
X137136190Y-75548571D01*
X137421904Y-75548571D01*
X137517142Y-75596190D01*
X137564761Y-75643809D01*
X137612380Y-75739047D01*
X137612380Y-75881904D01*
X137612380Y-74358095D02*
X136612380Y-74358095D01*
X136612380Y-73977142D01*
X136660000Y-73881904D01*
X136707619Y-73834285D01*
X136802857Y-73786666D01*
X136945714Y-73786666D01*
X137040952Y-73834285D01*
X137088571Y-73881904D01*
X137136190Y-73977142D01*
X137136190Y-74358095D01*
X137612380Y-73358095D02*
X136945714Y-73358095D01*
X137136190Y-73358095D02*
X137040952Y-73310476D01*
X136993333Y-73262857D01*
X136945714Y-73167619D01*
X136945714Y-73072380D01*
X137612380Y-72596190D02*
X137564761Y-72691428D01*
X137517142Y-72739047D01*
X137421904Y-72786666D01*
X137136190Y-72786666D01*
X137040952Y-72739047D01*
X136993333Y-72691428D01*
X136945714Y-72596190D01*
X136945714Y-72453333D01*
X136993333Y-72358095D01*
X137040952Y-72310476D01*
X137136190Y-72262857D01*
X137421904Y-72262857D01*
X137517142Y-72310476D01*
X137564761Y-72358095D01*
X137612380Y-72453333D01*
X137612380Y-72596190D01*
X137612380Y-71072380D02*
X136612380Y-71072380D01*
X137326666Y-70739047D01*
X136612380Y-70405714D01*
X137612380Y-70405714D01*
X137612380Y-69929523D02*
X136945714Y-69929523D01*
X136612380Y-69929523D02*
X136660000Y-69977142D01*
X136707619Y-69929523D01*
X136660000Y-69881904D01*
X136612380Y-69929523D01*
X136707619Y-69929523D01*
X137564761Y-69024761D02*
X137612380Y-69120000D01*
X137612380Y-69310476D01*
X137564761Y-69405714D01*
X137517142Y-69453333D01*
X137421904Y-69500952D01*
X137136190Y-69500952D01*
X137040952Y-69453333D01*
X136993333Y-69405714D01*
X136945714Y-69310476D01*
X136945714Y-69120000D01*
X136993333Y-69024761D01*
X137612380Y-68596190D02*
X136945714Y-68596190D01*
X137136190Y-68596190D02*
X137040952Y-68548571D01*
X136993333Y-68500952D01*
X136945714Y-68405714D01*
X136945714Y-68310476D01*
X137612380Y-67834285D02*
X137564761Y-67929523D01*
X137517142Y-67977142D01*
X137421904Y-68024761D01*
X137136190Y-68024761D01*
X137040952Y-67977142D01*
X136993333Y-67929523D01*
X136945714Y-67834285D01*
X136945714Y-67691428D01*
X136993333Y-67596190D01*
X137040952Y-67548571D01*
X137136190Y-67500952D01*
X137421904Y-67500952D01*
X137517142Y-67548571D01*
X137564761Y-67596190D01*
X137612380Y-67691428D01*
X137612380Y-67834285D01*
X136612380Y-66310476D02*
X137421904Y-66310476D01*
X137517142Y-66262857D01*
X137564761Y-66215238D01*
X137612380Y-66120000D01*
X137612380Y-65929523D01*
X137564761Y-65834285D01*
X137517142Y-65786666D01*
X137421904Y-65739047D01*
X136612380Y-65739047D01*
X137564761Y-65310476D02*
X137612380Y-65167619D01*
X137612380Y-64929523D01*
X137564761Y-64834285D01*
X137517142Y-64786666D01*
X137421904Y-64739047D01*
X137326666Y-64739047D01*
X137231428Y-64786666D01*
X137183809Y-64834285D01*
X137136190Y-64929523D01*
X137088571Y-65120000D01*
X137040952Y-65215238D01*
X136993333Y-65262857D01*
X136898095Y-65310476D01*
X136802857Y-65310476D01*
X136707619Y-65262857D01*
X136660000Y-65215238D01*
X136612380Y-65120000D01*
X136612380Y-64881904D01*
X136660000Y-64739047D01*
X137088571Y-63977142D02*
X137136190Y-63834285D01*
X137183809Y-63786666D01*
X137279047Y-63739047D01*
X137421904Y-63739047D01*
X137517142Y-63786666D01*
X137564761Y-63834285D01*
X137612380Y-63929523D01*
X137612380Y-64310476D01*
X136612380Y-64310476D01*
X136612380Y-63977142D01*
X136660000Y-63881904D01*
X136707619Y-63834285D01*
X136802857Y-63786666D01*
X136898095Y-63786666D01*
X136993333Y-63834285D01*
X137040952Y-63881904D01*
X137088571Y-63977142D01*
X137088571Y-64310476D01*
X137231428Y-63310476D02*
X137231428Y-62548571D01*
X137517142Y-61500952D02*
X137564761Y-61548571D01*
X137612380Y-61691428D01*
X137612380Y-61786666D01*
X137564761Y-61929523D01*
X137469523Y-62024761D01*
X137374285Y-62072380D01*
X137183809Y-62120000D01*
X137040952Y-62120000D01*
X136850476Y-62072380D01*
X136755238Y-62024761D01*
X136660000Y-61929523D01*
X136612380Y-61786666D01*
X136612380Y-61691428D01*
X136660000Y-61548571D01*
X136707619Y-61500952D01*
%TO.C,KEY3*%
X66960952Y-53538380D02*
X66960952Y-52538380D01*
X67532380Y-53538380D02*
X67103809Y-52966952D01*
X67532380Y-52538380D02*
X66960952Y-53109809D01*
X67960952Y-53014571D02*
X68294285Y-53014571D01*
X68437142Y-53538380D02*
X67960952Y-53538380D01*
X67960952Y-52538380D01*
X68437142Y-52538380D01*
X69056190Y-53062190D02*
X69056190Y-53538380D01*
X68722857Y-52538380D02*
X69056190Y-53062190D01*
X69389523Y-52538380D01*
X69627619Y-52538380D02*
X70246666Y-52538380D01*
X69913333Y-52919333D01*
X70056190Y-52919333D01*
X70151428Y-52966952D01*
X70199047Y-53014571D01*
X70246666Y-53109809D01*
X70246666Y-53347904D01*
X70199047Y-53443142D01*
X70151428Y-53490761D01*
X70056190Y-53538380D01*
X69770476Y-53538380D01*
X69675238Y-53490761D01*
X69627619Y-53443142D01*
%TO.C,KEY14*%
X85534761Y-129738380D02*
X85534761Y-128738380D01*
X86106190Y-129738380D02*
X85677619Y-129166952D01*
X86106190Y-128738380D02*
X85534761Y-129309809D01*
X86534761Y-129214571D02*
X86868095Y-129214571D01*
X87010952Y-129738380D02*
X86534761Y-129738380D01*
X86534761Y-128738380D01*
X87010952Y-128738380D01*
X87630000Y-129262190D02*
X87630000Y-129738380D01*
X87296666Y-128738380D02*
X87630000Y-129262190D01*
X87963333Y-128738380D01*
X88820476Y-129738380D02*
X88249047Y-129738380D01*
X88534761Y-129738380D02*
X88534761Y-128738380D01*
X88439523Y-128881238D01*
X88344285Y-128976476D01*
X88249047Y-129024095D01*
X89677619Y-129071714D02*
X89677619Y-129738380D01*
X89439523Y-128690761D02*
X89201428Y-129405047D01*
X89820476Y-129405047D01*
%TO.C,OLED1*%
X132691428Y-121272380D02*
X132881904Y-121272380D01*
X132977142Y-121320000D01*
X133072380Y-121415238D01*
X133120000Y-121605714D01*
X133120000Y-121939047D01*
X133072380Y-122129523D01*
X132977142Y-122224761D01*
X132881904Y-122272380D01*
X132691428Y-122272380D01*
X132596190Y-122224761D01*
X132500952Y-122129523D01*
X132453333Y-121939047D01*
X132453333Y-121605714D01*
X132500952Y-121415238D01*
X132596190Y-121320000D01*
X132691428Y-121272380D01*
X134024761Y-122272380D02*
X133548571Y-122272380D01*
X133548571Y-121272380D01*
X134358095Y-121748571D02*
X134691428Y-121748571D01*
X134834285Y-122272380D02*
X134358095Y-122272380D01*
X134358095Y-121272380D01*
X134834285Y-121272380D01*
X135262857Y-122272380D02*
X135262857Y-121272380D01*
X135500952Y-121272380D01*
X135643809Y-121320000D01*
X135739047Y-121415238D01*
X135786666Y-121510476D01*
X135834285Y-121700952D01*
X135834285Y-121843809D01*
X135786666Y-122034285D01*
X135739047Y-122129523D01*
X135643809Y-122224761D01*
X135500952Y-122272380D01*
X135262857Y-122272380D01*
X136786666Y-122272380D02*
X136215238Y-122272380D01*
X136500952Y-122272380D02*
X136500952Y-121272380D01*
X136405714Y-121415238D01*
X136310476Y-121510476D01*
X136215238Y-121558095D01*
%TO.C,KEY8*%
X86010952Y-91638380D02*
X86010952Y-90638380D01*
X86582380Y-91638380D02*
X86153809Y-91066952D01*
X86582380Y-90638380D02*
X86010952Y-91209809D01*
X87010952Y-91114571D02*
X87344285Y-91114571D01*
X87487142Y-91638380D02*
X87010952Y-91638380D01*
X87010952Y-90638380D01*
X87487142Y-90638380D01*
X88106190Y-91162190D02*
X88106190Y-91638380D01*
X87772857Y-90638380D02*
X88106190Y-91162190D01*
X88439523Y-90638380D01*
X88915714Y-91066952D02*
X88820476Y-91019333D01*
X88772857Y-90971714D01*
X88725238Y-90876476D01*
X88725238Y-90828857D01*
X88772857Y-90733619D01*
X88820476Y-90686000D01*
X88915714Y-90638380D01*
X89106190Y-90638380D01*
X89201428Y-90686000D01*
X89249047Y-90733619D01*
X89296666Y-90828857D01*
X89296666Y-90876476D01*
X89249047Y-90971714D01*
X89201428Y-91019333D01*
X89106190Y-91066952D01*
X88915714Y-91066952D01*
X88820476Y-91114571D01*
X88772857Y-91162190D01*
X88725238Y-91257428D01*
X88725238Y-91447904D01*
X88772857Y-91543142D01*
X88820476Y-91590761D01*
X88915714Y-91638380D01*
X89106190Y-91638380D01*
X89201428Y-91590761D01*
X89249047Y-91543142D01*
X89296666Y-91447904D01*
X89296666Y-91257428D01*
X89249047Y-91162190D01*
X89201428Y-91114571D01*
X89106190Y-91066952D01*
%TO.C,KEY6*%
X105060952Y-72588380D02*
X105060952Y-71588380D01*
X105632380Y-72588380D02*
X105203809Y-72016952D01*
X105632380Y-71588380D02*
X105060952Y-72159809D01*
X106060952Y-72064571D02*
X106394285Y-72064571D01*
X106537142Y-72588380D02*
X106060952Y-72588380D01*
X106060952Y-71588380D01*
X106537142Y-71588380D01*
X107156190Y-72112190D02*
X107156190Y-72588380D01*
X106822857Y-71588380D02*
X107156190Y-72112190D01*
X107489523Y-71588380D01*
X108251428Y-71588380D02*
X108060952Y-71588380D01*
X107965714Y-71636000D01*
X107918095Y-71683619D01*
X107822857Y-71826476D01*
X107775238Y-72016952D01*
X107775238Y-72397904D01*
X107822857Y-72493142D01*
X107870476Y-72540761D01*
X107965714Y-72588380D01*
X108156190Y-72588380D01*
X108251428Y-72540761D01*
X108299047Y-72493142D01*
X108346666Y-72397904D01*
X108346666Y-72159809D01*
X108299047Y-72064571D01*
X108251428Y-72016952D01*
X108156190Y-71969333D01*
X107965714Y-71969333D01*
X107870476Y-72016952D01*
X107822857Y-72064571D01*
X107775238Y-72159809D01*
%TO.C,G1*%
G36*
X130140542Y-91031340D02*
G01*
X130155518Y-90950766D01*
X130168893Y-90880196D01*
X130180887Y-90818561D01*
X130191720Y-90764791D01*
X130201611Y-90717818D01*
X130210782Y-90676570D01*
X130219451Y-90639980D01*
X130227838Y-90606977D01*
X130236164Y-90576491D01*
X130244649Y-90547454D01*
X130253512Y-90518796D01*
X130262763Y-90490089D01*
X130323771Y-90322650D01*
X130393702Y-90167047D01*
X130473516Y-90021716D01*
X130564173Y-89885094D01*
X130666634Y-89755615D01*
X130781859Y-89631716D01*
X130801885Y-89611973D01*
X130936289Y-89491842D01*
X131080520Y-89383812D01*
X131234572Y-89287882D01*
X131398443Y-89204056D01*
X131572129Y-89132334D01*
X131755626Y-89072719D01*
X131948930Y-89025212D01*
X132075323Y-89001571D01*
X132136238Y-88991796D01*
X132190560Y-88983928D01*
X132241160Y-88977771D01*
X132290910Y-88973130D01*
X132342680Y-88969811D01*
X132399341Y-88967617D01*
X132463765Y-88966353D01*
X132538822Y-88965825D01*
X132601405Y-88965790D01*
X132677353Y-88966014D01*
X132740257Y-88966554D01*
X132792659Y-88967526D01*
X132837101Y-88969044D01*
X132876126Y-88971221D01*
X132912275Y-88974173D01*
X132948090Y-88978014D01*
X132986115Y-88982858D01*
X132988775Y-88983217D01*
X133170437Y-89013432D01*
X133340137Y-89053316D01*
X133498261Y-89103027D01*
X133645198Y-89162726D01*
X133781335Y-89232573D01*
X133907061Y-89312727D01*
X134022764Y-89403347D01*
X134034036Y-89413201D01*
X134133592Y-89511406D01*
X134222541Y-89620410D01*
X134300265Y-89739049D01*
X134366149Y-89866159D01*
X134419577Y-90000576D01*
X134459932Y-90141135D01*
X134483081Y-90261780D01*
X134490617Y-90313784D01*
X134496176Y-90357552D01*
X134500037Y-90397279D01*
X134502484Y-90437160D01*
X134503796Y-90481390D01*
X134504255Y-90534163D01*
X134504224Y-90576947D01*
X134502861Y-90669359D01*
X134499045Y-90752102D01*
X134492336Y-90830961D01*
X134482292Y-90911723D01*
X134474928Y-90960681D01*
X134468447Y-91000682D01*
X134460039Y-91051071D01*
X134449977Y-91110327D01*
X134438530Y-91176930D01*
X134425970Y-91249358D01*
X134412567Y-91326091D01*
X134398592Y-91405608D01*
X134384317Y-91486388D01*
X134370012Y-91566911D01*
X134355947Y-91645656D01*
X134342394Y-91721102D01*
X134329624Y-91791729D01*
X134317906Y-91856015D01*
X134307513Y-91912440D01*
X134298715Y-91959483D01*
X134291783Y-91995624D01*
X134286987Y-92019341D01*
X134284682Y-92028917D01*
X134266007Y-92063869D01*
X134239748Y-92095214D01*
X134212371Y-92116120D01*
X134208599Y-92117823D01*
X134203329Y-92119384D01*
X134195875Y-92120812D01*
X134185554Y-92122114D01*
X134171682Y-92123299D01*
X134153574Y-92124377D01*
X134130547Y-92125355D01*
X134101915Y-92126241D01*
X134066996Y-92127045D01*
X134025104Y-92127775D01*
X133975556Y-92128440D01*
X133917668Y-92129047D01*
X133850755Y-92129606D01*
X133774134Y-92130125D01*
X133687119Y-92130612D01*
X133589028Y-92131077D01*
X133479176Y-92131527D01*
X133356878Y-92131971D01*
X133221451Y-92132417D01*
X133072210Y-92132875D01*
X132908472Y-92133352D01*
X132804232Y-92133648D01*
X131421020Y-92137545D01*
X131407225Y-92195998D01*
X131391486Y-92274041D01*
X131380019Y-92354782D01*
X131373367Y-92433069D01*
X131372071Y-92503749D01*
X131372842Y-92523338D01*
X131384170Y-92618820D01*
X131406962Y-92703840D01*
X131441390Y-92778681D01*
X131487628Y-92843626D01*
X131545847Y-92898960D01*
X131616222Y-92944965D01*
X131635715Y-92955033D01*
X131702092Y-92984072D01*
X131770488Y-93006252D01*
X131843752Y-93022113D01*
X131924731Y-93032195D01*
X132016272Y-93037038D01*
X132071222Y-93037665D01*
X132235842Y-93030325D01*
X132402574Y-93008432D01*
X132571712Y-92971896D01*
X132743556Y-92920628D01*
X132918400Y-92854540D01*
X133096542Y-92773542D01*
X133278279Y-92677545D01*
X133285444Y-92673496D01*
X133337188Y-92645296D01*
X133378467Y-92625658D01*
X133411425Y-92613979D01*
X133438206Y-92609656D01*
X133460954Y-92612086D01*
X133478883Y-92619095D01*
X133499365Y-92632112D01*
X133514506Y-92645292D01*
X133521794Y-92656288D01*
X133535415Y-92679619D01*
X133554563Y-92713760D01*
X133578436Y-92757189D01*
X133606229Y-92808381D01*
X133637139Y-92865812D01*
X133670362Y-92927958D01*
X133705094Y-92993297D01*
X133740532Y-93060303D01*
X133775872Y-93127454D01*
X133810310Y-93193225D01*
X133843042Y-93256093D01*
X133873265Y-93314533D01*
X133900175Y-93367022D01*
X133922967Y-93412037D01*
X133940839Y-93448052D01*
X133952987Y-93473545D01*
X133958606Y-93486992D01*
X133958761Y-93487548D01*
X133964085Y-93524257D01*
X133963432Y-93563223D01*
X133957353Y-93598932D01*
X133946401Y-93625872D01*
X133944655Y-93628433D01*
X133927717Y-93645846D01*
X133898751Y-93669142D01*
X133859639Y-93697162D01*
X133812258Y-93728747D01*
X133758490Y-93762738D01*
X133700213Y-93797977D01*
X133639308Y-93833305D01*
X133577654Y-93867563D01*
X133517130Y-93899594D01*
X133459617Y-93928237D01*
X133453656Y-93931084D01*
X133246964Y-94021056D01*
X133034668Y-94097085D01*
X132816237Y-94159306D01*
X132591144Y-94207854D01*
X132358858Y-94242867D01*
X132168849Y-94261123D01*
X132123217Y-94263675D01*
X132066648Y-94265619D01*
X132002175Y-94266957D01*
X131932832Y-94267695D01*
X131861655Y-94267834D01*
X131791677Y-94267378D01*
X131725933Y-94266332D01*
X131667457Y-94264698D01*
X131619284Y-94262479D01*
X131592108Y-94260469D01*
X131408303Y-94237088D01*
X131232720Y-94202325D01*
X131065815Y-94156457D01*
X130908045Y-94099757D01*
X130759867Y-94032502D01*
X130621736Y-93954966D01*
X130494109Y-93867424D01*
X130377444Y-93770153D01*
X130272195Y-93663427D01*
X130178820Y-93547521D01*
X130097776Y-93422710D01*
X130048412Y-93329754D01*
X129990725Y-93193532D01*
X129945892Y-93049653D01*
X129914195Y-92899670D01*
X129895914Y-92745138D01*
X129891330Y-92587611D01*
X129895824Y-92484407D01*
X129897602Y-92460087D01*
X129899359Y-92437459D01*
X129901257Y-92415527D01*
X129903459Y-92393299D01*
X129906126Y-92369780D01*
X129909419Y-92343977D01*
X129913502Y-92314895D01*
X129918535Y-92281542D01*
X129924680Y-92242922D01*
X129932100Y-92198043D01*
X129940957Y-92145909D01*
X129951411Y-92085529D01*
X129963626Y-92015907D01*
X129977762Y-91936049D01*
X129993983Y-91844963D01*
X130012449Y-91741654D01*
X130033323Y-91625127D01*
X130056766Y-91494391D01*
X130060231Y-91475072D01*
X130083810Y-91343785D01*
X130104908Y-91226780D01*
X130116507Y-91162870D01*
X131596004Y-91162870D01*
X131603616Y-91163506D01*
X131625720Y-91164113D01*
X131661223Y-91164687D01*
X131709031Y-91165218D01*
X131768048Y-91165702D01*
X131837180Y-91166130D01*
X131915333Y-91166497D01*
X132001412Y-91166796D01*
X132094323Y-91167020D01*
X132192972Y-91167162D01*
X132296263Y-91167216D01*
X132304396Y-91167217D01*
X133012787Y-91167217D01*
X133017022Y-91149680D01*
X133019978Y-91136285D01*
X133025401Y-91110640D01*
X133032659Y-91075775D01*
X133041120Y-91034715D01*
X133046700Y-91007444D01*
X133056861Y-90955847D01*
X133063912Y-90914161D01*
X133068390Y-90877140D01*
X133070832Y-90839539D01*
X133071775Y-90796113D01*
X133071837Y-90761939D01*
X133069963Y-90689126D01*
X133064242Y-90628015D01*
X133053922Y-90575032D01*
X133038250Y-90526600D01*
X133016475Y-90479144D01*
X133009638Y-90466374D01*
X132965445Y-90397681D01*
X132913892Y-90340219D01*
X132853348Y-90292778D01*
X132782183Y-90254150D01*
X132698767Y-90223124D01*
X132670830Y-90215042D01*
X132644752Y-90208410D01*
X132620450Y-90203654D01*
X132594548Y-90200489D01*
X132563673Y-90198632D01*
X132524450Y-90197798D01*
X132473504Y-90197705D01*
X132465013Y-90197736D01*
X132412396Y-90198162D01*
X132371763Y-90199189D01*
X132339512Y-90201166D01*
X132312043Y-90204444D01*
X132285753Y-90209375D01*
X132257042Y-90216310D01*
X132246787Y-90219001D01*
X132189762Y-90236907D01*
X132128636Y-90260787D01*
X132068777Y-90288248D01*
X132015552Y-90316899D01*
X131988058Y-90334335D01*
X131945362Y-90367493D01*
X131899352Y-90409530D01*
X131854581Y-90455870D01*
X131815600Y-90501934D01*
X131798928Y-90524549D01*
X131757428Y-90591879D01*
X131719022Y-90667875D01*
X131686991Y-90745619D01*
X131670871Y-90794749D01*
X131665314Y-90816277D01*
X131657824Y-90848546D01*
X131648969Y-90888775D01*
X131639311Y-90934185D01*
X131629418Y-90981997D01*
X131619855Y-91029431D01*
X131611185Y-91073709D01*
X131603975Y-91112050D01*
X131598791Y-91141676D01*
X131596196Y-91159807D01*
X131596004Y-91162870D01*
X130116507Y-91162870D01*
X130123745Y-91122989D01*
X130140542Y-91031340D01*
G37*
G36*
X125804474Y-86777591D02*
G01*
X125901024Y-86789472D01*
X125960103Y-86802939D01*
X126057856Y-86837712D01*
X126146801Y-86885017D01*
X126226219Y-86944061D01*
X126295392Y-87014053D01*
X126353602Y-87094200D01*
X126400128Y-87183709D01*
X126434253Y-87281789D01*
X126447751Y-87340545D01*
X126454891Y-87393581D01*
X126458733Y-87456412D01*
X126459272Y-87523596D01*
X126456505Y-87589694D01*
X126450427Y-87649263D01*
X126447995Y-87664830D01*
X126420837Y-87779027D01*
X126379878Y-87885992D01*
X126325186Y-87985604D01*
X126256824Y-88077736D01*
X126199224Y-88139325D01*
X126111024Y-88214798D01*
X126015126Y-88276873D01*
X125912212Y-88325178D01*
X125802966Y-88359340D01*
X125791963Y-88361908D01*
X125737296Y-88371442D01*
X125673762Y-88377952D01*
X125606676Y-88381245D01*
X125541354Y-88381128D01*
X125483109Y-88377407D01*
X125457934Y-88374074D01*
X125353244Y-88349636D01*
X125257018Y-88312562D01*
X125169874Y-88263687D01*
X125092429Y-88203843D01*
X125025302Y-88133863D01*
X124969108Y-88054581D01*
X124924466Y-87966830D01*
X124891993Y-87871444D01*
X124872307Y-87769255D01*
X124866026Y-87661096D01*
X124870073Y-87580797D01*
X124888440Y-87458250D01*
X124919432Y-87343716D01*
X124962636Y-87237768D01*
X125017637Y-87140980D01*
X125084022Y-87053924D01*
X125161377Y-86977174D01*
X125249289Y-86911303D01*
X125347343Y-86856884D01*
X125412580Y-86829323D01*
X125503141Y-86801901D01*
X125601399Y-86784005D01*
X125703221Y-86775836D01*
X125804474Y-86777591D01*
G37*
G36*
X140071083Y-87201068D02*
G01*
X140176505Y-87201271D01*
X140295619Y-87201570D01*
X140429343Y-87201923D01*
X140438714Y-87201947D01*
X140570038Y-87202289D01*
X140686683Y-87202613D01*
X140789556Y-87202940D01*
X140879565Y-87203287D01*
X140957617Y-87203675D01*
X141024622Y-87204123D01*
X141081486Y-87204650D01*
X141129118Y-87205275D01*
X141168425Y-87206018D01*
X141200316Y-87206898D01*
X141225697Y-87207933D01*
X141245478Y-87209145D01*
X141260566Y-87210551D01*
X141271868Y-87212171D01*
X141280293Y-87214024D01*
X141286749Y-87216130D01*
X141292143Y-87218508D01*
X141295391Y-87220147D01*
X141327275Y-87243779D01*
X141345440Y-87273984D01*
X141349683Y-87309564D01*
X141339797Y-87349319D01*
X141322989Y-87381153D01*
X141315809Y-87389700D01*
X141298379Y-87409089D01*
X141271158Y-87438830D01*
X141234602Y-87478437D01*
X141189169Y-87527420D01*
X141135315Y-87585291D01*
X141073499Y-87651563D01*
X141004176Y-87725747D01*
X140927805Y-87807355D01*
X140844843Y-87895900D01*
X140755747Y-87990892D01*
X140660973Y-88091845D01*
X140560980Y-88198269D01*
X140456225Y-88309677D01*
X140347164Y-88425580D01*
X140234255Y-88545491D01*
X140117956Y-88668922D01*
X139998723Y-88795383D01*
X139930672Y-88867523D01*
X139810276Y-88995182D01*
X139692711Y-89119940D01*
X139578425Y-89241317D01*
X139467866Y-89358836D01*
X139361480Y-89472017D01*
X139259717Y-89580382D01*
X139163024Y-89683450D01*
X139071848Y-89780744D01*
X138986638Y-89871784D01*
X138907842Y-89956091D01*
X138835906Y-90033187D01*
X138771279Y-90102593D01*
X138714408Y-90163828D01*
X138665742Y-90216416D01*
X138625729Y-90259876D01*
X138594815Y-90293730D01*
X138573449Y-90317498D01*
X138562078Y-90330702D01*
X138560239Y-90333347D01*
X138563794Y-90341311D01*
X138574179Y-90362557D01*
X138591096Y-90396503D01*
X138614251Y-90442569D01*
X138643345Y-90500173D01*
X138678082Y-90568733D01*
X138718167Y-90647668D01*
X138763303Y-90736397D01*
X138813192Y-90834338D01*
X138867540Y-90940910D01*
X138926049Y-91055531D01*
X138988423Y-91177620D01*
X139054365Y-91306596D01*
X139123579Y-91441877D01*
X139195769Y-91582882D01*
X139270638Y-91729029D01*
X139347890Y-91879737D01*
X139427227Y-92034424D01*
X139484444Y-92145927D01*
X139565184Y-92303260D01*
X139644114Y-92457111D01*
X139720935Y-92606893D01*
X139795347Y-92752019D01*
X139867049Y-92891902D01*
X139935740Y-93025956D01*
X140001121Y-93153594D01*
X140062892Y-93274228D01*
X140120751Y-93387271D01*
X140174399Y-93492137D01*
X140223536Y-93588239D01*
X140267861Y-93674989D01*
X140307073Y-93751802D01*
X140340873Y-93818089D01*
X140368960Y-93873264D01*
X140391034Y-93916740D01*
X140406795Y-93947930D01*
X140415942Y-93966247D01*
X140418241Y-93971076D01*
X140425189Y-94001995D01*
X140425179Y-94037141D01*
X140418889Y-94070657D01*
X140406999Y-94096686D01*
X140403128Y-94101447D01*
X140396542Y-94108558D01*
X140390315Y-94114850D01*
X140383506Y-94120370D01*
X140375172Y-94125165D01*
X140364370Y-94129283D01*
X140350160Y-94132771D01*
X140331599Y-94135676D01*
X140307744Y-94138046D01*
X140277654Y-94139928D01*
X140240386Y-94141369D01*
X140194999Y-94142416D01*
X140140550Y-94143117D01*
X140076097Y-94143519D01*
X140000698Y-94143670D01*
X139913411Y-94143616D01*
X139813293Y-94143405D01*
X139699403Y-94143084D01*
X139580754Y-94142730D01*
X138840343Y-94140552D01*
X138809168Y-94123730D01*
X138784217Y-94107654D01*
X138761544Y-94088949D01*
X138757405Y-94084761D01*
X138751944Y-94075572D01*
X138740043Y-94053046D01*
X138722046Y-94017880D01*
X138698296Y-93970772D01*
X138669136Y-93912419D01*
X138634910Y-93843519D01*
X138595960Y-93764769D01*
X138552630Y-93676865D01*
X138505264Y-93580507D01*
X138454204Y-93476390D01*
X138399794Y-93365213D01*
X138342377Y-93247673D01*
X138282297Y-93124467D01*
X138219896Y-92996292D01*
X138155518Y-92863847D01*
X138091387Y-92731705D01*
X138025637Y-92596191D01*
X137961679Y-92464496D01*
X137899846Y-92337301D01*
X137840470Y-92215285D01*
X137783886Y-92099131D01*
X137730425Y-91989518D01*
X137680421Y-91887126D01*
X137634208Y-91792637D01*
X137592117Y-91706730D01*
X137554484Y-91630087D01*
X137521639Y-91563387D01*
X137493918Y-91507311D01*
X137471652Y-91462540D01*
X137455174Y-91429755D01*
X137444819Y-91409634D01*
X137440919Y-91402861D01*
X137440916Y-91402862D01*
X137434497Y-91408526D01*
X137417958Y-91424017D01*
X137392369Y-91448307D01*
X137358799Y-91480373D01*
X137318320Y-91519190D01*
X137272001Y-91563731D01*
X137220912Y-91612973D01*
X137166125Y-91665889D01*
X137148684Y-91682757D01*
X136861494Y-91960586D01*
X136680202Y-92984321D01*
X136658068Y-93109032D01*
X136636525Y-93229872D01*
X136615742Y-93345911D01*
X136595890Y-93456224D01*
X136577140Y-93559880D01*
X136559662Y-93655953D01*
X136543625Y-93743514D01*
X136529200Y-93821634D01*
X136516558Y-93889386D01*
X136505868Y-93945842D01*
X136497300Y-93990073D01*
X136491026Y-94021152D01*
X136487214Y-94038150D01*
X136486462Y-94040685D01*
X136467229Y-94074132D01*
X136438320Y-94104703D01*
X136404783Y-94127701D01*
X136383899Y-94136093D01*
X136369433Y-94137855D01*
X136339478Y-94139408D01*
X136294021Y-94140750D01*
X136233051Y-94141883D01*
X136156555Y-94142806D01*
X136064520Y-94143519D01*
X135956934Y-94144024D01*
X135833785Y-94144319D01*
X135714732Y-94144405D01*
X135075343Y-94144449D01*
X135040631Y-94126913D01*
X135003724Y-94100135D01*
X134977592Y-94063804D01*
X134965827Y-94028866D01*
X134966150Y-94021884D01*
X134968114Y-94005880D01*
X134971765Y-93980580D01*
X134977151Y-93945710D01*
X134984318Y-93900996D01*
X134993316Y-93846165D01*
X135004190Y-93780944D01*
X135016989Y-93705058D01*
X135031759Y-93618234D01*
X135048549Y-93520199D01*
X135067405Y-93410679D01*
X135088375Y-93289399D01*
X135111507Y-93156088D01*
X135136848Y-93010470D01*
X135164445Y-92852272D01*
X135194345Y-92681221D01*
X135226597Y-92497043D01*
X135261247Y-92299465D01*
X135298343Y-92088212D01*
X135337932Y-91863011D01*
X135380062Y-91623589D01*
X135424780Y-91369672D01*
X135472133Y-91100985D01*
X135522170Y-90817257D01*
X135527760Y-90785567D01*
X135576326Y-90510264D01*
X135622255Y-90249894D01*
X135665623Y-90004038D01*
X135706504Y-89772279D01*
X135744974Y-89554199D01*
X135781107Y-89349381D01*
X135814979Y-89157406D01*
X135846665Y-88977857D01*
X135876240Y-88810317D01*
X135903778Y-88654367D01*
X135929355Y-88509590D01*
X135953047Y-88375568D01*
X135974927Y-88251883D01*
X135995071Y-88138119D01*
X136013555Y-88033856D01*
X136030452Y-87938678D01*
X136045839Y-87852166D01*
X136059790Y-87773904D01*
X136072381Y-87703472D01*
X136083685Y-87640455D01*
X136093780Y-87584433D01*
X136102738Y-87534989D01*
X136110636Y-87491705D01*
X136117549Y-87454164D01*
X136123552Y-87421949D01*
X136128719Y-87394640D01*
X136133126Y-87371821D01*
X136136848Y-87353074D01*
X136139959Y-87337981D01*
X136142536Y-87326125D01*
X136144652Y-87317087D01*
X136146383Y-87310451D01*
X136147805Y-87305798D01*
X136148992Y-87302710D01*
X136150018Y-87300771D01*
X136150961Y-87299562D01*
X136151893Y-87298665D01*
X136152891Y-87297663D01*
X136154029Y-87296138D01*
X136155073Y-87294296D01*
X136174493Y-87265475D01*
X136200606Y-87238633D01*
X136228537Y-87218235D01*
X136247099Y-87210026D01*
X136258014Y-87209115D01*
X136283326Y-87208246D01*
X136321840Y-87207430D01*
X136372365Y-87206677D01*
X136433709Y-87205999D01*
X136504679Y-87205406D01*
X136584084Y-87204908D01*
X136670731Y-87204516D01*
X136763427Y-87204240D01*
X136860981Y-87204092D01*
X136919171Y-87204068D01*
X137035194Y-87204081D01*
X137136658Y-87204134D01*
X137224592Y-87204249D01*
X137300026Y-87204448D01*
X137363988Y-87204754D01*
X137417507Y-87205188D01*
X137461613Y-87205772D01*
X137497333Y-87206529D01*
X137525697Y-87207481D01*
X137547735Y-87208650D01*
X137564474Y-87210058D01*
X137576945Y-87211726D01*
X137586175Y-87213678D01*
X137593194Y-87215935D01*
X137599031Y-87218519D01*
X137599334Y-87218668D01*
X137623192Y-87234501D01*
X137643628Y-87254424D01*
X137646042Y-87257603D01*
X137650693Y-87264194D01*
X137654829Y-87270753D01*
X137658348Y-87277992D01*
X137661146Y-87286626D01*
X137663122Y-87297367D01*
X137664172Y-87310929D01*
X137664194Y-87328025D01*
X137663085Y-87349368D01*
X137660743Y-87375672D01*
X137657064Y-87407649D01*
X137651946Y-87446014D01*
X137645286Y-87491479D01*
X137636982Y-87544758D01*
X137626931Y-87606564D01*
X137615030Y-87677610D01*
X137601177Y-87758609D01*
X137585269Y-87850276D01*
X137567202Y-87953322D01*
X137546876Y-88068462D01*
X137524186Y-88196409D01*
X137499030Y-88337875D01*
X137471305Y-88493575D01*
X137454580Y-88587468D01*
X137430682Y-88721739D01*
X137407570Y-88851815D01*
X137385387Y-88976869D01*
X137364279Y-89096076D01*
X137344390Y-89208610D01*
X137325867Y-89313647D01*
X137308853Y-89410359D01*
X137293493Y-89497923D01*
X137279933Y-89575512D01*
X137268317Y-89642301D01*
X137258791Y-89697464D01*
X137251498Y-89740176D01*
X137246585Y-89769610D01*
X137244196Y-89784943D01*
X137243995Y-89787064D01*
X137249067Y-89787064D01*
X137254381Y-89780985D01*
X137269514Y-89763733D01*
X137293994Y-89735846D01*
X137327350Y-89697861D01*
X137369109Y-89650314D01*
X137418802Y-89593741D01*
X137475956Y-89528679D01*
X137540099Y-89455665D01*
X137610762Y-89375236D01*
X137687471Y-89287927D01*
X137769755Y-89194276D01*
X137857144Y-89094820D01*
X137949165Y-88990094D01*
X138045348Y-88880636D01*
X138145220Y-88766982D01*
X138248310Y-88649669D01*
X138354147Y-88529233D01*
X138356725Y-88526300D01*
X138496666Y-88367120D01*
X138626568Y-88219490D01*
X138746621Y-88083197D01*
X138857014Y-87958029D01*
X138957937Y-87843772D01*
X139049579Y-87740214D01*
X139132130Y-87647143D01*
X139205780Y-87564345D01*
X139270717Y-87491608D01*
X139327132Y-87428720D01*
X139375214Y-87375467D01*
X139415152Y-87331637D01*
X139447137Y-87297018D01*
X139471357Y-87271396D01*
X139488003Y-87254559D01*
X139497263Y-87246294D01*
X139497909Y-87245854D01*
X139509016Y-87238694D01*
X139519138Y-87232314D01*
X139529192Y-87226674D01*
X139540095Y-87221728D01*
X139552764Y-87217436D01*
X139568117Y-87213754D01*
X139587072Y-87210639D01*
X139610545Y-87208049D01*
X139639454Y-87205940D01*
X139674716Y-87204270D01*
X139717249Y-87202996D01*
X139767970Y-87202075D01*
X139827797Y-87201465D01*
X139897646Y-87201122D01*
X139978436Y-87201004D01*
X140071083Y-87201068D01*
G37*
G36*
X126061630Y-89117447D02*
G01*
X126095298Y-89143894D01*
X126116021Y-89178192D01*
X126124475Y-89221571D01*
X126124756Y-89232498D01*
X126123409Y-89243338D01*
X126119455Y-89268805D01*
X126113019Y-89308178D01*
X126104230Y-89360739D01*
X126093213Y-89425767D01*
X126080096Y-89502544D01*
X126065006Y-89590349D01*
X126048069Y-89688463D01*
X126029413Y-89796168D01*
X126009165Y-89912742D01*
X125987451Y-90037467D01*
X125964399Y-90169624D01*
X125940135Y-90308492D01*
X125914787Y-90453352D01*
X125888481Y-90603485D01*
X125861344Y-90758171D01*
X125833504Y-90916691D01*
X125805087Y-91078325D01*
X125776220Y-91242353D01*
X125747030Y-91408057D01*
X125717645Y-91574716D01*
X125688191Y-91741612D01*
X125658794Y-91908024D01*
X125629583Y-92073233D01*
X125600683Y-92236520D01*
X125572223Y-92397165D01*
X125544328Y-92554448D01*
X125517127Y-92707650D01*
X125490745Y-92856052D01*
X125465309Y-92998935D01*
X125440948Y-93135577D01*
X125417787Y-93265261D01*
X125395954Y-93387266D01*
X125375575Y-93500873D01*
X125356778Y-93605363D01*
X125339689Y-93700016D01*
X125324436Y-93784112D01*
X125311145Y-93856932D01*
X125299944Y-93917757D01*
X125290958Y-93965866D01*
X125284316Y-94000541D01*
X125280145Y-94021062D01*
X125278913Y-94026175D01*
X125259570Y-94067796D01*
X125230425Y-94102842D01*
X125194879Y-94127697D01*
X125176717Y-94134894D01*
X125166362Y-94136786D01*
X125148231Y-94138434D01*
X125121517Y-94139850D01*
X125085415Y-94141046D01*
X125039120Y-94142035D01*
X124981826Y-94142827D01*
X124912728Y-94143434D01*
X124831019Y-94143870D01*
X124735894Y-94144145D01*
X124626548Y-94144271D01*
X124541710Y-94144278D01*
X124430154Y-94144230D01*
X124333111Y-94144138D01*
X124249506Y-94143977D01*
X124178264Y-94143724D01*
X124118311Y-94143352D01*
X124068571Y-94142838D01*
X124027969Y-94142157D01*
X123995432Y-94141285D01*
X123969883Y-94140197D01*
X123950249Y-94138868D01*
X123935454Y-94137274D01*
X123924424Y-94135390D01*
X123916084Y-94133193D01*
X123909358Y-94130656D01*
X123907419Y-94129791D01*
X123871523Y-94107442D01*
X123847868Y-94077997D01*
X123835286Y-94039442D01*
X123832411Y-94000263D01*
X123833769Y-93989542D01*
X123837751Y-93964069D01*
X123844253Y-93924442D01*
X123853170Y-93871255D01*
X123864401Y-93805105D01*
X123877839Y-93726589D01*
X123893382Y-93636301D01*
X123910926Y-93534838D01*
X123930366Y-93422797D01*
X123951599Y-93300772D01*
X123974521Y-93169361D01*
X123999028Y-93029158D01*
X124025016Y-92880761D01*
X124052381Y-92724765D01*
X124081020Y-92561766D01*
X124110828Y-92392360D01*
X124141701Y-92217143D01*
X124173537Y-92036711D01*
X124206230Y-91851661D01*
X124239676Y-91662587D01*
X124254248Y-91580288D01*
X124294898Y-91350703D01*
X124332904Y-91135962D01*
X124368365Y-90935567D01*
X124401384Y-90749018D01*
X124432060Y-90575815D01*
X124460495Y-90415459D01*
X124486788Y-90267451D01*
X124511042Y-90131291D01*
X124533355Y-90006480D01*
X124553829Y-89892519D01*
X124572565Y-89788907D01*
X124589664Y-89695147D01*
X124605225Y-89610738D01*
X124619350Y-89535181D01*
X124632139Y-89467976D01*
X124643694Y-89408625D01*
X124654113Y-89356628D01*
X124663500Y-89311485D01*
X124671953Y-89272698D01*
X124679574Y-89239766D01*
X124686464Y-89212190D01*
X124692722Y-89189472D01*
X124698450Y-89171111D01*
X124703749Y-89156608D01*
X124708718Y-89145464D01*
X124713460Y-89137180D01*
X124718073Y-89131255D01*
X124722660Y-89127192D01*
X124727321Y-89124489D01*
X124732156Y-89122649D01*
X124737266Y-89121171D01*
X124742752Y-89119556D01*
X124748714Y-89117305D01*
X124750988Y-89116247D01*
X124788119Y-89097962D01*
X126027333Y-89097962D01*
X126061630Y-89117447D01*
G37*
G36*
X122229556Y-87204072D02*
G01*
X122427271Y-87204086D01*
X122610510Y-87204113D01*
X122779831Y-87204158D01*
X122935791Y-87204223D01*
X123078945Y-87204313D01*
X123209849Y-87204431D01*
X123329062Y-87204580D01*
X123437138Y-87204765D01*
X123534634Y-87204989D01*
X123622108Y-87205255D01*
X123700114Y-87205568D01*
X123769210Y-87205930D01*
X123829952Y-87206346D01*
X123882896Y-87206818D01*
X123928599Y-87207352D01*
X123967618Y-87207949D01*
X124000508Y-87208615D01*
X124027827Y-87209352D01*
X124050130Y-87210164D01*
X124067974Y-87211055D01*
X124081915Y-87212029D01*
X124092511Y-87213088D01*
X124100317Y-87214237D01*
X124105889Y-87215479D01*
X124109785Y-87216818D01*
X124111603Y-87217699D01*
X124146823Y-87245441D01*
X124170992Y-87282746D01*
X124182089Y-87326472D01*
X124182163Y-87327383D01*
X124181777Y-87342144D01*
X124179126Y-87368260D01*
X124174134Y-87406215D01*
X124166723Y-87456493D01*
X124156818Y-87519580D01*
X124144342Y-87595959D01*
X124129218Y-87686114D01*
X124111371Y-87790531D01*
X124090724Y-87909694D01*
X124086697Y-87932789D01*
X124067224Y-88044344D01*
X124050183Y-88141584D01*
X124035301Y-88225546D01*
X124022304Y-88297264D01*
X124010921Y-88357777D01*
X124000879Y-88408118D01*
X123991906Y-88449326D01*
X123983729Y-88482436D01*
X123976075Y-88508485D01*
X123968672Y-88528508D01*
X123961247Y-88543542D01*
X123953528Y-88554623D01*
X123945243Y-88562787D01*
X123936118Y-88569071D01*
X123925882Y-88574510D01*
X123916759Y-88578926D01*
X123883013Y-88595262D01*
X121161342Y-88595262D01*
X121157004Y-88616695D01*
X121154836Y-88628298D01*
X121150218Y-88653691D01*
X121143373Y-88691623D01*
X121134524Y-88740846D01*
X121123893Y-88800111D01*
X121111703Y-88868167D01*
X121098177Y-88943765D01*
X121083538Y-89025656D01*
X121068008Y-89112590D01*
X121051810Y-89203317D01*
X121035167Y-89296590D01*
X121018302Y-89391156D01*
X121001438Y-89485769D01*
X120984796Y-89579177D01*
X120968601Y-89670132D01*
X120953074Y-89757383D01*
X120938438Y-89839682D01*
X120924917Y-89915779D01*
X120912733Y-89984425D01*
X120902109Y-90044369D01*
X120893267Y-90094364D01*
X120886430Y-90133158D01*
X120881822Y-90159503D01*
X120879664Y-90172150D01*
X120879527Y-90173097D01*
X120887178Y-90173592D01*
X120909561Y-90174071D01*
X120945819Y-90174530D01*
X120995097Y-90174967D01*
X121056539Y-90175378D01*
X121129289Y-90175761D01*
X121212490Y-90176112D01*
X121305287Y-90176427D01*
X121406824Y-90176704D01*
X121516245Y-90176940D01*
X121632693Y-90177130D01*
X121755314Y-90177273D01*
X121883250Y-90177365D01*
X122015647Y-90177403D01*
X122037677Y-90177404D01*
X122197264Y-90177385D01*
X122342006Y-90177350D01*
X122472649Y-90177331D01*
X122589936Y-90177359D01*
X122694610Y-90177467D01*
X122787415Y-90177687D01*
X122869096Y-90178050D01*
X122940396Y-90178589D01*
X123002058Y-90179335D01*
X123054827Y-90180321D01*
X123099446Y-90181578D01*
X123136659Y-90183138D01*
X123167210Y-90185034D01*
X123191843Y-90187297D01*
X123211301Y-90189960D01*
X123226328Y-90193053D01*
X123237669Y-90196610D01*
X123246066Y-90200662D01*
X123252263Y-90205241D01*
X123257005Y-90210379D01*
X123261035Y-90216108D01*
X123265097Y-90222461D01*
X123269935Y-90229468D01*
X123270626Y-90230384D01*
X123278022Y-90240670D01*
X123284160Y-90251304D01*
X123288925Y-90263359D01*
X123292202Y-90277911D01*
X123293874Y-90296034D01*
X123293826Y-90318803D01*
X123291943Y-90347293D01*
X123288109Y-90382577D01*
X123282208Y-90425732D01*
X123274125Y-90477830D01*
X123263745Y-90539948D01*
X123250951Y-90613159D01*
X123235629Y-90698538D01*
X123217663Y-90797160D01*
X123198383Y-90902227D01*
X123178161Y-91012119D01*
X123160450Y-91107755D01*
X123144959Y-91190213D01*
X123131396Y-91260569D01*
X123119468Y-91319902D01*
X123108885Y-91369289D01*
X123099353Y-91409806D01*
X123090580Y-91442533D01*
X123082275Y-91468545D01*
X123074146Y-91488921D01*
X123065900Y-91504737D01*
X123057246Y-91517072D01*
X123047891Y-91527003D01*
X123037544Y-91535607D01*
X123025912Y-91543961D01*
X123024101Y-91545216D01*
X122990307Y-91568597D01*
X121808049Y-91570644D01*
X120625791Y-91572690D01*
X120404904Y-92798168D01*
X120380264Y-92934603D01*
X120356229Y-93067163D01*
X120332956Y-93195009D01*
X120310602Y-93317299D01*
X120289324Y-93433192D01*
X120269277Y-93541848D01*
X120250620Y-93642427D01*
X120233509Y-93734086D01*
X120218100Y-93815986D01*
X120204551Y-93887286D01*
X120193017Y-93947145D01*
X120183657Y-93994722D01*
X120176626Y-94029177D01*
X120172082Y-94049669D01*
X120170546Y-94055078D01*
X120146980Y-94091957D01*
X120113200Y-94120753D01*
X120078472Y-94136312D01*
X120064501Y-94137949D01*
X120035189Y-94139404D01*
X119990782Y-94140673D01*
X119931527Y-94141754D01*
X119857668Y-94142644D01*
X119769453Y-94143340D01*
X119667128Y-94143840D01*
X119550937Y-94144139D01*
X119421127Y-94144236D01*
X119406498Y-94144234D01*
X119291107Y-94144197D01*
X119190266Y-94144118D01*
X119102937Y-94143977D01*
X119028082Y-94143750D01*
X118964664Y-94143416D01*
X118911645Y-94142952D01*
X118867987Y-94142335D01*
X118832653Y-94141545D01*
X118804605Y-94140558D01*
X118782805Y-94139352D01*
X118766215Y-94137906D01*
X118753798Y-94136196D01*
X118744516Y-94134201D01*
X118737331Y-94131898D01*
X118732335Y-94129791D01*
X118709517Y-94117281D01*
X118691182Y-94103804D01*
X118687818Y-94100450D01*
X118671157Y-94075036D01*
X118657783Y-94043007D01*
X118650855Y-94012394D01*
X118650500Y-94005545D01*
X118651852Y-93996420D01*
X118655851Y-93972447D01*
X118662408Y-93934123D01*
X118671436Y-93881946D01*
X118682846Y-93816412D01*
X118696552Y-93738021D01*
X118712464Y-93647268D01*
X118730494Y-93544651D01*
X118750556Y-93430668D01*
X118772561Y-93305817D01*
X118796421Y-93170595D01*
X118822048Y-93025499D01*
X118849355Y-92871027D01*
X118878252Y-92707676D01*
X118908654Y-92535944D01*
X118940471Y-92356328D01*
X118973616Y-92169326D01*
X119008000Y-91975435D01*
X119043536Y-91775153D01*
X119080137Y-91568977D01*
X119117713Y-91357405D01*
X119156177Y-91140934D01*
X119195442Y-90920061D01*
X119235419Y-90695285D01*
X119243117Y-90652011D01*
X119292942Y-90372005D01*
X119340121Y-90106985D01*
X119384720Y-89856587D01*
X119426805Y-89620448D01*
X119466441Y-89398205D01*
X119503696Y-89189492D01*
X119538634Y-88993948D01*
X119571322Y-88811207D01*
X119601825Y-88640906D01*
X119630210Y-88482682D01*
X119656543Y-88336171D01*
X119680889Y-88201009D01*
X119703314Y-88076833D01*
X119723885Y-87963278D01*
X119742667Y-87859981D01*
X119759726Y-87766579D01*
X119775128Y-87682707D01*
X119788940Y-87608003D01*
X119801226Y-87542101D01*
X119812053Y-87484639D01*
X119821488Y-87435253D01*
X119829595Y-87393579D01*
X119836441Y-87359253D01*
X119842091Y-87331913D01*
X119846613Y-87311193D01*
X119850071Y-87296730D01*
X119852531Y-87288162D01*
X119853409Y-87285973D01*
X119878529Y-87251205D01*
X119909014Y-87227519D01*
X119946945Y-87204068D01*
X122016811Y-87204068D01*
X122229556Y-87204072D01*
G37*
G36*
X140913145Y-91039892D02*
G01*
X140926991Y-90964036D01*
X140939342Y-90897048D01*
X140949963Y-90840271D01*
X140958615Y-90795052D01*
X140961288Y-90781423D01*
X140982718Y-90684905D01*
X141009401Y-90583230D01*
X141039148Y-90484406D01*
X141057250Y-90430676D01*
X141125988Y-90257810D01*
X141206636Y-90094853D01*
X141299084Y-89941950D01*
X141403217Y-89799248D01*
X141518924Y-89666893D01*
X141646094Y-89545031D01*
X141784613Y-89433809D01*
X141864338Y-89378061D01*
X142013754Y-89286480D01*
X142169582Y-89206586D01*
X142332826Y-89138031D01*
X142504491Y-89080470D01*
X142685581Y-89033558D01*
X142877099Y-88996948D01*
X143033409Y-88975433D01*
X143071424Y-88972185D01*
X143122195Y-88969575D01*
X143182952Y-88967604D01*
X143250927Y-88966270D01*
X143323349Y-88965574D01*
X143397451Y-88965514D01*
X143470464Y-88966090D01*
X143539617Y-88967302D01*
X143602143Y-88969150D01*
X143655271Y-88971632D01*
X143696234Y-88974748D01*
X143703676Y-88975558D01*
X143885279Y-89002083D01*
X144054751Y-89037633D01*
X144212857Y-89082480D01*
X144360363Y-89136897D01*
X144498035Y-89201157D01*
X144626641Y-89275533D01*
X144712973Y-89334708D01*
X144791088Y-89398066D01*
X144869037Y-89472586D01*
X144943468Y-89554493D01*
X145011030Y-89640015D01*
X145068371Y-89725377D01*
X145084721Y-89753297D01*
X145149975Y-89885195D01*
X145202187Y-90025393D01*
X145241314Y-90173587D01*
X145267313Y-90329471D01*
X145280138Y-90492743D01*
X145279748Y-90663097D01*
X145266097Y-90840230D01*
X145254011Y-90933112D01*
X145250093Y-90958208D01*
X145243939Y-90995720D01*
X145235824Y-91044083D01*
X145226023Y-91101734D01*
X145214809Y-91167107D01*
X145202460Y-91238639D01*
X145189248Y-91314764D01*
X145175449Y-91393919D01*
X145161337Y-91474539D01*
X145147188Y-91555059D01*
X145133276Y-91633916D01*
X145119875Y-91709544D01*
X145107261Y-91780379D01*
X145095709Y-91844857D01*
X145085493Y-91901413D01*
X145076888Y-91948484D01*
X145070168Y-91984503D01*
X145065610Y-92007908D01*
X145063765Y-92016273D01*
X145046860Y-92056176D01*
X145020912Y-92090452D01*
X144989626Y-92114264D01*
X144988180Y-92114998D01*
X144984100Y-92116838D01*
X144979137Y-92118520D01*
X144972599Y-92120052D01*
X144963796Y-92121443D01*
X144952040Y-92122702D01*
X144936639Y-92123835D01*
X144916903Y-92124852D01*
X144892143Y-92125760D01*
X144861667Y-92126568D01*
X144824787Y-92127285D01*
X144780812Y-92127917D01*
X144729051Y-92128473D01*
X144668815Y-92128963D01*
X144599414Y-92129393D01*
X144520157Y-92129772D01*
X144430354Y-92130108D01*
X144329315Y-92130409D01*
X144216351Y-92130684D01*
X144090770Y-92130941D01*
X143951883Y-92131188D01*
X143799000Y-92131433D01*
X143631430Y-92131684D01*
X143577159Y-92131763D01*
X142195840Y-92133776D01*
X142191715Y-92151248D01*
X142177338Y-92214902D01*
X142166881Y-92268895D01*
X142159615Y-92318445D01*
X142154814Y-92368771D01*
X142151749Y-92425089D01*
X142151107Y-92442532D01*
X142149696Y-92495833D01*
X142149690Y-92537321D01*
X142151269Y-92570721D01*
X142154615Y-92599761D01*
X142159910Y-92628166D01*
X142160218Y-92629583D01*
X142185991Y-92713646D01*
X142224443Y-92788891D01*
X142275079Y-92854831D01*
X142337404Y-92910977D01*
X142410922Y-92956843D01*
X142495138Y-92991942D01*
X142542399Y-93005627D01*
X142600964Y-93018760D01*
X142658278Y-93028065D01*
X142718144Y-93033866D01*
X142784367Y-93036489D01*
X142860753Y-93036256D01*
X142892944Y-93035495D01*
X143012800Y-93029197D01*
X143126108Y-93016770D01*
X143237309Y-92997406D01*
X143350840Y-92970296D01*
X143471141Y-92934630D01*
X143502519Y-92924373D01*
X143680063Y-92859160D01*
X143851835Y-92783724D01*
X144014046Y-92699759D01*
X144048119Y-92680284D01*
X144103994Y-92649114D01*
X144149458Y-92627234D01*
X144186385Y-92614337D01*
X144216650Y-92610120D01*
X144242128Y-92614278D01*
X144264694Y-92626506D01*
X144282274Y-92642275D01*
X144290903Y-92654367D01*
X144305842Y-92678783D01*
X144326270Y-92713987D01*
X144351369Y-92758440D01*
X144380319Y-92810605D01*
X144412300Y-92868946D01*
X144446493Y-92931925D01*
X144482077Y-92998003D01*
X144518234Y-93065645D01*
X144554143Y-93133312D01*
X144588986Y-93199468D01*
X144621942Y-93262575D01*
X144652192Y-93321095D01*
X144678916Y-93373492D01*
X144701296Y-93418227D01*
X144718510Y-93453765D01*
X144729740Y-93478566D01*
X144733687Y-93489005D01*
X144741874Y-93539614D01*
X144736941Y-93587245D01*
X144720554Y-93626505D01*
X144705914Y-93642793D01*
X144678489Y-93665540D01*
X144639294Y-93693956D01*
X144597791Y-93721778D01*
X144404842Y-93838441D01*
X144205596Y-93941070D01*
X143999859Y-94029730D01*
X143787435Y-94104483D01*
X143568128Y-94165394D01*
X143341745Y-94212526D01*
X143108090Y-94245942D01*
X142942319Y-94261050D01*
X142905953Y-94263008D01*
X142858376Y-94264651D01*
X142802419Y-94265966D01*
X142740913Y-94266936D01*
X142676687Y-94267548D01*
X142612574Y-94267786D01*
X142551403Y-94267635D01*
X142496007Y-94267081D01*
X142449214Y-94266108D01*
X142413856Y-94264701D01*
X142402111Y-94263896D01*
X142215466Y-94242004D01*
X142036814Y-94208649D01*
X141866712Y-94164065D01*
X141705719Y-94108482D01*
X141554392Y-94042131D01*
X141413289Y-93965244D01*
X141282969Y-93878051D01*
X141163989Y-93780785D01*
X141108204Y-93727723D01*
X141005886Y-93614463D01*
X140916685Y-93492809D01*
X140840665Y-93362882D01*
X140777888Y-93224805D01*
X140728417Y-93078702D01*
X140692316Y-92924694D01*
X140690185Y-92913028D01*
X140681527Y-92851806D01*
X140675032Y-92779245D01*
X140670788Y-92699453D01*
X140668882Y-92616539D01*
X140669401Y-92534613D01*
X140672434Y-92457783D01*
X140678067Y-92390159D01*
X140678899Y-92383050D01*
X140681870Y-92362201D01*
X140687377Y-92327359D01*
X140695185Y-92279867D01*
X140705054Y-92221071D01*
X140716749Y-92152315D01*
X140730031Y-92074944D01*
X140744665Y-91990303D01*
X140760413Y-91899737D01*
X140777037Y-91804590D01*
X140794301Y-91706208D01*
X140811968Y-91605934D01*
X140829800Y-91505115D01*
X140847561Y-91405094D01*
X140865013Y-91307216D01*
X140881919Y-91212827D01*
X140892737Y-91152738D01*
X142374832Y-91152738D01*
X142375237Y-91155228D01*
X142377079Y-91157413D01*
X142381303Y-91159309D01*
X142388851Y-91160933D01*
X142400666Y-91162302D01*
X142417693Y-91163432D01*
X142440874Y-91164341D01*
X142471153Y-91165045D01*
X142509472Y-91165560D01*
X142556776Y-91165905D01*
X142614007Y-91166094D01*
X142682110Y-91166146D01*
X142762026Y-91166077D01*
X142854700Y-91165903D01*
X142961074Y-91165641D01*
X143082093Y-91165309D01*
X143082120Y-91165309D01*
X143789407Y-91163320D01*
X143814329Y-91042516D01*
X143831304Y-90952818D01*
X143842647Y-90874505D01*
X143848644Y-90804543D01*
X143849584Y-90739895D01*
X143847260Y-90694554D01*
X143833162Y-90600553D01*
X143806528Y-90514896D01*
X143767758Y-90438204D01*
X143717256Y-90371092D01*
X143655423Y-90314181D01*
X143582662Y-90268088D01*
X143563990Y-90258878D01*
X143503922Y-90233677D01*
X143444769Y-90215599D01*
X143381803Y-90203587D01*
X143310296Y-90196586D01*
X143277822Y-90194935D01*
X143161452Y-90197249D01*
X143050089Y-90213435D01*
X142944660Y-90243097D01*
X142846090Y-90285838D01*
X142755305Y-90341260D01*
X142673229Y-90408967D01*
X142604721Y-90483615D01*
X142565314Y-90539012D01*
X142526641Y-90604663D01*
X142491317Y-90675350D01*
X142461960Y-90745853D01*
X142441770Y-90808702D01*
X142434451Y-90838669D01*
X142425775Y-90877469D01*
X142416313Y-90922173D01*
X142406634Y-90969856D01*
X142397307Y-91017589D01*
X142388902Y-91062446D01*
X142381988Y-91101499D01*
X142377135Y-91131821D01*
X142374912Y-91150486D01*
X142374832Y-91152738D01*
X140892737Y-91152738D01*
X140898042Y-91123271D01*
X140913145Y-91039892D01*
G37*
G36*
X129152371Y-88963854D02*
G01*
X129333004Y-88972326D01*
X129510531Y-88989656D01*
X129690096Y-89016283D01*
X129788888Y-89034520D01*
X129845434Y-89046764D01*
X129888888Y-89059141D01*
X129921710Y-89072775D01*
X129946365Y-89088788D01*
X129965315Y-89108304D01*
X129972449Y-89118244D01*
X129985037Y-89140559D01*
X129991246Y-89162754D01*
X129992914Y-89192001D01*
X129992881Y-89197976D01*
X129991310Y-89217113D01*
X129987058Y-89249426D01*
X129980425Y-89293312D01*
X129971707Y-89347170D01*
X129961204Y-89409399D01*
X129949216Y-89478396D01*
X129936039Y-89552561D01*
X129921974Y-89630290D01*
X129907318Y-89709984D01*
X129892370Y-89790040D01*
X129877429Y-89868856D01*
X129862794Y-89944831D01*
X129848763Y-90016363D01*
X129835635Y-90081850D01*
X129823708Y-90139691D01*
X129813282Y-90188285D01*
X129804654Y-90226029D01*
X129798124Y-90251321D01*
X129794551Y-90261631D01*
X129768037Y-90296745D01*
X129743163Y-90315270D01*
X129722904Y-90325181D01*
X129700071Y-90331849D01*
X129672481Y-90335312D01*
X129637950Y-90335606D01*
X129594297Y-90332767D01*
X129539338Y-90326833D01*
X129483884Y-90319625D01*
X129311059Y-90300599D01*
X129145725Y-90291562D01*
X128988927Y-90292498D01*
X128841710Y-90303388D01*
X128705119Y-90324214D01*
X128660840Y-90333658D01*
X128620776Y-90343620D01*
X128578062Y-90355482D01*
X128535895Y-90368217D01*
X128497470Y-90380797D01*
X128465983Y-90392195D01*
X128444631Y-90401385D01*
X128438304Y-90405174D01*
X128436225Y-90409939D01*
X128432924Y-90422152D01*
X128428321Y-90442250D01*
X128422338Y-90470670D01*
X128414894Y-90507848D01*
X128405910Y-90554223D01*
X128395307Y-90610230D01*
X128383005Y-90676306D01*
X128368925Y-90752890D01*
X128352986Y-90840416D01*
X128335110Y-90939324D01*
X128315217Y-91050048D01*
X128293228Y-91173027D01*
X128269062Y-91308697D01*
X128242640Y-91457495D01*
X128213884Y-91619859D01*
X128182712Y-91796224D01*
X128149047Y-91987029D01*
X128112807Y-92192709D01*
X128108857Y-92215144D01*
X128076074Y-92401138D01*
X128044492Y-92579917D01*
X128014202Y-92750970D01*
X127985297Y-92913783D01*
X127957871Y-93067842D01*
X127932015Y-93212635D01*
X127907823Y-93347649D01*
X127885387Y-93472372D01*
X127864800Y-93586289D01*
X127846155Y-93688888D01*
X127829544Y-93779656D01*
X127815059Y-93858080D01*
X127802794Y-93923648D01*
X127792842Y-93975845D01*
X127785294Y-94014160D01*
X127780244Y-94038079D01*
X127777948Y-94046791D01*
X127755677Y-94082937D01*
X127725180Y-94113377D01*
X127691290Y-94133352D01*
X127689384Y-94134067D01*
X127679670Y-94135910D01*
X127660859Y-94137531D01*
X127632257Y-94138942D01*
X127593169Y-94140152D01*
X127542901Y-94141172D01*
X127480758Y-94142013D01*
X127406045Y-94142687D01*
X127318068Y-94143203D01*
X127216133Y-94143572D01*
X127099545Y-94143805D01*
X127055818Y-94143856D01*
X126447604Y-94144449D01*
X126412892Y-94126913D01*
X126375939Y-94100091D01*
X126349804Y-94063681D01*
X126338059Y-94028707D01*
X126338269Y-94021033D01*
X126340144Y-94004217D01*
X126343742Y-93977920D01*
X126349121Y-93941801D01*
X126356337Y-93895521D01*
X126365448Y-93838741D01*
X126376512Y-93771120D01*
X126389586Y-93692319D01*
X126404728Y-93601998D01*
X126421995Y-93499817D01*
X126441444Y-93385436D01*
X126463133Y-93258516D01*
X126487120Y-93118717D01*
X126513462Y-92965700D01*
X126542216Y-92799123D01*
X126573440Y-92618648D01*
X126607191Y-92423936D01*
X126643527Y-92214645D01*
X126682506Y-91990436D01*
X126693508Y-91927200D01*
X126733205Y-91699041D01*
X126770315Y-91485734D01*
X126804928Y-91286774D01*
X126837133Y-91101657D01*
X126867022Y-90929879D01*
X126894685Y-90770936D01*
X126920212Y-90624323D01*
X126943694Y-90489536D01*
X126965221Y-90366071D01*
X126984883Y-90253424D01*
X127002772Y-90151091D01*
X127018977Y-90058566D01*
X127033589Y-89975347D01*
X127046699Y-89900928D01*
X127058396Y-89834806D01*
X127068771Y-89776476D01*
X127077915Y-89725435D01*
X127085918Y-89681177D01*
X127092871Y-89643199D01*
X127098864Y-89610996D01*
X127103987Y-89584065D01*
X127108331Y-89561900D01*
X127111986Y-89543998D01*
X127115043Y-89529855D01*
X127117592Y-89518966D01*
X127119723Y-89510827D01*
X127121528Y-89504933D01*
X127123096Y-89500782D01*
X127124518Y-89497867D01*
X127125885Y-89495686D01*
X127127286Y-89493734D01*
X127128812Y-89491506D01*
X127130554Y-89488499D01*
X127131089Y-89487456D01*
X127149503Y-89456426D01*
X127172933Y-89428729D01*
X127203385Y-89402898D01*
X127242862Y-89377465D01*
X127293368Y-89350964D01*
X127356907Y-89321929D01*
X127357726Y-89321573D01*
X127598321Y-89224684D01*
X127839294Y-89143243D01*
X128081268Y-89077111D01*
X128324860Y-89026151D01*
X128570691Y-88990224D01*
X128819381Y-88969192D01*
X128963489Y-88963798D01*
X129152371Y-88963854D01*
G37*
G36*
X147166759Y-89093739D02*
G01*
X147252118Y-89094009D01*
X147334501Y-89094459D01*
X147412363Y-89095088D01*
X147484157Y-89095897D01*
X147548334Y-89096884D01*
X147603350Y-89098050D01*
X147647657Y-89099395D01*
X147679708Y-89100918D01*
X147697957Y-89102619D01*
X147699430Y-89102894D01*
X147740235Y-89118831D01*
X147772721Y-89145768D01*
X147794933Y-89180903D01*
X147804916Y-89221433D01*
X147803497Y-89252005D01*
X147801671Y-89262259D01*
X147797213Y-89287054D01*
X147790265Y-89325593D01*
X147780973Y-89377077D01*
X147769481Y-89440710D01*
X147755932Y-89515694D01*
X147740471Y-89601232D01*
X147723243Y-89696526D01*
X147704390Y-89800779D01*
X147684058Y-89913194D01*
X147662391Y-90032973D01*
X147639532Y-90159318D01*
X147615627Y-90291433D01*
X147590818Y-90428520D01*
X147565251Y-90569781D01*
X147557273Y-90613857D01*
X147531350Y-90757157D01*
X147506074Y-90897072D01*
X147481592Y-91032761D01*
X147458057Y-91163386D01*
X147435618Y-91288107D01*
X147414424Y-91406084D01*
X147394627Y-91516480D01*
X147376377Y-91618453D01*
X147359823Y-91711166D01*
X147345115Y-91793778D01*
X147332405Y-91865452D01*
X147321842Y-91925346D01*
X147313576Y-91972623D01*
X147307757Y-92006443D01*
X147304536Y-92025966D01*
X147304166Y-92028432D01*
X147299344Y-92070938D01*
X147295538Y-92121237D01*
X147293269Y-92171540D01*
X147292864Y-92197261D01*
X147298360Y-92301461D01*
X147315242Y-92395045D01*
X147343588Y-92478123D01*
X147383472Y-92550805D01*
X147434973Y-92613202D01*
X147498165Y-92665423D01*
X147573126Y-92707578D01*
X147659931Y-92739779D01*
X147671173Y-92742986D01*
X147694193Y-92748902D01*
X147716444Y-92753310D01*
X147740793Y-92756433D01*
X147770109Y-92758492D01*
X147807257Y-92759711D01*
X147855106Y-92760312D01*
X147896741Y-92760485D01*
X147955889Y-92760385D01*
X148002849Y-92759635D01*
X148041013Y-92758000D01*
X148073776Y-92755245D01*
X148104531Y-92751136D01*
X148136671Y-92745438D01*
X148148744Y-92743051D01*
X148207750Y-92729710D01*
X148267794Y-92713509D01*
X148326769Y-92695265D01*
X148382567Y-92675791D01*
X148433080Y-92655904D01*
X148476201Y-92636417D01*
X148509823Y-92618145D01*
X148531837Y-92601904D01*
X148539254Y-92592077D01*
X148541298Y-92582774D01*
X148545903Y-92558824D01*
X148552943Y-92520934D01*
X148562292Y-92469813D01*
X148573825Y-92406167D01*
X148587414Y-92330704D01*
X148602934Y-92244132D01*
X148620259Y-92147157D01*
X148639263Y-92040488D01*
X148659820Y-91924831D01*
X148681803Y-91800895D01*
X148705088Y-91669386D01*
X148729548Y-91531011D01*
X148755056Y-91386480D01*
X148781487Y-91236498D01*
X148808715Y-91081774D01*
X148836614Y-90923014D01*
X148839580Y-90906124D01*
X148867590Y-90746758D01*
X148894980Y-90591233D01*
X148921624Y-90440264D01*
X148947391Y-90294567D01*
X148972154Y-90154858D01*
X148995785Y-90021852D01*
X149018155Y-89896266D01*
X149039136Y-89778815D01*
X149058600Y-89670214D01*
X149076418Y-89571180D01*
X149092463Y-89482427D01*
X149106605Y-89404672D01*
X149118717Y-89338631D01*
X149128670Y-89285019D01*
X149136336Y-89244552D01*
X149141586Y-89217945D01*
X149144293Y-89205914D01*
X149144406Y-89205577D01*
X149164684Y-89164113D01*
X149192395Y-89133612D01*
X149220475Y-89115281D01*
X149252862Y-89097962D01*
X149849088Y-89095659D01*
X149964067Y-89095236D01*
X150064525Y-89094946D01*
X150151533Y-89094839D01*
X150226156Y-89094961D01*
X150289464Y-89095362D01*
X150342524Y-89096091D01*
X150386403Y-89097195D01*
X150422171Y-89098723D01*
X150450894Y-89100724D01*
X150473640Y-89103246D01*
X150491479Y-89106337D01*
X150505476Y-89110046D01*
X150516701Y-89114422D01*
X150526220Y-89119512D01*
X150535103Y-89125366D01*
X150537248Y-89126882D01*
X150560649Y-89151564D01*
X150578568Y-89185806D01*
X150588318Y-89223830D01*
X150589328Y-89238848D01*
X150588003Y-89248608D01*
X150584090Y-89272984D01*
X150577718Y-89311244D01*
X150569015Y-89362654D01*
X150558110Y-89426483D01*
X150545132Y-89501997D01*
X150530210Y-89588463D01*
X150513473Y-89685149D01*
X150495049Y-89791322D01*
X150475066Y-89906249D01*
X150453655Y-90029198D01*
X150430943Y-90159436D01*
X150407060Y-90296229D01*
X150382134Y-90438846D01*
X150356293Y-90586553D01*
X150329667Y-90738619D01*
X150302385Y-90894309D01*
X150274574Y-91052891D01*
X150246365Y-91213633D01*
X150217885Y-91375802D01*
X150189264Y-91538665D01*
X150160629Y-91701489D01*
X150132111Y-91863542D01*
X150103838Y-92024090D01*
X150075938Y-92182402D01*
X150048540Y-92337744D01*
X150021773Y-92489383D01*
X149995766Y-92636587D01*
X149970648Y-92778623D01*
X149946547Y-92914759D01*
X149923591Y-93044261D01*
X149901911Y-93166396D01*
X149881634Y-93280433D01*
X149862890Y-93385638D01*
X149845807Y-93481279D01*
X149830513Y-93566623D01*
X149817139Y-93640936D01*
X149805811Y-93703487D01*
X149796660Y-93753542D01*
X149789814Y-93790369D01*
X149786181Y-93809315D01*
X149735740Y-94042828D01*
X149679007Y-94262256D01*
X149615773Y-94467862D01*
X149545834Y-94659911D01*
X149468980Y-94838669D01*
X149385006Y-95004399D01*
X149293705Y-95157367D01*
X149194868Y-95297837D01*
X149088290Y-95426073D01*
X148973762Y-95542342D01*
X148851079Y-95646906D01*
X148720032Y-95740032D01*
X148580416Y-95821983D01*
X148432022Y-95893024D01*
X148274645Y-95953421D01*
X148108076Y-96003437D01*
X148060411Y-96015460D01*
X147919356Y-96045302D01*
X147766561Y-96069634D01*
X147604947Y-96088241D01*
X147437433Y-96100906D01*
X147266941Y-96107415D01*
X147096389Y-96107551D01*
X146928701Y-96101101D01*
X146912430Y-96100100D01*
X146704707Y-96080799D01*
X146507201Y-96049933D01*
X146319540Y-96007377D01*
X146141352Y-95953006D01*
X145972268Y-95886696D01*
X145811915Y-95808322D01*
X145659923Y-95717759D01*
X145553178Y-95643243D01*
X145491223Y-95595177D01*
X145442901Y-95553257D01*
X145407736Y-95517004D01*
X145385252Y-95485936D01*
X145376036Y-95464341D01*
X145372086Y-95421401D01*
X145380654Y-95375555D01*
X145400673Y-95331547D01*
X145408501Y-95319759D01*
X145427938Y-95293431D01*
X145454663Y-95258214D01*
X145487696Y-95215335D01*
X145526057Y-95166019D01*
X145568768Y-95111493D01*
X145614848Y-95052983D01*
X145663319Y-94991714D01*
X145713199Y-94928912D01*
X145763510Y-94865803D01*
X145813272Y-94803613D01*
X145861506Y-94743569D01*
X145907232Y-94686895D01*
X145949470Y-94634819D01*
X145987241Y-94588565D01*
X146019565Y-94549360D01*
X146045463Y-94518430D01*
X146063955Y-94497000D01*
X146074061Y-94486297D01*
X146075184Y-94485428D01*
X146103514Y-94475517D01*
X146141169Y-94471793D01*
X146142649Y-94471788D01*
X146168489Y-94473440D01*
X146194098Y-94479194D01*
X146222250Y-94490249D01*
X146255718Y-94507803D01*
X146297276Y-94533057D01*
X146323508Y-94549959D01*
X146394073Y-94591999D01*
X146475770Y-94633883D01*
X146564241Y-94673712D01*
X146655129Y-94709585D01*
X146744076Y-94739601D01*
X146786124Y-94751728D01*
X146855636Y-94768465D01*
X146934674Y-94784077D01*
X147017175Y-94797472D01*
X147096079Y-94807457D01*
X147151130Y-94811651D01*
X147215237Y-94813845D01*
X147284884Y-94814153D01*
X147356552Y-94812688D01*
X147426723Y-94809564D01*
X147491879Y-94804893D01*
X147548503Y-94798791D01*
X147592783Y-94791432D01*
X147697519Y-94764711D01*
X147789980Y-94731578D01*
X147872596Y-94690789D01*
X147947798Y-94641103D01*
X148018015Y-94581276D01*
X148033760Y-94565906D01*
X148099018Y-94492094D01*
X148156714Y-94408337D01*
X148207222Y-94313787D01*
X148250918Y-94207598D01*
X148288174Y-94088921D01*
X148319365Y-93956909D01*
X148331962Y-93890437D01*
X148336207Y-93866343D01*
X148221690Y-93899431D01*
X148033624Y-93947717D01*
X147851380Y-93982071D01*
X147673943Y-94002571D01*
X147500302Y-94009294D01*
X147329441Y-94002319D01*
X147160349Y-93981722D01*
X147156330Y-93981066D01*
X146997495Y-93947808D01*
X146847351Y-93901853D01*
X146706254Y-93843511D01*
X146574559Y-93773093D01*
X146452619Y-93690911D01*
X146340791Y-93597275D01*
X146239429Y-93492496D01*
X146148888Y-93376885D01*
X146069522Y-93250753D01*
X146001687Y-93114410D01*
X145945739Y-92968168D01*
X145925633Y-92903049D01*
X145898894Y-92801957D01*
X145878375Y-92704655D01*
X145863553Y-92607135D01*
X145853903Y-92505386D01*
X145848899Y-92395398D01*
X145847879Y-92309008D01*
X145848677Y-92217670D01*
X145851369Y-92136776D01*
X145856340Y-92061257D01*
X145863976Y-91986042D01*
X145874660Y-91906061D01*
X145882171Y-91856968D01*
X145885726Y-91835640D01*
X145891778Y-91800656D01*
X145900153Y-91752982D01*
X145910674Y-91693586D01*
X145923166Y-91623435D01*
X145937454Y-91543497D01*
X145953363Y-91454740D01*
X145970716Y-91358131D01*
X145989339Y-91254638D01*
X146009055Y-91145227D01*
X146029690Y-91030867D01*
X146051068Y-90912525D01*
X146073013Y-90791168D01*
X146095351Y-90667765D01*
X146117905Y-90543281D01*
X146140500Y-90418686D01*
X146162962Y-90294946D01*
X146185113Y-90173030D01*
X146206779Y-90053903D01*
X146227785Y-89938535D01*
X146247954Y-89827892D01*
X146267112Y-89722942D01*
X146285083Y-89624653D01*
X146301692Y-89533991D01*
X146316763Y-89451925D01*
X146330120Y-89379422D01*
X146341588Y-89317449D01*
X146350993Y-89266974D01*
X146358157Y-89228965D01*
X146362907Y-89204389D01*
X146365042Y-89194292D01*
X146381590Y-89162099D01*
X146409734Y-89133554D01*
X146445486Y-89112016D01*
X146473848Y-89102700D01*
X146489843Y-89100977D01*
X146519878Y-89099436D01*
X146562406Y-89098078D01*
X146615880Y-89096901D01*
X146678753Y-89095906D01*
X146749479Y-89095093D01*
X146826510Y-89094461D01*
X146908301Y-89094010D01*
X146993304Y-89093739D01*
X147079972Y-89093649D01*
X147166759Y-89093739D01*
G37*
D12*
%TO.C,KEY15*%
X61595000Y-144145000D02*
X61595000Y-130175000D01*
X75565000Y-144145000D02*
X61595000Y-144145000D01*
X75565000Y-130175000D02*
X75565000Y-144145000D01*
X61595000Y-130175000D02*
X75565000Y-130175000D01*
%TO.C,KEY5*%
X94615000Y-86995000D02*
X80645000Y-86995000D01*
X80645000Y-86995000D02*
X80645000Y-73025000D01*
X80645000Y-73025000D02*
X94615000Y-73025000D01*
X94615000Y-73025000D02*
X94615000Y-86995000D01*
%TO.C,KEY1*%
X99695000Y-53975000D02*
X113665000Y-53975000D01*
X99695000Y-67945000D02*
X99695000Y-53975000D01*
X113665000Y-67945000D02*
X99695000Y-67945000D01*
X113665000Y-53975000D02*
X113665000Y-67945000D01*
%TO.C,KEY4*%
X61595000Y-73025000D02*
X75565000Y-73025000D01*
X61595000Y-86995000D02*
X61595000Y-73025000D01*
X75565000Y-86995000D02*
X61595000Y-86995000D01*
X75565000Y-73025000D02*
X75565000Y-86995000D01*
%TO.C,KEY7*%
X99695000Y-92075000D02*
X113665000Y-92075000D01*
X99695000Y-106045000D02*
X99695000Y-92075000D01*
X113665000Y-106045000D02*
X99695000Y-106045000D01*
X113665000Y-92075000D02*
X113665000Y-106045000D01*
%TO.C,SW1*%
X148860000Y-68155000D02*
X150860000Y-68155000D01*
X152160000Y-63705000D02*
X152610000Y-64155000D01*
X152610000Y-66655000D02*
X152610000Y-64155000D01*
X147560000Y-63705000D02*
X147110000Y-64155000D01*
X152160000Y-67105000D02*
X152610000Y-66655000D01*
X148860000Y-62655000D02*
X150860000Y-62655000D01*
X147110000Y-66655000D02*
X147110000Y-64155000D01*
X147560000Y-67105000D02*
X147110000Y-66655000D01*
%TO.C,KEY9*%
X75565000Y-92075000D02*
X75565000Y-106045000D01*
X61595000Y-106045000D02*
X61595000Y-92075000D01*
X75565000Y-106045000D02*
X61595000Y-106045000D01*
X61595000Y-92075000D02*
X75565000Y-92075000D01*
%TO.C,KEY13*%
X113665000Y-144145000D02*
X99695000Y-144145000D01*
X99695000Y-130175000D02*
X113665000Y-130175000D01*
X113665000Y-130175000D02*
X113665000Y-144145000D01*
X99695000Y-144145000D02*
X99695000Y-130175000D01*
%TO.C,KEY10*%
X61595000Y-125095000D02*
X61595000Y-111125000D01*
X61595000Y-111125000D02*
X75565000Y-111125000D01*
X75565000Y-111125000D02*
X75565000Y-125095000D01*
X75565000Y-125095000D02*
X61595000Y-125095000D01*
%TO.C,KEY11*%
X80645000Y-111125000D02*
X94615000Y-111125000D01*
X80645000Y-125095000D02*
X80645000Y-111125000D01*
X94615000Y-111125000D02*
X94615000Y-125095000D01*
X94615000Y-125095000D02*
X80645000Y-125095000D01*
%TO.C,KEY2*%
X94615000Y-53975000D02*
X94615000Y-67945000D01*
X80645000Y-67945000D02*
X80645000Y-53975000D01*
X94615000Y-67945000D02*
X80645000Y-67945000D01*
X80645000Y-53975000D02*
X94615000Y-53975000D01*
%TO.C,KEY12*%
X99695000Y-111125000D02*
X113665000Y-111125000D01*
X113665000Y-125095000D02*
X99695000Y-125095000D01*
X113665000Y-111125000D02*
X113665000Y-125095000D01*
X99695000Y-125095000D02*
X99695000Y-111125000D01*
%TO.C,U1*%
X128168400Y-52832000D02*
X132715000Y-52832000D01*
X128168400Y-86410800D02*
X128168400Y-52832000D01*
X146100800Y-52832000D02*
X146100800Y-86410800D01*
X146100800Y-86410800D02*
X128168400Y-86410800D01*
X141605000Y-52832000D02*
X146100800Y-52832000D01*
X141605000Y-51816000D02*
X132715000Y-51816000D01*
X132715000Y-51816000D02*
X132715000Y-59563000D01*
X132715000Y-59563000D02*
X141605000Y-59563000D01*
X141605000Y-59563000D02*
X141605000Y-51816000D01*
%TO.C,KEY3*%
X75565000Y-67945000D02*
X61595000Y-67945000D01*
X75565000Y-53975000D02*
X75565000Y-67945000D01*
X61595000Y-67945000D02*
X61595000Y-53975000D01*
X61595000Y-53975000D02*
X75565000Y-53975000D01*
%TO.C,KEY14*%
X80645000Y-130175000D02*
X94615000Y-130175000D01*
X94615000Y-144145000D02*
X80645000Y-144145000D01*
X80645000Y-144145000D02*
X80645000Y-130175000D01*
X94615000Y-130175000D02*
X94615000Y-144145000D01*
%TO.C,OLED1*%
X116840000Y-104920000D02*
X116840000Y-138620000D01*
X116840000Y-138620000D02*
X152400000Y-138620000D01*
X152400000Y-104920000D02*
X116840000Y-104920000D01*
X152400000Y-138620000D02*
X152400000Y-104920000D01*
%TO.C,KEY8*%
X80645000Y-106045000D02*
X80645000Y-92075000D01*
X94615000Y-92075000D02*
X94615000Y-106045000D01*
X80645000Y-92075000D02*
X94615000Y-92075000D01*
X94615000Y-106045000D02*
X80645000Y-106045000D01*
%TO.C,KEY6*%
X99695000Y-73025000D02*
X113665000Y-73025000D01*
X113665000Y-86995000D02*
X99695000Y-86995000D01*
X99695000Y-86995000D02*
X99695000Y-73025000D01*
X113665000Y-73025000D02*
X113665000Y-86995000D01*
%TD*%
%LPC*%
D13*
%TO.C,KEY15*%
X68580000Y-137160000D03*
D14*
X63500000Y-137160000D03*
X73660000Y-137160000D03*
D15*
X71120000Y-132080000D03*
X64770000Y-134620000D03*
%TD*%
D16*
%TO.C,H6*%
X57150000Y-99060000D03*
%TD*%
D14*
%TO.C,KEY5*%
X82550000Y-80010000D03*
D13*
X87630000Y-80010000D03*
D14*
X92710000Y-80010000D03*
D15*
X90170000Y-74930000D03*
X83820000Y-77470000D03*
%TD*%
D13*
%TO.C,KEY1*%
X106680000Y-60960000D03*
D14*
X111760000Y-60960000D03*
X101600000Y-60960000D03*
D15*
X109220000Y-55880000D03*
X102870000Y-58420000D03*
%TD*%
D14*
%TO.C,KEY4*%
X63500000Y-80010000D03*
D13*
X68580000Y-80010000D03*
D14*
X73660000Y-80010000D03*
D15*
X71120000Y-74930000D03*
X64770000Y-77470000D03*
%TD*%
D13*
%TO.C,KEY7*%
X106680000Y-99060000D03*
D14*
X111760000Y-99060000D03*
X101600000Y-99060000D03*
D15*
X109220000Y-93980000D03*
X102870000Y-96520000D03*
%TD*%
D17*
%TO.C,SW1*%
X147960000Y-62255000D03*
X147960000Y-68555000D03*
X151760000Y-62255000D03*
X151760000Y-68555000D03*
%TD*%
D16*
%TO.C,H9*%
X57150000Y-143510000D03*
%TD*%
%TO.C,H7*%
X57150000Y-54610000D03*
%TD*%
D13*
%TO.C,KEY9*%
X68580000Y-99060000D03*
D14*
X63500000Y-99060000D03*
X73660000Y-99060000D03*
D15*
X71120000Y-93980000D03*
X64770000Y-96520000D03*
%TD*%
D14*
%TO.C,KEY13*%
X101600000Y-137160000D03*
D13*
X106680000Y-137160000D03*
D14*
X111760000Y-137160000D03*
D15*
X109220000Y-132080000D03*
X102870000Y-134620000D03*
%TD*%
D13*
%TO.C,KEY10*%
X68580000Y-118110000D03*
D14*
X63500000Y-118110000D03*
X73660000Y-118110000D03*
D15*
X71120000Y-113030000D03*
X64770000Y-115570000D03*
%TD*%
D16*
%TO.C,H8*%
X119380000Y-143510000D03*
%TD*%
%TO.C,H5*%
X149510000Y-99060000D03*
%TD*%
D14*
%TO.C,KEY11*%
X92710000Y-118110000D03*
X82550000Y-118110000D03*
D13*
X87630000Y-118110000D03*
D15*
X90170000Y-113030000D03*
X83820000Y-115570000D03*
%TD*%
D14*
%TO.C,KEY2*%
X82550000Y-60960000D03*
D13*
X87630000Y-60960000D03*
D14*
X92710000Y-60960000D03*
D15*
X90170000Y-55880000D03*
X83820000Y-58420000D03*
%TD*%
D14*
%TO.C,KEY12*%
X111760000Y-118110000D03*
X101600000Y-118110000D03*
D13*
X106680000Y-118110000D03*
D15*
X109220000Y-113030000D03*
X102870000Y-115570000D03*
%TD*%
D18*
%TO.C,U1*%
X129540000Y-59690000D03*
X129540000Y-57150000D03*
X129540000Y-67310000D03*
X129540000Y-69850000D03*
X129540000Y-72390000D03*
X129540000Y-74930000D03*
X129540000Y-77470000D03*
X129540000Y-80010000D03*
X129540000Y-82550000D03*
X129540000Y-85090000D03*
X144780000Y-85090000D03*
X144780000Y-80010000D03*
X144780000Y-77470000D03*
X144780000Y-82550000D03*
X144780000Y-74930000D03*
X144780000Y-72390000D03*
X144780000Y-69850000D03*
X144780000Y-67310000D03*
X129540000Y-62230000D03*
X129540000Y-64770000D03*
X144780000Y-57150000D03*
X144780000Y-59690000D03*
X144780000Y-62230000D03*
X144780000Y-64770000D03*
%TD*%
D16*
%TO.C,H10*%
X149510000Y-54610000D03*
%TD*%
D14*
%TO.C,KEY3*%
X63500000Y-60960000D03*
X73660000Y-60960000D03*
D13*
X68580000Y-60960000D03*
D15*
X71120000Y-55880000D03*
X64770000Y-58420000D03*
%TD*%
D14*
%TO.C,KEY14*%
X82550000Y-137160000D03*
X92710000Y-137160000D03*
D13*
X87630000Y-137160000D03*
D15*
X90170000Y-132080000D03*
X83820000Y-134620000D03*
%TD*%
D19*
%TO.C,OLED1*%
X119220000Y-136220000D03*
X150020000Y-107320000D03*
X119220000Y-107320000D03*
X150020000Y-136220000D03*
D18*
X130810000Y-106920000D03*
X133350000Y-106920000D03*
X135890000Y-106920000D03*
X138430000Y-106920000D03*
%TD*%
D16*
%TO.C,H12*%
X119380000Y-54610000D03*
%TD*%
D14*
%TO.C,KEY8*%
X82550000Y-99060000D03*
D13*
X87630000Y-99060000D03*
D14*
X92710000Y-99060000D03*
D15*
X90170000Y-93980000D03*
X83820000Y-96520000D03*
%TD*%
D16*
%TO.C,H11*%
X149510000Y-143510000D03*
%TD*%
D13*
%TO.C,KEY6*%
X106680000Y-80010000D03*
D14*
X111760000Y-80010000D03*
X101600000Y-80010000D03*
D15*
X109220000Y-74930000D03*
X102870000Y-77470000D03*
%TD*%
M02*
