M48
; DRILL file {KiCad (6.0.9)} date Sun Dec 25 13:58:51 2022
; FORMAT={-:-/ absolute / metric / decimal}
; #@! TF.CreationDate,2022-12-25T13:58:51+01:00
; #@! TF.GenerationSoftware,Kicad,Pcbnew,(6.0.9)
; #@! TF.FileFunction,Plated,1,2,PTH
FMAT,2
METRIC
; #@! TA.AperFunction,Plated,PTH,ViaDrill
T1C0.400
; #@! TA.AperFunction,Plated,PTH,ComponentDrill
T2C1.016
; #@! TA.AperFunction,Plated,PTH,ComponentDrill
T3C1.500
%
G90
G05
T1
X172.085Y-91.313
X172.085Y-129.413
X173.355Y-111.887
X191.135Y-91.313
X191.135Y-129.413
X192.405Y-111.887
X209.042Y-46.99
X210.185Y-91.313
X210.185Y-129.413
X211.455Y-111.887
X229.108Y-129.413
X229.235Y-91.313
X230.505Y-111.887
X244.856Y-75.692
X246.253Y-110.363
X246.253Y-129.413
X246.38Y-91.313
X248.285Y-89.408
X248.285Y-114.046
X248.285Y-127.508
T2
X167.165Y-40.875
X169.705Y-40.875
X172.245Y-40.875
X174.785Y-40.875
X203.995Y-40.875
X206.535Y-40.875
X209.075Y-40.875
X211.615Y-40.875
X227.965Y-43.434
X227.965Y-45.974
X227.965Y-48.514
X227.965Y-51.054
X227.965Y-53.594
X227.965Y-56.134
X227.965Y-58.674
X227.965Y-61.214
X227.965Y-63.754
X227.965Y-66.294
X227.965Y-68.834
X227.965Y-71.374
X243.205Y-43.434
X243.205Y-45.974
X243.205Y-48.514
X243.205Y-51.054
X243.205Y-53.594
X243.205Y-56.134
X243.205Y-58.674
X243.205Y-61.214
X243.205Y-63.754
X243.205Y-66.294
X243.205Y-68.834
X243.205Y-71.374
T3
X159.385Y-83.82
X159.385Y-102.87
X159.385Y-121.92
X165.735Y-81.28
X165.735Y-100.33
X165.735Y-119.38
X178.435Y-83.82
X178.435Y-102.87
X178.435Y-121.92
X184.785Y-81.28
X184.785Y-100.33
X184.785Y-119.38
X197.485Y-83.82
X197.485Y-102.87
X197.485Y-121.92
X203.835Y-81.28
X203.835Y-100.33
X203.835Y-119.38
X216.535Y-83.82
X216.535Y-102.87
X216.535Y-121.92
X222.885Y-81.28
X222.885Y-100.33
X222.885Y-119.38
X235.585Y-83.82
X235.585Y-102.87
X235.585Y-121.92
X241.935Y-81.28
X241.935Y-100.33
X241.935Y-119.38
T0
M30
