%TF.GenerationSoftware,KiCad,Pcbnew,(6.0.9)*%
%TF.CreationDate,2022-12-04T20:59:24+01:00*%
%TF.ProjectId,FireKey,46697265-4b65-4792-9e6b-696361645f70,0.1.1*%
%TF.SameCoordinates,Original*%
%TF.FileFunction,Soldermask,Top*%
%TF.FilePolarity,Negative*%
%FSLAX46Y46*%
G04 Gerber Fmt 4.6, Leading zero omitted, Abs format (unit mm)*
G04 Created by KiCad (PCBNEW (6.0.9)) date 2022-12-04 20:59:24*
%MOMM*%
%LPD*%
G01*
G04 APERTURE LIST*
%ADD10C,4.000000*%
%ADD11C,1.700000*%
%ADD12C,2.200000*%
%ADD13C,3.200000*%
%ADD14R,1.000000X1.700000*%
%ADD15C,1.778000*%
%ADD16C,2.700000*%
G04 APERTURE END LIST*
D10*
%TO.C,KEY15*%
X68580000Y-137160000D03*
D11*
X63500000Y-137160000D03*
X73660000Y-137160000D03*
D12*
X71120000Y-132080000D03*
X64770000Y-134620000D03*
%TD*%
D13*
%TO.C,H6*%
X57150000Y-99060000D03*
%TD*%
D11*
%TO.C,KEY5*%
X82550000Y-80010000D03*
D10*
X87630000Y-80010000D03*
D11*
X92710000Y-80010000D03*
D12*
X90170000Y-74930000D03*
X83820000Y-77470000D03*
%TD*%
D10*
%TO.C,KEY1*%
X106680000Y-60960000D03*
D11*
X111760000Y-60960000D03*
X101600000Y-60960000D03*
D12*
X109220000Y-55880000D03*
X102870000Y-58420000D03*
%TD*%
D11*
%TO.C,KEY4*%
X63500000Y-80010000D03*
D10*
X68580000Y-80010000D03*
D11*
X73660000Y-80010000D03*
D12*
X71120000Y-74930000D03*
X64770000Y-77470000D03*
%TD*%
D10*
%TO.C,KEY7*%
X106680000Y-99060000D03*
D11*
X111760000Y-99060000D03*
X101600000Y-99060000D03*
D12*
X109220000Y-93980000D03*
X102870000Y-96520000D03*
%TD*%
D14*
%TO.C,SW1*%
X147960000Y-62255000D03*
X147960000Y-68555000D03*
X151760000Y-62255000D03*
X151760000Y-68555000D03*
%TD*%
D13*
%TO.C,H9*%
X57150000Y-143510000D03*
%TD*%
%TO.C,H7*%
X57150000Y-54610000D03*
%TD*%
D10*
%TO.C,KEY9*%
X68580000Y-99060000D03*
D11*
X63500000Y-99060000D03*
X73660000Y-99060000D03*
D12*
X71120000Y-93980000D03*
X64770000Y-96520000D03*
%TD*%
D11*
%TO.C,KEY13*%
X101600000Y-137160000D03*
D10*
X106680000Y-137160000D03*
D11*
X111760000Y-137160000D03*
D12*
X109220000Y-132080000D03*
X102870000Y-134620000D03*
%TD*%
D10*
%TO.C,KEY10*%
X68580000Y-118110000D03*
D11*
X63500000Y-118110000D03*
X73660000Y-118110000D03*
D12*
X71120000Y-113030000D03*
X64770000Y-115570000D03*
%TD*%
D13*
%TO.C,H8*%
X119380000Y-143510000D03*
%TD*%
%TO.C,H5*%
X149510000Y-99060000D03*
%TD*%
D11*
%TO.C,KEY11*%
X92710000Y-118110000D03*
X82550000Y-118110000D03*
D10*
X87630000Y-118110000D03*
D12*
X90170000Y-113030000D03*
X83820000Y-115570000D03*
%TD*%
D11*
%TO.C,KEY2*%
X82550000Y-60960000D03*
D10*
X87630000Y-60960000D03*
D11*
X92710000Y-60960000D03*
D12*
X90170000Y-55880000D03*
X83820000Y-58420000D03*
%TD*%
D11*
%TO.C,KEY12*%
X111760000Y-118110000D03*
X101600000Y-118110000D03*
D10*
X106680000Y-118110000D03*
D12*
X109220000Y-113030000D03*
X102870000Y-115570000D03*
%TD*%
D15*
%TO.C,U1*%
X129540000Y-59690000D03*
X129540000Y-57150000D03*
X129540000Y-67310000D03*
X129540000Y-69850000D03*
X129540000Y-72390000D03*
X129540000Y-74930000D03*
X129540000Y-77470000D03*
X129540000Y-80010000D03*
X129540000Y-82550000D03*
X129540000Y-85090000D03*
X144780000Y-85090000D03*
X144780000Y-80010000D03*
X144780000Y-77470000D03*
X144780000Y-82550000D03*
X144780000Y-74930000D03*
X144780000Y-72390000D03*
X144780000Y-69850000D03*
X144780000Y-67310000D03*
X129540000Y-62230000D03*
X129540000Y-64770000D03*
X144780000Y-57150000D03*
X144780000Y-59690000D03*
X144780000Y-62230000D03*
X144780000Y-64770000D03*
%TD*%
D13*
%TO.C,H10*%
X149510000Y-54610000D03*
%TD*%
D11*
%TO.C,KEY3*%
X63500000Y-60960000D03*
X73660000Y-60960000D03*
D10*
X68580000Y-60960000D03*
D12*
X71120000Y-55880000D03*
X64770000Y-58420000D03*
%TD*%
D11*
%TO.C,KEY14*%
X82550000Y-137160000D03*
X92710000Y-137160000D03*
D10*
X87630000Y-137160000D03*
D12*
X90170000Y-132080000D03*
X83820000Y-134620000D03*
%TD*%
D16*
%TO.C,OLED1*%
X119220000Y-136220000D03*
X150020000Y-107320000D03*
X119220000Y-107320000D03*
X150020000Y-136220000D03*
D15*
X130810000Y-106920000D03*
X133350000Y-106920000D03*
X135890000Y-106920000D03*
X138430000Y-106920000D03*
%TD*%
D13*
%TO.C,H12*%
X119380000Y-54610000D03*
%TD*%
D11*
%TO.C,KEY8*%
X82550000Y-99060000D03*
D10*
X87630000Y-99060000D03*
D11*
X92710000Y-99060000D03*
D12*
X90170000Y-93980000D03*
X83820000Y-96520000D03*
%TD*%
D13*
%TO.C,H11*%
X149510000Y-143510000D03*
%TD*%
D10*
%TO.C,KEY6*%
X106680000Y-80010000D03*
D11*
X111760000Y-80010000D03*
X101600000Y-80010000D03*
D12*
X109220000Y-74930000D03*
X102870000Y-77470000D03*
%TD*%
M02*
