%TF.GenerationSoftware,KiCad,Pcbnew,(6.0.9)*%
%TF.CreationDate,2022-12-08T18:09:04+01:00*%
%TF.ProjectId,FireKey,46697265-4b65-4792-9e6b-696361645f70,0.1.2*%
%TF.SameCoordinates,Original*%
%TF.FileFunction,Profile,NP*%
%FSLAX46Y46*%
G04 Gerber Fmt 4.6, Leading zero omitted, Abs format (unit mm)*
G04 Created by KiCad (PCBNEW (6.0.9)) date 2022-12-08 18:09:04*
%MOMM*%
%LPD*%
G01*
G04 APERTURE LIST*
%TA.AperFunction,Profile*%
%ADD10C,0.200000*%
%TD*%
%TA.AperFunction,Profile*%
%ADD11C,0.120000*%
%TD*%
G04 APERTURE END LIST*
D10*
X53340000Y-144320000D02*
G75*
G03*
X56340000Y-147320000I3000000J0D01*
G01*
X56340000Y-50800000D02*
X150320000Y-50800000D01*
X153320000Y-144320000D02*
X153320000Y-53800000D01*
X153320000Y-53800000D02*
G75*
G03*
X150320000Y-50800000I-3000000J0D01*
G01*
X150320000Y-147320000D02*
G75*
G03*
X153320000Y-144320000I0J3000000D01*
G01*
X150320000Y-147320000D02*
X56340000Y-147320000D01*
X56340000Y-50800000D02*
G75*
G03*
X53340000Y-53800000I0J-3000000D01*
G01*
X53340000Y-53800000D02*
X53340000Y-144320000D01*
D11*
%TO.C,LED2*%
X85830000Y-68275000D02*
X89430000Y-68275000D01*
X89430000Y-68275000D02*
X89430000Y-65075000D01*
X89430000Y-65075000D02*
X85830000Y-65075000D01*
X85830000Y-65075000D02*
X85830000Y-68275000D01*
G36*
X85830000Y-68275000D02*
G01*
X89430000Y-68275000D01*
X89430000Y-65075000D01*
X85830000Y-65075000D01*
X85830000Y-68275000D01*
G37*
%TO.C,LED4*%
X70380000Y-84125000D02*
X66780000Y-84125000D01*
X66780000Y-84125000D02*
X66780000Y-87325000D01*
X66780000Y-87325000D02*
X70380000Y-87325000D01*
X70380000Y-87325000D02*
X70380000Y-84125000D01*
G36*
X70380000Y-84125000D02*
G01*
X66780000Y-84125000D01*
X66780000Y-87325000D01*
X70380000Y-87325000D01*
X70380000Y-84125000D01*
G37*
%TO.C,LED14*%
X85830000Y-144475000D02*
X89430000Y-144475000D01*
X89430000Y-144475000D02*
X89430000Y-141275000D01*
X89430000Y-141275000D02*
X85830000Y-141275000D01*
X85830000Y-141275000D02*
X85830000Y-144475000D01*
G36*
X85830000Y-144475000D02*
G01*
X89430000Y-144475000D01*
X89430000Y-141275000D01*
X85830000Y-141275000D01*
X85830000Y-144475000D01*
G37*
%TO.C,LED8*%
X85830000Y-106375000D02*
X89430000Y-106375000D01*
X89430000Y-106375000D02*
X89430000Y-103175000D01*
X89430000Y-103175000D02*
X85830000Y-103175000D01*
X85830000Y-103175000D02*
X85830000Y-106375000D01*
G36*
X85830000Y-106375000D02*
G01*
X89430000Y-106375000D01*
X89430000Y-103175000D01*
X85830000Y-103175000D01*
X85830000Y-106375000D01*
G37*
%TO.C,LED13*%
X104880000Y-144475000D02*
X108480000Y-144475000D01*
X108480000Y-144475000D02*
X108480000Y-141275000D01*
X108480000Y-141275000D02*
X104880000Y-141275000D01*
X104880000Y-141275000D02*
X104880000Y-144475000D01*
G36*
X104880000Y-144475000D02*
G01*
X108480000Y-144475000D01*
X108480000Y-141275000D01*
X104880000Y-141275000D01*
X104880000Y-144475000D01*
G37*
%TO.C,LED7*%
X104880000Y-106375000D02*
X108480000Y-106375000D01*
X108480000Y-106375000D02*
X108480000Y-103175000D01*
X108480000Y-103175000D02*
X104880000Y-103175000D01*
X104880000Y-103175000D02*
X104880000Y-106375000D01*
G36*
X104880000Y-106375000D02*
G01*
X108480000Y-106375000D01*
X108480000Y-103175000D01*
X104880000Y-103175000D01*
X104880000Y-106375000D01*
G37*
%TO.C,LED11*%
X89430000Y-122225000D02*
X85830000Y-122225000D01*
X85830000Y-122225000D02*
X85830000Y-125425000D01*
X85830000Y-125425000D02*
X89430000Y-125425000D01*
X89430000Y-125425000D02*
X89430000Y-122225000D01*
G36*
X89430000Y-122225000D02*
G01*
X85830000Y-122225000D01*
X85830000Y-125425000D01*
X89430000Y-125425000D01*
X89430000Y-122225000D01*
G37*
%TO.C,LED12*%
X108480000Y-122225000D02*
X104880000Y-122225000D01*
X104880000Y-122225000D02*
X104880000Y-125425000D01*
X104880000Y-125425000D02*
X108480000Y-125425000D01*
X108480000Y-125425000D02*
X108480000Y-122225000D01*
G36*
X108480000Y-122225000D02*
G01*
X104880000Y-122225000D01*
X104880000Y-125425000D01*
X108480000Y-125425000D01*
X108480000Y-122225000D01*
G37*
%TO.C,LED15*%
X66780000Y-144475000D02*
X70380000Y-144475000D01*
X70380000Y-144475000D02*
X70380000Y-141275000D01*
X70380000Y-141275000D02*
X66780000Y-141275000D01*
X66780000Y-141275000D02*
X66780000Y-144475000D01*
G36*
X66780000Y-144475000D02*
G01*
X70380000Y-144475000D01*
X70380000Y-141275000D01*
X66780000Y-141275000D01*
X66780000Y-144475000D01*
G37*
%TO.C,LED10*%
X70380000Y-122225000D02*
X66780000Y-122225000D01*
X66780000Y-122225000D02*
X66780000Y-125425000D01*
X66780000Y-125425000D02*
X70380000Y-125425000D01*
X70380000Y-125425000D02*
X70380000Y-122225000D01*
G36*
X70380000Y-122225000D02*
G01*
X66780000Y-122225000D01*
X66780000Y-125425000D01*
X70380000Y-125425000D01*
X70380000Y-122225000D01*
G37*
%TO.C,LED3*%
X66780000Y-68275000D02*
X70380000Y-68275000D01*
X70380000Y-68275000D02*
X70380000Y-65075000D01*
X70380000Y-65075000D02*
X66780000Y-65075000D01*
X66780000Y-65075000D02*
X66780000Y-68275000D01*
G36*
X66780000Y-68275000D02*
G01*
X70380000Y-68275000D01*
X70380000Y-65075000D01*
X66780000Y-65075000D01*
X66780000Y-68275000D01*
G37*
%TO.C,LED1*%
X104880000Y-68275000D02*
X108480000Y-68275000D01*
X108480000Y-68275000D02*
X108480000Y-65075000D01*
X108480000Y-65075000D02*
X104880000Y-65075000D01*
X104880000Y-65075000D02*
X104880000Y-68275000D01*
G36*
X104880000Y-68275000D02*
G01*
X108480000Y-68275000D01*
X108480000Y-65075000D01*
X104880000Y-65075000D01*
X104880000Y-68275000D01*
G37*
%TO.C,LED6*%
X108480000Y-84125000D02*
X104880000Y-84125000D01*
X104880000Y-84125000D02*
X104880000Y-87325000D01*
X104880000Y-87325000D02*
X108480000Y-87325000D01*
X108480000Y-87325000D02*
X108480000Y-84125000D01*
G36*
X108480000Y-84125000D02*
G01*
X104880000Y-84125000D01*
X104880000Y-87325000D01*
X108480000Y-87325000D01*
X108480000Y-84125000D01*
G37*
%TO.C,LED9*%
X66780000Y-106375000D02*
X70380000Y-106375000D01*
X70380000Y-106375000D02*
X70380000Y-103175000D01*
X70380000Y-103175000D02*
X66780000Y-103175000D01*
X66780000Y-103175000D02*
X66780000Y-106375000D01*
G36*
X66780000Y-106375000D02*
G01*
X70380000Y-106375000D01*
X70380000Y-103175000D01*
X66780000Y-103175000D01*
X66780000Y-106375000D01*
G37*
%TO.C,LED5*%
X89430000Y-84125000D02*
X85830000Y-84125000D01*
X85830000Y-84125000D02*
X85830000Y-87325000D01*
X85830000Y-87325000D02*
X89430000Y-87325000D01*
X89430000Y-87325000D02*
X89430000Y-84125000D01*
G36*
X89430000Y-84125000D02*
G01*
X85830000Y-84125000D01*
X85830000Y-87325000D01*
X89430000Y-87325000D01*
X89430000Y-84125000D01*
G37*
%TD*%
M02*
